<svg width="74" height="74" viewBox="0 0 74 74" fill="none" xmlns="http://www.w3.org/2000/svg">
<g id="Group 154">
<circle id="Ellipse 1" opacity="0.05" cx="37" cy="37" r="37" fill="white"/>
<g id="g3345">
<g id="g3347">
<g id="Clip path group">
<mask id="mask0_38_1284" style="mask-type:luminance" maskUnits="userSpaceOnUse" x="17" y="15" width="40" height="40">
<g id="clipPath3353">
<path id="path3351" d="M17 15H57V55H17V15Z" fill="white"/>
</g>
</mask>
<g mask="url(#mask0_38_1284)">
<g id="g3349">
<g id="g3355">
<path id="path3357" d="M33.4844 46.2241C32.1855 46.2241 30.9543 46.804 30.1272 47.8056L26.2707 52.4751C25.3601 53.5776 24.0048 54.2161 22.5749 54.2161H22.5748C19.7968 54.2161 17.6006 51.862 17.793 49.0907L19.0562 30.9005C19.264 27.9084 21.7518 25.5874 24.7511 25.5874C26.0884 25.5874 27.3832 26.0568 28.4097 26.914L31.9105 29.8367H37.0101" stroke="white" stroke-width="1.5" stroke-miterlimit="10" stroke-linecap="round" stroke-linejoin="round"/>
</g>
<g id="g3359">
<path id="path3361" d="M36.9907 29.8362H42.0903L45.591 26.9134C46.6176 26.0564 47.9124 25.5869 49.2497 25.5869C52.249 25.5869 54.7368 27.9079 54.9446 30.9L56.2078 49.0901C56.4003 51.8615 54.204 54.2156 51.426 54.2156C49.996 54.2156 48.6407 53.5771 47.7302 52.4746L43.8736 47.805C43.0465 46.8035 41.8153 46.2236 40.5164 46.2236" stroke="white" stroke-width="1.5" stroke-miterlimit="10" stroke-linecap="round" stroke-linejoin="round"/>
</g>
<g id="g3363">
<path id="path3365" d="M37.0093 29.3784V25.98C37.0093 24.1031 38.5308 22.5815 40.4077 22.5815H42.2728C44.1497 22.5815 45.6712 21.06 45.6712 19.1831C45.6712 17.3062 44.1497 15.7847 42.2728 15.7847H37.0093" stroke="white" stroke-width="1.5" stroke-miterlimit="10" stroke-linecap="round" stroke-linejoin="round"/>
</g>
<g id="g3367">
<path id="path3369" d="M31.583 36.0874H29.708V34.2124C29.708 33.3494 29.0085 32.6499 28.1455 32.6499C27.2825 32.6499 26.583 33.3494 26.583 34.2124V36.0874H24.708C23.845 36.0874 23.1455 36.7869 23.1455 37.6499C23.1455 38.5129 23.845 39.2124 24.708 39.2124H26.583V41.0874C26.583 41.9504 27.2825 42.6499 28.1455 42.6499C29.0085 42.6499 29.708 41.9504 29.708 41.0874V39.2124H31.583C32.446 39.2124 33.1455 38.5129 33.1455 37.6499C33.1455 36.7869 32.446 36.0874 31.583 36.0874Z" stroke="white" stroke-width="1.5" stroke-miterlimit="10" stroke-linecap="round" stroke-linejoin="round"/>
</g>
<g id="g3371">
<path id="path3373" d="M45.0047 38.4462C45.7001 39.1416 45.7001 40.2691 45.0047 40.9645C44.3094 41.6599 43.1819 41.6599 42.4864 40.9645C41.791 40.2691 41.791 39.1416 42.4864 38.4462C43.1819 37.7508 44.3094 37.7508 45.0047 38.4462Z" stroke="white" stroke-width="1.5" stroke-miterlimit="10" stroke-linecap="round" stroke-linejoin="round"/>
</g>
<g id="g3375">
<path id="path3377" d="M50.0423 33.4098C50.7377 34.1052 50.7377 35.2327 50.0423 35.9282C49.347 36.6236 48.2195 36.6236 47.524 35.9282C46.8286 35.2327 46.8286 34.1052 47.524 33.4098C48.2195 32.7144 49.347 32.7144 50.0423 33.4098Z" stroke="white" stroke-width="1.5" stroke-miterlimit="10" stroke-linecap="round" stroke-linejoin="round"/>
</g>
</g>
</g>
</g>
</g>
</g>
</g>
</svg>
