<svg width="40" height="40" viewBox="0 0 40 40" fill="none" xmlns="http://www.w3.org/2000/svg">
<g id="gaming 1">
<g id="Group">
<g id="Group_2">
<path id="Vector" d="M37.2553 4.8872H15.6957C15.3701 4.8872 15.1063 5.15103 15.1063 5.47658C15.1063 5.80213 15.3701 6.06595 15.6957 6.06595H37.2553C38.1188 6.06595 38.8213 6.76853 38.8213 7.63197V21.8625H36.6166C36.2911 21.8625 36.0273 22.1264 36.0273 22.4519C36.0273 22.7775 36.2911 23.0413 36.6166 23.0413H38.8213V26.9379C38.8213 27.8015 38.1187 28.504 37.2553 28.504H25.6161H19.0835H13.9899V23.0414H34.3075C34.633 23.0414 34.8969 22.7775 34.8969 22.452C34.8969 22.1265 34.633 21.8626 34.3075 21.8626H13.9898V20V4.24025C13.9898 3.36696 13.2792 2.65649 12.406 2.65649H11.3929H2.59688H1.58383C0.710548 2.65657 0 3.36704 0 4.24025V20V35.1037V35.7596C0 36.6329 0.710548 37.3434 1.58383 37.3434H12.406C13.2792 37.3434 13.9898 36.6329 13.9898 35.7596V35.1037V29.6828H18.494V33.7777H17.4835C16.4827 33.7777 15.6685 34.5919 15.6685 35.5927V36.754C15.6685 37.0795 15.9323 37.3434 16.2578 37.3434H28.4415C28.7671 37.3434 29.0309 37.0795 29.0309 36.754V35.5927C29.0309 34.5919 28.2168 33.7777 27.216 33.7777H26.2054V32.2748C26.2054 31.9492 25.9415 31.6854 25.616 31.6854C25.2904 31.6854 25.0266 31.9492 25.0266 32.2748V33.7777H19.6727V29.6828H25.0266V30.0155C25.0266 30.3411 25.2904 30.6049 25.616 30.6049C25.9415 30.6049 26.2054 30.3411 26.2054 30.0155V29.6828H37.2552C38.7687 29.6828 40 28.4515 40 26.938V7.63197C40.0001 6.11853 38.7687 4.8872 37.2553 4.8872ZM10.107 3.83532L9.58541 4.4404C9.45463 4.5922 9.26471 4.67923 9.06431 4.67923H4.87118C4.66548 4.67923 4.47212 4.58829 4.34102 4.42986L3.8493 3.83532H10.107ZM12.811 35.7595C12.8111 35.9829 12.6294 36.1646 12.406 36.1646H1.58383C1.36047 36.1646 1.17875 35.9829 1.17875 35.7596V35.3252L4.6472 31.3584C4.91329 31.0539 5.02478 30.6355 4.9454 30.2394L4.30665 26.9531C4.2429 26.634 3.93243 26.4269 3.61313 26.4908C3.29399 26.5546 3.08696 26.8651 3.15079 27.1843L3.78962 30.4706C3.79751 30.5102 3.78634 30.5521 3.7597 30.5826L1.17875 33.5344V21.6799L2.29586 23.0762C2.30883 23.0924 2.3179 23.1118 2.32196 23.1323L2.60188 24.5321C2.66571 24.8512 2.97626 25.0588 3.2954 24.9944C3.61454 24.9306 3.82157 24.6201 3.75774 24.3009L3.47782 22.9013C3.43696 22.6967 3.34649 22.5025 3.21618 22.3397L1.17867 19.7932V4.24025C1.17867 4.01697 1.36039 3.83525 1.58375 3.83525H2.31946L3.43282 5.18119C3.78868 5.61127 4.3129 5.85799 4.87118 5.85799H9.06439C9.60807 5.85799 10.1235 5.62181 10.4784 5.21002L11.6631 3.83532H12.406C12.6293 3.83532 12.811 4.01704 12.811 4.24033V19.7932L10.7736 22.3397C10.6432 22.5025 10.5528 22.6968 10.5119 22.9011L9.04431 30.2392C8.96502 30.6355 9.0765 31.0538 9.3426 31.3583L12.811 35.325V35.7595ZM12.8111 33.5344L10.2303 30.5827C10.2035 30.5522 10.1924 30.5103 10.2003 30.4707C10.2003 30.4706 10.2003 30.4706 10.2003 30.4705L11.6679 23.1323C11.672 23.112 11.681 23.0926 11.6941 23.0763L12.8111 21.68V33.5344ZM25.6161 34.9563H27.2161C27.5669 34.9563 27.8522 35.2417 27.8522 35.5926V36.1645H16.8473V35.5926C16.8473 35.2417 17.1327 34.9563 17.4836 34.9563H19.0835H25.6161Z" fill="white"/>
</g>
</g>
<g id="Group_3">
<g id="Group_4">
<path id="Vector_2" d="M36.4292 26.2698C36.7547 26.2698 37.0186 26.0059 37.0186 25.6804C37.0186 25.3549 36.7547 25.0911 36.4292 25.0911C36.1037 25.0911 35.8398 25.3549 35.8398 25.6804C35.8398 26.0059 36.1037 26.2698 36.4292 26.2698Z" fill="white"/>
</g>
</g>
<g id="Group_5">
<g id="Group_6">
<path id="Vector_3" d="M34.3072 26.2698C34.6327 26.2698 34.8965 26.0059 34.8965 25.6804C34.8965 25.3549 34.6327 25.0911 34.3072 25.0911C33.9816 25.0911 33.7178 25.3549 33.7178 25.6804C33.7178 26.0059 33.9816 26.2698 34.3072 26.2698Z" fill="white"/>
</g>
</g>
<g id="Group_7">
<g id="Group_8">
<path id="Vector_4" d="M32.2119 26.2698C32.5374 26.2698 32.8013 26.0059 32.8013 25.6804C32.8013 25.3549 32.5374 25.0911 32.2119 25.0911C31.8864 25.0911 31.6226 25.3549 31.6226 25.6804C31.6226 26.0059 31.8864 26.2698 32.2119 26.2698Z" fill="white"/>
</g>
</g>
<g id="Group_9">
<g id="Group_10">
<path id="Vector_5" d="M22.3498 23.8088C21.3902 23.8088 20.6094 24.5896 20.6094 25.5493C20.6094 26.509 21.3902 27.2898 22.3498 27.2898C23.3095 27.2898 24.0903 26.509 24.0903 25.5493C24.0903 24.5896 23.3095 23.8088 22.3498 23.8088ZM22.3498 26.111C22.0402 26.111 21.7881 25.859 21.7881 25.5493C21.7881 25.2396 22.0402 24.9876 22.3498 24.9876C22.6595 24.9876 22.9116 25.2396 22.9116 25.5493C22.9116 25.859 22.6595 26.111 22.3498 26.111Z" fill="white"/>
</g>
</g>
<g id="Group_11">
<g id="Group_12">
<path id="Vector_6" d="M5.63573 33.8596H4.24416C3.91861 33.8596 3.65479 34.1234 3.65479 34.449C3.65479 34.7745 3.91861 35.0384 4.24416 35.0384H5.63573C5.96127 35.0384 6.2251 34.7745 6.2251 34.449C6.2251 34.1234 5.9612 33.8596 5.63573 33.8596Z" fill="white"/>
</g>
</g>
<g id="Group_13">
<g id="Group_14">
<path id="Vector_7" d="M9.29002 33.8596H7.89846C7.57291 33.8596 7.30908 34.1234 7.30908 34.449C7.30908 34.7745 7.57291 35.0384 7.89846 35.0384H9.29002C9.61557 35.0384 9.8794 34.7745 9.8794 34.449C9.8794 34.1234 9.61557 33.8596 9.29002 33.8596Z" fill="white"/>
</g>
</g>
<g id="Group_15">
<g id="Group_16">
<path id="Vector_8" d="M6.84063 19.8193C5.65985 19.8193 4.69922 20.78 4.69922 21.9607C4.69922 23.1415 5.65985 24.1022 6.84063 24.1022C8.02141 24.1022 8.98204 23.1415 8.98204 21.9607C8.98204 20.78 8.02141 19.8193 6.84063 19.8193ZM6.84063 22.9234C6.30985 22.9234 5.87797 22.4916 5.87797 21.9607C5.87797 21.4299 6.30977 20.9981 6.84063 20.9981C7.37141 20.9981 7.80329 21.4299 7.80329 21.9607C7.80329 22.4916 7.37149 22.9234 6.84063 22.9234Z" fill="white"/>
</g>
</g>
<g id="Group_17">
<g id="Group_18">
<path id="Vector_9" d="M10.9583 6.7749H3.03203C2.46719 6.7749 2.00781 7.23436 2.00781 7.79912V8.96678C2.00773 9.53155 2.46719 9.991 3.03203 9.991H10.9583C11.5231 9.991 11.9825 9.53155 11.9825 8.96686V7.79912C11.9825 7.23428 11.5231 6.7749 10.9583 6.7749ZM10.8038 8.81233H3.18649V7.95365H10.8038V8.81233Z" fill="white"/>
</g>
</g>
<g id="Group_19">
<g id="Group_20">
<path id="Vector_10" d="M10.9583 11.0264H3.03203C2.46719 11.0264 2.00781 11.4858 2.00781 12.0506V13.2182C2.00781 13.783 2.46727 14.2424 3.03203 14.2424H10.9583C11.5231 14.2425 11.9825 13.783 11.9825 13.2182V12.0506C11.9825 11.4857 11.5231 11.0264 10.9583 11.0264ZM10.8038 13.0637H3.18649V12.205H10.8038V13.0637Z" fill="white"/>
</g>
</g>
</g>
</svg>
