<svg width="74" height="74" viewBox="0 0 74 74" fill="none" xmlns="http://www.w3.org/2000/svg">
<g id="Group 154">
<circle id="Ellipse 1" opacity="0.05" cx="37" cy="37" r="37" fill="white"/>
<g id="g513">
<g id="g515">
<g id="Clip path group">
<mask id="mask0_38_1234" style="mask-type:luminance" maskUnits="userSpaceOnUse" x="16" y="16" width="41" height="41">
<g id="clipPath521">
<path id="path519" d="M16 16H57V57H16V16Z" fill="white"/>
</g>
</mask>
<g mask="url(#mask0_38_1234)">
<g id="g517">
<g id="g523">
<path id="path525" d="M43.4196 34.5861H54.456C55.4187 34.5861 56.199 35.3665 56.199 36.3291V54.4562C56.199 55.4189 55.4187 56.1992 54.456 56.1992H36.3289C35.3663 56.1992 34.5859 55.4189 34.5859 54.4562V43.4198" stroke="white" stroke-width="1.5" stroke-miterlimit="10" stroke-linecap="round" stroke-linejoin="round"/>
</g>
<g id="g527">
<path id="path529" d="M47.5541 45.3926C47.5541 44.199 46.5864 43.2313 45.3928 43.2313C44.1991 43.2313 43.2314 44.199 43.2314 45.3926C43.2314 46.5863 44.1991 47.554 45.3928 47.554C46.5864 47.554 47.5541 46.5863 47.5541 45.3926Z" stroke="white" stroke-width="1.5" stroke-miterlimit="10" stroke-linecap="round" stroke-linejoin="round"/>
</g>
<g id="g531">
<path id="path533" d="M26.2683 21.1721L30.1291 17.3113C30.8098 16.6306 31.9134 16.6306 32.594 17.3113L45.4119 30.1291C46.0926 30.8098 46.0926 31.9134 45.4119 32.5941L32.594 45.4119C31.9134 46.0925 30.8098 46.0925 30.1291 45.4119L17.3113 32.5941C16.6306 31.9134 16.6306 30.8098 17.3113 30.1291L21.1721 26.2683" stroke="white" stroke-width="1.5" stroke-miterlimit="10" stroke-linecap="round" stroke-linejoin="round"/>
</g>
<g id="g535">
<path id="path537" d="M26.7765 32.8899C27.6205 32.0459 27.6205 30.6775 26.7765 29.8333C25.9325 28.9893 24.564 28.9893 23.7199 29.8333C22.8759 30.6775 22.8759 32.0459 23.7199 32.8899C24.564 33.734 25.9325 33.734 26.7765 32.8899Z" stroke="white" stroke-width="1.5" stroke-miterlimit="10" stroke-linecap="round" stroke-linejoin="round"/>
</g>
<g id="g539">
<path id="path541" d="M32.8898 26.7769C33.7338 25.9329 33.7338 24.5644 32.8898 23.7203C32.0458 22.8763 30.6773 22.8763 29.8332 23.7203C28.9892 24.5644 28.9892 25.9329 29.8332 26.7769C30.6773 27.6209 32.0458 27.6209 32.8898 26.7769Z" stroke="white" stroke-width="1.5" stroke-miterlimit="10" stroke-linecap="round" stroke-linejoin="round"/>
</g>
<g id="g543">
<path id="path545" d="M32.8898 39.003C33.7338 38.1589 33.7338 36.7905 32.8898 35.9464C32.0458 35.1024 30.6773 35.1024 29.8332 35.9464C28.9892 36.7905 28.9892 38.1589 29.8332 39.003C30.6773 39.847 32.0458 39.847 32.8898 39.003Z" stroke="white" stroke-width="1.5" stroke-miterlimit="10" stroke-linecap="round" stroke-linejoin="round"/>
</g>
<g id="g547">
<path id="path549" d="M39.0031 32.8899C39.8471 32.0459 39.8471 30.6775 39.0031 29.8333C38.1591 28.9893 36.7906 28.9893 35.9465 29.8333C35.1025 30.6775 35.1025 32.0459 35.9465 32.8899C36.7906 33.734 38.1591 33.734 39.0031 32.8899Z" stroke="white" stroke-width="1.5" stroke-miterlimit="10" stroke-linecap="round" stroke-linejoin="round"/>
</g>
</g>
</g>
</g>
</g>
</g>
</g>
</svg>
