<svg width="40" height="40" viewBox="0 0 40 40" fill="none" xmlns="http://www.w3.org/2000/svg">
<g id="games 1" clip-path="url(#clip0_38_1445)">
<g id="Group">
<path id="Vector" d="M39.7835 30.9126C39.7564 30.7428 39.7191 30.5687 39.6695 30.3802L37.3088 21.4398C37.1095 20.6855 36.736 19.9738 36.2285 19.3813C35.9776 19.0884 35.7704 18.7613 35.613 18.4091L31.8419 9.9775C31.62 9.48164 31.2196 9.09852 30.723 8.89727V1.89484C30.723 1.17102 30.1341 0.582109 29.4102 0.582109H25.9205C25.5904 0.582109 25.3228 0.849609 25.3228 1.17977C25.3228 1.50992 25.5903 1.77742 25.9205 1.77742H29.4102C29.4751 1.77742 29.5277 1.83008 29.5277 1.89492V24.9555C29.5173 24.9559 29.5072 24.9571 29.4967 24.9571H29.4934C29.117 24.9537 28.7679 24.7817 28.5356 24.4855C27.9258 23.7074 27.0216 22.5513 27.0214 22.551C26.3911 21.7391 25.4069 21.253 24.3947 21.2509C24.3809 21.2507 24.3672 21.2506 24.3534 21.2506C23.6014 21.2506 22.8631 21.5047 22.2702 21.9684C21.6409 22.4605 21.5294 23.3729 22.0214 24.0022L25.8083 28.8443C25.9344 29.0055 26.0013 29.2093 26.0019 29.4336C26.0066 31.202 27.2156 32.7041 28.9423 33.0866L29.5278 33.2163V34.3869C29.5278 34.4517 29.4752 34.5044 29.4103 34.5044H10.5913C10.5265 34.5044 10.4738 34.4517 10.4738 34.3869V33.2159L11.0578 33.0866C12.587 32.7477 13.7096 31.5305 13.9497 30.0281H23.3175C23.6476 30.0281 23.9152 29.7606 23.9152 29.4305C23.9152 29.1003 23.6477 28.8328 23.3175 28.8328H14.2008L17.9788 24.002C18.4708 23.3727 18.3592 22.4604 17.7299 21.9683C17.1369 21.5046 16.3985 21.2505 15.6523 21.2505C15.6388 21.2505 15.6252 21.2505 15.6116 21.2507C14.5934 21.2529 13.6091 21.7389 12.9801 22.5492C12.9801 22.5492 12.0749 23.7066 11.4646 24.4853C11.2323 24.7816 10.8833 24.9535 10.5123 24.957H10.5034C10.4934 24.957 10.4838 24.9557 10.4739 24.9555V1.89484C10.4739 1.83 10.5266 1.77734 10.5914 1.77734H22.8651C23.1952 1.77734 23.4627 1.50984 23.4627 1.17969C23.4627 0.849531 23.1952 0.582031 22.8651 0.582031H10.5913C9.8675 0.582031 9.27859 1.17094 9.27859 1.89477V8.89656C8.78125 9.09766 8.38031 9.48102 8.1582 9.97742L4.38711 18.4091C4.22969 18.7612 4.02258 19.0882 3.77148 19.3813C3.26406 19.9737 2.89055 20.6855 2.69141 21.4397L1.27055 26.8203C1.18625 27.1395 1.37664 27.4665 1.6957 27.5507C2.00625 27.6355 2.34297 27.4472 2.42609 27.1255L3.84695 21.7449C4.00031 21.1638 4.2882 20.6153 4.67914 20.159C5.00492 19.7788 5.27375 19.3542 5.47813 18.8972L9.24922 10.4656C9.25797 10.446 9.26844 10.4276 9.27852 10.4089V15.7551L8.28266 18.9371C8.19172 19.2279 8.14586 19.5298 8.14633 19.8343L8.15273 23.8054C8.15484 25.0995 9.2093 26.1523 10.5034 26.1523H10.5177C11.2596 26.1455 11.9475 25.8067 12.4052 25.2228C13.0159 24.4437 13.9216 23.2856 13.9228 23.2841C14.323 22.7686 14.9711 22.4476 15.6202 22.4461C16.1209 22.4406 16.5976 22.6004 16.9937 22.91C17.1038 22.9961 17.1233 23.1558 17.0372 23.2659L13.2505 28.108C12.9633 28.4751 12.8044 28.9448 12.803 29.4305C12.7998 30.6355 11.9759 31.6591 10.7994 31.9197L9.15391 32.2841C8.71313 32.3817 8.40531 32.7652 8.40531 33.2167V38.1119C8.40531 38.173 8.35563 38.2227 8.2957 38.2227L1.30625 38.2086C1.24508 38.2086 1.19539 38.1589 1.19539 38.0978V33.6495C1.20711 32.6536 1.26234 31.6606 1.48633 30.6855L1.7325 29.7534C1.81672 29.4342 1.62633 29.1072 1.30727 29.0229C0.987969 28.9388 0.661094 29.1291 0.576797 29.4481L0.330703 30.3804C0.0764062 31.4552 0.0127344 32.5504 0 33.6495V38.0977C0 38.8179 0.585937 39.4038 1.30492 39.4038L8.29437 39.418C9.01453 39.418 9.60055 38.832 9.60055 38.1118V35.2453C9.84141 35.523 10.1959 35.6995 10.5914 35.6995H29.4102C29.8049 35.6995 30.1587 35.5236 30.3995 35.2469V38.1117C30.3995 38.8319 30.9855 39.4179 31.707 39.4179L38.6939 39.4038C39.4141 39.4038 40.0001 38.8179 40.0001 38.0977V33.6494C40 32.736 39.9272 31.8152 39.7835 30.9126ZM38.8048 38.0977C38.8048 38.1588 38.7551 38.2085 38.6927 38.2085L31.7057 38.2227C31.6445 38.2227 31.5948 38.173 31.5948 38.1118V33.2166C31.5948 32.7652 31.287 32.3816 30.8463 32.2841L29.2007 31.9196C28.0242 31.6589 27.2003 30.6353 27.1971 29.4303C27.1958 28.9448 27.0369 28.4751 26.7498 28.1079L22.963 23.2658C22.8768 23.1557 22.8963 22.996 23.0065 22.9099C23.4026 22.6003 23.8739 22.4395 24.3861 22.4461C25.0291 22.4475 25.6771 22.7686 26.0786 23.2856C26.0786 23.2856 26.9842 24.4436 27.5949 25.2228C28.0527 25.8066 28.7405 26.1455 29.488 26.1523H29.4968C30.7909 26.1523 31.8455 25.0995 31.8474 23.8054L31.8539 19.8343C31.8544 19.5296 31.8084 19.2277 31.7175 18.937L30.7232 15.7595V10.4118C30.7327 10.4296 30.7427 10.4471 30.751 10.4657L34.5221 18.8972C34.7266 19.3543 34.9953 19.7788 35.321 20.159C35.712 20.6155 35.9998 21.1639 36.1533 21.7451L38.514 30.6855C38.5534 30.8349 38.5827 30.9708 38.6034 31.1007C38.7371 31.9413 38.805 32.7989 38.805 33.6495V38.0977H38.8048Z" fill="white"/>
<path id="Vector_2" d="M14.1787 9.46444C15.3703 9.46444 16.3398 8.49499 16.3398 7.30335C16.3398 6.11179 15.3703 5.14233 14.1787 5.14233C12.987 5.14233 12.0176 6.11179 12.0176 7.30335C12.0176 8.49499 12.987 9.46444 14.1787 9.46444ZM14.1787 6.33757C14.7112 6.33757 15.1445 6.77085 15.1445 7.30335C15.1445 7.83593 14.7112 8.26921 14.1787 8.26921C13.6461 8.26921 13.2128 7.83593 13.2128 7.30335C13.2128 6.77085 13.6461 6.33757 14.1787 6.33757Z" fill="white"/>
<path id="Vector_3" d="M25.7612 9.46444C26.9528 9.46444 27.9223 8.49499 27.9223 7.30335C27.9223 6.11179 26.9528 5.14233 25.7612 5.14233C24.5696 5.14233 23.6001 6.11179 23.6001 7.30335C23.6001 8.49499 24.5695 9.46444 25.7612 9.46444ZM25.7612 6.33757C26.2938 6.33757 26.7271 6.77085 26.7271 7.30335C26.7271 7.83593 26.2938 8.26921 25.7612 8.26921C25.2286 8.26921 24.7953 7.83593 24.7953 7.30335C24.7953 6.77085 25.2286 6.33757 25.7612 6.33757Z" fill="white"/>
<path id="Vector_4" d="M14.1787 14.7769C15.3703 14.7769 16.3398 13.8075 16.3398 12.6159C16.3398 11.4243 15.3703 10.4548 14.1787 10.4548C12.987 10.4548 12.0176 11.4243 12.0176 12.6159C12.0176 13.8075 12.987 14.7769 14.1787 14.7769ZM14.1787 11.6501C14.7112 11.6501 15.1445 12.0833 15.1445 12.6159C15.1445 13.1484 14.7112 13.5817 14.1787 13.5817C13.6461 13.5817 13.2128 13.1484 13.2128 12.6159C13.2128 12.0833 13.6461 11.6501 14.1787 11.6501Z" fill="white"/>
<path id="Vector_5" d="M17.7598 17.8488C17.7598 19.0405 18.7292 20.0099 19.9209 20.0099C21.1125 20.0099 22.082 19.0405 22.082 17.8488C22.082 16.6572 21.1125 15.6877 19.9209 15.6877C18.7292 15.6877 17.7598 16.6571 17.7598 17.8488ZM20.8867 17.8488C20.8867 18.3814 20.4534 18.8147 19.9209 18.8147C19.3883 18.8147 18.955 18.3814 18.955 17.8488C18.955 17.3163 19.3883 16.883 19.9209 16.883C20.4534 16.883 20.8867 17.3163 20.8867 17.8488Z" fill="white"/>
<path id="Vector_6" d="M18.9589 9.39459H20.8836C21.3382 9.39459 21.7454 9.15951 21.9728 8.76576C22.2001 8.37193 22.2001 7.90178 21.9728 7.50803L21.0105 5.84115C20.7831 5.4474 20.3758 5.21232 19.9211 5.2124C19.4664 5.2124 19.0593 5.44748 18.832 5.84123L17.8697 7.50795C17.6424 7.9017 17.6424 8.37185 17.8697 8.76568C18.097 9.15943 18.5043 9.39459 18.9589 9.39459ZM18.9048 8.1056L19.8671 6.43881C19.8725 6.42943 19.8852 6.40764 19.9212 6.40764C19.9573 6.40764 19.97 6.42959 19.9754 6.43881L20.9377 8.1056C20.9431 8.11498 20.9557 8.13678 20.9377 8.16811C20.9196 8.19928 20.8944 8.19928 20.8836 8.19928H18.9589C18.9482 8.19928 18.9229 8.19928 18.9049 8.16811C18.8868 8.13678 18.8994 8.11498 18.9048 8.1056Z" fill="white"/>
<path id="Vector_7" d="M24.7988 14.7071H26.7235C27.1782 14.7071 27.5854 14.472 27.8127 14.0783C28.04 13.6844 28.04 13.2143 27.8127 12.8205L26.8504 11.1537C26.623 10.7599 26.2157 10.5248 25.7611 10.5249C25.3064 10.5249 24.8993 10.76 24.6719 11.1537L23.7096 12.8205C23.4822 13.2143 23.4822 13.6844 23.7096 14.0783C23.9368 14.4719 24.3441 14.7071 24.7988 14.7071ZM24.7446 13.4181L25.707 11.7513C25.7124 11.7419 25.725 11.7201 25.7611 11.7201C25.7971 11.7201 25.8099 11.7421 25.8152 11.7513L26.7775 13.4181C26.7829 13.4275 26.7955 13.4493 26.7775 13.4806C26.7594 13.5118 26.7342 13.5118 26.7234 13.5118H24.7987C24.7879 13.5118 24.7627 13.5118 24.7446 13.4806C24.7266 13.4493 24.7393 13.4275 24.7446 13.4181Z" fill="white"/>
<path id="Vector_8" d="M12.1271 19.3908C12.3545 19.7846 12.7616 20.0197 13.2163 20.0197H15.141C15.5957 20.0197 16.0028 19.7846 16.2302 19.3908C16.4576 18.9971 16.4576 18.5269 16.2302 18.133L15.2679 16.4662C15.0406 16.0725 14.6334 15.8374 14.1787 15.8374C14.1787 15.8374 14.1788 15.8374 14.1787 15.8374C13.7241 15.8374 13.3168 16.0725 13.0894 16.4662L12.1271 18.133C11.8997 18.5269 11.8997 18.9971 12.1271 19.3908ZM13.1622 18.7307L14.1245 17.064C14.1298 17.0546 14.1425 17.0327 14.1786 17.0327C14.2146 17.0327 14.2273 17.0546 14.2327 17.0639L15.195 18.7307C15.2004 18.7401 15.213 18.7619 15.195 18.7933C15.177 18.8244 15.1517 18.8244 15.1409 18.8244H13.2162C13.2055 18.8244 13.1802 18.8244 13.1622 18.7933C13.1441 18.7619 13.1568 18.7401 13.1622 18.7307Z" fill="white"/>
<path id="Vector_9" d="M18.0732 31.9182C17.7432 31.9182 17.4756 32.1857 17.4756 32.5159C17.4756 32.846 17.7431 33.1135 18.0732 33.1135H21.9281C22.2582 33.1135 22.5257 32.846 22.5257 32.5159C22.5257 32.1857 22.2582 31.9182 21.9281 31.9182H18.0732Z" fill="white"/>
<path id="Vector_10" d="M24.2636 16.2419C23.7144 16.2419 23.2676 16.6887 23.2676 17.238V19.0235C23.2676 19.5727 23.7144 20.0195 24.2636 20.0195H27.2588C27.808 20.0195 28.2548 19.5727 28.2548 19.0235V17.238C28.2548 16.6887 27.808 16.2419 27.2588 16.2419H24.2636ZM27.0595 18.8243H24.4628V17.4371H27.0595V18.8243Z" fill="white"/>
<path id="Vector_11" d="M22.4154 13.5088V11.7233C22.4154 11.1741 21.9686 10.7273 21.4194 10.7273H18.4242C17.875 10.7273 17.4282 11.1741 17.4282 11.7233V13.5088C17.4282 14.058 17.875 14.5048 18.4242 14.5048H21.4194C21.9685 14.5049 22.4154 14.0581 22.4154 13.5088ZM21.2201 13.3096H18.6234V11.9225H21.2201V13.3096Z" fill="white"/>
</g>
</g>
<defs>
<clipPath id="clip0_38_1445">
<rect width="40" height="40" fill="white"/>
</clipPath>
</defs>
</svg>
