<svg width="98" height="131" viewBox="0 0 98 131" fill="none" xmlns="http://www.w3.org/2000/svg">
<g id="Group">
<path id="Vector" d="M50.9373 93.1686V100.107C50.9373 102.539 49.5755 103.949 47.3707 103.949H43.5771V102.604H46.6736C48.4082 102.604 49.2675 101.599 49.2675 99.5884V93.1524H50.9373V93.1686Z" fill="white"/>
<path id="Vector_2" d="M1.6698 89.6022V99.5886C1.6698 101.599 2.52902 102.604 4.26368 102.604H7.36011V103.95H3.56657C1.36178 103.95 0 102.523 0 100.107V89.6184H1.6698V89.6022Z" fill="white"/>
<path id="Vector_3" d="M54.7637 105.635C55.9633 105.635 56.855 105.214 57.5197 104.338C58.1843 103.463 58.5086 102.182 58.5086 100.513V93.1524H60.146V100.48C60.146 102.669 59.6596 104.371 58.7031 105.538C57.7304 106.722 56.4173 107.305 54.7799 107.305L54.7637 105.635Z" fill="white"/>
<path id="Vector_4" d="M54.861 105.635H52.8994V107.321H54.8772" fill="white"/>
<path id="Vector_5" d="M67.2465 102.588H59.5459V103.949H67.2465V102.588Z" fill="white"/>
<g id="Group_2">
<path id="Vector_6" d="M72.7097 93.1687V99.621C72.7097 101.599 73.5527 102.604 75.2387 102.604H78.0433V103.95H74.6065C73.4068 103.95 72.4827 103.56 71.818 102.782C71.1696 103.56 70.3104 103.95 69.1917 103.95H66.1602V102.604H68.4136C70.1482 102.604 71.0075 101.599 71.0075 99.5886V93.1525H72.7097V93.1687Z" fill="white"/>
<path id="Vector_7" d="M40.6109 96.2166V99.6211C40.6109 101.599 40.5461 102.604 42.2483 102.604H44.6314V103.95H42.5077C41.308 103.95 40.3839 103.561 39.7193 102.782C39.0708 103.561 38.2116 103.95 37.093 103.95H32.7969V102.604H36.3148C38.0495 102.604 38.9087 101.599 38.9087 99.5886V96.2166H40.6109Z" fill="white"/>
<path id="Vector_8" d="M29.8462 93.1687V99.621C29.8462 101.599 30.6892 102.604 32.3752 102.604H33.4938V103.949H31.743C30.5433 103.949 29.6193 103.56 28.9546 102.782C28.3061 103.56 27.4469 103.949 26.3283 103.949H6.1123V102.604H25.5663C27.301 102.604 28.1602 101.599 28.1602 99.5885V93.1525H29.8462V93.1687Z" fill="white"/>
<path id="Vector_9" d="M97.9997 93.1687V100.107C97.9997 102.458 96.6379 103.95 94.4817 103.95C92.893 103.95 91.6123 103.204 90.6396 101.664C90.1046 103.204 88.986 103.95 87.3486 103.95C85.9868 103.95 84.7871 103.333 83.8144 102.134C83.6685 102.409 83.474 102.685 83.2308 102.944C82.5824 103.609 81.7231 103.95 80.6369 103.95H75.6924V102.604H79.9561C81.6907 102.604 82.5499 101.599 82.5499 99.5886L82.5824 96.2165H84.1873V100.318C84.1873 100.659 84.1549 100.967 84.0738 101.275C84.9655 102.118 85.8085 102.523 86.6191 102.523C88.3213 102.523 89.1805 101.55 89.1805 99.5724V96.2165H90.8341V100.853C91.8068 101.972 92.8119 102.523 93.8171 102.523C95.4869 102.523 96.3299 101.55 96.3299 99.5724V93.1687H97.9997Z" fill="white"/>
</g>
<path id="Vector_10" d="M40.5942 93.1687H38.9082V94.8547H40.5942V93.1687Z" fill="white"/>
<path id="Vector_11" d="M47.6782 105.635H45.9922V107.321H47.6782V105.635Z" fill="white"/>
<path id="Vector_12" d="M50.0942 105.635H48.4082V107.321H50.0942V105.635Z" fill="white"/>
<path id="Vector_13" d="M28.1596 105.635H26.4736V107.321H28.1596V105.635Z" fill="white"/>
<path id="Vector_14" d="M30.5747 105.635H28.8887V107.321H30.5747V105.635Z" fill="white"/>
<path id="Vector_15" d="M71.3804 105.635H69.6943V107.321H71.3804V105.635Z" fill="white"/>
<path id="Vector_16" d="M73.7954 105.635H72.1094V107.321H73.7954V105.635Z" fill="white"/>
<g id="Group_3">
<path id="Vector_17" d="M33.5902 125.138C33.5902 125.333 33.4929 125.43 33.2983 125.43C33.1038 125.43 33.0227 125.333 33.0227 125.138C33.0227 124.96 33.12 124.863 33.2983 124.863C33.4929 124.879 33.5902 124.96 33.5902 125.138ZM32.5688 125.138C32.5688 125.333 32.4715 125.43 32.277 125.43C32.0825 125.43 32.0014 125.333 32.0014 125.138C32.0014 124.96 32.0987 124.863 32.277 124.863C32.4715 124.879 32.5688 124.96 32.5688 125.138ZM33.7361 128.137V126.451H32.6012C31.8393 126.451 31.4502 127.019 31.4502 128.137C31.4502 129.272 31.8393 129.84 32.6012 129.84C33.3632 129.84 33.7361 129.272 33.7361 128.137ZM35.6328 130.229H35.2275C34.5791 130.229 34.1414 129.969 33.8982 129.451C33.6712 129.969 33.2335 130.229 32.5526 130.229C31.5475 130.229 31.0449 129.532 31.0449 128.154C31.0449 127.408 31.2232 126.857 31.5637 126.5C31.8069 126.257 32.1311 126.143 32.5526 126.143H34.1738V128.64C34.1738 129.451 34.5466 129.84 35.2924 129.84H35.6328V130.229Z" fill="white"/>
</g>
<path id="Vector_18" d="M37.0272 129.839H35.3574V130.229H37.0272V129.839Z" fill="white"/>
<path id="Vector_19" d="M45.2789 129.839H36.8164V130.229H45.2789V129.839Z" fill="white"/>
<path id="Vector_20" d="M46.7544 129.839H45.0684V130.229H46.7544V129.839Z" fill="white"/>
<path id="Vector_21" d="M48.23 129.839H46.5439V130.229H48.23V129.839Z" fill="white"/>
<g id="Group_4">
<path id="Vector_22" d="M52.752 130.229H50.9363C50.3527 130.229 49.9474 130.002 49.6718 129.564C49.4286 130.002 48.9909 130.229 48.3748 130.229H47.9209V129.856H48.3424C49.0881 129.856 49.461 129.451 49.461 128.656V124.814L49.8825 124.684V128.705C49.8825 129.467 50.2554 129.856 51.0011 129.856H52.752V130.229Z" fill="white"/>
<path id="Vector_23" d="M55.4268 125.138C55.4268 125.333 55.3295 125.43 55.135 125.43C54.9404 125.43 54.8594 125.333 54.8594 125.138C54.8594 124.944 54.9566 124.846 55.135 124.846C55.3295 124.863 55.4268 124.96 55.4268 125.138ZM59.1555 130.229H51.001V129.856H56.6264V129.45C56.6264 128.624 56.5616 128.04 56.4157 127.683C56.1887 127.1 55.7348 126.824 55.0377 126.824C54.5676 126.824 54.0812 127.035 53.6435 127.473L53.3517 127.181C53.8704 126.678 54.4379 126.435 55.0377 126.435C55.8807 126.435 56.4643 126.759 56.7561 127.392C56.9669 127.829 57.0804 128.526 57.0804 129.467V129.872H59.1555V130.229Z" fill="white"/>
<path id="Vector_24" d="M60.8251 125.138C60.8251 125.333 60.7278 125.43 60.5333 125.43C60.3387 125.43 60.2415 125.333 60.2415 125.138C60.2415 124.944 60.3387 124.846 60.5333 124.846C60.7278 124.863 60.8251 124.96 60.8251 125.138ZM62.9813 130.229H61.8464C61.2628 130.229 60.8575 130.002 60.5819 129.564C60.3225 130.002 59.901 130.229 59.285 130.229H58.8311V129.856H59.2526C59.9983 129.856 60.3712 129.45 60.3712 128.656V126.549L60.7927 126.419V128.705C60.7927 129.467 61.1655 129.856 61.9113 129.856H62.9813V130.229Z" fill="white"/>
<path id="Vector_25" d="M64.6199 128.705C64.6199 129.596 64.0362 130.212 63.1284 130.212H61.8477V129.84H63.0635C63.8093 129.84 64.1821 129.434 64.1821 128.64V124.798L64.6036 124.668V128.705H64.6199Z" fill="white"/>
</g>
<path id="Vector_26" d="M65.5107 124.798V130.229H65.9323V124.668L65.5107 124.798Z" fill="white"/>
<g id="Group_5">
<path id="Vector_27" d="M18.7092 112.493C18.7092 112.769 18.5795 112.898 18.3201 112.898C18.0607 112.898 17.931 112.769 17.931 112.493C17.931 112.234 18.0607 112.104 18.3201 112.104C18.5795 112.104 18.7092 112.234 18.7092 112.493ZM20.379 119.513H18.6119C18.547 120.242 18.3201 120.81 17.931 121.215C17.5257 121.653 16.9583 121.88 16.245 121.88C15.8559 121.88 15.483 121.799 15.1426 121.653L14.8994 121.085C15.3209 121.28 15.7748 121.377 16.245 121.377C16.8448 121.377 17.2987 121.15 17.6068 120.68C17.8824 120.291 18.0445 119.772 18.0445 119.124V114.114L18.6281 113.936V118.994H20.379V119.513Z" fill="white"/>
</g>
<path id="Vector_28" d="M22.3728 118.994H20.0869V119.513H22.3728V118.994Z" fill="white"/>
<path id="Vector_29" d="M24.3659 118.994H22.0801V119.513H24.3659V118.994Z" fill="white"/>
<path id="Vector_30" d="M26.3444 118.994H24.0586V119.513H26.3444V118.994Z" fill="white"/>
<path id="Vector_31" d="M28.3386 118.994H26.0527V119.513H28.3386V118.994Z" fill="white"/>
<path id="Vector_32" d="M30.3317 118.994H28.0459V119.513H30.3317V118.994Z" fill="white"/>
<path id="Vector_33" d="M32.3259 118.994H30.04V119.513H32.3259V118.994Z" fill="white"/>
<g id="Group_6">
<path id="Vector_34" d="M35.4392 121.474C35.4392 121.75 35.3095 121.88 35.0501 121.88C34.7908 121.88 34.6611 121.75 34.6611 121.474C34.6611 121.231 34.7908 121.101 35.0501 121.101C35.3095 121.101 35.4392 121.231 35.4392 121.474ZM34.045 121.474C34.045 121.75 33.9153 121.88 33.6559 121.88C33.3965 121.88 33.2669 121.75 33.2669 121.474C33.2669 121.231 33.3965 121.101 33.6559 121.101C33.9153 121.101 34.045 121.231 34.045 121.474ZM36.6551 119.513H36.0228C35.2447 119.513 34.6773 119.205 34.3206 118.605C33.9802 119.205 33.3803 119.513 32.5698 119.513H31.9375V118.994H32.5049C33.51 118.994 34.0126 118.459 34.0126 117.356V114.13L34.5962 113.952V117.421C34.5962 118.459 35.0988 118.994 36.1201 118.994H36.6551V119.513Z" fill="white"/>
</g>
<path id="Vector_35" d="M38.5183 118.994H36.2324V119.513H38.5183V118.994Z" fill="white"/>
<path id="Vector_36" d="M49.4449 119.513H38.1777V118.994H39.9934V115.314L40.5771 115.103V118.994H43.6087V114.73L44.1923 114.552V118.994H47.2563V114.147L47.8399 113.952V118.994H49.4449V119.513Z" fill="white"/>
<g id="Group_7">
<path id="Vector_37" d="M50.7263 112.493C50.7263 112.769 50.5966 112.898 50.3534 112.898C50.094 112.898 49.9643 112.769 49.9643 112.493C49.9643 112.234 50.094 112.104 50.3534 112.104C50.6128 112.104 50.7263 112.234 50.7263 112.493ZM51.8449 117.454C51.8449 118.67 51.0667 119.513 49.8184 119.513H49.0078V118.994H49.7536C50.7749 118.994 51.2774 118.459 51.2774 117.356V114.13L51.8611 113.936V117.454H51.8449Z" fill="white"/>
<path id="Vector_38" d="M58.8481 119.513H52.8984L53.2389 118.994H56.5136V116.481C56.5136 115.379 56.0111 114.844 55.006 114.844C54.2764 114.844 53.7577 115.233 53.4658 115.995V115.038C53.8711 114.568 54.3899 114.325 55.006 114.325C56.2705 114.325 57.1135 115.103 57.1135 116.384V118.994H58.8643V119.513H58.8481Z" fill="white"/>
</g>
<path id="Vector_39" d="M60.7624 118.994H58.4766V119.513H60.7624V118.994Z" fill="white"/>
<path id="Vector_40" d="M62.7556 118.994H60.4697V119.513H62.7556V118.994Z" fill="white"/>
<path id="Vector_41" d="M64.7331 118.994H62.4473V119.513H64.7331V118.994Z" fill="white"/>
<g id="Group_8">
<path id="Vector_42" d="M66.8089 121.474C66.8089 121.75 66.6792 121.88 66.4198 121.88C66.1604 121.88 66.0308 121.75 66.0308 121.474C66.0308 121.231 66.1604 121.102 66.4198 121.102C66.6792 121.102 66.8089 121.231 66.8089 121.474ZM65.4147 121.474C65.4147 121.75 65.285 121.88 65.0256 121.88C64.7662 121.88 64.6528 121.75 64.6528 121.474C64.6528 121.231 64.7824 121.102 65.0256 121.102C65.285 121.102 65.4147 121.231 65.4147 121.474ZM67.1007 117.454C67.1007 118.67 66.3226 119.513 65.0743 119.513H64.2637V118.994H65.0094C66.0308 118.994 66.5333 118.459 66.5333 117.357V114.13L67.1169 113.936V117.454H67.1007Z" fill="white"/>
<path id="Vector_43" d="M71.1379 112.493C71.1379 112.769 71.0082 112.898 70.7488 112.898C70.4894 112.898 70.3597 112.769 70.3597 112.493C70.3597 112.234 70.4894 112.104 70.7488 112.104C71.0082 112.104 71.1379 112.234 71.1379 112.493ZM72.8077 119.513H71.0406C70.9758 120.242 70.7488 120.81 70.3597 121.215C69.9544 121.653 69.387 121.88 68.6737 121.88C68.2846 121.88 67.9117 121.799 67.5713 121.653L67.3281 121.085C67.7496 121.28 68.2036 121.377 68.6737 121.377C69.2735 121.377 69.7275 121.15 70.0355 120.68C70.3111 120.291 70.4732 119.772 70.4732 119.124V114.114L71.0568 113.936V118.994H72.8077V119.513Z" fill="white"/>
</g>
<path id="Vector_44" d="M74.7995 118.994H72.5137V119.513H74.7995V118.994Z" fill="white"/>
<path id="Vector_45" d="M76.778 118.994H74.4922V119.513H76.778V118.994Z" fill="white"/>
<g id="Group_9">
<path id="Vector_46" d="M78.8538 121.474C78.8538 121.75 78.7241 121.88 78.4647 121.88C78.2054 121.88 78.0757 121.75 78.0757 121.474C78.0757 121.231 78.2054 121.101 78.4647 121.101C78.7079 121.101 78.8538 121.231 78.8538 121.474ZM77.4596 121.474C77.4596 121.75 77.3299 121.88 77.0705 121.88C76.8111 121.88 76.6977 121.75 76.6977 121.474C76.6977 121.231 76.8274 121.101 77.0705 121.101C77.3299 121.101 77.4596 121.231 77.4596 121.474ZM79.1456 117.454C79.1456 118.67 78.3513 119.513 77.1192 119.513H76.3086V118.994H77.0543C78.0757 118.994 78.5782 118.459 78.5782 117.356V114.13L79.1618 113.936V117.454H79.1456Z" fill="white"/>
<path id="Vector_47" d="M83.0846 119.107C83.0846 119.95 82.89 120.615 82.5009 121.101C82.0794 121.62 81.4958 121.88 80.7176 121.88C80.3286 121.88 79.9557 121.798 79.6152 121.653L79.3721 121.085C79.7936 121.28 80.2475 121.377 80.7176 121.377C81.3175 121.377 81.7714 121.15 82.0794 120.68C82.355 120.291 82.5171 119.772 82.5171 119.124V114.114L83.1008 113.936V119.107H83.0846Z" fill="white"/>
<path id="Vector_48" d="M47.0141 16.8116C46.8682 18.1085 46.9655 18.222 47.3384 19.2595C47.3384 19.2595 45.393 15.0283 45.0039 14.315C44.631 13.6017 44.858 12.5479 45.1012 12.1102C46.2522 8.77057 51.829 5.64172 52.1695 2.48044C52.3154 1.16729 52.2181 1.07002 51.829 0.0324707C51.829 0.0324707 53.7906 4.26372 54.1635 4.96083C54.5364 5.67414 54.3094 6.7279 54.0662 7.16561C52.9152 10.5214 47.3546 13.6503 47.0141 16.8116Z" fill="white"/>
<path id="Vector_49" d="M52.4613 12.7747C52.5909 11.4778 52.5099 11.3643 52.137 10.3268C52.137 10.3268 54.0986 14.5418 54.4715 15.2551C54.8444 15.9685 54.6174 17.0222 54.3742 17.4599C53.2232 20.7995 47.6626 23.9446 47.3222 27.1059C47.1925 28.4028 47.2735 28.5163 47.6626 29.5538C47.6626 29.5538 45.701 25.3388 45.3281 24.6255C44.9552 23.9122 45.1822 22.8584 45.4254 22.4207C46.5602 19.0649 52.137 15.936 52.4613 12.7747Z" fill="white"/>
<path id="Vector_50" d="M65.625 18.1895C66.3869 17.1195 66.3707 16.9898 66.5653 15.9036C66.5653 15.9036 66.16 20.5402 66.1276 21.3508C66.0951 22.1613 65.3656 22.9557 64.9441 23.2151C62.2854 25.5334 55.8818 25.4685 54.0174 28.0462C53.2393 29.0999 53.2717 29.2458 53.0771 30.332C53.0771 30.332 53.4824 25.6955 53.5149 24.8849C53.5473 24.0743 54.2768 23.2799 54.6983 23.0206C57.3732 20.7023 63.7607 20.7671 65.625 18.1895Z" fill="white"/>
<path id="Vector_51" d="M58.8973 18.9839C58.1191 20.0376 58.1516 20.1835 57.957 21.2697C57.957 21.2697 58.3785 16.6332 58.3947 15.8226C58.4272 15.012 59.1567 14.2176 59.5782 13.9745C62.2531 11.6562 68.6405 11.7373 70.5211 9.1596C71.283 8.10584 71.2668 7.95993 71.4614 6.87375C71.4614 6.87375 71.0399 11.5103 71.0236 12.3209C70.9912 13.1315 70.2617 13.9258 69.8402 14.1852C67.1491 16.4873 60.7617 16.4062 58.8973 18.9839Z" fill="white"/>
<path id="Vector_52" d="M74.3313 29.4728C75.5309 28.9378 75.5796 28.8082 76.2767 27.9651C76.2767 27.9651 73.6179 31.7749 73.1802 32.4558C72.7587 33.1367 71.7212 33.4609 71.2348 33.4771C67.7655 34.158 62.2698 30.9157 59.3517 32.2126C58.152 32.7476 58.1034 32.8773 57.4062 33.7365C57.4062 33.7365 60.0812 29.9268 60.5027 29.2297C60.9242 28.5488 61.9617 28.2245 62.4481 28.2083C65.9336 27.5274 71.4294 30.7698 74.3313 29.4728Z" fill="white"/>
<path id="Vector_53" d="M68.1052 26.7817C66.9055 27.3167 66.8569 27.4463 66.1436 28.2894C66.1436 28.2894 68.8185 24.4796 69.2562 23.7987C69.6777 23.1178 70.7153 22.7936 71.2016 22.7774C74.6709 22.0965 80.1667 25.355 83.0686 24.0743C84.2682 23.5393 84.3169 23.4096 85.0302 22.5504C85.0302 22.5504 82.3552 26.3602 81.9337 27.0411C81.5122 27.7219 80.4747 28.0462 79.9883 28.0624C76.5028 28.7433 71.0071 25.4847 68.1052 26.7817Z" fill="white"/>
<path id="Vector_54" d="M76.2439 43.5771C77.5409 43.7068 77.6544 43.6257 78.6919 43.2367C78.6919 43.2367 74.4769 45.1983 73.7636 45.5873C73.0502 45.9602 71.9965 45.7333 71.5588 45.4901C68.2192 44.339 65.0741 38.7946 61.9128 38.4704C60.5997 38.3245 60.5024 38.4218 59.4648 38.8109C59.4648 38.8109 63.6799 36.833 64.3932 36.4602C65.1065 36.0711 66.1603 36.3143 66.598 36.5412C69.9214 37.6923 73.0827 43.2529 76.2439 43.5771Z" fill="white"/>
<path id="Vector_55" d="M72.1911 38.1462C70.878 38.0003 70.7807 38.0976 69.7432 38.4704C69.7432 38.4704 73.9582 36.5088 74.6715 36.1359C75.3848 35.7631 76.4386 35.99 76.8601 36.2332C80.1997 37.3842 83.3448 42.9449 86.506 43.2853C87.803 43.4312 87.9165 43.3339 88.954 42.9611C88.954 42.9611 84.739 44.9227 84.0257 45.2955C83.3123 45.6684 82.2586 45.4414 81.8209 45.1983C78.4813 44.031 75.3524 38.4704 72.1911 38.1462Z" fill="white"/>
<path id="Vector_56" d="M70.8453 56.7571C71.8991 57.519 72.045 57.5028 73.1311 57.6974C73.1311 57.6974 68.4946 57.2921 67.684 57.2759C66.8734 57.2434 66.0791 56.5139 65.8197 56.0924C63.5014 53.4337 63.55 47.0463 60.9724 45.1819C59.9186 44.42 59.7727 44.4362 58.6865 44.2417C58.6865 44.2417 63.3231 44.647 64.1336 44.6632C64.928 44.6956 65.7386 45.4089 65.998 45.8304C68.3163 48.5053 68.2514 54.8928 70.8453 56.7571Z" fill="white"/>
<path id="Vector_57" d="M70.0505 50.0132C68.9967 49.2512 68.8508 49.2674 67.7646 49.0729C67.7646 49.0729 72.4012 49.4782 73.2118 49.5106C74.0224 49.543 74.8167 50.2725 75.0761 50.694C77.3944 53.3528 77.3458 59.7402 79.9072 61.6045C80.961 62.3827 81.1069 62.3502 82.1931 62.5448C82.1931 62.5448 77.5565 62.1395 76.7459 62.1071C75.9515 62.0747 75.141 61.3451 74.8816 60.9236C72.5471 58.2811 72.6282 51.8937 70.0505 50.0132Z" fill="white"/>
<path id="Vector_58" d="M59.5777 65.4791C60.1127 66.6788 60.2424 66.7274 61.1016 67.4246C61.1016 67.4246 57.2757 64.7658 56.5948 64.3443C55.9139 63.9228 55.5735 62.8853 55.5735 62.3989C54.8926 58.9296 58.1187 53.4339 56.8218 50.5158C56.2868 49.3161 56.1571 49.2675 55.2979 48.5541C55.2979 48.5541 59.1238 51.2129 59.8047 51.6506C60.4856 52.0721 60.826 53.1096 60.826 53.596C61.5069 57.0653 58.2808 62.5773 59.5777 65.4791Z" fill="white"/>
<path id="Vector_59" d="M62.2528 59.2375C61.7178 58.0379 61.5881 57.9892 60.7451 57.2921C60.7451 57.2921 64.5549 59.9508 65.2357 60.3885C65.9166 60.8101 66.2409 61.8476 66.2571 62.334C66.938 65.8033 63.6956 71.299 64.9926 74.2009C65.5276 75.4006 65.6573 75.4492 66.5003 76.1625C66.5003 76.1625 62.6905 73.4876 62.0096 73.0661C61.3287 72.6446 61.0045 71.607 60.9883 71.1207C60.3074 67.6514 63.5497 62.1556 62.2528 59.2375Z" fill="white"/>
<path id="Vector_60" d="M45.4736 67.4244C45.344 68.7214 45.425 68.8349 45.8141 69.8724C45.8141 69.8724 43.8363 65.6574 43.4472 64.944C43.0743 64.2307 43.3013 63.177 43.5282 62.7393C44.6631 59.3996 50.2237 56.2384 50.5317 53.0771C50.6614 51.7802 50.5803 51.6667 50.1912 50.6291C50.1912 50.6291 52.1691 54.8442 52.5582 55.5575C52.931 56.2708 52.7041 57.3245 52.4771 57.7623C51.3423 61.1019 45.7817 64.2469 45.4736 67.4244Z" fill="white"/>
<path id="Vector_61" d="M50.9042 63.3553C51.0339 62.0584 50.9529 61.9449 50.5638 60.9073C50.5638 60.9073 52.5416 65.1224 52.9145 65.8357C53.3035 66.549 53.0604 67.6028 52.8334 68.0405C51.6824 71.3801 46.1218 74.5252 45.7975 77.6864C45.6678 78.9996 45.7489 79.0969 46.138 80.1344C46.138 80.1344 44.1764 75.9194 43.7873 75.2061C43.3982 74.4927 43.6414 73.439 43.8683 73.0013C45.0194 69.6617 50.58 66.5166 50.9042 63.3553Z" fill="white"/>
<path id="Vector_62" d="M32.2776 62.0421C31.5156 63.1121 31.5318 63.2417 31.3535 64.3441C31.3535 64.3441 31.7426 59.7076 31.775 58.897C31.8074 58.0864 32.5208 57.2921 32.9423 57.0327C35.601 54.6982 41.9884 54.7468 43.8365 52.153C44.5985 51.083 44.5823 50.9533 44.7606 49.8509C44.7606 49.8509 44.3715 54.4874 44.3391 55.298C44.3229 56.1086 43.5771 56.903 43.1718 57.1624C40.5293 59.4968 34.1419 59.4644 32.2776 62.0421Z" fill="white"/>
<path id="Vector_63" d="M39.0213 61.2316C39.7832 60.1616 39.767 60.0319 39.9453 58.9457C39.9453 58.9457 39.5401 63.5823 39.5238 64.3929C39.4914 65.2035 38.7781 65.9978 38.3404 66.2572C35.6817 68.5755 29.2943 68.5431 27.4299 71.1045C26.668 72.1745 26.6842 72.3042 26.5059 73.4066C26.5059 73.4066 26.8949 68.77 26.9274 67.9594C26.9598 67.1489 27.6893 66.3545 28.0946 66.0951C30.7695 63.7606 37.1569 63.8092 39.0213 61.2316Z" fill="white"/>
<path id="Vector_64" d="M23.5401 50.7912C22.3405 51.3262 22.2918 51.4559 21.5947 52.3152C21.5947 52.3152 24.2534 48.4892 24.6749 47.8083C25.0965 47.1274 26.134 46.787 26.6204 46.787C30.0897 46.0899 35.6016 49.316 38.5035 48.0028C39.687 47.4679 39.7356 47.3382 40.4489 46.4789C40.4489 46.4789 37.7902 50.3049 37.3687 50.9858C36.9472 51.6667 35.9259 52.0071 35.4233 52.0233C31.954 52.7204 26.442 49.4943 23.5401 50.7912Z" fill="white"/>
<path id="Vector_65" d="M29.7809 53.4663C30.9805 52.9313 31.0292 52.8016 31.7263 51.9424C31.7263 51.9424 29.0675 55.7683 28.646 56.4492C28.2245 57.1301 27.187 57.4706 26.7006 57.4706C23.2313 58.1515 17.7194 54.9253 14.8175 56.2223C13.634 56.7573 13.5854 56.887 12.8721 57.7462C12.8721 57.7462 15.5308 53.9364 15.9523 53.2393C16.3738 52.5584 17.4113 52.2342 17.8977 52.218C21.367 51.5371 26.879 54.7632 29.7809 53.4663Z" fill="white"/>
<path id="Vector_66" d="M21.5778 36.687C20.2647 36.5573 20.1674 36.6384 19.1299 37.0274C19.1299 37.0274 23.3449 35.0334 24.042 34.6605C24.7553 34.2715 25.8091 34.4984 26.2468 34.7416C29.5864 35.8764 32.7639 41.4208 35.9252 41.7288C37.2383 41.8585 37.3356 41.7775 38.3732 41.3884C38.3732 41.3884 34.1581 43.3824 33.461 43.7553C32.7477 44.1282 31.6939 43.9174 31.2562 43.6742C27.9166 42.5556 24.7391 37.0112 21.5778 36.687Z" fill="white"/>
<path id="Vector_67" d="M25.6469 42.118C26.96 42.2477 27.0573 42.1667 28.0948 41.7776C28.0948 41.7776 23.8798 43.7554 23.1665 44.1445C22.4532 44.5336 21.3994 44.2904 20.9617 44.0634C17.6221 42.9286 14.4608 37.368 11.2995 37.0438C9.98638 36.9141 9.88911 36.9952 8.85156 37.3842C8.85156 37.3842 13.0666 35.4064 13.7799 35.0173C14.477 34.6282 15.547 34.8714 15.9847 35.0984C19.3405 36.2494 22.4856 41.7938 25.6469 42.118Z" fill="white"/>
<path id="Vector_68" d="M26.9271 23.4908C25.8571 22.7289 25.7274 22.7451 24.625 22.5667C24.625 22.5667 29.2615 22.9558 30.0721 22.972C30.8665 22.9882 31.6771 23.7178 31.9365 24.1393C34.271 26.7818 34.2547 33.1854 36.8324 35.0335C37.9024 35.7955 38.0321 35.7793 39.1345 35.9576C39.1345 35.9576 34.4979 35.5685 33.6873 35.5523C32.8767 35.5361 32.0824 34.8066 31.823 34.3851C29.4885 31.7426 29.5047 25.3552 26.9271 23.4908Z" fill="white"/>
<path id="Vector_69" d="M27.7543 30.2347C28.8242 30.9967 28.9539 30.9804 30.0401 31.1588C30.0401 31.1588 25.4036 30.7697 24.593 30.7373C23.7824 30.7211 22.988 29.9915 22.7287 29.57C20.3942 26.9113 20.4428 20.5239 17.8489 18.6758C16.779 17.9138 16.6493 17.93 15.5469 17.7517C15.5469 17.7517 20.1834 18.1408 20.994 18.157C21.8046 18.1894 22.599 18.919 22.8583 19.3242C25.209 21.983 25.1604 28.3704 27.7543 30.2347Z" fill="white"/>
<path id="Vector_70" d="M38.146 14.7364C37.611 13.5368 37.4813 13.4881 36.6221 12.791C36.6221 12.791 40.448 15.4336 41.1289 15.8551C41.8098 16.2766 42.1503 17.2979 42.1665 17.8005C42.8636 21.2698 39.6537 26.7979 40.9668 29.6836C41.5018 30.8833 41.6315 30.9319 42.4907 31.629C42.4907 31.629 38.6647 28.9865 37.9839 28.565C37.303 28.1435 36.9625 27.1222 36.9463 26.6196C36.2492 23.1503 39.4591 17.6221 38.146 14.7364Z" fill="white"/>
<path id="Vector_71" d="M35.5037 20.978C36.0387 22.1615 36.1684 22.2101 37.0276 22.9234C37.0276 22.9234 33.2017 20.2647 32.5208 19.8432C31.8399 19.4217 31.4994 18.4004 31.4832 17.8978C30.7861 14.4285 34.0122 8.91653 32.7153 6.03085C32.1803 4.83119 32.0506 4.78255 31.1914 4.08545C31.1914 4.08545 35.0174 6.74417 35.6983 7.16567C36.3791 7.58717 36.7196 8.62472 36.7358 9.11107C37.4167 12.5642 34.1906 18.0761 35.5037 20.978Z" fill="white"/>
<path id="Vector_72" d="M50.7915 25.6308C50.8725 24.9499 50.8239 24.8851 50.6131 24.3339C50.6131 24.3339 51.6507 26.5711 51.8452 26.9439C52.0398 27.3168 51.9263 27.8842 51.7966 28.1112C51.1968 29.8783 48.2462 31.5319 48.0679 33.2179C48.0031 33.915 48.0355 33.9636 48.2462 34.5148C48.2462 34.5148 47.2087 32.2776 46.9979 31.9047C46.8034 31.5318 46.9169 30.9644 47.0466 30.7375C47.6626 28.9704 50.6131 27.3006 50.7915 25.6308Z" fill="white"/>
<path id="Vector_73" d="M57.7614 28.5001C58.1667 27.9327 58.1505 27.8679 58.2478 27.2842C58.2478 27.2842 58.037 29.7322 58.0208 30.1699C58.0046 30.5914 57.6155 31.0129 57.4048 31.1588C55.9944 32.3909 52.6061 32.3423 51.6172 33.7041C51.2119 34.2553 51.2281 34.3363 51.1309 34.9199C51.1309 34.9199 51.3416 32.4558 51.3578 32.0505C51.374 31.6128 51.7631 31.2075 51.9739 31.0616C53.3843 29.8295 56.7725 29.8619 57.7614 28.5001Z" fill="white"/>
<path id="Vector_74" d="M62.3664 34.4662C62.9987 34.1906 63.0311 34.1095 63.404 33.6556C63.404 33.6556 61.9936 35.682 61.7666 36.0387C61.5396 36.3954 60.9884 36.5737 60.7291 36.5737C58.8971 36.9303 55.979 35.2119 54.4389 35.8928C53.8067 36.1684 53.7742 36.2494 53.4014 36.7034C53.4014 36.7034 54.8118 34.6769 55.0388 34.3203C55.2657 33.9636 55.8007 33.7853 56.0601 33.7853C57.9082 33.4448 60.8263 35.1633 62.3664 34.4662Z" fill="white"/>
<path id="Vector_75" d="M63.3713 41.9397C64.0522 42.0046 64.117 41.9721 64.6682 41.7614C64.6682 41.7614 62.431 42.7989 62.0582 43.0097C61.6853 43.2042 61.1179 43.0907 60.8909 42.9611C59.1238 42.3612 57.454 39.4107 55.7842 39.2486C55.0871 39.1675 55.0385 39.2162 54.4873 39.4269C54.4873 39.4269 56.7245 38.3731 57.0974 38.1786C57.4703 37.9678 58.0377 38.0975 58.2646 38.2272C60.0317 38.8271 61.7015 41.7614 63.3713 41.9397Z" fill="white"/>
<path id="Vector_76" d="M60.5181 48.9107C61.0855 49.316 61.1503 49.2998 61.734 49.397C61.734 49.397 59.286 49.1863 58.8483 49.1701C58.4106 49.1538 58.0053 48.7648 57.8594 48.5378C56.6435 47.1274 56.6597 43.7554 55.2979 42.7664C54.7305 42.3612 54.6657 42.3774 54.082 42.2639C54.082 42.2639 56.53 42.4746 56.9677 42.4908C57.3892 42.5071 57.8107 42.8961 57.9566 43.1069C59.1725 44.5497 59.1563 47.9218 60.5181 48.9107Z" fill="white"/>
<path id="Vector_77" d="M54.5525 53.531C54.8281 54.1633 54.9091 54.1957 55.3468 54.5686C55.3468 54.5686 53.3366 53.1581 52.9637 52.9312C52.6071 52.7042 52.4287 52.1692 52.4287 51.8936C52.0558 50.0617 53.7743 47.1436 53.0772 45.6035C52.8016 44.9712 52.7205 44.9388 52.2666 44.5659C52.2666 44.5659 54.2931 45.9764 54.6497 46.2033C55.0064 46.4303 55.1847 46.9653 55.1847 47.2409C55.5738 49.0728 53.8716 51.9909 54.5525 53.531Z" fill="white"/>
<path id="Vector_78" d="M47.0955 54.5524C47.0307 55.2495 47.0631 55.2982 47.2738 55.8494C47.2738 55.8494 46.2201 53.6122 46.0255 53.2393C45.8148 52.8664 45.9445 52.299 46.0742 52.072C46.674 50.305 49.6083 48.6352 49.7866 46.9654C49.8515 46.2683 49.8191 46.2196 49.6083 45.6684C49.6083 45.6684 50.6621 47.9056 50.8566 48.2785C51.0511 48.6514 50.9377 49.2188 50.808 49.4457C50.1919 51.2128 47.2576 52.8826 47.0955 54.5524Z" fill="white"/>
<path id="Vector_79" d="M40.1065 51.6991C39.7012 52.2665 39.7174 52.3314 39.6201 52.915C39.6201 52.915 39.8309 50.4508 39.8309 50.0293C39.8471 49.6078 40.2362 49.1863 40.4469 49.0404C41.8573 47.8083 45.2294 47.8245 46.2183 46.4628C46.6236 45.8954 46.6236 45.8305 46.7046 45.2469C46.7046 45.2469 46.4939 47.7111 46.4939 48.1164C46.4777 48.5379 46.0886 48.9756 45.8616 49.1053C44.4674 50.3698 41.0954 50.3374 40.1065 51.6991Z" fill="white"/>
<path id="Vector_80" d="M35.4877 45.7495C34.8555 46.0413 34.8231 46.1062 34.4502 46.5601C34.4502 46.5601 35.8606 44.5336 36.0876 44.177C36.3145 43.8203 36.8495 43.642 37.1251 43.642C38.957 43.2691 41.8751 44.9713 43.4153 44.2904C44.0475 43.9986 44.0799 43.9338 44.4528 43.4799C44.4528 43.4799 43.0424 45.5063 42.8316 45.863C42.6047 46.2196 42.0697 46.398 41.7941 46.398C39.9297 46.7708 37.0116 45.0686 35.4877 45.7495Z" fill="white"/>
<path id="Vector_81" d="M34.4503 38.2921C33.7694 38.2272 33.7045 38.2759 33.1533 38.4866C33.1533 38.4866 35.3743 37.4329 35.7634 37.2221C36.1363 37.0276 36.6875 37.1411 36.9306 37.2707C38.6977 37.8706 40.3837 40.8049 42.0535 40.967C42.7344 41.0319 42.7993 40.9832 43.3505 40.7887C43.3505 40.7887 41.1295 41.8424 40.7404 42.037C40.3675 42.2477 39.8001 42.118 39.5731 42.0046C37.7899 41.3885 36.1201 38.4542 34.4503 38.2921Z" fill="white"/>
<path id="Vector_82" d="M37.2715 31.3048C36.7041 30.8995 36.6393 30.9158 36.0557 30.8185C36.0557 30.8185 38.5198 31.013 38.9413 31.0292C39.3628 31.0454 39.7844 31.4345 39.9303 31.6453C41.1623 33.0557 41.1623 36.4277 42.5241 37.4166C43.0915 37.8219 43.1564 37.8057 43.74 37.903C43.74 37.903 41.2758 37.7084 40.8543 37.6922C40.4328 37.676 40.0113 37.2869 39.8654 37.0762C38.6333 35.6658 38.6495 32.2937 37.2715 31.3048Z" fill="white"/>
<path id="Vector_83" d="M43.2198 26.6683C42.928 26.036 42.8631 26.0036 42.4092 25.6307C42.4092 25.6307 44.4356 27.0249 44.8085 27.2519C45.1652 27.4788 45.3435 28.0138 45.3435 28.2894C45.7164 30.1213 44.0141 33.0394 44.7112 34.5796C45.0031 35.2118 45.0679 35.2442 45.5218 35.6171C45.5218 35.6171 43.4954 34.2229 43.1387 33.9959C42.782 33.769 42.6037 33.234 42.5875 32.9746C42.2146 31.1265 43.9169 28.2084 43.2198 26.6683Z" fill="white"/>
<path id="Vector_84" d="M46.35 35.1469C46.35 35.1469 44.2425 34.5309 46.1068 31.856C46.1068 31.856 47.6632 32.8773 47.3389 34.3688C47.3389 34.3688 47.0633 35.1956 46.35 35.1469Z" fill="white"/>
<path id="Vector_85" d="M49.2681 34.6444C49.2681 34.6444 47.5983 33.234 50.3705 31.5318C50.3705 31.5318 51.3918 33.1043 50.484 34.3364C50.5002 34.3364 49.9003 34.9687 49.2681 34.6444Z" fill="white"/>
<path id="Vector_86" d="M51.7638 35.6657C51.7638 35.6657 51.0667 33.5906 54.3252 33.5744C54.3252 33.5744 54.3738 35.4387 52.9796 36.0223C52.9796 36.0223 52.1366 36.2655 51.7638 35.6657Z" fill="white"/>
<path id="Vector_87" d="M53.8711 37.757C53.8711 37.757 54.1305 35.5846 57.081 36.9626C57.081 36.9626 56.3353 38.6811 54.8114 38.6C54.7952 38.6 53.9359 38.4541 53.8711 37.757Z" fill="white"/>
<path id="Vector_88" d="M54.2927 40.2051C54.2927 40.2051 55.7193 38.5515 57.4053 41.3399C57.4053 41.3399 55.8166 42.345 54.6007 41.4372C54.6007 41.421 53.9685 40.8211 54.2927 40.2051Z" fill="white"/>
<path id="Vector_89" d="M53.3522 42.8638C53.3522 42.8638 55.3462 41.9884 55.6543 45.2307C55.6543 45.2307 53.7899 45.4577 53.0928 44.1121C53.109 44.0959 52.801 43.2853 53.3522 42.8638Z" fill="white"/>
<path id="Vector_90" d="M51.1473 44.7605C51.1473 44.7605 53.3359 44.8578 52.1686 47.9056C52.1686 47.9056 50.4016 47.2733 50.3691 45.7494C50.3691 45.7494 50.4502 44.8902 51.1473 44.7605Z" fill="white"/>
<path id="Vector_91" d="M48.5707 45.4414C48.5707 45.4414 50.4026 46.6411 47.8574 48.6675C47.8574 48.6675 46.6577 47.2247 47.4035 45.8953C47.4035 45.8953 47.906 45.1982 48.5707 45.4414Z" fill="white"/>
<path id="Vector_92" d="M45.7171 44.258C45.7171 44.258 46.9168 46.0899 43.7555 46.9167C43.7555 46.9167 43.2367 45.1172 44.4526 44.2093C44.4526 44.2093 45.2145 43.7716 45.7171 44.258Z" fill="white"/>
<path id="Vector_93" d="M43.9011 42.6854C43.9011 42.6854 43.4796 44.8416 40.6426 43.2366C40.6426 43.2366 41.518 41.583 43.0257 41.7776C43.0257 41.7776 43.8849 41.9883 43.9011 42.6854Z" fill="white"/>
<path id="Vector_94" d="M43.1886 39.8159C43.1886 39.8159 41.8593 41.5668 40.0273 38.8757C40.0273 38.8757 41.5512 37.7733 42.8158 38.6163C42.8158 38.6001 43.4804 39.1675 43.1886 39.8159Z" fill="white"/>
<path id="Vector_95" d="M44.3386 36.7195C44.3386 36.7195 42.5715 38.0164 41.5664 34.9362C41.5664 34.9362 43.3335 34.304 44.3224 35.4712C44.3224 35.455 44.7925 36.1845 44.3386 36.7195Z" fill="white"/>
</g>
</g>
</svg>
