<svg width="118" height="118" viewBox="0 0 118 118" fill="none" xmlns="http://www.w3.org/2000/svg">
<g id="Group 1000005362">
<g id="Group">
<path id="Vector" d="M59.0967 24.9731C58.4762 24.9879 58.0921 25.372 57.9443 25.5493C51.1631 33.542 47.6173 42.2587 46.5831 45.0214C45.3569 45.0805 42.9635 45.2283 39.92 45.6715C34.3798 46.4693 29.1793 47.8876 24.4516 49.7787C24.2448 49.8673 23.7425 50.148 23.5504 50.739C23.4913 50.8719 23.4766 51.0345 23.4766 51.1674C23.4766 51.5663 23.6391 51.8766 23.7129 52.0095C29.2384 60.9035 36.4481 66.9608 38.7972 68.8076C38.4426 69.9747 37.8517 72.2795 37.3346 75.3525C36.6698 79.2824 36.3299 83.1532 36.3299 86.8762C36.3299 88.3684 36.3743 89.831 36.4925 91.2789C36.5072 91.4857 36.5959 92.0619 37.0982 92.4312C37.6005 92.8006 38.1619 92.7119 38.3835 92.6528C43.259 91.4709 48.2083 89.5798 53.1132 87.0387C55.9646 85.5761 58.033 84.2612 59.0819 83.5668C60.1013 84.2464 62.1106 85.5022 64.8586 86.9501C69.7931 89.5355 74.8162 91.4709 79.7803 92.6824C79.9724 92.7415 80.5486 92.8301 81.0509 92.4608C81.0656 92.446 81.0656 92.446 81.0656 92.4312C81.5532 92.0766 81.6418 91.53 81.6714 91.2936C81.7896 89.8162 81.8339 88.3684 81.8339 86.9353C81.8339 78.3959 80.061 71.334 79.3814 68.8815C80.3417 68.128 82.1737 66.5915 84.3898 64.4345C88.4083 60.5341 91.7916 56.3531 94.4657 52.0243C94.5543 51.8766 94.7168 51.5663 94.7168 51.1674C94.7168 51.0345 94.7021 50.9015 94.6577 50.7242H94.643C94.4509 50.1332 93.9486 49.8821 93.7417 49.8082C84.05 45.8636 74.639 45.1692 71.6546 45.051C71.2409 43.8986 70.3693 41.6825 68.9805 38.905C66.4985 33.9262 63.5584 29.4053 60.2786 25.5345C60.1309 25.3868 59.732 24.9731 59.0967 24.9731Z" fill="white"/>
</g>
<g id="Group_2">
<g id="Clip path group">
<mask id="mask0_232_8187" style="mask-type:luminance" maskUnits="userSpaceOnUse" x="24" y="25" width="70" height="67">
<g id="SVGID_2_">
<path id="Vector_2" d="M49.8491 66.3699C47.9432 66.9756 43.7769 68.0984 39.7436 69.1474C38.9754 71.8954 36.7002 81.0257 37.4684 91.4414C37.4684 91.4857 37.5128 91.6334 37.5719 91.6778C37.6457 91.7369 37.7935 91.7369 37.8526 91.7369C48.0614 89.2105 56.0985 84.2021 58.418 82.6656C58.1668 78.4993 57.96 74.2297 57.96 72.2647C57.96 72.2647 57.9157 69.3986 56.9258 68.7928C55.7587 68.7337 54.0597 70.9794 54.0597 70.9794C51.7549 74.141 43.8213 84.0101 41.5165 86.4773C41.5165 86.4773 41.4427 86.5512 41.3688 86.5216C41.2949 86.4773 41.354 86.3739 41.354 86.3739C42.9939 83.4339 49.9377 72.8261 52.2425 69.6793C52.2425 69.6793 53.8824 67.345 53.4687 66.2369C53.2028 66.0301 52.7743 65.9562 52.3015 65.9562C51.1935 65.9562 49.8491 66.3699 49.8491 66.3699ZM64.6822 66.2369C64.2685 67.345 65.9084 69.6793 65.9084 69.6793C68.2132 72.8261 75.1569 83.4339 76.8116 86.3739C76.8116 86.3739 76.8707 86.4773 76.7968 86.5216C76.7378 86.5512 76.6639 86.4773 76.6639 86.4773C74.3591 84.0101 66.4107 74.141 64.106 70.9794C64.106 70.9794 62.3922 68.7337 61.2546 68.7928C60.2795 69.3986 60.2056 72.2647 60.2056 72.2647C60.2056 74.2592 59.9988 78.5437 59.7476 82.7099C62.1263 84.2908 70.1485 89.2696 80.3131 91.7369C80.3722 91.7516 80.5051 91.7664 80.5642 91.7073C80.6381 91.6482 80.6676 91.53 80.6676 91.4709C81.4507 81.0109 79.1311 71.8363 78.3777 69.1326C74.3591 68.0984 70.2076 66.9756 68.3166 66.3699C68.3166 66.3699 66.9721 65.9562 65.8493 65.9562C65.3765 65.9562 64.9481 66.0301 64.6822 66.2369ZM65.8936 54.7427C65.8936 54.7427 64.2685 57.0475 64.6674 58.1555C65.5686 58.8647 68.287 58.0373 68.287 58.0373C72.0101 56.8554 84.2577 53.5165 87.5671 52.8664C87.5671 52.8664 87.6853 52.8369 87.7001 52.9255C87.7444 52.9994 87.641 53.0437 87.641 53.0437C84.5828 54.462 72.7045 58.9533 68.9962 60.1648C68.9962 60.1648 66.2778 61.0808 65.9971 62.2036C66.2778 63.3264 68.9962 64.2277 68.9962 64.2277C70.8872 64.8482 74.9353 66.3847 78.8209 67.8916C81.0518 66.1187 88.2763 60.0762 93.787 51.1822C93.8165 51.1527 93.8756 51.0345 93.8461 50.9311C93.8165 50.8424 93.6983 50.7833 93.6245 50.7538C83.9032 46.7943 74.4478 46.1443 71.6407 46.0409C69.4099 49.5423 67.0756 53.1324 65.8936 54.7427ZM24.5264 50.7538C24.4525 50.7538 24.3491 50.8424 24.3196 50.9311C24.29 51.0197 24.3491 51.1379 24.3787 51.1822C29.9189 60.1057 37.1877 66.1631 39.3891 67.8916C43.2599 66.3994 47.2784 64.8629 49.1547 64.2572C49.1547 64.2572 51.8583 63.3412 52.1686 62.2332C51.8583 61.0956 49.1547 60.1944 49.1547 60.1944C45.4464 58.9829 33.5681 54.4768 30.5099 53.0733C30.5099 53.0733 30.4065 53.029 30.436 52.9551C30.4656 52.8664 30.5838 52.896 30.5838 52.896C33.8931 53.5461 46.1408 56.885 49.8491 58.0669C49.8491 58.0669 52.5675 58.8942 53.4835 58.1851C53.8971 57.077 52.2572 54.7723 52.2572 54.7723C51.0901 53.1619 48.741 49.5571 46.4806 46.0409C43.6144 46.1147 34.2182 46.8091 24.5264 50.7538ZM58.8612 25.8743C52.0652 33.8671 48.5489 42.6576 47.5739 45.2726C50.2184 48.4786 52.9073 51.8027 54.0744 53.4131C54.0744 53.4131 55.7734 55.7031 56.9406 55.644C57.9157 55.0087 57.9748 52.1425 57.9748 52.1425C57.9748 48.2422 58.5805 35.6104 58.9794 32.2567C58.9794 32.2567 58.9942 32.1533 59.0976 32.1533C59.1715 32.1533 59.1862 32.2567 59.1862 32.2567C59.5999 35.6104 60.1909 48.2422 60.1909 52.1425C60.1909 52.1425 60.2647 55.0087 61.2398 55.644C62.3774 55.6883 64.0912 53.4131 64.0912 53.4131C65.2731 51.7879 68.0063 48.4638 70.6361 45.2283C69.661 42.5837 66.0857 33.8523 59.334 25.8743C59.2897 25.83 59.201 25.7118 59.1124 25.7118C58.9942 25.7266 58.8908 25.83 58.8612 25.8743Z" fill="white"/>
</g>
</mask>
<g mask="url(#mask0_232_8187)">
<path id="Vector_3" d="M93.8894 25.7266H24.2891V91.7664H93.8894V25.7266Z" fill="white"/>
</g>
</g>
</g>
<g id="Group_3">
<path id="Vector_4" d="M20.2258 33.3057L18.8371 35.3297C18.0245 36.7776 16.7244 37.3685 14.9072 37.1321C15.3652 37.989 15.2618 39.0527 14.5674 40.3233C13.3559 42.4951 10.6818 42.8349 8.18502 41.4609C5.48137 39.954 4.49151 37.6197 5.82117 35.2263C5.79163 35.2115 6.69284 33.6011 8.49527 30.3656L14.2128 33.542C15.4095 34.2069 16.3107 33.9114 17.2267 32.759L18.1722 31.4294L20.2258 33.3057ZM11.3023 35.3592L8.90894 34.0296L7.97818 35.699C7.40199 36.7332 8.12592 38.1368 9.54423 38.9198C10.8148 39.6437 12.2774 39.496 12.8388 38.4766C13.4298 37.3981 12.7797 36.1866 11.3023 35.3592Z" fill="white"/>
<path id="Vector_5" d="M26.49 26.3767L20.0929 33.4682L18.1427 31.4589L19.4281 30.0554C20.0781 29.3315 19.9156 28.5337 18.9257 27.6472L15.4834 24.5447L17.4483 22.3729L20.8168 25.4164C21.393 25.9187 21.8214 26.4653 22.1612 27.0563L25.1161 24.1606L26.49 26.3767Z" fill="white"/>
<path id="Vector_6" d="M28.4396 19.8022C29.1339 20.6443 29.459 21.5456 29.459 22.4911C29.459 23.5844 28.8532 23.8208 27.8043 24.9584L25.9132 27.0119L25.1154 24.131L25.8098 23.5105C26.578 22.89 26.5337 22.0479 25.662 21.0137L20.2695 14.3654L22.5152 12.5334L28.4396 19.8022Z" fill="white"/>
<path id="Vector_7" d="M60.145 9.75588C60.1893 10.8492 59.9086 11.7799 59.3472 12.5334C58.6971 13.4051 57.7516 13.8631 56.5253 13.9074L53.7774 14.0256L53.6592 11.2481L55.8014 11.1594C56.7765 11.1299 57.2493 10.4207 57.1902 9.0615L56.8504 0.507353L59.7608 0.38916L60.145 9.75588Z" fill="white"/>
<path id="Vector_8" d="M65.596 13.9665L62.6855 13.7596L63.7197 0.37439L66.6154 0.596L65.596 13.9665Z" fill="white"/>
<path id="Vector_9" d="M106.565 36.5559C105.989 35.4183 106.462 34.2512 107.496 33.7341C108.515 33.217 109.727 33.542 110.303 34.6649C110.864 35.8025 110.406 36.9548 109.387 37.4719C108.353 38.0038 107.141 37.664 106.565 36.5559ZM108.885 40.7813C109.195 40.6483 109.328 40.604 109.653 40.4415C112.977 38.772 113.923 36.0832 112.549 33.3647C111.308 30.8975 108.663 30.1145 106.151 31.385C103.935 32.5078 103.005 35.1967 104.127 37.4276C104.393 37.9595 104.94 38.5947 105.309 38.8459C104.187 38.9198 102.901 38.3731 102.148 36.8514C101.704 35.9502 101.542 34.8126 101.512 34.0148L99.0156 35.2854C99.0156 35.2854 99.3406 36.7628 99.8873 37.856C101.867 41.8302 105.383 42.2291 108.885 40.7813Z" fill="white"/>
<path id="Vector_10" d="M35.7384 16.0053C34.7338 16.7736 33.5075 16.5224 32.8131 15.6064C32.1188 14.7052 32.2222 13.4494 33.2268 12.6812C34.2314 11.9129 35.4725 12.1641 36.1521 13.0801C36.8317 13.996 36.743 15.2666 35.7384 16.0053ZM39.4762 12.9619C39.2989 12.6959 39.2103 12.563 39.0034 12.297C36.7578 9.32746 33.936 8.88424 31.5278 10.7162C29.3265 12.3857 29.0458 15.1189 30.7448 17.3941C32.237 19.3738 35.0588 19.7875 37.0533 18.2805C37.526 17.9112 38.0579 17.2907 38.2352 16.8622C38.5159 17.9703 38.2057 19.3147 36.8464 20.3489C36.0486 20.9546 34.9554 21.3092 34.1723 21.4865L35.8566 23.7026C35.8566 23.7026 37.2601 23.1264 38.2352 22.3877C41.7957 19.6693 41.5446 16.1531 39.4762 12.9619Z" fill="white"/>
<path id="Vector_11" d="M109.489 20.2898C109.238 19.95 109.12 19.4329 109.031 18.9749C108.854 18.2362 108.662 17.3793 108.145 16.6701C107.081 15.1484 104.983 14.9268 104.51 14.8972L104.318 17.5861C104.584 17.5861 105.559 17.66 105.944 18.2214C106.165 18.5169 106.269 18.9749 106.401 19.5658C106.549 20.275 106.756 21.0876 107.214 21.7228C108.233 23.1855 109.918 23.9242 111.824 23.7617L111.587 21.0728C110.39 21.191 109.844 20.7921 109.489 20.2898Z" fill="white"/>
<path id="Vector_12" d="M24.7754 31.7397C24.4799 32.0499 23.9924 32.242 23.5491 32.4193C22.84 32.7147 22.0422 33.0398 21.4217 33.6603C20.1068 34.9752 20.225 37.0583 20.2841 37.5311L22.9582 37.2947C22.9139 37.0435 22.8252 36.0684 23.3275 35.5809C23.5935 35.315 24.0071 35.1525 24.5833 34.9161C25.2482 34.6649 26.0164 34.3251 26.5778 33.7637C27.8336 32.5227 28.2916 30.735 27.8188 28.8883L25.2038 29.5679C25.4993 30.7055 25.2038 31.3112 24.7754 31.7397Z" fill="white"/>
<path id="Vector_13" d="M3.69295 29.8338C3.47134 30.2032 3.05767 30.5134 2.67354 30.8089C2.06781 31.2669 1.37343 31.7988 0.930212 32.5375C-0.015324 34.1478 0.619958 36.1423 0.797246 36.5855L3.33838 35.6843C3.23496 35.4479 2.90993 34.5319 3.24973 33.9262C3.42702 33.616 3.79637 33.3353 4.29869 32.9659C4.88965 32.5375 5.5397 32.0204 5.9386 31.3408C6.83981 29.8043 6.83982 27.9723 5.90905 26.3176L3.55999 27.6177C4.13617 28.6667 4.00321 29.3167 3.69295 29.8338Z" fill="white"/>
<path id="Vector_14" d="M90.2251 19.3147C89.5011 18.2067 89.8262 16.9213 90.8603 16.2417C91.8797 15.5769 93.1946 15.7837 93.9186 16.8918C94.6425 17.9998 94.3027 19.2852 93.2833 19.95C92.2639 20.6296 90.949 20.4228 90.2251 19.3147ZM82.1289 18.8863C82.2914 19.4034 82.8381 20.6739 83.3551 21.4865C85.2314 24.3379 87.6987 25.1504 90.3728 24.5743L92.4412 27.7507C95.0857 31.784 98.1882 33.3057 102.428 31.0896C102.753 30.9123 102.872 30.8384 103.197 30.6316C106.476 28.4894 107.156 25.5493 105.398 22.8605C103.802 20.4228 100.936 19.9352 98.4246 21.5604C96.2381 22.9787 95.7653 25.8153 97.2132 28.0314C97.6564 28.6962 98.4099 29.3463 98.8531 29.494C97.5234 29.5826 96.1051 28.253 94.7164 26.1255L93.0321 23.5401C93.5049 23.3037 93.6822 23.1707 94.0072 22.9639C96.2381 21.5013 98.3803 18.6647 96.1347 15.2519C94.4357 12.6516 91.4661 12.43 89.1761 13.9222C86.6645 15.5769 86.5463 18.6499 87.7283 20.4819C88.1715 21.1467 88.7477 21.649 89.1761 21.8706C87.5953 22.1513 86.3543 21.2944 85.6156 20.1716C85.0098 19.2556 84.7439 18.1476 84.6109 17.2759L82.1289 18.8863ZM99.5031 26.9233C98.7792 25.8153 99.119 24.5299 100.138 23.8651C101.158 23.2003 102.473 23.4071 103.197 24.5152C103.935 25.638 103.581 26.9086 102.576 27.5734C101.542 28.2382 100.227 28.0314 99.5031 26.9233Z" fill="white"/>
<path id="Vector_15" d="M74.165 15.3995L75.0515 12.8288L78.612 14.0551C80.3258 14.646 81.2566 14.0846 81.685 12.8584C82.1282 11.573 81.6407 10.5389 80.0008 9.97746L76.4698 8.75121L77.3562 6.21008L80.8281 7.40678C84.2409 8.57393 85.3046 10.9969 84.3443 13.7596C83.4431 16.3598 81.1384 17.8077 77.6517 16.5962L74.165 15.3995Z" fill="white"/>
<path id="Vector_16" d="M44.6175 15.7984L44.1595 13.1096L47.8677 12.4743C49.6554 12.1788 50.202 11.2185 49.9804 9.94793C49.7588 8.58873 48.828 7.93867 47.129 8.21938L43.4355 8.85466L42.9775 6.19534L46.5972 5.5896C50.1577 4.98387 52.2556 6.59423 52.7432 9.46039C53.2012 12.1788 51.8863 14.5574 48.2371 15.1927L44.6175 15.7984Z" fill="white"/>
<path id="Vector_17" d="M51.1772 11.3219C51.1772 11.3219 53.6297 11.1446 54.59 11.2185V13.9665C54.59 13.9665 51.1329 14.0551 49.8623 14.1438L51.1772 11.3219Z" fill="white"/>
<path id="Vector_18" d="M36.9938 113.366L34.7334 112.376L38.486 103.335L40.7612 104.339L36.9938 113.366Z" fill="white"/>
<path id="Vector_19" d="M42.2236 105.137L44.6022 105.787L47.5422 112.79L49.0049 106.984L51.3983 107.619L48.9901 117.133L46.6115 116.483L43.6714 109.48L42.2088 115.301L39.8154 114.651L42.2236 105.137Z" fill="white"/>
<path id="Vector_20" d="M55.654 117.739L53.1867 117.532L53.7777 109.894L51.7832 109.732L51.9457 107.589L58.4611 108.121L58.2985 110.278L56.245 110.116L55.654 117.739Z" fill="white"/>
<path id="Vector_21" d="M61.9175 110.101L61.9913 111.741L64.7689 111.578L64.9018 113.735L62.1095 113.898L62.1982 115.597L65.1382 115.42L65.2564 117.591L59.8491 117.887L59.332 108.077L64.7393 107.767L64.8427 109.938L61.9175 110.101Z" fill="white"/>
<path id="Vector_22" d="M75.6126 115.567L72.5988 116.247L69.5405 113.056L70.294 116.734L67.8858 117.281L65.9209 107.663L69.6735 106.836C70.7372 106.6 71.4759 106.718 72.1408 107.176C72.7613 107.619 73.2045 108.328 73.3818 109.126C73.6773 110.559 73.1602 111.667 71.8896 112.273L75.6126 115.567ZM69.6587 111.357C70.6043 111.135 71.0623 110.574 70.8997 109.835C70.752 109.082 70.1019 108.757 69.1564 108.963L68.7132 109.067L69.2007 111.445L69.6587 111.357Z" fill="white"/>
<path id="Vector_23" d="M73.9287 105.905L76.2039 104.915L82.6749 108.594L80.3997 103.069L82.6749 102.064L86.3832 111.12L84.108 112.11L77.6518 108.417L79.927 113.957L77.6518 114.947L73.9287 105.905Z" fill="white"/>
<path id="Vector_24" d="M90.1066 106.703L90.5055 108.491L88.3485 110.012L85.9551 99.7739L88.1712 98.2079L96.5185 104.206L94.3467 105.743L92.9136 104.694L90.1066 106.703ZM88.7326 101.502L89.6043 104.708L91.2885 103.497L88.7326 101.502Z" fill="white"/>
<path id="Vector_25" d="M100.374 100.365L98.5866 102.108L93.4896 96.5532L92.027 97.9567L90.5791 96.4054L95.3363 91.7664L96.7694 93.3324L95.2772 94.8098L100.374 100.365Z" fill="white"/>
<path id="Vector_26" d="M104.865 95.2678L103.27 97.218L96.001 90.8799L97.5818 88.9445L104.865 95.2678Z" fill="white"/>
<path id="Vector_27" d="M104.171 78.2334L104.969 75.8252L111.942 73.2989L106.431 71.3635L107.214 68.9406L116.226 72.117L115.429 74.5251L108.455 77.0515L113.966 78.9869L113.183 81.395L104.171 78.2334Z" fill="white"/>
<path id="Vector_28" d="M115.518 66.3108L117.069 67.212L116.744 69.8861L107.776 64.9073L108.116 62.1298L118 59.7068L117.675 62.4253L115.946 62.8389L115.518 66.3108ZM110.864 63.9027L113.745 65.3801L114.011 63.2674L110.864 63.9027Z" fill="white"/>
<path id="Vector_29" d="M115.71 54.9643L115.607 51.9209L117.705 51.847L117.897 57.4464L108.383 57.8009L108.294 55.2598L115.71 54.9643Z" fill="white"/>
<path id="Vector_30" d="M9.69157 86.433C9.18925 85.0442 9.98705 83.8475 11.2428 83.3747C12.4986 82.902 13.8431 83.2861 14.3306 84.6896C14.8329 86.0932 14.0351 87.2751 12.7793 87.7479C11.5235 88.2206 10.1791 87.8513 9.69157 86.433ZM3.35352 84.601C4.13654 85.2067 4.78659 85.8125 5.02298 86.4773C5.48097 87.7626 4.81614 89.7571 5.45142 91.5891C5.71736 92.3278 6.13103 92.9631 6.63334 93.3472C7.29818 92.9188 8.73126 92.0028 8.73126 92.0028C8.33236 91.7073 7.91868 91.2197 7.71185 90.6436C7.53456 90.1265 7.54933 89.6833 7.6823 88.6343C8.98241 90.7027 11.361 91.4118 13.7544 90.5106C16.5763 89.4469 17.9798 86.6693 16.9161 83.6998C15.8671 80.7302 13.0748 79.5483 10.253 80.612C8.33236 81.3212 7.06179 82.902 6.81063 84.6453C6.23445 83.818 5.79123 83.36 5.11162 82.8281L3.35352 84.601Z" fill="white"/>
<path id="Vector_31" d="M4.87542 61.0661L0.177288 59.4852L0 57.2987L9.29285 53.2506L9.52923 56.3827L4.50607 58.2295C5.68799 58.6284 6.53011 58.9091 7.57907 59.3375C8.59847 59.7512 9.85426 60.3717 10.0759 60.5785C10.0759 60.5785 10.1054 60.5933 10.1054 60.6376C10.1054 60.6819 10.0759 60.6967 10.0759 60.6967C9.88381 60.9183 8.74621 61.7604 7.80068 62.3218C6.82559 62.9276 6.04257 63.356 4.93452 63.9322L10.1793 64.9221L10.4305 68.0394L0.66483 65.6017L0.502316 63.4004L4.87542 61.0661Z" fill="white"/>
<path id="Vector_32" d="M5.11192 74.9684C4.97896 73.5353 5.98359 72.6193 7.2837 72.5011C8.56904 72.3681 9.73619 73.0477 9.86915 74.4956C10.0169 75.9434 8.99749 76.8594 7.69738 76.9776C6.41204 77.1106 5.24489 76.4162 5.11192 74.9684ZM12.5285 74.2297C12.2478 71.1862 9.8987 69.369 7.01777 69.6645C4.12206 69.9452 2.17189 72.2204 2.4526 75.2491C2.73331 78.2925 5.08237 80.1245 7.97808 79.829C10.8738 79.5187 12.8092 77.2731 12.5285 74.2297Z" fill="white"/>
<path id="Vector_33" d="M17.966 97.1737C16.858 96.2872 16.9171 94.8985 17.7149 93.8348C18.5127 92.771 19.798 92.3869 20.9061 93.2733C22.0141 94.1598 21.955 95.5485 21.1572 96.6123C20.3594 97.6908 19.0741 98.0749 17.966 97.1737ZM22.5312 91.1163C20.1969 89.24 17.3012 89.7276 15.5135 92.1062C13.7259 94.47 13.9623 97.4839 16.3113 99.3602C18.6456 101.251 21.5266 100.749 23.329 98.3704C25.1167 96.0065 24.8803 92.9926 22.5312 91.1163Z" fill="white"/>
<path id="Vector_34" d="M27.4498 100.099C27.9077 100.454 28.6464 101 28.6464 101C29.8284 101.901 29.9318 103.009 29.1192 104.162C28.3214 105.299 27.1838 105.654 25.9871 104.768C25.9871 104.768 25.2484 104.221 24.7904 103.881L27.4498 100.099ZM30.1238 98.9023L26.7258 96.3463L21.0674 104.324L24.4654 106.88C26.9474 108.742 29.6215 108.239 31.291 105.89C32.9605 103.556 32.6059 100.779 30.1238 98.9023Z" fill="white"/>
<path id="Vector_35" d="M107.201 87.4524C106.373 88.6048 105.029 88.6048 103.995 87.807C102.946 87.024 102.517 85.7091 103.345 84.5272C104.172 83.3452 105.531 83.36 106.565 84.1578C107.614 84.9556 108.028 86.2705 107.201 87.4524ZM101.188 82.9168C99.4443 85.3841 100.021 88.3389 102.37 90.1118C104.719 91.8846 107.629 91.5301 109.372 89.0628C111.116 86.5955 110.54 83.626 108.191 81.8531C105.841 80.095 102.931 80.4495 101.188 82.9168Z" fill="white"/>
</g>
</g>
</svg>
