<svg width="121" height="129" viewBox="0 0 121 129" fill="none" xmlns="http://www.w3.org/2000/svg">
<g id="Group">
<g id="Group_2">
<path id="Vector" d="M66.4955 70.5685H66.5115H66.4955ZM39.1208 14.387C39.0085 14.4513 38.8961 14.5317 38.7999 14.6281C38.5431 14.5799 38.158 14.6603 37.7408 14.7246C37.3397 14.7889 36.9064 14.8532 36.5053 14.821C35.8153 14.9978 35.2858 14.8049 33.7935 15.8176C33.0072 16.2677 32.4135 17.7949 32.4937 18.5182C32.4937 19.4023 32.6702 19.7721 32.8307 20.2061C32.3493 20.6401 31.8037 21.1384 31.547 21.3795L30.7928 21.1223L30.3115 20.9616L30.0547 20.8812L29.9424 20.8491C25.9309 22.6173 26.3801 22.4244 26.8134 22.2315C27.0701 22.119 27.3108 22.0225 26.8134 22.2315V22.2476L26.7973 22.2958L26.7492 22.3923C26.3641 23.3889 26.2036 24.0158 26.0111 25.0125C25.9629 25.3179 25.7864 26.3467 26.1234 27.2629C26.4604 28.2274 26.7974 28.5811 27.006 28.8865C27.0541 28.9508 27.1022 29.0151 27.1343 29.0794C27.0059 29.0955 26.9739 29.0955 27.1504 29.0955C27.2306 29.208 27.2787 29.3044 27.2948 29.2723L27.3108 29.3205L27.375 29.6259C27.4392 29.8349 27.4713 29.9314 27.5194 30.076C27.5676 30.2207 27.6157 30.3172 27.6638 30.4458C27.6638 30.4618 27.6799 30.494 27.6959 30.5261C27.728 30.6226 27.7601 30.719 27.7762 30.719V30.7351L27.7922 30.8155L27.8243 30.9601L28.0008 31.5549C28.1131 31.8121 28.2896 32.1015 28.4822 32.3426C28.4501 32.3587 28.4501 32.3587 28.4822 32.3426C28.4982 32.3587 28.5143 32.3747 28.5303 32.3908V32.4551C28.5624 32.857 28.8833 33.1785 29.0599 33.516C29.2685 33.9179 29.1722 34.0947 29.1722 34.5127V34.5288L29.2203 34.6413L29.3166 34.8503C29.3166 34.8663 29.4931 35.2039 29.5252 35.2682C29.5894 35.3647 29.6857 35.6218 29.7659 35.863C29.9424 36.2005 29.7659 36.0719 30.151 36.8435C30.2633 37.0847 30.6003 37.8723 30.3115 38.0331C30.3917 38.3063 30.4077 38.6118 30.4077 38.9011C30.4077 39.0619 30.5361 39.6245 30.7928 40.0264C31.2421 40.7819 31.9642 41.0391 32.59 41.0873C32.59 41.1034 32.59 41.1194 32.6061 41.1355C32.8307 41.4409 33.0714 41.7303 33.3763 42.0357C33.5046 42.4376 33.633 42.968 33.7614 43.5307C33.8095 43.6914 33.8095 43.8039 33.8737 44.029C33.8897 44.0451 33.8897 44.0933 33.9058 44.1415C33.8416 44.254 33.7774 44.3987 33.6972 44.5916C33.4404 45.54 33.617 45.6365 33.649 45.974C33.7132 46.2955 33.7935 46.4402 33.8576 46.6492L33.8416 47.2279C33.8576 48.4496 33.97 48.0638 34.0342 48.5621L34.1465 48.9961L34.1625 49.0443V49.0604C34.0823 48.9479 34.0342 48.8675 34.0342 48.8675C34.0342 48.8675 34.0662 48.9318 34.1625 49.0765V49.0604C34.2267 49.1729 34.3069 49.3015 34.3872 49.4462C34.5797 49.7677 34.7723 50.0892 34.7241 50.0088V50.0249L34.8044 50.0892L34.8525 50.1213C34.8686 50.1696 34.9167 50.2499 35.1092 50.6036L35.6388 51.3109L35.7671 51.4877C36.1522 51.9217 36.1522 51.9057 36.1522 51.8896C36.1522 51.8735 36.1522 51.8574 36.2164 51.9378L36.5694 52.195C36.8422 52.3236 37.7889 53.2077 37.6124 52.8701L38.495 54.3973C39.0085 54.976 39.0566 56.4066 39.538 57.5801C40.0515 58.5767 40.4687 58.8982 40.9019 59.3322C41.2228 59.6055 41.3672 59.7341 41.5277 59.8145C41.4796 60.152 41.64 60.5218 41.7203 60.6343C43.389 62.0167 42.7632 64.219 42.9077 65.939C42.9398 65.9229 42.9718 65.9068 43.0039 65.9068C43.1002 64.7495 43.0521 64.862 43.5656 63.9136C43.6137 63.2384 43.6939 62.6115 43.5495 61.856C43.4051 61.2934 43.1804 61.1487 43.1484 60.9397C43.1323 60.795 42.8274 60.0877 42.7793 60.0395C42.8274 60.0556 42.9237 59.284 42.6188 58.9947C42.3942 58.7053 42.0572 58.416 42.0091 58.3195C41.5919 57.8533 41.271 57.2104 41.2228 57.13C40.8859 56.0047 41.1907 54.8474 40.4687 53.3363L39.7947 51.6967C38.8159 50.4107 38.832 50.6518 38.2382 50.0249L37.9976 49.8159L37.9334 49.7034L37.5483 49.0283C37.6606 49.2212 37.468 48.8032 37.4841 48.7871L37.4199 48.5782L37.4038 48.5299V48.5139C37.452 48.5782 37.2594 48.321 37.099 48.0959L37.0829 47.9834C37.0829 47.903 36.9064 46.9385 37.0508 47.5655L37.1632 46.6813L37.1792 46.5688V46.5045L37.1952 46.4724C37.1792 46.4081 37.115 46.0705 37.0669 45.7811C37.1631 45.6204 37.2755 45.4596 37.3878 45.2024C37.468 44.9774 37.5483 44.7202 37.5804 44.4791C37.6445 44.0933 37.468 43.4181 37.2273 43.0163C37.3397 43.177 37.3878 43.2895 37.4199 43.3217C37.4199 43.3056 37.4038 43.2735 37.4038 43.2252C37.3878 43.1609 37.3718 42.968 37.3397 42.8395C37.2594 42.2608 37.1952 41.6499 37.0187 40.8783C36.9385 40.6211 36.9064 40.4764 36.778 40.1389C36.5374 39.6245 36.1202 39.1744 36.2004 39.2548C36.0881 39.1422 35.9757 38.9493 35.8634 38.7725C35.7671 38.6439 35.735 38.4671 35.4462 38.017C35.366 37.8723 35.1734 37.5991 34.9488 37.3419C35.0611 37.3419 34.8365 37.149 34.4834 36.94C34.4674 36.8918 34.4514 36.8435 34.4514 36.7953C34.4193 36.6506 34.5155 36.3613 34.4995 36.2005C34.4193 35.5897 34.1946 35.0753 34.0342 34.4966C33.97 34.2876 33.9058 34.0787 33.8256 33.8375C33.8576 33.6446 33.8576 33.4517 33.8095 33.2749C33.6651 32.439 33.5688 32.4551 33.3763 32.0372C32.8949 31.362 33.0874 31.571 33.1356 31.6353C33.1516 31.6835 33.1516 31.6835 33.1356 31.6353C33.1356 31.5871 33.1035 31.4906 33.0874 31.4263L33.0714 31.3138V31.2977C33.0553 31.2334 33.0233 31.0727 32.943 30.719L32.9109 30.5904C32.7826 30.3011 32.7184 30.0921 32.4135 29.6259C32.3493 29.2884 32.3012 29.1437 32.237 28.9347L32.1888 28.774C32.0444 28.4042 32.0605 28.4364 32.0765 28.4846C32.0765 28.5007 32.0926 28.5168 32.0765 28.4685C32.0765 28.4685 32.0444 28.4203 32.0444 28.4042C31.9642 28.0184 31.8358 27.6327 31.6914 27.2629C31.6272 27.0861 31.547 26.9254 31.4828 26.7968C32.3493 26.7807 33.4886 26.7325 32.4937 26.7646C32.6221 26.7164 32.6702 26.6842 32.7344 26.6521L33.1195 26.4592C33.6009 26.1859 34.0502 25.8966 34.5155 25.4465C34.5958 25.3822 34.676 25.2857 34.7562 25.2054H34.7883L35.3499 25.1411H35.4141C34.7402 25.5751 34.9488 25.4465 35.4141 25.1411C35.6388 24.9964 35.9276 24.8035 36.2164 24.6267C36.9064 24.1766 37.5964 23.7265 37.4199 23.8551V23.839L37.4359 23.8068L37.5001 23.6943C37.6124 23.6139 37.7889 23.4693 38.0938 23.2442C39.0566 22.5691 38.9764 21.0259 38.8159 20.2543C39.2171 20.2222 39.6984 20.1257 40.3724 19.8685C40.3724 19.8685 40.3884 19.8846 40.4045 19.8846C40.6291 20.0132 40.8377 20.1739 40.9821 20.2865C41.0142 20.3025 41.0303 20.3186 41.0303 20.3186C41.3833 20.7044 41.64 20.8973 41.8326 21.042C43.2125 22.0708 44.4481 22.8102 45.8441 23.6782L46.0206 23.7908C46.0367 23.839 46.0527 23.8872 46.0688 23.9354C46.1329 24.3855 46.518 24.8356 46.9032 25.1732L46.8711 25.3179C46.5501 24.7553 47.5931 27.1986 48.3473 28.0988L48.3954 28.1149L48.4596 28.147L49.0373 28.4525L50.2087 29.0633L50.5135 29.2241L50.674 29.3044C50.8345 29.3205 50.9949 29.3366 50.674 29.3044C50.4012 29.2884 50.0963 29.2723 52.6958 29.4813L52.7279 29.4652L52.8242 29.433L53.3858 29.2562C53.8993 29.5777 54.2683 29.851 55.7767 30.4136L56.3062 30.5583C56.3864 30.6869 56.3543 30.6869 56.9159 31.2816C58.0873 32.1658 58.4243 32.1175 58.7131 32.1818C58.8736 32.6159 59.2587 33.4517 59.6598 33.934C60.1252 34.5609 60.4461 34.8985 60.8793 35.3807C60.8793 35.4129 61.1842 35.7022 61.3768 35.879V35.8951C61.3607 35.879 61.3286 35.863 61.3126 35.8308C61.2163 35.7183 61.2965 35.8308 61.3928 35.9594C61.4089 36.1202 61.4089 36.2648 61.4089 36.3452L61.4249 36.3613C61.4249 36.3291 61.4249 36.2488 61.457 36.1202C61.457 36.1041 61.457 36.1041 61.473 36.088C61.4891 36.1041 61.4891 36.1202 61.5051 36.1362C61.3928 36.6667 61.2805 37.374 61.473 37.7598C61.7298 38.5957 61.9223 38.869 62.0988 39.2065C62.2593 39.4477 62.5642 40.1067 62.7888 40.5568C62.837 40.6533 63.1258 41.248 63.2542 41.457L63.4628 41.8107C63.527 41.9071 63.5109 41.891 63.4949 41.875C63.4628 41.8428 63.4307 41.8107 63.9281 42.4697L64.0886 42.6465C64.5379 43.0966 64.9711 43.5307 65.4846 43.9647C66.0301 44.3666 66.5115 44.9292 67.8273 45.3632C69.0468 45.7008 70.1059 45.4918 70.6033 45.4114C71.0044 45.331 71.0044 45.3632 70.9082 45.3471C70.9724 45.331 71.4056 45.3793 71.6302 45.3953L72.4646 45.4596L72.6732 45.4757C72.7856 45.4757 72.7374 45.4757 72.7053 45.4757C72.6572 45.4757 72.593 45.4918 73.3472 45.4596L73.4435 45.4436L73.8607 45.3793H73.9248C75.1925 44.9131 75.1283 44.9292 74.9999 44.9774L75.0802 44.9292L75.2567 44.8167L75.6097 44.5916L76.3157 44.1254L76.4922 44.0129L76.5885 43.9486L76.6366 43.9165C76.6848 43.8682 76.9094 43.6432 77.1341 43.4181C77.5031 43.0484 77.8722 42.6787 77.471 43.0806L77.6636 42.7751C77.8722 43.1127 78.0968 43.4342 78.3857 43.82C78.5301 44.0451 78.9794 44.6077 79.5249 45.0256C79.7175 45.1703 79.9421 45.3471 80.231 45.5561C80.4717 45.9097 82.4293 46.7939 82.5416 46.7296C83.1032 46.8903 83.2156 46.9868 83.9376 47.1797C84.0018 47.2761 84.0339 47.3404 84.066 47.3565C84.2746 47.678 84.4511 47.9512 84.6597 48.2084L84.7399 48.321C84.8683 48.4656 84.9806 48.5782 85.0769 48.6585C85.0609 48.6907 85.0448 48.7068 85.0288 48.7389C84.3548 49.832 84.3227 49.7999 83.2476 50.7161C82.4132 51.3591 80.5519 52.9987 80.4235 55.4903C80.2631 55.5707 80.1186 55.6511 80.0063 55.7475C78.9152 56.6317 78.8029 56.4227 77.9043 57.9819C77.6796 57.9659 77.4229 57.9659 77.0859 57.998C76.749 58.0784 76.6366 58.0462 76.1392 58.2713C75.706 58.4481 75.1123 59.0107 75.1604 58.9786C75.016 59.1393 74.8395 59.3322 74.7271 59.4769L74.3741 59.9431L74.2939 60.0556L74.2458 60.1199C74.1655 60.4575 74.1976 60.2967 74.2297 60.136C74.2618 59.9431 74.31 59.7341 74.1334 60.57H74.0693L73.636 60.5378L73.5879 60.5218C73.3311 60.5861 73.4435 60.5539 73.5718 60.5218C73.7965 60.4735 74.0211 60.4092 71.9191 60.9397L71.8709 60.9719L71.7586 61.0362C71.5981 61.1487 71.4377 61.1969 71.3093 61.2773C71.4216 61.2773 70.6996 61.422 70.2824 61.4702L70.2021 61.4863C70.0096 61.5506 70.1059 61.5184 70.1861 61.4863C70.3465 61.422 70.491 61.3577 69.0468 61.9042L68.9987 61.9364L68.8222 62.0489L68.4692 62.2739C68.1643 62.4829 68.1322 62.4829 67.6027 62.8526C66.9929 63.3831 66.4794 64.01 66.1425 64.7494C65.9981 64.8137 65.8536 64.878 65.6932 64.9745C65.5648 65.0549 65.4364 65.1674 65.3081 65.2638C65.2118 65.2799 65.1155 65.3121 65.0353 65.3281C63.7997 65.6336 63.3504 65.6818 61.8582 65.9551C61.6496 66.0033 61.3286 66.0033 61.7137 66.0354C59.8684 66.1801 59.724 66.6945 59.371 66.8231C59.2266 66.9678 58.7612 67.1446 57.9429 67.6911C57.7985 67.8037 57.6862 67.884 57.622 67.9323C57.3011 67.9323 56.9962 67.9162 56.3222 67.9483L55.9211 67.9644L55.7285 67.9805H55.6804C55.8569 67.884 55.183 68.2216 54.5251 68.5753C53.6746 69.0093 52.8402 69.4433 53.7709 68.9611L53.7067 69.0414L53.5463 69.2343L53.3377 69.2826L53.2895 69.2986C53.2414 69.3308 53.1291 69.3951 52.9686 69.4915C52.9525 69.4915 52.9525 69.4915 52.9525 69.4915C52.3267 69.4272 52.3107 69.3147 51.701 69.2826L51.4603 74.7801C51.6689 74.8123 51.8614 74.8444 51.9095 74.8605C51.9898 74.8766 52.07 74.8927 52.1021 74.8927L52.2144 74.9248C52.5514 75.0213 52.9525 75.0695 53.3216 75.0534C54.0437 75.0373 54.4288 74.8123 54.8941 74.5551L55.1027 74.5069L55.2953 74.4747L55.3916 74.4587L55.4397 74.4426C54.6855 74.9087 55.3916 74.4908 56.0815 74.0729C56.6111 73.7514 57.1406 73.4299 57.0122 73.5102L57.1085 73.3977C57.4134 73.3977 57.8306 73.4138 58.1515 73.3977C58.0873 73.5585 60.1091 72.9958 60.1894 72.7708C60.5905 72.5136 60.9435 72.2243 60.9596 72.2082C61.0238 72.1278 61.5533 71.9188 62.2433 71.4527C62.5481 71.4205 62.7086 71.3723 62.9012 71.3401C63.527 71.2276 65.2439 70.9383 66.1746 70.6811C66.2869 70.665 66.3992 70.6328 66.4634 70.6168C66.4634 70.6168 66.4634 70.6168 66.4794 70.6168C66.5436 70.6007 66.8645 70.5203 67.2978 70.3756C67.6989 70.231 68.068 70.022 68.3247 69.813L68.3568 69.797L68.4531 69.7487L68.8382 69.588L69.2233 69.4272L69.7689 68.3341C70.2021 67.1124 69.9935 67.9323 70.2984 66.6784C70.3305 66.6945 70.3626 66.7106 70.3947 66.7267C70.507 66.8552 70.507 66.8392 70.491 66.807C70.5231 66.8713 70.6033 66.9999 70.7638 67.2732C70.8119 67.2411 71.1649 66.9999 71.3254 66.9035L71.4377 66.8392C71.9191 66.7749 72.3844 66.7106 73.283 66.373C73.5076 66.2766 73.7323 66.164 73.9409 66.0515C74.2618 66.0676 74.663 66.0837 75.1443 66.0033L75.4492 65.9551C75.4813 65.939 75.5776 65.9229 75.706 65.8747C75.9146 65.8586 75.5295 65.8265 75.016 65.7943C76.1874 65.6014 77.5513 65.3924 77.2303 65.4246L77.2785 65.3924C77.5031 65.1835 77.3106 65.3764 77.8401 64.9263C78.3696 64.3958 78.6585 63.8975 78.835 63.4474C79.3805 63.4313 79.8619 63.3992 79.7175 63.3992L79.7817 63.3831L80.1828 63.2063C80.1989 63.2063 80.6 63.0134 80.6963 62.9651C80.5038 63.0937 81.4826 62.5793 81.8356 62.0006C81.9479 61.8399 82.0923 61.5988 82.1405 61.5023C82.317 61.1648 82.4293 60.9236 82.5256 60.6664C82.5737 60.6343 82.6539 60.5539 82.686 60.4735C82.7342 60.4735 82.7984 60.4735 82.8946 60.4575C82.8625 60.5057 84.6918 60.1842 85.125 59.1876C85.9113 57.8533 85.6225 57.789 85.7348 57.3389C85.7829 56.8567 85.7508 56.7281 85.7348 56.5191C85.7027 56.1976 85.7027 55.9726 85.7027 55.8761C85.7027 55.8922 85.7027 55.8922 85.7027 55.8601V55.844C85.7027 55.8601 85.7027 55.8601 85.7027 55.8761C85.7027 55.844 85.7027 55.8279 85.7027 55.844C85.7508 55.7636 85.9434 55.4903 86.5692 54.976C87.3715 54.4455 89.0243 52.6933 89.5217 51.6485C89.8907 51.0215 90.2438 50.475 90.5968 49.4462C90.6289 48.9157 91.2868 48.4013 90.4524 46.3438C90.2438 45.8776 89.65 45.315 89.4896 45.2185C89.4575 45.2024 89.3933 45.1542 89.3933 45.1381L89.0243 44.8649L88.7515 44.6559C88.6552 44.5273 88.575 44.4148 88.5108 44.3023C88.7515 44.1737 88.6071 44.1897 88.4626 44.238C88.3022 44.2862 88.1096 44.3183 88.4145 44.1737L88.3022 43.9647L88.0294 43.5628C87.8047 43.2413 87.7245 43.2092 87.6122 43.0806C87.3876 42.8555 87.1469 42.6626 86.8741 42.4858C86.7297 42.3894 86.6976 42.3251 86.2643 42.1482L85.7187 41.9714C85.7187 41.9714 85.4941 41.9232 85.5101 41.9071H85.4941L85.4299 41.891C85.446 41.5695 85.3497 41.7624 85.3336 41.8589L84.9806 41.7624L84.1623 41.4892C84.0179 41.4409 83.8734 41.3927 83.6809 41.3445C83.6648 41.248 83.4242 41.248 83.36 41.1034C83.1995 40.9748 82.9909 40.814 82.7502 40.6372C82.7181 40.589 82.686 40.5568 82.6218 40.4604C82.4453 40.2353 82.2688 39.9621 82.0602 39.6727C82.0923 39.528 82.1084 39.3673 82.1244 39.1744C82.0281 38.7725 82.5577 38.1134 81.3221 36.2488C80.9049 35.7344 80.0866 35.3164 79.6854 35.2843C79.3484 35.2361 78.9954 35.2361 78.6424 35.2682C77.7599 35.3968 77.9043 35.4932 77.5192 35.6218C76.4601 36.1041 75.8343 36.7632 75.3369 37.2615C75.1123 37.4865 74.9197 37.6955 74.7271 37.9045L74.5185 38.1134C74.4865 38.1777 74.4223 38.0974 73.8286 38.9172L73.4114 39.5602L72.8498 39.9138L72.7374 39.9942L72.0474 39.9299C71.7265 39.9138 71.5981 39.8817 71.1168 39.8656C70.4749 39.8817 69.9294 39.9621 69.7849 39.9942C69.5603 40.1228 69.448 40.1067 69.3517 40.0585C69.3036 39.946 68.9987 40.0746 68.8543 39.737C68.5494 39.4637 68.2124 39.1583 67.9075 38.8368L67.7792 38.6118C67.6187 38.3385 67.6989 38.4189 67.4903 38.0331C67.2176 37.5187 67.0892 37.1811 66.7201 36.5542C66.7201 36.4256 66.7201 36.3452 66.7201 36.2327C66.7041 35.7987 66.672 35.4932 66.6399 35.1718L66.5757 34.6895C66.6078 34.7699 66.4955 34.4162 66.3832 34.0626C66.2227 33.5964 66.0783 33.1463 66.2227 33.6286L66.2067 33.5803L66.1425 33.4839L66.0302 33.291C65.8216 32.9695 65.8055 32.873 65.3562 32.2783C64.7304 31.6353 64.7625 31.6514 64.7946 31.6835C64.7785 31.6674 64.7465 31.6353 64.7144 31.5871C64.4255 31.2977 64.0725 30.8637 63.896 30.6386C63.8158 30.6226 63.9281 30.4457 63.6714 30.5583C63.896 30.3654 63.7195 30.4457 63.7516 30.3975C63.7355 30.3814 63.5911 29.9957 63.5109 29.8188C63.1258 29.1758 62.9011 28.0506 61.2003 27.2308C60.7189 27.0218 60.4942 26.9736 60.3017 26.9254L60.1573 26.7164L60.0449 26.5717L59.9968 26.5074L59.9647 26.4753C59.724 26.3145 59.8363 26.3788 59.9487 26.4592C60.1573 26.5878 60.3498 26.7164 58.5045 25.4626L57.1085 25.0928C57.3492 25.2375 55.7446 24.3534 55.1669 24.0319L54.862 23.8711C55.0385 23.8711 54.3646 23.8229 53.6586 23.7586C52.7119 23.6782 51.733 23.5818 52.776 23.6943L52.7439 23.7104L52.6637 23.7425L52.5033 23.7908L52.3107 23.8551C52.2626 23.4853 52.1342 23.0513 51.9095 22.553C51.8133 22.3601 51.7009 22.1994 51.6047 22.0547C51.38 21.7332 51.1554 21.5242 50.9307 21.3474C50.8345 21.2188 50.4975 20.7687 49.615 19.5952L49.5508 19.547L48.5399 18.9362C47.2401 18.1485 45.9083 17.3126 45.0097 16.6375L44.9134 16.5571C44.9134 16.5249 44.9295 16.5249 44.9134 16.5571C44.7048 16.3481 44.432 16.0748 44.2876 15.9784C43.8865 15.6569 43.5495 15.4319 43.1965 15.1907C42.8435 14.9818 42.5226 14.7889 42.1214 14.5799C41.9128 14.4834 41.7523 14.387 41.2389 14.2102C41.1105 14.2745 41.1747 14.2262 41.1586 14.1619C41.1586 14.1298 41.0945 14.0816 40.9179 14.0816C40.6933 14.0173 40.1798 14.0976 39.1208 14.387Z" fill="white"/>
</g>
<g id="Group_3">
<path id="Vector_2" d="M40.2115 0C32.6377 0 25.2886 3.15067 20.3464 8.18209C13.5428 14.8049 10.9754 24.064 11.4568 31.4424C11.9061 39.0136 14.9228 44.4309 16.8162 47.8869C18.838 51.3752 20.202 53.1434 20.1859 53.1595C20.202 53.1113 25.1442 60.7629 35.1891 69.8934C36.4567 71.0186 37.7564 72.2242 39.1524 73.3816L41.2866 75.182L41.3508 75.2463L41.3829 75.2785C40.7571 75.0052 41.3187 75.2624 41.8963 75.5196C42.3296 75.7125 42.7789 75.9214 42.6665 75.8571L42.827 75.8893L43.1319 75.9375C43.3244 75.9697 43.5812 76.0179 43.8058 76.0661C44.2712 76.1465 44.8167 76.243 45.3463 76.3073C46.4374 76.4198 47.6729 76.5484 49.3097 76.05C49.9194 75.9536 50.9624 75.1981 51.4598 74.7158H51.7005L51.9573 69.2182C51.4919 69.2022 51.171 69.2022 50.6896 69.2343L50.3045 69.2665L50.128 69.2825H50.0317C49.7589 69.4272 49.8873 69.3468 50.0157 69.2825C50.2403 69.1539 50.481 69.0414 48.3308 70.1506L48.2987 70.1827L47.7853 70.7454C47.7692 70.7614 47.7532 70.7614 47.7532 70.7775C47.7371 70.7775 47.7211 70.7936 47.6729 70.8097C47.4483 70.89 46.7262 70.9382 45.9239 70.8257C45.5228 70.7775 45.1377 70.7132 44.6884 70.6328C44.4958 70.6007 44.3514 70.5846 44.1588 70.5364L42.474 69.1218C41.1101 68.0126 39.8745 66.8392 38.639 65.7622C29.0113 56.9853 24.4381 49.8802 24.4061 49.9124C24.4061 49.8802 23.1384 48.2245 21.3092 45.0738C19.5441 41.9071 17.0248 37.1972 16.6879 31.1048C16.3028 25.0607 18.3727 17.5537 23.9407 12.1526C29.3322 6.70321 38.0934 3.95441 46.2288 6.34956C48.2506 6.91218 50.1922 7.71592 51.9412 8.82509C52.7756 9.41986 53.5298 9.9664 54.5246 10.8184C55.0542 11.2042 55.5195 11.7186 56.6106 12.1847C57.6055 12.7313 59.3064 12.683 60.3013 12.2169C62.291 11.2524 62.9489 10.2879 63.7191 9.78958C64.5374 9.19481 65.4039 8.64826 66.3506 8.18209C68.3083 7.2176 70.2338 6.39779 72.2556 6.04414C80.4873 4.22768 88.6708 7.8606 93.9339 13.4225C96.8543 16.4285 98.8762 19.9167 100.112 23.3889L105.07 21.4278C103.562 17.2322 101.123 13.0849 97.7048 9.54845C91.5912 2.97385 81.3859 -1.59141 71.2287 0.659069C68.6934 1.12524 66.2704 2.13795 64.024 3.24712C62.8847 3.80974 61.7294 4.5331 60.6382 5.32077C59.6915 6.06021 58.8731 6.76751 58.5041 7.00863C57.9585 6.52638 56.1774 5.2404 54.7332 4.16338C52.4868 2.71665 50.0638 1.72001 47.5927 1.04486C45.2018 0.337572 42.6826 0 40.2115 0Z" fill="white"/>
</g>
<g id="Group_4">
<path id="Vector_3" d="M100.144 23.3567C101.075 25.9609 101.54 28.5489 101.604 30.9441C101.604 31.2495 101.621 31.5388 101.604 31.8282C101.54 36.7632 99.9678 40.814 98.7001 43.7879C98.4755 44.3183 98.2508 44.8006 98.0583 45.2667C97.272 46.8903 96.4697 48.4335 95.6514 49.9124L100.578 51.9056C101.348 50.5554 102.086 49.1408 102.808 47.6458C103.097 46.9546 103.45 46.183 103.819 45.315C105.183 42.1 106.771 37.6633 106.9 31.9086V31.7157C106.932 28.4525 106.338 24.916 105.103 21.4117L100.144 23.3567Z" fill="white"/>
</g>
<g id="Group_5">
<path id="Vector_4" d="M80.0382 70.5686C73.6198 77.1432 67.2655 83.6374 58.6006 89.3118C68.1641 85.1163 75.4169 79.6026 82.6698 73.4942C88.8636 67.9323 95.1858 61.4702 100.609 51.8414L95.6832 49.8481C90.8694 58.4642 85.3655 64.7816 80.0382 70.5686Z" fill="white"/>
</g>
<path id="Vector_5" d="M2.75994 109.598C2.24646 109.502 1.79717 109.341 1.37997 109.1C0.962768 108.859 0.641846 108.537 0.385107 108.119C0.128369 107.701 0 107.187 0 106.528C0 105.933 0.112323 105.338 0.336969 104.776C0.561614 104.213 0.898582 103.699 1.36392 103.249C1.82926 102.799 2.40692 102.429 3.0969 102.139C3.78689 101.85 4.62129 101.673 5.56801 101.625L5.40755 99.1335C5.76056 98.9567 6.09753 98.7959 6.41845 98.6352C6.73938 98.4744 7.01216 98.3458 7.25285 98.2172C7.54168 98.0726 7.81447 97.944 8.0712 97.8314L7.54168 107.251H7.67005V109.711H4.28432C3.78689 109.743 3.27341 109.695 2.75994 109.598ZM5.40755 107.283L5.6001 104.036H5.23104C4.92616 104.036 4.60524 104.068 4.26827 104.149C3.91526 104.229 3.59433 104.342 3.3055 104.519C3.00063 104.679 2.75994 104.904 2.55134 105.162C2.35878 105.419 2.24646 105.74 2.24646 106.11C2.24646 106.287 2.27855 106.464 2.34274 106.608C2.40692 106.769 2.51924 106.898 2.64761 107.01C2.79203 107.123 2.96853 107.219 3.17713 107.283C3.38573 107.348 3.64247 107.38 3.94735 107.38L5.40755 107.283ZM3.86712 94.8254C3.86712 94.6647 3.89921 94.52 3.9634 94.3753C4.02758 94.2307 4.10781 94.1181 4.20409 94.0056C4.30036 93.8931 4.41269 93.8127 4.5571 93.7484C4.68547 93.6841 4.82989 93.652 4.99035 93.652C5.15081 93.652 5.29522 93.6841 5.42359 93.7484C5.55196 93.8127 5.68033 93.8931 5.77661 94.0056C5.87288 94.1181 5.95311 94.2307 6.0173 94.3753C6.08148 94.52 6.11358 94.6647 6.11358 94.8254C6.11358 95.1469 6.00125 95.4202 5.79265 95.6453C5.58405 95.8703 5.31127 95.9828 5.00639 95.9828C4.68547 95.9828 4.42873 95.8703 4.22013 95.6453C3.97944 95.4202 3.86712 95.1469 3.86712 94.8254ZM6.59496 94.8254C6.59496 94.6647 6.62705 94.52 6.69124 94.3753C6.75542 94.2307 6.83565 94.1181 6.93193 94.0056C7.02821 93.8931 7.15658 93.8127 7.28495 93.7484C7.41331 93.6841 7.55773 93.652 7.71819 93.652C7.87865 93.652 8.00702 93.6841 8.15143 93.7484C8.2798 93.8127 8.40817 93.8931 8.50445 94.0056C8.60073 94.1181 8.68096 94.2307 8.74514 94.3753C8.80933 94.52 8.84142 94.6647 8.84142 94.8254C8.84142 94.9862 8.80933 95.1309 8.74514 95.2755C8.68096 95.4202 8.60073 95.5327 8.50445 95.6453C8.40817 95.7417 8.2798 95.8221 8.15143 95.8864C8.02307 95.9507 7.87865 95.9828 7.71819 95.9828C7.55773 95.9828 7.42936 95.9507 7.28495 95.8864C7.15658 95.8221 7.02821 95.7417 6.93193 95.6453C6.83565 95.5488 6.75542 95.4202 6.69124 95.2755C6.62705 95.1309 6.59496 94.9862 6.59496 94.8254Z" fill="white"/>
<path id="Vector_6" d="M7.44531 109.743V107.283H11.2803L10.9594 100.403L12.901 99.23L13.3182 109.743H7.44531ZM8.00693 112.91C8.00693 112.749 8.03902 112.604 8.1032 112.46C8.16739 112.315 8.24762 112.202 8.34389 112.09C8.44017 111.977 8.5525 111.897 8.69691 111.849C8.82528 111.784 8.9697 111.752 9.13016 111.752C9.29062 111.752 9.43503 111.784 9.5634 111.849C9.69177 111.913 9.82014 111.993 9.91642 112.09C10.0127 112.202 10.0929 112.315 10.1571 112.46C10.2213 112.588 10.2534 112.749 10.2534 112.91C10.2534 113.231 10.1411 113.504 9.93246 113.729C9.72386 113.955 9.45108 114.067 9.1462 114.067C8.82528 114.067 8.56854 113.955 8.35994 113.729C8.11925 113.504 8.00693 113.231 8.00693 112.91ZM10.7187 112.91C10.7187 112.749 10.7508 112.604 10.815 112.46C10.8792 112.315 10.9594 112.202 11.0557 112.09C11.152 111.977 11.2803 111.897 11.4087 111.849C11.5371 111.784 11.6815 111.752 11.842 111.752C12.0024 111.752 12.1308 111.784 12.2752 111.849C12.4036 111.913 12.5319 111.993 12.6282 112.09C12.7245 112.202 12.8047 112.315 12.8689 112.46C12.9331 112.588 12.9652 112.749 12.9652 112.91C12.9652 113.07 12.9331 113.215 12.8689 113.36C12.8047 113.504 12.7245 113.617 12.6282 113.729C12.5319 113.826 12.4036 113.906 12.2752 113.971C12.1468 114.035 12.0024 114.067 11.842 114.067C11.6815 114.067 11.5371 114.035 11.4087 113.971C11.2803 113.906 11.152 113.826 11.0557 113.729C10.9594 113.633 10.8792 113.504 10.815 113.36C10.7508 113.215 10.7187 113.07 10.7187 112.91Z" fill="white"/>
<path id="Vector_7" d="M15.613 107.283H29.3485C29.3485 107.107 29.3324 106.93 29.2843 106.785C29.2362 106.64 29.172 106.496 29.0597 106.383C28.9473 106.271 28.819 106.19 28.6585 106.126C28.4981 106.062 28.2894 106.03 28.0648 106.03H16.0302L16.9127 103.554H28.8992C29.2362 103.554 29.5731 103.634 29.878 103.779C30.1829 103.924 30.4557 104.117 30.6964 104.374C30.9371 104.615 31.1296 104.904 31.274 105.226C31.4184 105.547 31.4826 105.885 31.4826 106.222V109.743H14.7305L15.613 107.283Z" fill="white"/>
<path id="Vector_8" d="M33.585 105.612C33.585 105.097 33.6973 104.615 33.9219 104.181C34.1305 103.747 34.4194 103.361 34.7724 103.04C35.1254 102.718 35.5265 102.461 35.9758 102.268C36.4251 102.075 36.8905 101.979 37.3718 101.979L37.6767 101.995C38.3988 102.059 38.9925 102.252 39.4418 102.574C39.8911 102.911 40.2441 103.313 40.5169 103.811C40.7736 104.31 40.9501 104.856 41.0464 105.451C41.1427 106.046 41.1908 106.657 41.1908 107.283H41.3031V109.743H41.0625C41.0143 110.177 40.9341 110.595 40.8218 111.029C40.7094 111.463 40.5811 111.865 40.4046 112.267C40.2281 112.669 40.0195 113.022 39.7788 113.36C39.5381 113.697 39.2492 114.003 38.9123 114.244C38.5753 114.501 38.1902 114.694 37.773 114.839C37.3558 114.983 36.8584 115.048 36.3128 115.048C36.5374 114.919 36.8102 114.726 37.083 114.453C37.3718 114.18 37.6446 113.826 37.9014 113.392C38.1581 112.958 38.3667 112.427 38.5432 111.833C38.7197 111.222 38.8 110.531 38.8 109.743H37.0991C36.6016 109.695 36.1363 109.566 35.7191 109.357C35.2858 109.148 34.9168 108.859 34.6119 108.521C34.307 108.184 34.0503 107.782 33.8738 107.332C33.6973 106.882 33.601 106.415 33.601 105.901L33.585 105.612ZM35.7351 105.853C35.7351 106.062 35.7672 106.271 35.8475 106.448C35.9277 106.64 36.024 106.817 36.1523 106.962C36.2807 107.107 36.4412 107.235 36.6016 107.316C36.7781 107.412 36.9707 107.444 37.1632 107.444H38.8481V105.853C38.8481 105.644 38.816 105.435 38.7358 105.242C38.6555 105.049 38.5593 104.872 38.4309 104.728C38.3025 104.583 38.1421 104.454 37.9816 104.358C37.8051 104.261 37.6125 104.229 37.4039 104.229H37.3077C37.0991 104.229 36.9065 104.261 36.714 104.342C36.5214 104.422 36.3609 104.519 36.2165 104.663C36.0721 104.792 35.9598 104.953 35.8635 105.146C35.7833 105.322 35.7351 105.515 35.7351 105.724V105.853Z" fill="white"/>
<path id="Vector_9" d="M41.0459 109.743V107.283H46.8706C46.3732 106.48 45.9721 105.724 45.6993 105.033C45.4265 104.342 45.2179 103.747 45.0895 103.249C44.9291 102.654 44.8488 102.123 44.8007 101.641L47.2718 100.259V100.323C47.2718 100.339 47.2718 100.371 47.2718 100.403C47.2718 100.436 47.2718 100.468 47.2718 100.516C47.2718 100.709 47.2878 101.014 47.3039 101.432C47.3199 101.85 47.4002 102.348 47.5125 102.927C47.6248 103.506 47.8013 104.165 48.042 104.904C48.2827 105.644 48.6197 106.431 49.0529 107.267H49.069C49.4541 106.48 49.775 105.772 50.0157 105.129C50.2564 104.486 50.4489 103.908 50.5773 103.393C50.7057 102.879 50.8019 102.429 50.8501 102.043C50.8982 101.657 50.9303 101.336 50.9303 101.062C50.9303 100.902 50.9303 100.757 50.9143 100.628C50.8982 100.516 50.8982 100.403 50.8822 100.323C50.8661 100.227 50.834 100.146 50.818 100.082L53.2089 101.336C53.2249 101.384 53.241 101.432 53.257 101.496C53.273 101.561 53.2891 101.625 53.2891 101.705C53.3051 101.786 53.3051 101.898 53.3051 102.011C53.3051 102.22 53.2731 102.461 53.2089 102.782C53.1447 103.088 53.0484 103.458 52.8879 103.876C52.7435 104.31 52.5349 104.792 52.2782 105.354C52.0215 105.917 51.6845 106.544 51.2994 107.235H53.9309V109.695H41.0459V109.743Z" fill="white"/>
<path id="Vector_10" d="M53.6904 107.283H57.3008L57.028 102.686L58.9696 101.545L59.3868 109.743H53.6904V107.283Z" fill="white"/>
<path id="Vector_11" d="M58.3438 109.743V107.283H61.0235L60.3014 101.513L62.4355 100.355L63.1736 107.283H64.6178L64.3129 100.371L66.3508 99.1978L66.768 107.283H66.8803V109.743H58.3438Z" fill="white"/>
<path id="Vector_12" d="M66.6719 109.743V107.283H70.2662L69.849 91.9642L71.9992 90.7907L72.4164 109.743H66.6719Z" fill="white"/>
<path id="Vector_13" d="M75.032 91.9803L77.1822 90.7907L76.6527 107.348C76.6527 107.46 76.6366 107.557 76.6366 107.653V107.926C76.6366 108.361 76.6687 108.682 76.749 108.875C76.8292 109.084 76.9736 109.212 77.2143 109.261C76.8773 109.454 76.5564 109.598 76.2676 109.695C75.9627 109.807 75.722 109.855 75.5295 109.855C75.3209 109.855 75.1604 109.807 75.032 109.711C74.9037 109.614 74.8074 109.454 74.7272 109.229C74.6469 109.02 74.5988 108.73 74.5667 108.393C74.5346 108.055 74.5186 107.637 74.5186 107.171L75.032 91.9803Z" fill="white"/>
<path id="Vector_14" d="M82.0596 104.229C82.0435 104.438 82.0275 104.647 82.0114 104.84C82.0114 105.049 81.9954 105.242 81.9954 105.419C81.9954 106.046 82.0596 106.624 82.1719 107.139C82.3003 107.653 82.4607 108.119 82.6693 108.521C82.8779 108.923 83.1186 109.277 83.4074 109.582C83.6802 109.888 83.9851 110.129 84.29 110.338C84.5949 110.531 84.9158 110.691 85.2206 110.788C85.5416 110.884 85.8465 110.932 86.1353 110.932C86.2637 110.932 86.4402 110.9 86.6808 110.836C86.9215 110.772 87.1783 110.675 87.4511 110.531C87.7239 110.386 87.9966 110.209 88.2694 109.984C88.5422 109.759 88.7668 109.47 88.9594 109.148C89.152 108.811 89.2803 108.425 89.3445 107.991C89.4087 107.557 89.3766 107.042 89.2482 106.48L88.4459 102.67L90.5961 101.545L91.5428 106.737C91.5428 108.778 91.1256 110.338 90.2752 111.415C89.4247 112.492 88.1731 113.038 86.5204 113.038C85.5897 113.038 84.8035 112.894 84.1295 112.604C83.4716 112.315 82.91 111.913 82.4928 111.415C82.0596 110.916 81.7547 110.354 81.5461 109.711C81.3375 109.068 81.2412 108.409 81.2412 107.717C81.2412 107.123 81.3054 106.528 81.4498 105.933C81.5942 105.338 81.8028 104.776 82.0596 104.229Z" fill="white"/>
<path id="Vector_15" d="M90.5 109.743V107.283H93.1957L93.6129 101.529L95.7631 100.355L95.3459 107.283H96.8061L97.3356 100.371L99.4858 99.1978L98.9563 107.283H99.0686V109.743H90.5ZM92.2009 96.8509C92.2009 96.6901 92.233 96.5455 92.2972 96.4008C92.3613 96.2561 92.4416 96.1436 92.5379 96.031C92.6341 95.9185 92.7465 95.8382 92.8909 95.7739C93.0192 95.7096 93.1637 95.6774 93.3241 95.6774C93.4846 95.6774 93.629 95.7096 93.7574 95.7739C93.8857 95.8382 94.0141 95.9185 94.1104 96.031C94.2067 96.1436 94.2869 96.2561 94.3511 96.4008C94.4153 96.5455 94.4473 96.6901 94.4473 96.8509C94.4473 97.1724 94.335 97.4456 94.1264 97.6707C93.9178 97.8957 93.645 98.0083 93.3402 98.0083C93.0192 98.0083 92.7625 97.8957 92.5539 97.6707C92.3132 97.4456 92.2009 97.1724 92.2009 96.8509ZM93.6771 94.3593C93.6771 94.2307 93.7092 94.086 93.7574 93.9735C93.8055 93.8449 93.8857 93.7484 93.966 93.652C94.0462 93.5555 94.1585 93.4912 94.2869 93.4269C94.4153 93.3787 94.5276 93.3466 94.672 93.3466C94.8164 93.3466 94.9448 93.3787 95.0571 93.4269C95.1694 93.4752 95.2817 93.5555 95.362 93.652C95.4422 93.7484 95.5224 93.8609 95.5706 93.9735C95.6187 94.1021 95.6508 94.2307 95.6508 94.3593C95.6508 94.5039 95.6187 94.6325 95.5706 94.7611C95.5224 94.8897 95.4422 95.0023 95.362 95.0826C95.2817 95.1791 95.1694 95.2434 95.0571 95.2916C94.9448 95.3398 94.8164 95.372 94.672 95.372C94.5436 95.372 94.4153 95.3398 94.2869 95.2916C94.1585 95.2434 94.0622 95.163 93.966 95.0826C93.8857 94.9862 93.8055 94.8897 93.7574 94.7611C93.7092 94.6325 93.6771 94.5039 93.6771 94.3593ZM94.9287 96.8509C94.9287 96.6901 94.9608 96.5455 95.025 96.4008C95.0892 96.2561 95.1694 96.1436 95.2657 96.031C95.362 95.9185 95.4903 95.8382 95.6187 95.7739C95.7471 95.7096 95.8915 95.6774 96.052 95.6774C96.2124 95.6774 96.3408 95.7096 96.4852 95.7739C96.6136 95.8382 96.7419 95.9185 96.8382 96.031C96.9345 96.1436 97.0147 96.2561 97.0789 96.4008C97.1431 96.5455 97.1752 96.6901 97.1752 96.8509C97.1752 97.0116 97.1431 97.1563 97.0789 97.301C97.0147 97.4456 96.9345 97.5582 96.8382 97.6707C96.7419 97.7671 96.6136 97.8475 96.4852 97.9118C96.3568 97.9761 96.2124 98.0083 96.052 98.0083C95.8915 98.0083 95.7631 97.9761 95.6187 97.9118C95.4903 97.8475 95.362 97.7671 95.2657 97.6707C95.1694 97.5742 95.0892 97.4456 95.025 97.301C94.9608 97.1563 94.9287 97.0116 94.9287 96.8509Z" fill="white"/>
<path id="Vector_16" d="M98.8281 109.743V107.283H102.936L101.941 102.027L103.963 100.854L105.006 107.283H105.118V109.743H98.8281ZM99.6304 112.861C99.6304 112.701 99.6625 112.556 99.7267 112.411C99.7909 112.267 99.8711 112.154 99.9674 112.042C100.064 111.929 100.176 111.849 100.32 111.784C100.449 111.72 100.593 111.688 100.754 111.688C100.914 111.688 101.059 111.72 101.187 111.784C101.315 111.849 101.444 111.929 101.54 112.042C101.636 112.138 101.716 112.267 101.781 112.411C101.845 112.54 101.877 112.701 101.877 112.861C101.877 113.183 101.765 113.456 101.556 113.681C101.347 113.906 101.075 114.019 100.77 114.019C100.449 114.019 100.192 113.906 99.9834 113.681C99.7267 113.456 99.6304 113.183 99.6304 112.861ZM102.342 112.861C102.342 112.701 102.374 112.556 102.439 112.411C102.503 112.267 102.583 112.154 102.679 112.042C102.775 111.929 102.904 111.849 103.032 111.784C103.161 111.72 103.305 111.688 103.465 111.688C103.626 111.688 103.754 111.72 103.899 111.784C104.027 111.849 104.155 111.929 104.252 112.042C104.348 112.138 104.428 112.267 104.492 112.411C104.557 112.54 104.589 112.701 104.589 112.861C104.589 113.022 104.557 113.167 104.492 113.312C104.428 113.456 104.348 113.569 104.252 113.681C104.155 113.778 104.027 113.858 103.899 113.922C103.77 113.987 103.626 114.019 103.465 114.019C103.305 114.019 103.177 113.987 103.032 113.922C102.904 113.858 102.775 113.778 102.679 113.681C102.583 113.585 102.503 113.456 102.439 113.312C102.374 113.167 102.342 113.022 102.342 112.861Z" fill="white"/>
<path id="Vector_17" d="M104.91 107.283H113.189C112.724 107.107 112.291 106.898 111.858 106.657C111.424 106.399 111.055 106.126 110.734 105.821C110.413 105.515 110.157 105.178 109.964 104.808C109.772 104.438 109.675 104.052 109.675 103.651C109.675 103.265 109.788 102.879 110.012 102.493C110.237 102.107 110.542 101.738 110.943 101.416C111.344 101.095 111.809 100.821 112.355 100.596C112.901 100.371 113.494 100.243 114.136 100.178L118.485 101.529C117.779 101.529 117.073 101.609 116.367 101.754C115.661 101.898 115.035 102.107 114.473 102.365C113.911 102.622 113.462 102.911 113.109 103.249C112.756 103.57 112.58 103.924 112.58 104.277C112.58 104.647 112.708 105.001 112.965 105.338C113.222 105.676 113.558 105.997 113.992 106.271C114.425 106.544 114.906 106.769 115.468 106.946C116.03 107.123 116.591 107.235 117.185 107.3H118.292L120.025 109.759H104.894V107.283H104.91Z" fill="white"/>
<path id="Vector_18" d="M28.0648 118.279H26.043V128.068H28.0648V118.279Z" fill="white"/>
<path id="Vector_19" d="M31.7875 119.452C31.7875 120.031 31.3703 120.497 30.6963 120.497C30.0545 120.497 29.6533 120.031 29.6533 119.452C29.6533 118.857 30.0866 118.407 30.7284 118.407C31.3703 118.407 31.7714 118.857 31.7875 119.452ZM29.7015 121.317H31.7233V128.052H29.7015V121.317Z" fill="white"/>
<path id="Vector_20" d="M34.8364 121.317L35.719 124.451C35.8794 125.03 35.9918 125.561 36.088 126.091H36.1201C36.2324 125.544 36.3287 125.03 36.4731 124.451L37.3075 121.317H39.4256L37.0027 128.052H34.9808L32.6221 121.317H34.8364Z" fill="white"/>
<path id="Vector_21" d="M41.7361 125.368C41.7842 126.236 42.6186 126.654 43.5653 126.654C44.2553 126.654 44.8169 126.557 45.3625 126.364L45.6353 127.779C44.9774 128.068 44.159 128.213 43.2765 128.213C41.0782 128.213 39.8105 126.895 39.8105 124.789C39.8105 123.085 40.8375 121.188 43.1 121.188C45.202 121.188 46.0044 122.876 46.0044 124.548C46.0044 124.901 45.9723 125.223 45.9402 125.368H41.7361ZM44.1109 123.921C44.1109 123.406 43.9023 122.555 42.9716 122.555C42.1212 122.555 41.7682 123.374 41.72 123.921H44.1109Z" fill="white"/>
<path id="Vector_22" d="M47.1761 126.236C47.5452 126.477 48.3154 126.734 48.9091 126.734C49.5189 126.734 49.7756 126.525 49.7756 126.187C49.7756 125.834 49.583 125.657 48.8289 125.4C47.465 124.934 46.9515 124.178 46.9675 123.374C46.9675 122.104 48.0105 121.156 49.6151 121.156C50.3693 121.156 51.0432 121.349 51.4283 121.558L51.0914 123.005C50.8025 122.844 50.2249 122.619 49.6793 122.619C49.1819 122.619 48.9091 122.828 48.9091 123.149C48.9091 123.487 49.1658 123.648 49.9521 123.937C51.1877 124.371 51.6851 125.046 51.7011 126.011C51.7011 127.281 50.7544 128.197 48.8931 128.197C48.0426 128.197 47.2884 127.988 46.791 127.715L47.1761 126.236Z" fill="white"/>
<path id="Vector_23" d="M58.376 126.429C58.376 127.056 58.408 127.682 58.4883 128.052H56.659L56.5467 127.377H56.4986C56.0653 127.908 55.4074 128.197 54.6372 128.197C53.3214 128.197 52.5352 127.2 52.5352 126.123C52.5352 124.371 54.0435 123.551 56.3541 123.551V123.471C56.3541 123.101 56.1616 122.587 55.1667 122.587C54.5088 122.587 53.8028 122.828 53.3696 123.101L53.0005 121.751C53.4498 121.494 54.3484 121.14 55.5197 121.14C57.686 121.14 58.3599 122.458 58.3599 124.066V126.429H58.376ZM56.4183 124.885C55.3593 124.885 54.5249 125.143 54.5249 125.946C54.5249 126.477 54.8779 126.75 55.3272 126.75C55.8246 126.75 56.2418 126.413 56.3702 125.979C56.4023 125.866 56.4183 125.737 56.4183 125.625V124.885Z" fill="white"/>
<path id="Vector_24" d="M66.0943 125.898C66.0943 126.782 66.1264 127.49 66.1425 128.068H64.3934L64.2972 127.12H64.249C63.9923 127.538 63.3825 128.229 62.2112 128.229C60.8793 128.229 59.9326 127.377 59.9326 125.287V121.333H61.9544V124.95C61.9544 125.93 62.2593 126.525 62.9814 126.525C63.543 126.525 63.8639 126.123 63.9923 125.802C64.0404 125.673 64.0725 125.528 64.0725 125.352V121.349H66.0943V125.898Z" fill="white"/>
<path id="Vector_25" d="M74.021 118.279V126.043C74.021 126.798 74.0531 127.602 74.0692 128.052H72.272L72.1918 127.072H72.1597C71.7585 127.811 70.9562 128.197 70.1218 128.197C68.5814 128.197 67.3458 126.83 67.3458 124.741C67.3298 122.474 68.6937 121.14 70.2502 121.14C71.0525 121.14 71.6783 121.445 71.9671 121.895H71.9992V118.279H74.021ZM71.9992 124.178C71.9992 124.066 71.9992 123.921 71.9671 123.792C71.8548 123.246 71.4055 122.78 70.7797 122.78C69.849 122.78 69.3837 123.632 69.3837 124.692C69.3837 125.834 69.9293 126.557 70.7637 126.557C71.3413 126.557 71.8227 126.139 71.9511 125.544C71.9832 125.4 71.9832 125.223 71.9832 125.062V124.178H71.9992Z" fill="white"/>
<path id="Vector_26" d="M77.7279 119.452C77.7279 120.031 77.3107 120.497 76.6367 120.497C75.9949 120.497 75.5938 120.031 75.5938 119.452C75.5938 118.857 76.027 118.407 76.6688 118.407C77.3107 118.407 77.7118 118.857 77.7279 119.452ZM75.6419 121.317H77.6637V128.052H75.6419V121.317Z" fill="white"/>
<path id="Vector_27" d="M79.123 126.943C79.123 126.187 79.6204 125.657 80.3102 125.657C81.0001 125.657 81.4813 126.171 81.4974 126.943C81.4974 127.666 81.0161 128.212 80.2942 128.212C79.6204 128.212 79.123 127.682 79.123 126.943Z" fill="white"/>
<path id="Vector_28" d="M82.7181 126.236C83.0872 126.477 83.8574 126.734 84.4511 126.734C85.0609 126.734 85.3176 126.525 85.3176 126.187C85.3176 125.834 85.125 125.657 84.3709 125.4C83.0069 124.934 82.4935 124.178 82.5095 123.374C82.5095 122.104 83.5525 121.156 85.1571 121.156C85.9113 121.156 86.5852 121.349 86.9703 121.558L86.6334 123.005C86.3445 122.844 85.7669 122.619 85.2213 122.619C84.7239 122.619 84.4511 122.828 84.4511 123.149C84.4511 123.487 84.7078 123.648 85.4941 123.937C86.7297 124.371 87.2271 125.046 87.2431 126.011C87.2431 127.281 86.2964 128.197 84.435 128.197C83.5846 128.197 82.8304 127.988 82.333 127.715L82.7181 126.236Z" fill="white"/>
<path id="Vector_29" d="M93.9019 126.429C93.9019 127.056 93.934 127.682 94.0142 128.052H92.201L92.0887 127.377H92.0405C91.6233 127.908 90.9494 128.197 90.1792 128.197C88.8634 128.197 88.0771 127.2 88.0771 126.123C88.0771 124.371 89.5855 123.551 91.8961 123.551V123.471C91.8961 123.101 91.7036 122.587 90.7087 122.587C90.0508 122.587 89.3448 122.828 88.9115 123.101L88.5425 121.751C88.9918 121.494 89.8904 121.14 91.0617 121.14C93.228 121.14 93.9019 122.458 93.9019 124.066V126.429ZM91.9443 124.885C90.8852 124.885 90.0508 125.143 90.0508 125.946C90.0508 126.477 90.4038 126.75 90.8531 126.75C91.3506 126.75 91.7678 126.413 91.8961 125.979C91.9282 125.866 91.9443 125.737 91.9443 125.625V124.885Z" fill="white"/>
</g>
</svg>
