<svg width="96" height="147" viewBox="0 0 96 147" fill="none" xmlns="http://www.w3.org/2000/svg">
<g id="Group">
<path id="Vector" d="M77.1052 134.347L72.6094 146.028H74.6745L75.2045 144.673C75.2045 144.673 75.6614 143.391 77.0138 143.391H80.7238L81.5279 146.01H83.4834L79.1886 134.347H77.1052ZM77.2697 141.762C76.2645 141.762 75.9538 142.146 75.9538 142.146L78.0738 136.709L79.9928 141.744H77.2697V141.762Z" fill="white"/>
<path id="Vector_2" d="M47.9194 134.347C47.2797 138.668 45.6715 143.758 45.6715 143.758L45.6532 143.813L45.6167 143.758C45.6167 143.758 44.246 140.645 43.6063 136.324H41.5594C40.6822 140.389 39.5308 143.758 39.5308 143.758L39.5126 143.813L39.4943 143.758C39.4943 143.758 37.886 138.668 37.2464 134.347H35.2178C35.7478 139.089 38.544 146.046 38.544 146.046H40.4995C40.4995 146.046 41.6691 142.806 42.5829 139.419C43.4967 142.824 44.6846 146.046 44.6846 146.046H46.6401C46.6401 146.046 49.4363 139.071 49.9663 134.347H47.9194Z" fill="white"/>
<path id="Vector_3" d="M54.3159 134.347L49.8018 146.028H51.8669L52.3969 144.673C52.3969 144.673 52.8538 143.391 54.1879 143.391H57.8979L58.702 146.01H60.6941L56.3993 134.347H54.3159ZM54.4803 141.762C53.4752 141.762 53.1828 142.146 53.1828 142.146L55.3027 136.709L57.2217 141.744H54.4803V141.762Z" fill="white"/>
<path id="Vector_4" d="M16.5759 134.347L12.0801 146.028H14.1452L14.657 144.673C14.657 144.673 15.1138 143.391 16.4662 143.391H20.1762L20.9804 146.01H22.9724L18.6593 134.347H16.5759ZM16.7221 141.762C15.7169 141.762 15.4245 142.146 15.4245 142.146L17.5445 136.709L19.4635 141.744H16.7221V141.762Z" fill="white"/>
<path id="Vector_5" d="M25.9517 134.402L24.0693 135.061V146.101H31.471V144.49H25.9517V134.402Z" fill="white"/>
<path id="Vector_6" d="M54.4799 119.133C56.1064 119.133 56.9471 119.774 56.9471 119.774V115.16C56.9471 112.285 54.5896 110.436 51.172 110.436C48.5586 110.436 45.5065 111.626 45.5065 111.626L46.4569 108.221C46.4569 108.221 48.8144 107.287 51.903 107.287C55.284 107.287 60.2368 108.624 60.2368 114.775V121.403L58.1716 122.703C58.1716 122.703 57.5137 122.19 55.3389 122.19C55.1196 122.19 12.6651 122.19 12.6651 122.19C10.4537 122.19 9.44854 120.762 9.44854 118.565V110.894C7.94994 111.297 3.14342 112.78 3.14342 115.727C3.14342 118.529 5.95788 119.462 8.99165 119.462L7.05442 122.209C3.78307 122.209 0 120.359 0 115.911C0 108.843 9.13786 108.294 10.5268 106.518L12.3727 107.855V119.151H54.4799V119.133ZM92.5665 102.564V122.209H95.5637V101.795L92.5665 102.564ZM82.46 122.19L82.4235 122.447C81.8021 126.127 79.7552 127.994 76.3194 127.994H75.8442L74.967 124.79C75.2046 124.808 75.5153 124.845 75.8625 124.845C78.4028 124.845 79.1887 123.618 79.408 122.575L79.4994 122.135L79.0607 122.209C79.0607 122.209 78.549 122.282 77.7632 122.282C74.8939 122.282 70.0874 121.385 70.0874 115.288C70.0874 109.448 74.8208 107.91 77.3245 107.91C80.2669 107.91 82.0762 108.367 82.6428 108.551V119.151L86.2066 119.133V102.582L89.3682 101.758V118.51C89.3682 121.659 88.5824 122.209 85.2014 122.209H84.9455L82.46 122.19ZM79.4811 111.388L79.2252 111.333C78.9145 111.278 77.8911 111.169 77.087 111.205C75.168 111.333 73.1211 112.469 73.1211 115.233C73.1211 117.412 74.638 119.114 76.8128 119.114H79.4811V111.388ZM64.3305 122.19H67.3277V101.795L64.3305 102.564V122.19ZM11.6965 105.64C12.6102 105.64 13.3413 104.889 13.3413 103.992C13.3413 103.076 12.6102 102.344 11.6965 102.344C10.7827 102.344 10.0334 103.095 10.0334 103.992C10.0334 104.907 10.7827 105.64 11.6965 105.64ZM7.34684 105.64C8.26062 105.64 8.99165 104.889 8.99165 103.992C8.99165 103.076 8.24235 102.344 7.34684 102.344C6.43305 102.344 5.70202 103.095 5.70202 103.992C5.70202 104.907 6.43305 105.64 7.34684 105.64Z" fill="white"/>
<path id="Vector_7" d="M63.4899 15.7269C63.4899 7.04874 56.4537 0 47.7911 0V31.4538C47.7728 22.7757 54.8089 15.7269 63.4899 15.7269Z" fill="white"/>
<path id="Vector_8" d="M47.7731 31.4538V0C39.1104 0 32.0742 7.04874 32.0742 15.7269C40.7552 15.7269 47.7731 22.7757 47.7731 31.4538Z" fill="white"/>
<path id="Vector_9" d="M16.375 62.9077C16.375 71.5859 23.4112 78.6346 32.0738 78.6346V47.1808C32.0738 55.8773 25.056 62.9077 16.375 62.9077Z" fill="white"/>
<path id="Vector_10" d="M47.7731 62.9077C39.1104 62.9077 32.0742 55.859 32.0742 47.1808V78.6529C32.0742 69.9564 39.1104 62.9077 47.7731 62.9077Z" fill="white"/>
<path id="Vector_11" d="M47.7725 62.9077C56.4352 62.9077 63.4713 69.9564 63.4713 78.6346V47.1808C63.4896 55.8773 56.4534 62.9077 47.7725 62.9077Z" fill="white"/>
<path id="Vector_12" d="M63.4902 47.1808V78.6346C72.1529 78.6346 79.1891 71.5859 79.1891 62.9077C70.5081 62.926 63.4902 55.8773 63.4902 47.1808Z" fill="white"/>
<path id="Vector_13" d="M47.7731 31.4539C39.1104 31.4539 32.0742 24.4051 32.0742 15.7269V47.1808C32.0742 38.5026 39.1104 31.4539 47.7731 31.4539Z" fill="white"/>
<path id="Vector_14" d="M32.0738 47.1808V15.7269C23.4112 15.7269 16.375 22.7757 16.375 31.4539C25.056 31.4539 32.0738 38.5026 32.0738 47.1808Z" fill="white"/>
<path id="Vector_15" d="M47.7725 31.4539C56.4352 31.4539 63.4713 38.5026 63.4713 47.1808V15.7269C63.4896 24.4051 56.4534 31.4539 47.7725 31.4539Z" fill="white"/>
<path id="Vector_16" d="M79.1891 31.4539C79.1891 22.7757 72.153 15.7269 63.4903 15.7269V47.1808C63.472 38.5026 70.5081 31.4539 79.1891 31.4539Z" fill="white"/>
<path id="Vector_17" d="M32.0742 47.1808C40.7369 47.1808 47.7731 54.2295 47.7731 62.9077V31.4539C47.7731 40.1504 40.7552 47.1808 32.0742 47.1808Z" fill="white"/>
<path id="Vector_18" d="M47.7725 31.4539V62.9077C47.7725 54.2295 54.8086 47.1808 63.4713 47.1808C54.8086 47.1808 47.7725 40.1504 47.7725 31.4539Z" fill="white"/>
<path id="Vector_19" d="M32.0742 78.6529C32.0742 87.3311 39.1104 94.3799 47.7731 94.3799V62.9077C47.7731 71.6042 40.7552 78.6529 32.0742 78.6529Z" fill="white"/>
<path id="Vector_20" d="M47.7725 62.9077V94.3616C56.4352 94.3616 63.4713 87.3311 63.4713 78.6346C54.8086 78.653 47.7725 71.6042 47.7725 62.9077Z" fill="white"/>
<path id="Vector_21" d="M0.675781 47.1808C0.675781 55.859 7.69366 62.9077 16.3746 62.9077V31.4539C7.69366 31.4539 0.675781 38.5026 0.675781 47.1808Z" fill="white"/>
<path id="Vector_22" d="M32.0738 47.1808C23.4112 47.1808 16.375 40.132 16.375 31.4539V62.926C16.375 54.2295 23.4112 47.1808 32.0738 47.1808Z" fill="white"/>
<path id="Vector_23" d="M63.4902 47.1808C72.1529 47.1808 79.1891 54.2295 79.1891 62.9077V31.4539C79.1891 40.1504 72.1529 47.1808 63.4902 47.1808Z" fill="white"/>
<path id="Vector_24" d="M79.1885 31.4539V62.9077C87.8512 62.9077 94.8873 55.859 94.8873 47.1808C94.8873 38.5026 87.8512 31.4539 79.1885 31.4539Z" fill="white"/>
</g>
</svg>
