<svg width="116" height="136" viewBox="0 0 116 136" fill="none" xmlns="http://www.w3.org/2000/svg">
<g id="Layer 2">
<g id="Layer 1">
<path id="Vector" d="M3.69541 130.918H3.26461C3.24836 130.91 3.23041 130.905 3.21222 130.905C3.19402 130.905 3.17607 130.91 3.15982 130.918C3.15213 130.936 3.14818 130.956 3.14818 130.976C3.14818 130.996 3.15213 131.015 3.15982 131.034V133.355H2.76395H2.10029C1.91768 133.356 1.7364 133.325 1.5647 133.263C1.4142 133.189 1.27969 133.086 1.16883 132.961C1.03311 132.789 0.934046 132.592 0.877751 132.38C0.80193 132.104 0.766633 131.819 0.772962 131.533V130.453C0.762854 130.151 0.802179 129.849 0.889395 129.56C0.952875 129.35 1.06 129.156 1.20376 128.991C1.33089 128.858 1.48597 128.755 1.65785 128.689C1.83472 128.633 2.01948 128.606 2.20508 128.608H3.3694H3.7187C3.8002 128.608 3.83513 128.608 3.83513 128.527V128.12C3.84154 128.106 3.84485 128.09 3.84485 128.074C3.84485 128.058 3.84154 128.042 3.83513 128.027H3.74198C3.54183 127.989 3.3397 127.962 3.13653 127.946C2.89203 127.946 2.57766 127.946 2.20508 127.946C1.94069 127.946 1.67773 127.985 1.42498 128.062C1.16633 128.14 0.930559 128.28 0.738033 128.469C0.515014 128.687 0.343944 128.953 0.237375 129.246C0.100807 129.618 0.0337203 130.011 0.0394401 130.407V131.487C0.0278241 131.882 0.0910246 132.276 0.225732 132.647C0.32909 132.937 0.491651 133.202 0.703103 133.425C0.893093 133.617 1.12388 133.764 1.37841 133.855C1.62217 133.937 1.87771 133.98 2.13522 133.982C2.51944 133.982 2.82217 133.982 3.06668 133.982L3.74198 133.901C3.78411 133.893 3.82164 133.869 3.84742 133.835C3.87319 133.801 3.8854 133.758 3.8817 133.715V131.011C3.88939 130.992 3.89334 130.973 3.89334 130.953C3.89334 130.933 3.88939 130.913 3.8817 130.895C3.86914 130.881 3.85363 130.871 3.83642 130.865C3.81922 130.859 3.8008 130.857 3.78266 130.859C3.76452 130.861 3.74717 130.868 3.73201 130.878C3.71685 130.888 3.70431 130.902 3.69541 130.918Z" fill="white"/>
<path id="Vector_2" d="M8.00326 130.059C7.84666 129.893 7.65606 129.762 7.44438 129.676C7.19783 129.588 6.93764 129.545 6.67593 129.548C6.4289 129.531 6.18108 129.568 5.9498 129.656C5.71852 129.744 5.50936 129.882 5.33696 130.059C5.01763 130.442 4.85542 130.931 4.88288 131.429V132.16C4.87294 132.477 4.92841 132.793 5.04588 133.088C5.13431 133.314 5.27375 133.517 5.45339 133.681C5.61838 133.831 5.81844 133.939 6.03555 133.994C6.25582 134.053 6.48273 134.084 6.71086 134.087C6.96296 134.1 7.21557 134.1 7.46767 134.087C7.70053 134.087 7.9334 134.052 8.16626 133.982C8.20761 133.997 8.25299 133.997 8.29434 133.982C8.30947 133.941 8.30947 133.896 8.29434 133.855V133.588C8.30075 133.573 8.30406 133.557 8.30406 133.541C8.30406 133.525 8.30075 133.509 8.29434 133.495H8.20119H8.15462L7.46767 133.564H6.71086C6.55809 133.571 6.40543 133.548 6.26159 133.497C6.11775 133.445 5.98555 133.365 5.87255 133.263C5.65753 132.972 5.55799 132.612 5.59311 132.253V132.137H8.29434C8.39913 132.137 8.4457 132.137 8.4457 131.963V131.521C8.45153 131.257 8.41215 130.994 8.32927 130.744C8.27627 130.493 8.16456 130.258 8.00326 130.059ZM7.73546 131.498H5.59311V131.429C5.56373 131.088 5.66341 130.748 5.87255 130.477C5.97506 130.369 6.10023 130.285 6.2391 130.23C6.37798 130.176 6.52714 130.153 6.67593 130.163C6.821 130.153 6.96663 130.173 7.10315 130.223C7.23966 130.273 7.36392 130.352 7.46767 130.453C7.67035 130.736 7.76529 131.082 7.73546 131.429V131.498Z" fill="white"/>
<path id="Vector_3" d="M11.415 129.548C11.1943 129.547 10.9746 129.578 10.763 129.641C10.5431 129.709 10.332 129.802 10.1343 129.92V129.769C10.142 129.75 10.1459 129.731 10.1459 129.711C10.1459 129.691 10.142 129.671 10.1343 129.653C10.1178 129.645 10.1 129.641 10.0819 129.641C10.0638 129.641 10.046 129.645 10.0295 129.653H9.57542C9.55917 129.644 9.54122 129.64 9.52302 129.64C9.50482 129.64 9.48688 129.644 9.47063 129.653C9.46294 129.671 9.45898 129.691 9.45898 129.711C9.45898 129.731 9.46294 129.75 9.47063 129.769V133.866C9.46294 133.885 9.45898 133.904 9.45898 133.924C9.45898 133.944 9.46294 133.964 9.47063 133.982C9.48688 133.99 9.50482 133.995 9.52302 133.995C9.54122 133.995 9.55917 133.99 9.57542 133.982H9.97129C10.0145 133.982 10.056 133.965 10.0865 133.935C10.1171 133.904 10.1343 133.863 10.1343 133.82V130.43C10.3143 130.342 10.5012 130.268 10.6932 130.21C10.8656 130.151 11.0464 130.119 11.2288 130.117C11.36 130.097 11.4934 130.097 11.6246 130.117C11.7282 130.149 11.8208 130.21 11.8924 130.291C11.9761 130.382 12.0326 130.495 12.0554 130.616C12.0968 130.783 12.1164 130.955 12.1136 131.127V133.762C12.1136 133.805 12.1308 133.846 12.1614 133.877C12.1919 133.907 12.2334 133.924 12.2766 133.924H12.6609C12.7041 133.924 12.7456 133.907 12.7761 133.877C12.8067 133.846 12.8239 133.805 12.8239 133.762V131.22C12.8493 130.78 12.7308 130.344 12.4862 129.978C12.3551 129.826 12.1894 129.708 12.003 129.633C11.8166 129.558 11.615 129.529 11.415 129.548Z" fill="white"/>
<path id="Vector_4" d="M16.8871 130.059C16.737 129.89 16.5496 129.759 16.3399 129.676C16.0895 129.587 15.8254 129.544 15.5598 129.548C15.3146 129.532 15.0688 129.569 14.8395 129.657C14.6103 129.745 14.4031 129.882 14.2325 130.059C13.9131 130.442 13.7509 130.931 13.7784 131.429V132.16C13.7667 132.476 13.8181 132.792 13.9297 133.088C14.0223 133.315 14.1657 133.518 14.3489 133.68C14.5139 133.831 14.7139 133.939 14.9311 133.994C15.1511 134.054 15.3782 134.085 15.6064 134.087C15.8585 134.099 16.1111 134.099 16.3632 134.087C16.5939 134.064 16.8232 134.029 17.0501 133.982C17.12 133.982 17.1666 133.982 17.1898 133.982C17.1986 133.94 17.1986 133.897 17.1898 133.855V133.588C17.1963 133.573 17.1996 133.557 17.1996 133.541C17.1996 133.525 17.1963 133.509 17.1898 133.495H17.0967L16.4098 133.564H15.6529C15.5002 133.571 15.3475 133.548 15.2037 133.497C15.0598 133.445 14.9276 133.365 14.8146 133.263C14.5996 132.972 14.5001 132.612 14.5352 132.253V132.137H17.2364C17.3296 132.137 17.3878 132.137 17.3878 131.962V131.521C17.3868 131.258 17.3476 130.996 17.2713 130.744C17.2071 130.485 17.0744 130.249 16.8871 130.059ZM16.631 131.498H14.4886V131.429C14.4592 131.088 14.5589 130.748 14.7681 130.477C14.8706 130.369 14.9957 130.285 15.1346 130.23C15.2735 130.176 15.4226 130.153 15.5714 130.163C15.7164 130.154 15.8616 130.175 15.9979 130.225C16.1342 130.275 16.2586 130.353 16.3632 130.453C16.5659 130.736 16.6608 131.082 16.631 131.429V131.498Z" fill="white"/>
<path id="Vector_5" d="M20.1352 129.548C19.9487 129.546 19.7633 129.577 19.588 129.641C19.3775 129.706 19.1804 129.809 19.0058 129.943V129.769C19.0168 129.731 19.0168 129.69 19.0058 129.653C18.9874 129.645 18.9676 129.641 18.9476 129.641C18.9276 129.641 18.9078 129.645 18.8894 129.653H18.5168C18.4983 129.645 18.4786 129.641 18.4586 129.641C18.4386 129.641 18.4188 129.645 18.4004 129.653C18.3887 129.69 18.3887 129.731 18.4004 129.769V133.866C18.3887 133.904 18.3887 133.944 18.4004 133.982C18.4188 133.99 18.4386 133.994 18.4586 133.994C18.4786 133.994 18.4983 133.99 18.5168 133.982H18.9127C18.9311 133.99 18.9509 133.994 18.9709 133.994C18.9909 133.994 19.0106 133.99 19.0291 133.982C19.0401 133.944 19.0401 133.904 19.0291 133.866V130.5C19.2073 130.39 19.3991 130.305 19.5996 130.245C19.7725 130.189 19.9534 130.161 20.1352 130.163C20.2516 130.163 20.3098 130.117 20.3098 130.024V129.699C20.3098 129.595 20.2516 129.548 20.1352 129.548Z" fill="white"/>
<path id="Vector_6" d="M22.3826 129.548C22.146 129.534 21.9089 129.534 21.6723 129.548L21.1251 129.618C21.0087 129.618 20.9505 129.687 20.9505 129.769V130.047C20.9423 130.063 20.938 130.081 20.938 130.099C20.938 130.118 20.9423 130.135 20.9505 130.152C20.9846 130.162 21.0211 130.162 21.0552 130.152H21.6025C21.8352 130.139 22.0684 130.139 22.3011 130.152C22.5396 130.129 22.7777 130.2 22.9647 130.349C23.1156 130.553 23.186 130.805 23.1627 131.057V131.382H22.5572C22.2524 131.375 21.9477 131.402 21.6491 131.463C21.4348 131.51 21.2301 131.592 21.0436 131.707C20.8975 131.813 20.7844 131.958 20.7176 132.125C20.645 132.302 20.6094 132.491 20.6128 132.682V132.787C20.6029 133.002 20.6428 133.216 20.7292 133.414C20.7919 133.57 20.8918 133.71 21.0203 133.82C21.1444 133.917 21.287 133.988 21.4395 134.029C21.602 134.046 21.766 134.046 21.9285 134.029C22.1513 134.032 22.3726 133.992 22.5805 133.913C22.7879 133.841 22.987 133.748 23.1743 133.634V133.808C23.1633 133.846 23.1633 133.886 23.1743 133.924C23.1928 133.932 23.2125 133.936 23.2325 133.936C23.2525 133.936 23.2723 133.932 23.2907 133.924H23.6633C23.6818 133.932 23.7016 133.936 23.7215 133.936C23.7415 133.936 23.7613 133.932 23.7798 133.924C23.7908 133.886 23.7908 133.846 23.7798 133.808V130.999C23.7979 130.791 23.7743 130.581 23.7104 130.381C23.6464 130.182 23.5433 129.997 23.4072 129.838C23.1122 129.621 22.7481 129.518 22.3826 129.548ZM23.2442 133.181C23.0726 133.285 22.8888 133.367 22.6969 133.425C22.5201 133.481 22.3353 133.509 22.1497 133.506C21.9553 133.52 21.7621 133.467 21.6025 133.355C21.5273 133.28 21.4703 133.189 21.436 133.088C21.4017 132.988 21.3909 132.88 21.4045 132.775V132.682C21.4036 132.556 21.4232 132.431 21.4628 132.311C21.504 132.212 21.5727 132.128 21.6607 132.067C21.7752 132 21.9018 131.957 22.0333 131.939C22.2346 131.919 22.4374 131.919 22.6387 131.939H23.2907L23.2442 133.181Z" fill="white"/>
<path id="Vector_7" d="M25.7006 127.981H25.2815C25.2479 127.967 25.2103 127.967 25.1767 127.981C25.169 127.999 25.165 128.019 25.165 128.039C25.165 128.059 25.169 128.079 25.1767 128.097V133.831C25.169 133.85 25.165 133.869 25.165 133.889C25.165 133.909 25.169 133.929 25.1767 133.947C25.1929 133.956 25.2109 133.96 25.2291 133.96C25.2473 133.96 25.2652 133.956 25.2815 133.947H25.7006C25.7342 133.961 25.7718 133.961 25.8054 133.947C25.8171 133.91 25.8171 133.869 25.8054 133.831V128.097C25.8171 128.059 25.8171 128.019 25.8054 127.981C25.7712 127.971 25.7348 127.971 25.7006 127.981Z" fill="white"/>
<path id="Vector_8" d="M32.3962 128.039H32.0702H30.8244C30.3663 128.005 29.9103 128.128 29.532 128.387C29.3746 128.534 29.2537 128.715 29.1789 128.917C29.1041 129.118 29.0775 129.335 29.1012 129.548V132.647C29.0775 132.861 29.1041 133.077 29.1789 133.279C29.2537 133.48 29.3746 133.661 29.532 133.808C29.9103 134.068 30.3663 134.191 30.8244 134.156H32.3962C32.4153 134.161 32.4353 134.161 32.4544 134.156C32.4595 134.133 32.4595 134.11 32.4544 134.087V133.681C32.4544 133.611 32.4544 133.576 32.3613 133.576H30.8244C30.6543 133.597 30.4822 133.597 30.3121 133.576C30.1995 133.561 30.0941 133.512 30.0093 133.437C29.9384 133.367 29.8897 133.278 29.8696 133.181C29.856 133.05 29.856 132.918 29.8696 132.787V131.429H32.3496C32.371 131.429 32.3922 131.424 32.412 131.416C32.4318 131.408 32.4498 131.396 32.4649 131.381C32.48 131.366 32.492 131.348 32.5002 131.328C32.5084 131.309 32.5126 131.287 32.5126 131.266V130.964C32.5251 130.931 32.5251 130.894 32.5126 130.86C32.4751 130.845 32.4337 130.845 32.3962 130.86H29.8347V129.699C29.821 129.572 29.821 129.443 29.8347 129.316C29.8518 129.214 29.9007 129.121 29.9744 129.049C30.0592 128.973 30.1646 128.925 30.2771 128.91C30.4472 128.889 30.6193 128.889 30.7894 128.91H32.3496C32.3623 128.912 32.3753 128.911 32.3875 128.907C32.3997 128.903 32.4108 128.896 32.4199 128.887C32.429 128.878 32.4358 128.867 32.4397 128.855C32.4437 128.842 32.4448 128.829 32.4428 128.817V128.411C32.4492 128.388 32.4492 128.364 32.4428 128.341C32.4829 128.335 32.519 128.313 32.543 128.28C32.567 128.248 32.577 128.207 32.5708 128.167C32.5647 128.127 32.5428 128.091 32.5101 128.067C32.4773 128.043 32.4363 128.033 32.3962 128.039Z" fill="white"/>
<path id="Vector_9" d="M35.4583 129.548C35.2377 129.548 35.0181 129.579 34.8063 129.641C34.588 129.713 34.3774 129.806 34.1776 129.92V129.769C34.1852 129.75 34.1892 129.731 34.1892 129.711C34.1892 129.691 34.1852 129.671 34.1776 129.653C34.1613 129.644 34.1434 129.64 34.1252 129.64C34.107 129.64 34.089 129.644 34.0728 129.653H33.6653C33.6488 129.645 33.6309 129.641 33.6129 129.641C33.5948 129.641 33.577 129.645 33.5605 129.653C33.5528 129.671 33.5488 129.691 33.5488 129.711C33.5488 129.731 33.5528 129.75 33.5605 129.769V133.866C33.5528 133.885 33.5488 133.904 33.5488 133.924C33.5488 133.944 33.5528 133.964 33.5605 133.982C33.577 133.99 33.5948 133.993 33.6129 133.993C33.6309 133.993 33.6488 133.99 33.6653 133.982H34.0611C34.1044 133.982 34.1458 133.965 34.1764 133.935C34.207 133.904 34.2241 133.863 34.2241 133.82V130.43C34.4041 130.342 34.591 130.268 34.783 130.21C34.9558 130.152 35.1364 130.121 35.3186 130.117C35.4498 130.097 35.5832 130.097 35.7145 130.117C35.82 130.152 35.9157 130.212 35.9939 130.291C36.0732 130.385 36.1291 130.496 36.1569 130.616C36.1781 130.786 36.1781 130.957 36.1569 131.127V133.762C36.1569 133.805 36.1741 133.846 36.2047 133.877C36.2352 133.907 36.2767 133.924 36.3199 133.924H36.7041C36.7474 133.924 36.7888 133.907 36.8194 133.877C36.85 133.846 36.8671 133.805 36.8671 133.762V131.22C36.8988 130.779 36.7798 130.342 36.5295 129.978C36.3983 129.826 36.2326 129.708 36.0463 129.633C35.8599 129.558 35.6583 129.529 35.4583 129.548Z" fill="white"/>
<path id="Vector_10" d="M39.9989 133.506H39.5914C39.4727 133.521 39.3526 133.492 39.2538 133.425C39.1664 133.304 39.1289 133.155 39.149 133.007V130.198H40.0222C40.0655 130.198 40.1069 130.181 40.1375 130.151C40.1681 130.12 40.1852 130.079 40.1852 130.036V129.769C40.1852 129.726 40.1681 129.684 40.1375 129.654C40.1069 129.623 40.0655 129.606 40.0222 129.606H39.149V128.724C39.1605 128.69 39.1605 128.653 39.149 128.619C39.1361 128.614 39.1222 128.611 39.1082 128.611C39.0942 128.611 39.0804 128.614 39.0675 128.619L38.6483 128.689C38.6274 128.689 38.6068 128.693 38.5876 128.702C38.5684 128.71 38.5512 128.722 38.537 128.737C38.5227 128.753 38.5119 128.771 38.505 128.79C38.4981 128.81 38.4954 128.831 38.497 128.852V129.641H37.6121C37.5073 129.641 37.4607 129.641 37.4607 129.78V130.001C37.4585 130.021 37.4611 130.041 37.4681 130.059C37.4751 130.078 37.4864 130.095 37.5012 130.108C37.5159 130.122 37.5336 130.132 37.5529 130.137C37.5721 130.143 37.5924 130.144 37.6121 130.14L38.3922 130.233V132.961C38.3869 133.145 38.4105 133.329 38.462 133.506C38.5013 133.629 38.5691 133.74 38.66 133.831C38.7588 133.917 38.8799 133.973 39.0093 133.994C39.1716 134.015 39.3359 134.015 39.4983 133.994H39.7544H40.0222C40.1154 133.994 40.1619 133.947 40.1619 133.855V133.564C40.1619 133.541 40.1037 133.506 39.9989 133.506Z" fill="white"/>
<path id="Vector_11" d="M43.8873 130.059C43.7307 129.893 43.5401 129.762 43.3284 129.676C43.0819 129.588 42.8217 129.545 42.56 129.548C42.3145 129.529 42.068 129.565 41.8384 129.654C41.6087 129.742 41.4018 129.881 41.2326 130.059C40.9049 130.438 40.7379 130.929 40.7669 131.429V132.16C40.757 132.477 40.8125 132.793 40.9299 133.088C41.0227 133.312 41.1616 133.514 41.3374 133.68C41.504 133.829 41.7035 133.937 41.9196 133.994C42.1436 134.054 42.3745 134.085 42.6065 134.087C42.8548 134.099 43.1035 134.099 43.3517 134.087C43.5846 134.087 43.8174 134.052 44.0503 133.982C44.0917 133.997 44.137 133.997 44.1784 133.982C44.1935 133.941 44.1935 133.896 44.1784 133.855V133.588C44.1865 133.573 44.1909 133.557 44.1909 133.541C44.1909 133.525 44.1865 133.509 44.1784 133.495H44.0969L43.4099 133.564H42.6648C42.5101 133.573 42.3552 133.551 42.2093 133.499C42.0633 133.447 41.9292 133.367 41.8148 133.263C41.5998 132.972 41.5002 132.612 41.5354 132.253V132.137H44.2366C44.3414 132.137 44.388 132.137 44.388 131.962V131.521C44.3991 131.221 44.3516 130.921 44.2482 130.639C44.1705 130.422 44.0475 130.225 43.8873 130.059ZM43.6195 131.498H41.4771V131.429C41.4478 131.088 41.5474 130.748 41.7566 130.477C41.9725 130.274 42.2578 130.162 42.5541 130.162C42.8505 130.162 43.1358 130.274 43.3517 130.477C43.5593 130.757 43.6547 131.105 43.6195 131.452V131.498Z" fill="white"/>
<path id="Vector_12" d="M47.1365 129.548C46.9461 129.545 46.7567 129.576 46.5776 129.641C46.3682 129.709 46.1716 129.811 45.9955 129.943V129.769C46.0032 129.75 46.0071 129.731 46.0071 129.711C46.0071 129.691 46.0032 129.671 45.9955 129.653C45.9792 129.644 45.9613 129.64 45.9431 129.64C45.9249 129.64 45.9069 129.644 45.8907 129.653H45.4133C45.3971 129.644 45.3791 129.64 45.3609 129.64C45.3427 129.64 45.3248 129.644 45.3085 129.653C45.3008 129.671 45.2969 129.691 45.2969 129.711C45.2969 129.731 45.3008 129.75 45.3085 129.769V133.866C45.3008 133.885 45.2969 133.904 45.2969 133.924C45.2969 133.944 45.3008 133.964 45.3085 133.982C45.3248 133.99 45.3427 133.995 45.3609 133.995C45.3791 133.995 45.3971 133.99 45.4133 133.982H45.8092C45.8524 133.982 45.8939 133.965 45.9244 133.935C45.955 133.904 45.9722 133.863 45.9722 133.82V130.454C46.1515 130.346 46.343 130.26 46.5427 130.198C46.7196 130.142 46.9043 130.115 47.0899 130.117C47.2064 130.117 47.2529 130.117 47.2529 129.978V129.653C47.2995 129.595 47.2529 129.548 47.1365 129.548Z" fill="white"/>
<path id="Vector_13" d="M50.2564 133.506H49.8024C49.6839 133.517 49.5651 133.489 49.4647 133.425C49.3881 133.3 49.3553 133.153 49.3716 133.007V130.198H50.2448C50.2633 130.206 50.283 130.21 50.303 130.21C50.323 130.21 50.3428 130.206 50.3612 130.198C50.3722 130.16 50.3722 130.12 50.3612 130.082V129.815C50.3722 129.777 50.3722 129.737 50.3612 129.699C50.3428 129.691 50.323 129.687 50.303 129.687C50.283 129.687 50.2633 129.691 50.2448 129.699H49.3716V128.817C49.3831 128.783 49.3831 128.746 49.3716 128.712C49.3451 128.703 49.3165 128.703 49.2901 128.712L48.8709 128.782C48.851 128.783 48.8316 128.789 48.8138 128.798C48.796 128.807 48.7801 128.819 48.7671 128.834C48.7542 128.849 48.7443 128.867 48.7381 128.886C48.732 128.905 48.7296 128.925 48.7312 128.944V129.734H47.9511C47.8463 129.734 47.7881 129.734 47.7881 129.873V130.094C47.7881 130.175 47.8463 130.233 47.9511 130.233L48.7312 130.326V132.961C48.7259 133.145 48.7495 133.329 48.801 133.506C48.8403 133.629 48.9081 133.74 48.999 133.831C49.0931 133.917 49.2105 133.974 49.3366 133.994C49.4991 134.013 49.6632 134.013 49.8256 133.994H50.0702H50.3379C50.4427 133.994 50.4893 133.924 50.4893 133.855V133.564C50.4311 133.541 50.3729 133.506 50.2564 133.506Z" fill="white"/>
<path id="Vector_14" d="M52.7017 129.548C52.4651 129.534 52.228 129.534 51.9915 129.548L51.4442 129.618C51.3394 129.618 51.2812 129.687 51.2812 129.769V130.047C51.2812 130.047 51.2812 130.14 51.2812 130.152C51.3153 130.162 51.3519 130.162 51.386 130.152H51.9216C52.1543 130.139 52.3875 130.139 52.6202 130.152C52.8587 130.129 53.0969 130.2 53.2838 130.349C53.4347 130.553 53.5051 130.805 53.4818 131.057V131.382H52.888C52.5793 131.376 52.2709 131.403 51.9682 131.463C51.7569 131.508 51.5556 131.59 51.3744 131.707C51.222 131.809 51.1043 131.955 51.0367 132.125C50.9642 132.302 50.9285 132.491 50.9319 132.682V132.787C50.9279 133.001 50.9675 133.215 51.0483 133.414C51.111 133.57 51.2109 133.71 51.3394 133.82C51.4635 133.917 51.6061 133.988 51.7586 134.029C51.925 134.047 52.0928 134.047 52.2592 134.029C52.4781 134.031 52.6954 133.991 52.8996 133.913C53.1079 133.844 53.3073 133.75 53.4934 133.634V133.808C53.4946 133.83 53.5004 133.852 53.5104 133.872C53.5204 133.892 53.5345 133.91 53.5516 133.924C53.5681 133.932 53.586 133.935 53.604 133.935C53.6221 133.935 53.64 133.932 53.6564 133.924H54.029C54.0722 133.924 54.1137 133.907 54.1443 133.877C54.1748 133.846 54.192 133.805 54.192 133.762V130.953C54.2129 130.744 54.1906 130.533 54.1265 130.334C54.0624 130.134 53.9579 129.95 53.8194 129.792C53.4932 129.568 53.0919 129.48 52.7017 129.548ZM53.5633 133.181C53.3928 133.287 53.2087 133.369 53.0161 133.425C52.8394 133.482 52.6545 133.509 52.4688 133.506C52.2745 133.52 52.0813 133.467 51.9216 133.355C51.8484 133.279 51.7937 133.187 51.7614 133.087C51.7291 132.986 51.7202 132.88 51.7353 132.775V132.682C51.7153 132.559 51.7153 132.434 51.7353 132.311C51.7803 132.215 51.8483 132.131 51.9332 132.067C52.0511 131.998 52.1819 131.955 52.3175 131.939C52.5187 131.919 52.7216 131.919 52.9229 131.939H53.5633V133.181Z" fill="white"/>
<path id="Vector_15" d="M56.0082 129.606H55.6239C55.5807 129.606 55.5392 129.623 55.5087 129.654C55.4781 129.684 55.4609 129.725 55.4609 129.769V133.866C55.4609 133.909 55.4781 133.951 55.5087 133.981C55.5392 134.012 55.5807 134.029 55.6239 134.029H56.0082C56.0514 134.029 56.0929 134.012 56.1234 133.981C56.154 133.951 56.1712 133.909 56.1712 133.866V129.769C56.1712 129.725 56.154 129.684 56.1234 129.654C56.0929 129.623 56.0514 129.606 56.0082 129.606Z" fill="white"/>
<path id="Vector_16" d="M56.0319 127.923H55.6128C55.5753 127.909 55.5338 127.909 55.4963 127.923C55.4856 127.957 55.4856 127.993 55.4963 128.027V128.677C55.4963 128.721 55.5135 128.762 55.5441 128.792C55.5746 128.823 55.6161 128.84 55.6593 128.84H56.0785C56.1126 128.851 56.1492 128.851 56.1833 128.84C56.191 128.822 56.1949 128.802 56.1949 128.782C56.1949 128.762 56.191 128.742 56.1833 128.724V128.074C56.1907 128.057 56.1945 128.04 56.1945 128.022C56.1945 128.004 56.1907 127.986 56.1833 127.969C56.1657 127.947 56.1419 127.931 56.1148 127.923C56.0878 127.914 56.0589 127.915 56.0319 127.923Z" fill="white"/>
<path id="Vector_17" d="M59.3846 129.548C59.1639 129.547 58.9442 129.578 58.7326 129.641C58.5127 129.709 58.3016 129.802 58.1039 129.92V129.769C58.1149 129.731 58.1149 129.691 58.1039 129.653C58.0703 129.639 58.0327 129.639 57.9991 129.653H57.5217C57.5055 129.644 57.4875 129.64 57.4693 129.64C57.4511 129.64 57.4332 129.644 57.4169 129.653C57.4092 129.671 57.4053 129.691 57.4053 129.711C57.4053 129.731 57.4092 129.75 57.4169 129.769V133.866C57.4092 133.885 57.4053 133.904 57.4053 133.924C57.4053 133.944 57.4092 133.964 57.4169 133.982C57.4332 133.991 57.4511 133.995 57.4693 133.995C57.4875 133.995 57.5055 133.991 57.5217 133.982H57.9176C57.936 133.99 57.9558 133.994 57.9758 133.994C57.9958 133.994 58.0156 133.99 58.034 133.982C58.045 133.944 58.045 133.904 58.034 133.866V130.477C58.214 130.388 58.4009 130.315 58.5929 130.256C58.7616 130.198 58.9384 130.167 59.1168 130.163C59.248 130.143 59.3815 130.143 59.5127 130.163C59.621 130.193 59.7182 130.253 59.7921 130.337C59.8758 130.429 59.9323 130.541 59.9551 130.662C59.9771 130.832 59.9771 131.004 59.9551 131.173V133.808C59.9551 133.851 59.9723 133.893 60.0029 133.923C60.0335 133.954 60.0749 133.971 60.1181 133.971H60.5024C60.5208 133.978 60.5406 133.982 60.5606 133.982C60.5806 133.982 60.6004 133.978 60.6188 133.971C60.6298 133.933 60.6298 133.893 60.6188 133.855V131.22C60.6442 130.78 60.5257 130.344 60.2811 129.978C60.1689 129.849 60.0314 129.745 59.8773 129.671C59.7231 129.597 59.5555 129.555 59.3846 129.548Z" fill="white"/>
<path id="Vector_18" d="M66.8364 129.861C66.7165 129.748 66.5736 129.661 66.4173 129.606C66.2507 129.559 66.0782 129.535 65.905 129.536C65.6817 129.542 65.4594 129.57 65.2413 129.618C65.0073 129.677 64.7807 129.763 64.566 129.873C64.4752 129.758 64.3544 129.669 64.2167 129.618C64.0687 129.559 63.9102 129.531 63.751 129.536C63.5358 129.533 63.3221 129.573 63.1223 129.653C62.9302 129.72 62.7466 129.81 62.575 129.92V129.769C62.5827 129.75 62.5867 129.73 62.5867 129.711C62.5867 129.691 62.5827 129.671 62.575 129.653C62.5588 129.644 62.5408 129.64 62.5226 129.64C62.5044 129.64 62.4865 129.644 62.4702 129.653H62.0627C62.0462 129.645 62.0284 129.641 62.0103 129.641C61.9923 129.641 61.9744 129.645 61.9579 129.653C61.9502 129.671 61.9463 129.691 61.9463 129.711C61.9463 129.73 61.9502 129.75 61.9579 129.769V133.866C61.9463 133.904 61.9463 133.944 61.9579 133.982C61.9742 133.99 61.9921 133.995 62.0103 133.995C62.0285 133.995 62.0465 133.99 62.0627 133.982H62.4935C62.5271 133.996 62.5647 133.996 62.5983 133.982C62.61 133.944 62.61 133.904 62.5983 133.866V130.477C62.7634 130.391 62.9346 130.317 63.1106 130.256C63.262 130.194 63.4243 130.162 63.588 130.163H63.8558C63.9319 130.188 64.0002 130.232 64.0537 130.291C64.1151 130.364 64.1554 130.452 64.1701 130.546C64.1842 130.689 64.1842 130.833 64.1701 130.976V133.843C64.1585 133.881 64.1585 133.921 64.1701 133.959C64.1864 133.967 64.2043 133.971 64.2225 133.971C64.2407 133.971 64.2587 133.967 64.2749 133.959H64.7057C64.7393 133.973 64.7769 133.973 64.8105 133.959C64.8222 133.921 64.8222 133.881 64.8105 133.843V130.976C64.8129 130.765 64.7895 130.554 64.7407 130.349L65.218 130.198C65.3725 130.177 65.5293 130.177 65.6838 130.198C65.7804 130.186 65.8782 130.186 65.9748 130.198C66.0655 130.218 66.1472 130.267 66.2077 130.337C66.2827 130.41 66.3353 130.503 66.3591 130.604C66.3867 130.742 66.3867 130.884 66.3591 131.022V133.866C66.3481 133.904 66.3481 133.944 66.3591 133.982C66.3775 133.99 66.3973 133.994 66.4173 133.994C66.4373 133.994 66.4571 133.99 66.4755 133.982H66.8714C66.905 133.996 66.9425 133.996 66.9762 133.982C66.9838 133.964 66.9878 133.944 66.9878 133.924C66.9878 133.904 66.9838 133.885 66.9762 133.866V131.022C66.9793 130.783 66.9479 130.545 66.883 130.314C66.8953 130.162 66.8795 130.008 66.8364 129.861Z" fill="white"/>
<path id="Vector_19" d="M71.2838 130.059C71.1272 129.893 70.9366 129.762 70.7249 129.676C70.4783 129.588 70.2182 129.545 69.9565 129.548C69.711 129.529 69.4645 129.565 69.2349 129.654C69.0052 129.742 68.7983 129.881 68.6291 130.059C68.3014 130.438 68.1344 130.929 68.1634 131.429V132.16C68.1535 132.477 68.2089 132.793 68.3264 133.088C68.4192 133.312 68.558 133.514 68.7339 133.68C68.9005 133.829 69.1 133.937 69.3161 133.994C69.5401 134.054 69.771 134.085 70.003 134.087C70.2708 134.087 70.527 134.087 70.7598 134.087L71.4468 133.982C71.4881 133.997 71.5335 133.997 71.5749 133.982C71.59 133.941 71.59 133.896 71.5749 133.855V133.588C71.583 133.573 71.5873 133.557 71.5873 133.541C71.5873 133.525 71.583 133.509 71.5749 133.495H71.4934L70.818 133.564H70.0612C69.9085 133.571 69.7558 133.548 69.612 133.497C69.4681 133.445 69.3359 133.365 69.2229 133.263C68.9985 132.976 68.8942 132.614 68.9318 132.253V132.137H71.6331C71.7379 132.137 71.7844 132.137 71.7844 131.962V131.521C71.7903 131.257 71.7509 130.994 71.668 130.744C71.598 130.487 71.466 130.252 71.2838 130.059ZM71.0276 131.498H68.8736V131.429C68.8442 131.088 68.9439 130.748 69.1531 130.477C69.2556 130.369 69.3807 130.285 69.5196 130.23C69.6585 130.176 69.8077 130.153 69.9565 130.163C70.1032 130.153 70.2505 130.174 70.3888 130.224C70.5271 130.274 70.6535 130.352 70.7598 130.453C70.9584 130.738 71.0492 131.083 71.016 131.429L71.0276 131.498Z" fill="white"/>
<path id="Vector_20" d="M74.6956 129.548C74.475 129.548 74.2554 129.579 74.0436 129.641C73.8253 129.713 73.6147 129.806 73.4149 129.92V129.769C73.4226 129.75 73.4265 129.73 73.4265 129.711C73.4265 129.691 73.4226 129.671 73.4149 129.653C73.3986 129.644 73.3807 129.64 73.3625 129.64C73.3443 129.64 73.3263 129.644 73.3101 129.653H72.9026C72.8861 129.645 72.8682 129.641 72.8502 129.641C72.8321 129.641 72.8143 129.645 72.7978 129.653C72.7901 129.671 72.7861 129.691 72.7861 129.711C72.7861 129.73 72.7901 129.75 72.7978 129.769V133.866C72.7901 133.885 72.7861 133.904 72.7861 133.924C72.7861 133.944 72.7901 133.964 72.7978 133.982C72.8143 133.99 72.8321 133.993 72.8502 133.993C72.8682 133.993 72.8861 133.99 72.9026 133.982H73.2984C73.3417 133.982 73.3831 133.965 73.4137 133.935C73.4443 133.904 73.4614 133.863 73.4614 133.82V130.43C73.6415 130.342 73.8284 130.268 74.0203 130.21C74.1931 130.152 74.3737 130.12 74.5559 130.117C74.6871 130.097 74.8205 130.097 74.9518 130.117C75.0573 130.152 75.153 130.212 75.2312 130.291C75.3105 130.385 75.3664 130.496 75.3942 130.616C75.4154 130.786 75.4154 130.957 75.3942 131.127V133.762C75.3942 133.805 75.4114 133.846 75.442 133.877C75.4725 133.907 75.514 133.924 75.5572 133.924H75.9414C75.9847 133.924 76.0261 133.907 76.0567 133.877C76.0873 133.846 76.1045 133.805 76.1045 133.762V131.22C76.1361 130.779 76.0171 130.342 75.7668 129.978C75.6363 129.825 75.4707 129.706 75.2841 129.632C75.0976 129.557 74.8957 129.528 74.6956 129.548Z" fill="white"/>
<path id="Vector_21" d="M79.2362 133.506H78.7822C78.6634 133.521 78.5433 133.492 78.4445 133.425C78.3571 133.304 78.3196 133.155 78.3397 133.007V130.198H79.178C79.2213 130.198 79.2627 130.181 79.2933 130.151C79.3239 130.12 79.341 130.079 79.341 130.036V129.769C79.341 129.726 79.3239 129.684 79.2933 129.654C79.2627 129.623 79.2213 129.606 79.178 129.606H78.3048V128.724C78.3163 128.69 78.3163 128.653 78.3048 128.619C78.2919 128.614 78.278 128.611 78.264 128.611C78.25 128.611 78.2362 128.614 78.2233 128.619L77.8041 128.689C77.7832 128.689 77.7625 128.693 77.7434 128.702C77.7242 128.71 77.707 128.722 77.6928 128.737C77.6785 128.753 77.6676 128.771 77.6608 128.79C77.6539 128.81 77.6512 128.831 77.6528 128.852V129.641H76.8494C76.7446 129.641 76.698 129.641 76.698 129.78V130.001C76.6958 130.021 76.6984 130.041 76.7054 130.059C76.7124 130.078 76.7237 130.095 76.7385 130.108C76.7532 130.122 76.7709 130.132 76.7902 130.137C76.8094 130.143 76.8297 130.144 76.8494 130.14L77.6295 130.233V132.961C77.6242 133.145 77.6478 133.329 77.6993 133.506C77.7382 133.632 77.8106 133.744 77.9089 133.831C78.0018 133.919 78.1198 133.976 78.2466 133.994C78.4089 134.015 78.5732 134.015 78.7356 133.994H78.9917H79.2595C79.3527 133.994 79.3992 133.947 79.3992 133.855V133.564C79.3992 133.541 79.341 133.506 79.2362 133.506Z" fill="white"/>
<path id="Vector_22" d="M85.0002 128.596C84.9724 128.488 84.9251 128.386 84.8605 128.294C84.7997 128.223 84.7291 128.16 84.6509 128.109C84.581 128.061 84.5015 128.03 84.418 128.016H84.1852H83.9407C83.8581 128.039 83.7796 128.074 83.7078 128.12C83.625 128.166 83.5535 128.229 83.4982 128.306C83.4313 128.396 83.3837 128.499 83.3585 128.608L81.8682 133.843C81.8682 133.936 81.8682 133.971 82.0079 133.971H82.4853C82.5117 133.98 82.5403 133.98 82.5668 133.971C82.5956 133.952 82.6163 133.923 82.625 133.889L83.1489 132.032H85.2331L85.757 133.889C85.7517 133.916 85.7517 133.944 85.757 133.971C85.7697 133.977 85.7836 133.98 85.7977 133.98C85.8119 133.98 85.8258 133.977 85.8385 133.971H86.3159C86.409 133.971 86.4556 133.971 86.4556 133.843L85.0002 128.596ZM83.2886 131.429L84.0222 128.77C84.0278 128.731 84.0474 128.696 84.0774 128.67C84.1074 128.645 84.1457 128.631 84.1852 128.631C84.2226 128.633 84.2581 128.648 84.2857 128.674C84.3133 128.699 84.3312 128.733 84.3365 128.77L85.07 131.429H83.2886Z" fill="white"/>
<path id="Vector_23" d="M90.4259 129.606H90.03C90.0116 129.598 89.9918 129.594 89.9718 129.594C89.9518 129.594 89.932 129.598 89.9136 129.606C89.9026 129.644 89.9026 129.684 89.9136 129.722V133.112C89.7336 133.2 89.5467 133.274 89.3547 133.332C89.186 133.39 89.0092 133.422 88.8308 133.425C88.6957 133.445 88.5583 133.445 88.4232 133.425C88.3197 133.393 88.2271 133.332 88.1554 133.251C88.0718 133.16 88.0153 133.047 87.9924 132.926C87.9705 132.756 87.9705 132.585 87.9924 132.415V129.78C87.9924 129.737 87.9753 129.696 87.9447 129.665C87.9141 129.635 87.8727 129.618 87.8294 129.618H87.3288C87.3103 129.61 87.2905 129.606 87.2706 129.606C87.2506 129.606 87.2308 129.61 87.2123 129.618C87.2014 129.656 87.2014 129.696 87.2123 129.734V132.38C87.1869 132.82 87.3054 133.256 87.55 133.622C87.6812 133.774 87.8469 133.892 88.0332 133.967C88.2196 134.042 88.4212 134.071 88.6212 134.052C88.8419 134.053 89.0616 134.022 89.2732 133.959C89.4931 133.891 89.7042 133.798 89.9019 133.68V133.831C89.8909 133.869 89.8909 133.91 89.9019 133.947C89.9355 133.961 89.9731 133.961 90.0067 133.947H90.4142C90.4305 133.956 90.4484 133.96 90.4666 133.96C90.4848 133.96 90.5028 133.956 90.519 133.947C90.5267 133.929 90.5307 133.909 90.5307 133.889C90.5307 133.869 90.5267 133.85 90.519 133.831V129.734C90.5267 129.715 90.5307 129.696 90.5307 129.676C90.5307 129.656 90.5267 129.636 90.519 129.618C90.5051 129.609 90.4897 129.604 90.4737 129.602C90.4576 129.6 90.4414 129.601 90.4259 129.606Z" fill="white"/>
<path id="Vector_24" d="M93.8724 133.506H93.4183C93.2996 133.521 93.1794 133.492 93.0806 133.425C92.9932 133.304 92.9557 133.155 92.9758 133.007V130.198H93.8491C93.8923 130.198 93.9338 130.181 93.9643 130.151C93.9949 130.12 94.0121 130.079 94.0121 130.036V129.769C94.0121 129.726 93.9949 129.684 93.9643 129.654C93.9338 129.623 93.8923 129.606 93.8491 129.606H92.9758V128.724C92.9874 128.69 92.9874 128.653 92.9758 128.619C92.9629 128.614 92.9491 128.611 92.9351 128.611C92.9211 128.611 92.9072 128.614 92.8943 128.619L92.4752 128.689C92.4543 128.689 92.4336 128.693 92.4144 128.702C92.3953 128.71 92.378 128.722 92.3638 128.737C92.3496 128.753 92.3387 128.771 92.3318 128.79C92.3249 128.81 92.3222 128.831 92.3238 128.852V129.641H91.5437C91.4389 129.641 91.3924 129.641 91.3924 129.78V130.001C91.3902 130.021 91.3927 130.041 91.3997 130.059C91.4068 130.078 91.4181 130.095 91.4328 130.108C91.4475 130.122 91.4652 130.132 91.4845 130.137C91.5038 130.143 91.524 130.144 91.5437 130.14L92.3238 130.233V132.961C92.3185 133.145 92.3421 133.329 92.3937 133.506C92.4325 133.632 92.505 133.744 92.6033 133.831C92.6962 133.919 92.8142 133.976 92.9409 133.994C93.1033 134.015 93.2676 134.015 93.4299 133.994H93.6861H93.9539C94.047 133.994 94.0936 133.947 94.0936 133.855V133.564C94.0354 133.541 93.9772 133.506 93.8724 133.506Z" fill="white"/>
<path id="Vector_25" d="M97.8073 129.943C97.682 129.808 97.5264 129.704 97.3532 129.641C97.1612 129.58 96.9609 129.549 96.7594 129.548C96.5578 129.534 96.3555 129.534 96.154 129.548C95.9387 129.589 95.7281 129.651 95.5252 129.734V128.074C95.5341 128.04 95.5341 128.004 95.5252 127.969C95.4916 127.956 95.454 127.956 95.4204 127.969H95.0129C94.9967 127.961 94.9787 127.957 94.9605 127.957C94.9423 127.957 94.9244 127.961 94.9081 127.969C94.8945 128.003 94.8945 128.04 94.9081 128.074V133.808C94.9004 133.827 94.8965 133.846 94.8965 133.866C94.8965 133.886 94.9004 133.906 94.9081 133.924C94.9244 133.932 94.9423 133.937 94.9605 133.937C94.9787 133.937 94.9967 133.932 95.0129 133.924H95.4088C95.4272 133.932 95.447 133.936 95.467 133.936C95.487 133.936 95.5068 133.932 95.5252 133.924C95.5362 133.886 95.5362 133.846 95.5252 133.808V130.326C95.6148 130.282 95.7084 130.247 95.8047 130.221L96.119 130.152H96.4101H96.643C96.8788 130.142 97.1089 130.225 97.2833 130.384C97.4635 130.619 97.5468 130.914 97.5162 131.208V133.855C97.5162 133.898 97.5334 133.939 97.564 133.97C97.5945 134 97.636 134.017 97.6792 134.017H98.0634C98.0819 134.025 98.1017 134.029 98.1217 134.029C98.1416 134.029 98.1614 134.025 98.1799 134.017C98.1909 133.979 98.1909 133.939 98.1799 133.901V131.22C98.1852 130.964 98.1498 130.709 98.0751 130.465C98.0281 130.272 97.9364 130.094 97.8073 129.943Z" fill="white"/>
<path id="Vector_26" d="M102.279 130.082C102.125 129.91 101.934 129.775 101.72 129.687C101.471 129.591 101.206 129.544 100.94 129.548C100.673 129.542 100.408 129.589 100.16 129.687C99.9421 129.775 99.7471 129.909 99.5891 130.082C99.4402 130.269 99.3259 130.482 99.2514 130.709C99.1792 130.97 99.1439 131.239 99.1466 131.51V132.125C99.1439 132.396 99.1792 132.665 99.2514 132.926C99.3259 133.153 99.4402 133.365 99.5891 133.553C99.7471 133.725 99.9421 133.86 100.16 133.947C100.408 134.046 100.673 134.093 100.94 134.087C101.206 134.091 101.471 134.044 101.72 133.947C101.934 133.86 102.125 133.725 102.279 133.553C102.436 133.369 102.554 133.156 102.628 132.926C102.7 132.665 102.735 132.396 102.733 132.125V131.51C102.735 131.239 102.7 130.97 102.628 130.709C102.554 130.479 102.436 130.266 102.279 130.082ZM102.023 132.125C102.043 132.473 101.953 132.818 101.766 133.112C101.668 133.233 101.541 133.33 101.397 133.392C101.253 133.455 101.096 133.482 100.94 133.472C100.782 133.485 100.623 133.458 100.478 133.393C100.333 133.328 100.208 133.227 100.113 133.1C99.9261 132.81 99.8364 132.469 99.8569 132.125V131.51C99.8364 131.162 99.926 130.817 100.113 130.523C100.221 130.414 100.35 130.328 100.492 130.269C100.634 130.21 100.786 130.18 100.94 130.18C101.093 130.18 101.246 130.21 101.387 130.269C101.529 130.328 101.658 130.414 101.766 130.523C101.953 130.813 102.043 131.154 102.023 131.498V132.125Z" fill="white"/>
<path id="Vector_27" d="M105.515 129.548C105.325 129.545 105.135 129.576 104.956 129.641C104.747 129.709 104.55 129.811 104.374 129.943V129.769C104.382 129.75 104.386 129.731 104.386 129.711C104.386 129.691 104.382 129.671 104.374 129.653C104.358 129.644 104.34 129.64 104.322 129.64C104.303 129.64 104.285 129.644 104.269 129.653H103.885C103.851 129.639 103.814 129.639 103.78 129.653C103.773 129.671 103.769 129.691 103.769 129.711C103.769 129.731 103.773 129.75 103.78 129.769V133.866C103.773 133.885 103.769 133.904 103.769 133.924C103.769 133.944 103.773 133.964 103.78 133.982C103.814 133.996 103.851 133.996 103.885 133.982H104.281C104.324 133.982 104.366 133.965 104.396 133.935C104.427 133.904 104.444 133.863 104.444 133.82V130.454C104.623 130.346 104.815 130.26 105.014 130.198C105.191 130.142 105.376 130.115 105.562 130.117C105.678 130.117 105.736 130.07 105.736 129.978V129.653C105.69 129.595 105.631 129.548 105.515 129.548Z" fill="white"/>
<path id="Vector_28" d="M107.122 129.606H106.738C106.695 129.606 106.654 129.623 106.623 129.654C106.592 129.684 106.575 129.725 106.575 129.769V133.866C106.575 133.909 106.592 133.951 106.623 133.981C106.654 134.012 106.695 134.029 106.738 134.029H107.122C107.166 134.029 107.207 134.012 107.238 133.981C107.268 133.951 107.285 133.909 107.285 133.866V129.769C107.285 129.725 107.268 129.684 107.238 129.654C107.207 129.623 107.166 129.606 107.122 129.606Z" fill="white"/>
<path id="Vector_29" d="M107.122 127.923H106.703C106.664 127.933 106.627 127.953 106.599 127.981C106.57 128.01 106.55 128.046 106.54 128.085V128.736C106.541 128.758 106.547 128.78 106.557 128.8C106.567 128.82 106.581 128.837 106.598 128.852C106.632 128.862 106.669 128.862 106.703 128.852H107.122C107.156 128.862 107.193 128.862 107.227 128.852C107.235 128.833 107.239 128.813 107.239 128.794C107.239 128.774 107.235 128.754 107.227 128.736V128.085C107.234 128.069 107.238 128.051 107.238 128.033C107.238 128.015 107.234 127.997 107.227 127.981C107.215 127.964 107.199 127.95 107.181 127.94C107.163 127.93 107.143 127.924 107.122 127.923Z" fill="white"/>
<path id="Vector_30" d="M110.615 133.506H110.16C110.042 133.521 109.922 133.492 109.823 133.425C109.735 133.304 109.698 133.155 109.718 133.007V130.198H110.615C110.658 130.198 110.699 130.181 110.73 130.151C110.76 130.12 110.778 130.079 110.778 130.036V129.769C110.778 129.726 110.76 129.684 110.73 129.654C110.699 129.623 110.658 129.606 110.615 129.606H109.741V128.724C109.753 128.69 109.753 128.653 109.741 128.619C109.728 128.614 109.715 128.611 109.701 128.611C109.687 128.611 109.673 128.614 109.66 128.619L109.241 128.689C109.22 128.689 109.199 128.693 109.18 128.702C109.161 128.71 109.144 128.722 109.129 128.737C109.115 128.753 109.104 128.771 109.097 128.79C109.09 128.81 109.088 128.831 109.089 128.852V129.641H108.286C108.181 129.641 108.135 129.641 108.135 129.78V130.001C108.132 130.021 108.135 130.041 108.142 130.059C108.149 130.078 108.16 130.095 108.175 130.108C108.19 130.122 108.207 130.132 108.227 130.137C108.246 130.143 108.266 130.144 108.286 130.14L109.066 130.233V132.961C109.061 133.145 109.084 133.329 109.136 133.506C109.175 133.632 109.247 133.744 109.345 133.831C109.438 133.919 109.556 133.976 109.683 133.994C109.846 134.013 110.01 134.013 110.172 133.994H110.428H110.696C110.789 133.994 110.836 133.947 110.836 133.855V133.564C110.801 133.541 110.743 133.506 110.615 133.506Z" fill="white"/>
<path id="Vector_31" d="M114.877 129.606H114.423C114.393 129.594 114.359 129.594 114.329 129.606C114.321 129.633 114.321 129.661 114.329 129.687L113.34 133.367H113.212H113.13C113.095 133.323 113.071 133.271 113.06 133.216L112.106 129.734V129.641C112.076 129.629 112.042 129.629 112.012 129.641H111.57C111.551 129.639 111.532 129.641 111.514 129.648C111.497 129.654 111.481 129.664 111.467 129.678C111.454 129.691 111.444 129.707 111.437 129.725C111.431 129.743 111.428 129.761 111.43 129.78L112.513 133.46C112.537 133.566 112.576 133.667 112.63 133.762C112.667 133.826 112.714 133.885 112.769 133.936C112.819 133.969 112.874 133.992 112.932 134.005H113.223L113.142 134.342C113.117 134.459 113.078 134.572 113.025 134.679C112.987 134.759 112.931 134.83 112.862 134.888C112.802 134.945 112.724 134.982 112.641 134.992C112.541 135.005 112.439 135.005 112.338 134.992H111.978H111.617C111.523 134.992 111.465 134.992 111.465 135.12V135.41C111.458 135.424 111.454 135.44 111.454 135.456C111.454 135.473 111.458 135.488 111.465 135.503H111.593C111.698 135.513 111.803 135.513 111.908 135.503H112.269C112.465 135.508 112.661 135.484 112.851 135.433C113.001 135.395 113.14 135.323 113.258 135.224C113.379 135.128 113.475 135.005 113.538 134.864C113.619 134.683 113.689 134.497 113.747 134.307L115.075 129.664C115.075 129.664 114.958 129.606 114.877 129.606Z" fill="white"/>
<path id="Vector_32" d="M13.394 123.674H12.9516C12.8832 123.675 12.8172 123.7 12.7653 123.744C12.7387 123.764 12.7174 123.791 12.7033 123.821C12.6891 123.852 12.6824 123.885 12.6838 123.918V124.533C12.6833 124.565 12.6905 124.596 12.7046 124.625C12.7188 124.653 12.7396 124.677 12.7653 124.696C12.7887 124.722 12.8174 124.743 12.8495 124.757C12.8817 124.771 12.9165 124.778 12.9516 124.777H13.394C13.4291 124.778 13.4639 124.771 13.496 124.757C13.5282 124.743 13.5569 124.722 13.5803 124.696C13.6059 124.677 13.6267 124.653 13.6409 124.625C13.6551 124.596 13.6623 124.565 13.6618 124.533V123.918C13.6632 123.885 13.6565 123.852 13.6423 123.821C13.6281 123.791 13.6069 123.764 13.5803 123.744C13.5283 123.7 13.4624 123.675 13.394 123.674Z" fill="white"/>
<path id="Vector_33" d="M11.5317 124.835C11.5668 124.836 11.6016 124.829 11.6337 124.815C11.6659 124.801 11.6946 124.78 11.718 124.754C11.7619 124.711 11.787 124.653 11.7879 124.592V123.976C11.789 123.944 11.7834 123.912 11.7713 123.882C11.7593 123.852 11.7411 123.825 11.718 123.802C11.6982 123.769 11.6712 123.74 11.639 123.718C11.6068 123.696 11.5702 123.681 11.5317 123.675H11.0893C11.055 123.672 11.0208 123.678 10.9887 123.69C10.9566 123.702 10.9274 123.72 10.903 123.744C10.8764 123.765 10.8551 123.791 10.841 123.821C10.8268 123.852 10.8201 123.885 10.8215 123.918V124.533C10.821 124.565 10.8282 124.596 10.8423 124.625C10.8565 124.653 10.8773 124.677 10.903 124.696C10.9252 124.723 10.9538 124.745 10.9862 124.759C11.0186 124.773 11.054 124.78 11.0893 124.777L11.5317 124.835Z" fill="white"/>
<path id="Vector_34" d="M16.9453 116.129H17.4693C17.5035 116.131 17.5377 116.126 17.5698 116.114C17.6019 116.102 17.6311 116.084 17.6556 116.06C17.6787 116.037 17.6969 116.01 17.7089 115.98C17.7209 115.95 17.7266 115.918 17.7254 115.886V115.282C17.7275 115.248 17.7223 115.214 17.7103 115.182C17.6983 115.15 17.6796 115.121 17.6556 115.096C17.6329 115.073 17.6057 115.055 17.5756 115.043C17.5455 115.031 17.5133 115.025 17.4809 115.027H16.9803C16.9157 115.029 16.854 115.054 16.8056 115.096C16.7781 115.118 16.7564 115.147 16.7422 115.179C16.728 115.212 16.7218 115.247 16.7241 115.282V115.886C16.7227 115.919 16.7294 115.952 16.7436 115.983C16.7578 116.013 16.779 116.039 16.8056 116.06C16.8427 116.098 16.8921 116.123 16.9453 116.129Z" fill="white"/>
<path id="Vector_35" d="M19.2161 122.386C19.2228 122.262 19.2228 122.138 19.2161 122.014C19.2161 121.875 19.2161 121.736 19.2161 121.585V117.754C19.2297 117.709 19.2297 117.661 19.2161 117.615C19.1748 117.583 19.1273 117.559 19.0764 117.545C18.825 117.478 18.5676 117.436 18.308 117.418C18.0052 117.418 17.6909 117.418 17.3765 117.418C16.6737 117.374 15.981 117.602 15.4437 118.056C15.2047 118.289 15.0186 118.57 14.8981 118.88C14.7775 119.19 14.7254 119.523 14.7451 119.855V120.134C14.7363 120.461 14.7835 120.787 14.8849 121.097C14.9664 121.326 15.0887 121.539 15.2458 121.724H13.5342H13.2664C13.185 121.709 13.1065 121.682 13.0336 121.643C13.0001 121.632 12.9693 121.613 12.9432 121.589C12.9172 121.565 12.8964 121.536 12.8822 121.504V118.381C12.8855 118.353 12.8819 118.325 12.8717 118.299C12.8616 118.272 12.8452 118.249 12.824 118.23C12.8049 118.209 12.7816 118.192 12.7556 118.18C12.7295 118.168 12.7013 118.161 12.6726 118.161H12.1487C12.0918 118.166 12.0385 118.191 11.9981 118.231C11.9577 118.271 11.9327 118.324 11.9275 118.381V121.353C11.9326 121.395 11.9279 121.438 11.9138 121.478C11.8997 121.519 11.8765 121.555 11.846 121.585C11.7881 121.645 11.716 121.689 11.6364 121.713H11.3686H5.547C5.34367 121.722 5.1419 121.673 4.96483 121.573C4.82512 121.492 4.75526 121.295 4.75526 120.993V117.801C4.76885 117.755 4.76885 117.707 4.75526 117.662C4.75526 117.662 4.75526 117.662 4.61554 117.58H4.32446H3.96352C3.8357 117.569 3.70711 117.569 3.57929 117.58H3.17178C2.77941 117.579 2.38835 117.626 2.00746 117.72C1.67104 117.804 1.35458 117.954 1.076 118.161C0.812586 118.366 0.604518 118.633 0.470555 118.938C0.309628 119.304 0.233986 119.701 0.249334 120.099V120.192C0.208134 120.806 0.413351 121.412 0.819851 121.875C1.03809 122.077 1.29506 122.232 1.57523 122.332C1.8554 122.432 2.15295 122.474 2.4499 122.456H2.55469C2.85285 122.457 3.15007 122.422 3.43957 122.351C3.67179 122.299 3.88047 122.173 4.03338 121.991C4.13981 122.224 4.33148 122.406 4.56897 122.502C4.83968 122.607 5.12843 122.658 5.41892 122.653H10.9844C11.2234 122.652 11.4616 122.625 11.6946 122.572C11.9422 122.531 12.1749 122.427 12.3699 122.27C12.5621 122.432 12.7962 122.536 13.0452 122.572C13.2938 122.626 13.5475 122.653 13.802 122.653H18.0518C18.3429 122.653 18.6573 122.653 18.9716 122.653C19.286 122.653 19.2161 122.514 19.2161 122.386ZM3.75394 120.935C3.75907 121.042 3.73057 121.147 3.67244 121.237C3.60695 121.317 3.52311 121.381 3.42793 121.422C3.3256 121.472 3.21523 121.504 3.10192 121.515H2.74098H2.5314C2.33889 121.537 2.14393 121.514 1.96202 121.447C1.78012 121.381 1.61627 121.273 1.48351 121.132C1.2577 120.823 1.14658 120.446 1.16915 120.064V119.821C1.15919 119.561 1.21106 119.302 1.32051 119.066C1.40366 118.876 1.53633 118.712 1.70474 118.59C1.87994 118.47 2.07811 118.387 2.2869 118.346C2.5362 118.298 2.78974 118.275 3.0437 118.277H3.35807H3.75394V120.935ZM18.308 121.678H17.7607H17.1902C16.9769 121.703 16.7607 121.678 16.5587 121.606C16.3566 121.533 16.1742 121.415 16.0259 121.26C15.7706 120.928 15.6426 120.517 15.6649 120.099V119.844C15.6377 119.63 15.6605 119.412 15.7314 119.208C15.8023 119.004 15.9195 118.819 16.0738 118.667C16.2281 118.515 16.4154 118.401 16.6212 118.334C16.8269 118.266 17.0455 118.246 17.2601 118.277H17.7957H18.2614L18.308 121.678Z" fill="white"/>
<path id="Vector_36" d="M26.4694 116.594H26.9119C26.9803 116.593 27.0462 116.568 27.0982 116.524C27.1453 116.482 27.1745 116.424 27.1797 116.361V115.746C27.1795 115.711 27.1722 115.677 27.1582 115.645C27.1442 115.613 27.1238 115.584 27.0982 115.561C27.0737 115.537 27.0445 115.518 27.0124 115.506C26.9804 115.494 26.9461 115.489 26.9119 115.491H26.4694C26.4352 115.489 26.401 115.494 26.3689 115.506C26.3368 115.518 26.3076 115.537 26.2831 115.561C26.2557 115.583 26.2339 115.611 26.2197 115.643C26.2055 115.676 26.1993 115.711 26.2016 115.746V116.361C26.2012 116.393 26.2083 116.424 26.2225 116.453C26.2367 116.481 26.2575 116.505 26.2831 116.524C26.3076 116.548 26.3368 116.567 26.3689 116.579C26.401 116.591 26.4352 116.596 26.4694 116.594Z" fill="white"/>
<path id="Vector_37" d="M28.3327 116.594H28.7868C28.8518 116.593 28.9142 116.568 28.9614 116.524C28.9871 116.505 29.0079 116.481 29.0221 116.453C29.0363 116.424 29.0434 116.393 29.043 116.361V115.746C29.0453 115.711 29.0391 115.676 29.0249 115.643C29.0107 115.611 28.9889 115.583 28.9614 115.56C28.9142 115.516 28.8518 115.491 28.7868 115.491H28.3327C28.2643 115.492 28.1984 115.516 28.1464 115.56C28.1189 115.583 28.0972 115.611 28.083 115.643C28.0688 115.676 28.0626 115.711 28.0649 115.746V116.361C28.0645 116.393 28.0716 116.424 28.0858 116.453C28.1 116.481 28.1208 116.505 28.1464 116.524C28.1984 116.568 28.2643 116.593 28.3327 116.594Z" fill="white"/>
<path id="Vector_38" d="M33.9327 122.63H34.3053H34.5731C34.6465 122.606 34.7086 122.557 34.7477 122.49C34.7849 122.435 34.8088 122.371 34.8176 122.305C34.8176 122.212 34.8176 122.107 34.8176 121.991C34.8176 121.875 34.8176 121.759 34.8176 121.643V114.388C34.816 114.333 34.7954 114.279 34.7594 114.237C34.7109 114.217 34.6565 114.217 34.608 114.237H34.119C34.0661 114.22 34.0089 114.22 33.956 114.237C33.9199 114.279 33.8994 114.333 33.8978 114.388V121.353C33.9133 121.479 33.8845 121.606 33.8163 121.713C33.6825 121.762 33.5394 121.782 33.3971 121.771H32.1513H31.8835C31.8021 121.756 31.7235 121.729 31.6506 121.689C31.6171 121.678 31.5864 121.66 31.5603 121.636C31.5342 121.612 31.5135 121.583 31.4993 121.55V114.388C31.5161 114.339 31.5161 114.286 31.4993 114.237C31.4501 114.221 31.3971 114.221 31.3479 114.237H30.7425C30.6936 114.219 30.64 114.219 30.5911 114.237C30.5697 114.256 30.5525 114.279 30.5405 114.305C30.5285 114.331 30.5219 114.36 30.5212 114.388V121.353C30.5264 121.395 30.5217 121.438 30.5076 121.478C30.4935 121.519 30.4702 121.555 30.4397 121.585C30.3819 121.645 30.3098 121.689 30.2302 121.713H29.9624H28.7981H28.5303C28.4447 121.7 28.362 121.672 28.2858 121.631C28.2231 121.604 28.1731 121.555 28.146 121.492V118.37C28.1408 118.313 28.1158 118.26 28.0754 118.219C28.035 118.179 27.9817 118.154 27.9248 118.149H27.4009C27.3719 118.148 27.3432 118.154 27.3169 118.166C27.2907 118.178 27.2676 118.196 27.2495 118.219C27.2283 118.237 27.2119 118.261 27.2018 118.287C27.1916 118.313 27.188 118.342 27.1913 118.37V121.341C27.1941 121.384 27.1872 121.428 27.1711 121.468C27.155 121.508 27.13 121.544 27.0981 121.573C27.0403 121.633 26.9682 121.677 26.8886 121.701H26.6324H22.4176V118.3C22.4364 118.251 22.4364 118.198 22.4176 118.149C22.4002 118.129 22.3789 118.112 22.3549 118.1C22.3309 118.088 22.3047 118.081 22.2779 118.079H21.719C21.6901 118.079 21.6613 118.084 21.635 118.096C21.6088 118.109 21.5857 118.127 21.5676 118.149C21.5298 118.19 21.5089 118.244 21.5094 118.3V123.326C21.5186 123.529 21.499 123.732 21.4512 123.93C21.4244 124.061 21.3548 124.179 21.2533 124.266C21.1336 124.342 20.9983 124.39 20.8574 124.406C20.6558 124.42 20.4535 124.42 20.2519 124.406H20.0074C19.8794 124.406 19.8095 124.406 19.8095 124.568V125.056C19.8018 125.074 19.7979 125.094 19.7979 125.114C19.7979 125.134 19.8018 125.153 19.8095 125.172C19.8496 125.213 19.9035 125.238 19.9609 125.242H20.2636H20.5081C20.872 125.252 21.2348 125.196 21.5793 125.079C21.8512 124.978 22.0754 124.779 22.208 124.522C22.2956 124.355 22.3546 124.174 22.3826 123.988C22.3952 123.764 22.3952 123.539 22.3826 123.315V122.595H26.2016C26.4407 122.595 26.6789 122.567 26.9119 122.514C27.1623 122.471 27.3984 122.368 27.5988 122.212C27.7881 122.371 28.0177 122.476 28.2625 122.514C28.5111 122.568 28.7648 122.595 29.0193 122.595H29.5898C29.8288 122.594 30.067 122.567 30.3 122.514C30.5476 122.473 30.7804 122.369 30.9753 122.212C31.067 122.291 31.1688 122.357 31.2781 122.409C31.3985 122.456 31.5233 122.491 31.6506 122.514C31.7745 122.526 31.8993 122.526 32.0232 122.514H32.3958H33.4786L33.9327 122.63Z" fill="white"/>
<path id="Vector_39" d="M42.4328 116.153H42.8753C42.9437 116.152 43.0096 116.127 43.0616 116.083C43.0863 116.061 43.1062 116.034 43.1203 116.004C43.1343 115.974 43.142 115.942 43.1431 115.909V115.305C43.1429 115.27 43.1356 115.236 43.1216 115.204C43.1076 115.172 43.0871 115.143 43.0616 115.119C43.0096 115.075 42.9437 115.05 42.8753 115.05H42.4328C42.3645 115.05 42.2985 115.075 42.2465 115.119C42.2169 115.14 42.1929 115.168 42.1767 115.201C42.1604 115.233 42.1524 115.269 42.1534 115.305V115.909C42.1543 115.943 42.1632 115.977 42.1793 116.007C42.1955 116.037 42.2185 116.063 42.2465 116.083C42.2985 116.127 42.3645 116.152 42.4328 116.153Z" fill="white"/>
<path id="Vector_40" d="M40.5574 116.153H41.0115C41.0764 116.152 41.1389 116.127 41.1861 116.083C41.2127 116.063 41.2339 116.036 41.2481 116.006C41.2623 115.975 41.269 115.942 41.2676 115.909V115.305C41.2697 115.271 41.2645 115.237 41.2525 115.205C41.2405 115.173 41.2218 115.144 41.1978 115.119C41.1458 115.075 41.0798 115.05 41.0115 115.05H40.5574C40.489 115.05 40.423 115.075 40.3711 115.119C40.347 115.144 40.3284 115.173 40.3163 115.205C40.3043 115.237 40.2992 115.271 40.3012 115.305V115.909C40.3001 115.941 40.3057 115.973 40.3177 116.003C40.3298 116.033 40.3479 116.06 40.3711 116.083C40.423 116.127 40.489 116.152 40.5574 116.153Z" fill="white"/>
<path id="Vector_41" d="M57.4873 122.223C57.8846 121.715 58.0795 121.079 58.0345 120.436V119.855C58.0785 119.204 57.8701 118.56 57.4523 118.056C57.2207 117.845 56.9487 117.683 56.6526 117.579C56.3564 117.475 56.0423 117.432 55.7291 117.453C55.4113 117.431 55.0923 117.474 54.7919 117.58C54.4915 117.685 54.2161 117.852 53.9827 118.068C53.7663 118.313 53.6005 118.598 53.4946 118.906C53.3887 119.215 53.3449 119.541 53.3656 119.867V120.958C53.379 121.066 53.379 121.175 53.3656 121.283C53.3518 121.367 53.3059 121.442 53.2375 121.492C53.1724 121.548 53.0974 121.591 53.0163 121.62H52.7718H44.6215C44.418 121.631 44.2157 121.582 44.0394 121.481C43.888 121.399 43.8181 121.202 43.8181 120.9V117.708C43.8257 117.662 43.8257 117.615 43.8181 117.569C43.7816 117.527 43.7326 117.499 43.6784 117.487H43.3757H43.0147C42.8908 117.475 42.7661 117.475 42.6422 117.487H42.2929C41.9005 117.486 41.5094 117.533 41.1286 117.627C40.7913 117.709 40.4744 117.859 40.1971 118.068C39.9305 118.273 39.7185 118.54 39.58 118.846C39.4289 119.213 39.3575 119.609 39.3704 120.006V120.192C39.3292 120.806 39.5344 121.412 39.9409 121.875C40.1584 122.078 40.4153 122.234 40.6956 122.334C40.976 122.434 41.2739 122.475 41.571 122.456H41.6641C41.9624 122.459 42.2597 122.423 42.549 122.351C42.7833 122.296 42.9948 122.171 43.1545 121.991C43.2561 122.223 43.444 122.406 43.6784 122.502C43.9535 122.606 44.2458 122.657 44.54 122.653H52.3992C52.6989 122.655 52.9971 122.612 53.2841 122.525C53.5252 122.46 53.7355 122.312 53.8779 122.107C54.0756 122.357 54.343 122.543 54.6463 122.641C55.0204 122.77 55.4151 122.829 55.8106 122.815C56.4261 122.847 57.029 122.634 57.4873 122.223ZM42.8634 120.935C42.8643 121.043 42.8318 121.148 42.7702 121.237C42.709 121.317 42.6291 121.381 42.5374 121.423C42.4309 121.472 42.3167 121.504 42.1997 121.515H41.8504H41.6292C41.4369 121.535 41.2427 121.51 41.0612 121.444C40.8797 121.377 40.7157 121.271 40.5813 121.132C40.3647 120.82 40.2582 120.444 40.2786 120.064V119.821C40.2709 119.562 40.3186 119.305 40.4183 119.066C40.5015 118.876 40.6341 118.712 40.8025 118.59C40.9809 118.468 41.1833 118.385 41.3963 118.346C41.6417 118.298 41.8914 118.275 42.1415 118.277H42.4675H42.8634V120.935ZM54.3669 121.086C54.3533 120.877 54.3533 120.668 54.3669 120.459V119.96C54.3456 119.55 54.4557 119.143 54.6812 118.799C54.8171 118.651 54.9856 118.536 55.1734 118.463C55.3613 118.391 55.5635 118.363 55.7641 118.381C55.9581 118.359 56.1547 118.385 56.3358 118.458C56.5169 118.531 56.6766 118.648 56.8003 118.799C57.0203 119.145 57.1262 119.551 57.103 119.96V120.378C57.1373 120.788 57.0306 121.197 56.8003 121.539C56.6607 121.672 56.4935 121.773 56.3105 121.835C56.1274 121.897 55.933 121.919 55.7408 121.898C55.4399 121.911 55.1404 121.851 54.8675 121.724C54.7426 121.661 54.6331 121.57 54.5466 121.46C54.4601 121.35 54.3988 121.222 54.3669 121.086Z" fill="white"/>
<path id="Vector_42" d="M72.9607 122.409C72.9888 122.35 73.0084 122.288 73.019 122.223C73.0316 122.119 73.0316 122.014 73.019 121.91C73.019 121.794 73.019 121.678 73.019 121.562V114.388C73.0205 114.361 73.0166 114.334 73.0074 114.309C72.9981 114.284 72.9838 114.261 72.9653 114.241C72.9467 114.221 72.9244 114.206 72.8996 114.195C72.8748 114.185 72.848 114.179 72.821 114.179H72.2622C72.2133 114.161 72.1597 114.161 72.1108 114.179C72.0894 114.198 72.0722 114.221 72.0602 114.247C72.0481 114.273 72.0416 114.302 72.0409 114.33V121.295C72.0409 121.492 72.0409 121.608 71.9594 121.655C71.8256 121.704 71.6826 121.724 71.5403 121.713H69.2116C69.3367 121.626 69.4436 121.516 69.526 121.388C69.6301 121.246 69.7125 121.089 69.7705 120.923C69.8424 120.747 69.897 120.565 69.9335 120.378C69.9701 120.194 69.9896 120.008 69.9917 119.821V119.612C70.0019 119.266 69.9384 118.922 69.8054 118.602C69.6845 118.334 69.5008 118.099 69.2698 117.917C69.0255 117.735 68.749 117.602 68.4548 117.522C68.1196 117.44 67.7753 117.401 67.4302 117.406C67.2018 117.383 66.9717 117.383 66.7433 117.406C66.5186 117.44 66.2967 117.49 66.0796 117.557C65.8777 117.613 65.6825 117.691 65.4974 117.789C65.3301 117.875 65.1737 117.98 65.0317 118.103C64.9814 118.137 64.9389 118.182 64.9068 118.234C64.8748 118.286 64.8539 118.344 64.8454 118.404V118.834C64.8337 118.864 64.8337 118.897 64.8454 118.927L65.9166 121.655H61.5388H61.2127C61.1295 121.64 61.0501 121.609 60.9799 121.562C60.911 121.512 60.8584 121.444 60.8285 121.365C60.7874 121.249 60.7677 121.127 60.7703 121.005V114.388C60.7872 114.339 60.7872 114.286 60.7703 114.237C60.7512 114.216 60.7279 114.199 60.7019 114.187C60.6758 114.175 60.6476 114.168 60.6189 114.168H60.0601C60.0311 114.167 60.0024 114.173 59.9761 114.185C59.9499 114.197 59.9268 114.215 59.9087 114.237C59.8873 114.256 59.8701 114.28 59.8581 114.305C59.8461 114.331 59.8395 114.36 59.8388 114.388V121.272C59.8315 121.512 59.8669 121.752 59.9436 121.98C59.9939 122.153 60.0953 122.306 60.2347 122.421C60.3686 122.533 60.5289 122.609 60.7004 122.641C60.9101 122.691 61.1253 122.715 61.3408 122.711H71.7499H72.1807H72.5532C72.6422 122.721 72.7321 122.721 72.821 122.711C72.8677 122.676 72.9049 122.631 72.9293 122.578C72.9537 122.525 72.9645 122.467 72.9607 122.409ZM69.1534 119.821C69.1503 120.231 69.0334 120.633 68.8158 120.981C68.7129 121.148 68.5774 121.293 68.4174 121.406C68.2574 121.52 68.0761 121.601 67.8843 121.643H67.046L65.8817 118.66C66.1461 118.476 66.4484 118.353 66.7666 118.3C67.0197 118.25 67.2769 118.223 67.535 118.219C67.9494 118.203 68.3578 118.321 68.6993 118.555C68.8502 118.69 68.9676 118.857 69.0424 119.045C69.1172 119.232 69.1472 119.434 69.1301 119.635L69.1534 119.821Z" fill="white"/>
<path id="Vector_43" d="M75.2309 122.665H75.7898C75.8187 122.665 75.8474 122.66 75.8737 122.648C75.9 122.635 75.9231 122.617 75.9411 122.595C75.9573 122.542 75.9573 122.485 75.9411 122.432V114.388C75.9571 114.339 75.9571 114.286 75.9411 114.237C75.9231 114.215 75.9 114.197 75.8737 114.185C75.8474 114.172 75.8187 114.167 75.7898 114.168H75.2309C75.2022 114.168 75.174 114.175 75.148 114.187C75.1219 114.199 75.0986 114.216 75.0795 114.237C75.0635 114.286 75.0635 114.339 75.0795 114.388V122.514C75.0633 122.567 75.0633 122.623 75.0795 122.676C75.1297 122.691 75.1837 122.687 75.2309 122.665Z" fill="white"/>
<path id="Vector_44" d="M83.6725 116.153H84.1149C84.1473 116.154 84.1795 116.148 84.2096 116.136C84.2397 116.124 84.2669 116.106 84.2896 116.083C84.3161 116.062 84.3374 116.036 84.3516 116.006C84.3658 115.975 84.3725 115.942 84.3711 115.909V115.305C84.3734 115.27 84.3672 115.235 84.353 115.202C84.3388 115.17 84.3171 115.142 84.2896 115.119C84.2669 115.096 84.2397 115.078 84.2096 115.066C84.1795 115.054 84.1473 115.049 84.1149 115.05H83.6725C83.6004 115.05 83.5306 115.074 83.4745 115.119C83.4471 115.142 83.4253 115.17 83.4111 115.202C83.3969 115.235 83.3907 115.27 83.393 115.305V115.909C83.3917 115.942 83.3983 115.975 83.4125 116.006C83.4267 116.036 83.448 116.062 83.4745 116.083C83.5306 116.128 83.6004 116.153 83.6725 116.153Z" fill="white"/>
<path id="Vector_45" d="M81.7976 116.153H82.24C82.3084 116.152 82.3744 116.127 82.4263 116.083C82.4511 116.061 82.471 116.034 82.485 116.004C82.499 115.974 82.5068 115.942 82.5078 115.909V115.305C82.5102 115.27 82.504 115.235 82.4898 115.202C82.4756 115.17 82.4538 115.142 82.4263 115.119C82.4019 115.095 82.3727 115.077 82.3406 115.065C82.3085 115.053 82.2743 115.048 82.24 115.05H81.7976C81.7288 115.048 81.6621 115.073 81.6113 115.119C81.5873 115.144 81.5686 115.173 81.5566 115.205C81.5446 115.237 81.5394 115.271 81.5415 115.305V115.909C81.5403 115.941 81.5459 115.973 81.558 116.003C81.57 116.033 81.5882 116.06 81.6113 116.083C81.6621 116.129 81.7288 116.154 81.7976 116.153Z" fill="white"/>
<path id="Vector_46" d="M91.8698 116.71H93.4067H93.5464C93.5566 116.692 93.562 116.672 93.562 116.652C93.562 116.631 93.5566 116.611 93.5464 116.594V116.42C93.5464 116.327 93.4766 116.28 93.3485 116.28H92.5917C92.5142 116.234 92.4531 116.165 92.417 116.083C92.3566 115.96 92.3285 115.825 92.3355 115.688C92.3355 115.352 92.5335 115.177 92.941 115.177H93.2903C93.3951 115.177 93.4416 115.177 93.4416 115.05V114.887C93.4416 114.887 93.4416 114.783 93.3136 114.76C93.2402 114.748 93.1657 114.748 93.0923 114.76H92.8828C92.6013 114.741 92.3219 114.819 92.091 114.98C91.9939 115.067 91.9183 115.175 91.8698 115.296C91.8213 115.417 91.8014 115.547 91.8116 115.677C91.794 115.792 91.794 115.909 91.8116 116.025C91.8406 116.135 91.8922 116.238 91.963 116.327H91.8698C91.7301 116.327 91.6719 116.327 91.6719 116.443V116.628C91.6719 116.617 91.7301 116.71 91.8698 116.71Z" fill="white"/>
<path id="Vector_47" d="M97.5747 124.835C97.6098 124.836 97.6446 124.829 97.6767 124.815C97.7089 124.801 97.7376 124.78 97.761 124.754C97.7867 124.735 97.8075 124.711 97.8216 124.683C97.8358 124.654 97.843 124.623 97.8425 124.591V123.976C97.8437 123.944 97.838 123.912 97.826 123.882C97.814 123.852 97.7958 123.825 97.7727 123.802C97.7177 123.755 97.6471 123.73 97.5747 123.732H97.1323C97.0635 123.731 96.9968 123.756 96.946 123.802C96.9228 123.825 96.9047 123.852 96.8926 123.882C96.8806 123.912 96.875 123.944 96.8761 123.976V124.591C96.8791 124.657 96.9074 124.719 96.9551 124.765C97.0029 124.81 97.0663 124.835 97.1323 124.835H97.5747Z" fill="white"/>
<path id="Vector_48" d="M99.6355 124.742C99.6794 124.7 99.7045 124.641 99.7053 124.58V123.965C99.7065 123.932 99.7009 123.9 99.6888 123.87C99.6768 123.84 99.6586 123.813 99.6355 123.791C99.5835 123.746 99.5176 123.722 99.4492 123.721H98.9718C98.9031 123.719 98.8363 123.744 98.7855 123.791C98.7575 123.81 98.7345 123.836 98.7183 123.867C98.7022 123.897 98.6933 123.93 98.6924 123.965V124.58C98.695 124.612 98.7047 124.643 98.7208 124.671C98.7369 124.7 98.759 124.724 98.7855 124.742C98.8072 124.771 98.8353 124.795 98.8677 124.811C98.9 124.827 98.9357 124.835 98.9718 124.835H99.4143C99.456 124.84 99.4983 124.834 99.5371 124.818C99.5758 124.801 99.6097 124.776 99.6355 124.742Z" fill="white"/>
<path id="Vector_49" d="M111.372 121.562C111.372 121.434 111.372 121.318 111.372 121.202V114.388C111.374 114.36 111.369 114.332 111.359 114.306C111.349 114.28 111.334 114.256 111.314 114.237C111.294 114.217 111.271 114.202 111.244 114.192C111.218 114.182 111.19 114.178 111.162 114.179H110.615C110.566 114.161 110.513 114.161 110.464 114.179C110.442 114.198 110.425 114.221 110.413 114.247C110.401 114.273 110.394 114.302 110.394 114.33V121.295C110.394 121.492 110.394 121.608 110.312 121.655C110.178 121.704 110.035 121.724 109.893 121.713H108.577C108.419 121.7 108.259 121.7 108.1 121.713C107.968 121.723 107.838 121.754 107.716 121.806C107.604 121.862 107.507 121.942 107.43 122.04C107.354 122.138 107.3 122.253 107.273 122.374C107.276 122.417 107.276 122.46 107.273 122.502C107.273 122.56 107.273 122.63 107.273 122.688V122.874C107.269 122.92 107.269 122.966 107.273 123.013C107.296 123.441 107.199 123.867 106.994 124.243C106.718 124.501 106.354 124.645 105.975 124.645C105.597 124.645 105.233 124.501 104.956 124.243C104.745 123.856 104.648 123.418 104.677 122.978V122.699H105.154H105.667H106.156C106.298 122.688 106.439 122.661 106.575 122.618C106.835 122.551 107.078 122.434 107.292 122.273C107.506 122.111 107.686 121.909 107.821 121.678C108.1 121.153 108.241 120.566 108.228 119.972V119.797C108.256 119.475 108.207 119.151 108.083 118.852C107.959 118.553 107.766 118.288 107.518 118.079C106.96 117.693 106.287 117.505 105.608 117.545H104.758C104.495 117.567 104.233 117.614 103.978 117.685C103.907 117.669 103.833 117.679 103.769 117.713C103.705 117.747 103.655 117.803 103.629 117.871V121.666H99.5539H99.2861C99.2006 121.653 99.1179 121.626 99.0416 121.585C98.979 121.558 98.929 121.508 98.9019 121.446V118.323C98.8967 118.266 98.8717 118.213 98.8313 118.173C98.7909 118.133 98.7376 118.108 98.6807 118.103H98.1568C98.1281 118.103 98.0999 118.11 98.0738 118.122C98.0478 118.134 98.0245 118.151 98.0054 118.172C97.994 118.196 97.9881 118.222 97.9881 118.248C97.9881 118.274 97.994 118.3 98.0054 118.323V121.295C98.0082 121.338 98.0013 121.381 97.9852 121.421C97.9691 121.462 97.9441 121.498 97.9122 121.527C97.8544 121.587 97.7823 121.631 97.7027 121.655H97.4465H93.9536H93.6858C93.6044 121.64 93.5258 121.612 93.4529 121.573C93.3902 121.546 93.3402 121.497 93.3132 121.434V118.312C93.308 118.255 93.283 118.202 93.2426 118.161C93.2022 118.121 93.1489 118.096 93.092 118.091H92.568C92.5111 118.096 92.4578 118.121 92.4174 118.161C92.377 118.202 92.352 118.255 92.3468 118.312V121.283C92.3519 121.326 92.3473 121.369 92.3331 121.409C92.319 121.449 92.2958 121.486 92.2653 121.515C92.2075 121.575 92.1353 121.619 92.0557 121.643H91.7879H85.9663C85.7667 121.652 85.5685 121.604 85.3958 121.504C85.2444 121.423 85.1746 121.225 85.1746 120.923V117.731C85.1882 117.686 85.1882 117.637 85.1746 117.592C85.1746 117.592 85.1746 117.592 85.0349 117.511H84.7438H84.3828C84.255 117.499 84.1264 117.499 83.9986 117.511H83.661C83.2686 117.509 82.8775 117.556 82.4966 117.65C82.1566 117.735 81.8364 117.885 81.5535 118.091C81.2901 118.296 81.0821 118.563 80.9481 118.869C80.793 119.236 80.7176 119.631 80.7269 120.03V120.192C80.6857 120.806 80.8909 121.412 81.2974 121.875C81.516 122.076 81.773 122.231 82.0531 122.331C82.3332 122.431 82.6306 122.473 82.9274 122.456H83.0322C83.3304 122.459 83.6278 122.424 83.9171 122.351C84.1493 122.3 84.358 122.173 84.5109 121.991C84.6202 122.222 84.8109 122.403 85.0465 122.502C85.3216 122.606 85.6139 122.657 85.9081 122.653H91.4968C91.7359 122.652 91.9741 122.625 92.2071 122.572C92.4576 122.529 92.6936 122.426 92.894 122.27C93.0833 122.429 93.3129 122.534 93.5577 122.572C93.8063 122.626 94.06 122.653 94.3145 122.653H97.202C97.4449 122.652 97.6869 122.625 97.9239 122.572C98.1709 122.529 98.4031 122.426 98.5992 122.27C98.7885 122.429 99.0181 122.534 99.2629 122.572C99.5115 122.626 99.7652 122.653 100.02 122.653H103.629V123.024C103.626 123.375 103.661 123.726 103.734 124.069C103.798 124.353 103.925 124.619 104.106 124.847C104.291 125.072 104.532 125.244 104.805 125.346C105.162 125.462 105.536 125.517 105.911 125.509C106.216 125.54 106.523 125.5 106.81 125.394C107.097 125.287 107.355 125.116 107.564 124.893C107.93 124.366 108.118 123.735 108.1 123.094V122.676H108.379H109.963H110.382H110.766C110.851 122.686 110.937 122.686 111.023 122.676C111.099 122.652 111.165 122.603 111.209 122.537C111.236 122.476 111.259 122.414 111.279 122.351C111.279 122.258 111.279 122.154 111.279 122.038C111.36 121.794 111.372 121.678 111.372 121.562ZM104.619 118.381H105.05H105.562C105.793 118.379 106.023 118.402 106.249 118.451C106.436 118.485 106.612 118.565 106.761 118.683C106.905 118.772 107.029 118.89 107.122 119.031C107.207 119.249 107.247 119.482 107.238 119.716V119.925C107.269 120.387 107.132 120.844 106.854 121.214C106.686 121.379 106.482 121.506 106.259 121.584C106.035 121.662 105.797 121.69 105.562 121.666H104.654L104.619 118.381ZM84.1034 120.935C84.1043 121.043 84.0718 121.148 84.0103 121.237C83.9473 121.32 83.8628 121.384 83.7658 121.423C83.6634 121.472 83.5531 121.504 83.4397 121.515H83.0904H82.8692C82.6769 121.535 82.4827 121.51 82.3012 121.444C82.1197 121.377 81.9557 121.271 81.8213 121.132C81.5996 120.822 81.4927 120.445 81.5186 120.064V119.821C81.511 119.562 81.5586 119.305 81.6583 119.066C81.7415 118.876 81.8741 118.712 82.0426 118.59C82.2178 118.47 82.4159 118.387 82.6247 118.346C82.8741 118.299 83.1276 118.275 83.3815 118.277H83.6959H84.1034V120.935Z" fill="white"/>
<path id="Vector_50" d="M113.526 122.665H114.108C114.137 122.666 114.166 122.661 114.193 122.649C114.219 122.637 114.242 122.618 114.26 122.595C114.276 122.542 114.276 122.485 114.26 122.432V114.388C114.276 114.339 114.276 114.286 114.26 114.237C114.242 114.214 114.219 114.195 114.193 114.183C114.166 114.171 114.137 114.166 114.108 114.168H113.526C113.497 114.168 113.469 114.175 113.443 114.187C113.417 114.199 113.394 114.216 113.375 114.237C113.339 114.279 113.318 114.333 113.316 114.388V122.514C113.318 122.573 113.338 122.63 113.375 122.676C113.425 122.691 113.479 122.687 113.526 122.665Z" fill="white"/>
<path id="Vector_51" d="M65.0431 65.2983L61.6317 63.708L61.8413 63.2901L61.4221 63.0812L61.166 63.4875L58.8722 62.4079L57.6963 61.8624L57.3353 61.6882L56.9744 61.5141L56.9395 61.5025L55.7169 60.9337L55.6121 60.8873L55.3443 60.7596L54.9834 60.5855L54.6923 60.4462L54.2499 60.2489L51.8048 59.0997L51.1644 58.7979L50.8151 58.6354L47.8461 57.2424L47.0078 56.8594L45.7271 56.2557L44.586 55.7218L44.3648 55.6173L43.0724 55.7218L42.6416 55.7566L44.6675 56.7433L46.2859 57.5326L47.4037 58.0782L49.6508 59.1693L50.3727 59.5292L51.8048 60.2257L53.7376 61.1659L53.7492 61.1775L54.0985 61.34L54.4595 61.5141L55.7169 62.1293L56.0662 62.3035L56.4155 62.4776H56.4272L59.0702 63.7777L59.1167 63.7893L59.6174 63.8938L60.3044 64.0214L60.6187 64.3349L60.2694 64.8688L60.8865 65.1822L61.0844 64.7992L64.4959 66.4707L65.0431 65.2983Z" fill="white"/>
<path id="Vector_52" d="M56.9048 41.5601L58.3253 40.26L58.8725 38.9599L59.0355 38.5653L58.8725 38.5421L58.5465 38.4956L57.9411 38.4144L56.5322 41.5601L56.5788 41.8503L56.9048 41.5601Z" fill="white"/>
<path id="Vector_53" d="M56.1012 60.0632L56.7416 59.7613V57.5675V55.9075V55.7218V55.6289V54.5146V52.3207V51.276V49.7089V48.9428V48.2115L55.8101 47.3989H55.6471L54.6924 48.3043V48.699V50.8465V51.276V53.2725V55.5129V55.7218V56.5576V56.8594V57.6139V59.4363V59.7613L55.717 60.2373L56.1012 60.0632Z" fill="white"/>
<path id="Vector_54" d="M50.4432 51.4269L50.6179 51.276L51.8055 50.15L52.7603 49.2562L53.8081 48.2695L54.693 47.4453V47.4105L53.7499 47.4337L52.1432 47.457H51.8055L51.398 47.4686L49.2789 49.4187L48.3475 50.2777L48.1146 51.276L47.4393 54.1547L47.416 54.2824L47.5092 54.1895L50.4432 51.4269Z" fill="white"/>
<path id="Vector_55" d="M58.8377 40.6199L58.2905 41.1306L57.7316 41.6414L56.707 42.5932L56.7652 42.9298L57.2775 42.7093L57.6851 42.5468L58.1042 42.3727L58.8727 42.0476L61.667 40.8985L64.2751 38.4492L61.8533 37.8456L58.8727 40.5967L58.8377 40.6199Z" fill="white"/>
<path id="Vector_56" d="M61.1896 41.7574L60.3746 42.1057L58.8726 42.7209L57.7548 43.1852L57.3357 43.3593L56.9282 43.5334L56.6953 43.6263L56.835 43.7424L56.9748 43.8585H57.1261L57.4754 43.8468L58.5349 43.8352H58.8726H58.989L59.4548 43.8236L62.2724 43.7772H62.6799L64.0073 43.2665L67.3605 41.9664L65.4627 40.8172L65.3579 40.7591L64.6476 40.3297L62.0046 41.4208L61.1896 41.7574Z" fill="white"/>
<path id="Vector_57" d="M54.7977 42.0012L54.8792 41.5485L53.5984 38.7162L52.5156 38.8671L53.2957 40.7127L54.7977 42.0012Z" fill="white"/>
<path id="Vector_58" d="M66.1841 44.3459L63.4014 44.3924H62.7959L61.8994 44.4156H61.5967L61.0145 44.4272L58.8722 44.4504H58.779L58.3249 44.462L57.8592 44.4736H57.6846L57.7777 44.5433L58.0106 44.7522L58.2551 44.9496L58.6859 45.321L58.8722 45.4835L58.9537 45.5532L59.2215 45.7853L59.6988 46.1916L60.3043 46.714L62.1672 46.6791L65.4506 46.6327L68.5244 46.5863L67.0341 45.1585L66.1841 44.3459Z" fill="white"/>
<path id="Vector_59" d="M50.9083 46.8533L51.1528 46.8416H51.6185H51.8048L52.0843 46.83L54.0636 46.8068L52.6897 46.2845L52.3637 46.1568L52.0377 46.0407L51.8048 45.9478L48.2187 44.6013L46.5072 44.6245H46.3674L45.7271 44.6361L43.0957 46.9693L47.8228 46.8997L50.9083 46.8533Z" fill="white"/>
<path id="Vector_60" d="M48.3236 43.9746L49.127 44.2764L49.9187 44.5782L51.8049 45.2863L52.5501 45.5649L52.8761 45.6926L53.2021 45.8086L54.378 46.2497L54.5876 46.331L54.413 46.1801L53.5863 45.4604L53.3534 45.2515L53.1089 45.0425L52.5384 44.5434L52.1891 44.23L51.8398 43.9282L51.8049 43.9049L49.5694 41.9548L45.6573 40.3297L44.4464 41.061L42.9561 41.9548L45.5176 42.9299L48.3236 43.9746Z" fill="white"/>
<path id="Vector_61" d="M55.6359 42.7209L55.6592 42.7325L55.7989 42.8602L55.8804 42.9298L55.892 42.9415H55.9153H56.1249L56.1016 42.7673L56.09 42.7325L56.0667 42.5932L56.0317 42.3611L55.9852 42.036L55.892 41.4789L55.8105 41.0029H55.5893L55.5194 41.4672L55.4263 42.0244L55.3564 42.4771L55.4147 42.5236L55.6359 42.7209Z" fill="white"/>
<path id="Vector_62" d="M50.6413 42.0592L51.3748 42.6977L51.8056 43.0691L52.772 43.9165L53.1213 44.2183L53.4706 44.5317L53.5754 44.6246L53.8083 44.8219L54.0528 45.0309L54.6815 45.5881L55.089 45.9363L55.2404 46.064L55.3452 46.1685L55.613 46.389L55.7294 46.4935L55.8225 46.5747H55.8924L56.0321 46.7024L56.1951 46.8301L56.5444 47.1319L57.406 47.8864L58.6751 49.0472L59.9792 50.208L60.247 50.4402L60.6196 50.7768L60.9921 51.1018L62.6105 52.5064L63.7749 53.5395L64.1009 53.8181L63.9961 53.435L63.9262 53.1564L63.3673 51.1018L63.0297 49.8598L62.4941 49.4071L62.4825 49.3838L61.3181 48.3391L60.1538 47.3176L59.723 47.0623L59.3854 46.7256L59.2573 46.6096L58.8964 46.2961L58.582 46.0408L58.3142 45.8086L58.0464 45.5764L57.8135 45.3791L57.5807 45.1818L57.3478 44.9728L57.0567 44.7407L56.8122 44.5201L56.7191 44.4505L56.5561 44.3112L56.3698 44.1371L56.2417 44.0326L56.0438 43.8701L55.8109 43.6728L55.6712 43.5799L55.5315 43.4638L55.4267 43.3709L55.3103 43.2781L55.1938 43.1736L55.0075 43.0227L54.7281 42.7209L53.8665 42.0012L53.3425 41.5369L52.807 41.0842L52.5741 40.8869L51.8406 40.26L49.314 38.101L46.9854 38.7858L50.0009 41.4208L50.6413 42.0592Z" fill="white"/>
<path id="Vector_63" d="M53.7267 61.8623L53.2727 62.0712L51.8056 62.7561L50.2571 63.4874L50.0009 63.0811L49.5818 63.2901L49.7913 63.708L46.3799 65.2982L46.9271 66.4706L50.3386 64.7991L50.5365 65.1822L51.1652 64.8688L50.8159 64.3348L51.1187 64.0214L51.8056 63.8937L52.3063 63.7892L52.3528 63.7776L55.0075 62.4775L53.7267 61.8623Z" fill="white"/>
<path id="Vector_64" d="M57.6854 61.1659L58.873 60.5971L60.8989 59.5988L63.344 58.4032L68.7813 55.7566L68.3505 55.7218L67.0581 55.6173L66.8369 55.7218L62.8666 57.579L59.7462 59.0416L58.873 59.4479L56.7423 60.4462L56.4512 60.5855L56.7423 60.7248L57.6854 61.1659Z" fill="white"/>
<path id="Vector_65" d="M35.3651 50.2892H28.647C28.647 50.9161 28.5771 51.5545 28.5771 52.1929C28.5773 53.6865 28.7019 55.1774 28.9497 56.6504H35.7727C35.4395 55.1878 35.2716 53.6927 35.272 52.1929C35.272 51.5545 35.3069 50.9161 35.3651 50.2892Z" fill="white"/>
<path id="Vector_66" d="M84.0573 52.193C84.0528 53.6854 83.936 55.1754 83.708 56.6504H92.6966C92.9071 55.0338 93.0121 53.4053 93.0109 51.7751C93.0109 51.276 93.0109 50.7884 93.0109 50.2893H83.9874C84.034 50.9161 84.0573 51.5546 84.0573 52.193Z" fill="white"/>
<path id="Vector_67" d="M17.6904 50.2892C17.6904 50.7884 17.6904 51.2759 17.6904 51.7751C17.6893 53.4052 17.7943 55.0338 18.0048 56.6504H27.5872C27.3592 55.1754 27.2424 53.6854 27.2379 52.1929C27.2379 51.5545 27.2379 50.9161 27.3077 50.2892H17.6904Z" fill="white"/>
<path id="Vector_68" d="M75.6855 56.6504H82.264C82.5235 55.1784 82.6598 53.6874 82.6715 52.1929C82.6715 51.5545 82.6715 50.9161 82.6016 50.2892H76.1396C76.1396 50.9161 76.2211 51.5545 76.2211 52.1929C76.2043 53.6937 76.0248 55.1882 75.6855 56.6504Z" fill="white"/>
<path id="Vector_69" d="M107.227 56.6504V50.2892H96.7481C96.7481 50.7884 96.7481 51.2759 96.7481 51.7751C96.7454 53.4044 96.6482 55.0322 96.457 56.6504H107.227Z" fill="white"/>
<path id="Vector_70" d="M13.8832 51.7751C13.8832 51.2759 13.8832 50.7884 13.8832 50.2892H2.96191V56.6504H14.1743C13.9832 55.0322 13.886 53.4044 13.8832 51.7751Z" fill="white"/>
<path id="Vector_71" d="M28.1813 44.7987C28.9869 41.814 30.2812 38.9823 32.0119 36.4178L23.2212 32.1113C21.5982 34.7344 20.3113 37.55 19.3906 40.4922L28.1813 44.7987Z" fill="white"/>
<path id="Vector_72" d="M33.2574 37.0214C31.5074 39.5778 30.2152 42.4174 29.4385 45.4139L35.621 48.4436C36.1911 45.3831 37.4621 42.4951 39.3352 40.0047L33.2574 37.0214Z" fill="white"/>
<path id="Vector_73" d="M82.6018 61.1891C81.6198 64.1182 80.1561 66.8642 78.2705 69.3146L86.2578 73.2265C88.0297 70.7068 89.4807 67.9774 90.5774 65.101L82.6018 61.1891Z" fill="white"/>
<path id="Vector_74" d="M93.5228 67.8636C92.4677 70.336 91.1731 72.6997 89.6572 74.9213L107.762 83.8013L111.838 75.5365L93.9652 66.7957C93.8255 67.1323 93.6741 67.4922 93.5228 67.8636Z" fill="white"/>
<path id="Vector_75" d="M17.1431 35.6981C17.8996 33.8875 18.7868 32.134 19.7978 30.4514L8.49219 24.9028L4.42871 33.1328L15.9671 38.7858C16.3048 37.7759 16.7123 36.7196 17.1431 35.6981Z" fill="white"/>
<path id="Vector_76" d="M77.0245 68.711C78.9263 66.2711 80.3916 63.5222 81.3558 60.5855L75.4643 57.6951C74.6283 60.7086 73.1063 63.4893 71.0166 65.8207L77.0245 68.711Z" fill="white"/>
<path id="Vector_77" d="M66.5566 78.4036L70.8181 85.3684L77.7108 81.1431L73.5076 74.3176C71.3995 76.0053 69.0584 77.3814 66.5566 78.4036Z" fill="white"/>
<path id="Vector_78" d="M65.8348 77.1732C68.3613 76.1592 70.7172 74.7656 72.8207 73.0408L69.3277 67.4458C67.2938 69.2506 64.9187 70.6319 62.3418 71.5086L65.8348 77.1732Z" fill="white"/>
<path id="Vector_79" d="M44.0039 26.3073L39.3467 18.6925L32.4189 22.9178L37.1694 30.637C39.2277 28.8748 41.5295 27.4167 44.0039 26.3073Z" fill="white"/>
<path id="Vector_80" d="M44.7262 27.4797C42.2427 28.5774 39.9388 30.0408 37.8916 31.8211L41.4544 37.6251C43.4065 35.7272 45.718 34.2357 48.2541 33.2373L44.7262 27.4797Z" fill="white"/>
<path id="Vector_81" d="M51.0596 92.8787V103.001H59.1167V92.9251C57.8709 93.0412 56.6017 93.0992 55.3326 93.0992C53.9054 93.1016 52.479 93.028 51.0596 92.8787Z" fill="white"/>
<path id="Vector_82" d="M59.1176 32.0532V25.4483C57.9594 25.2981 56.7925 25.2244 55.6246 25.2278C54.0912 25.2265 52.5605 25.3547 51.0488 25.6108V32.3202C52.5756 31.9638 54.138 31.7807 55.7061 31.7746C56.8489 31.7765 57.9897 31.8696 59.1176 32.0532Z" fill="white"/>
<path id="Vector_83" d="M51.0596 80.168V89.1061C52.4788 89.2592 53.9051 89.3367 55.3326 89.3382C56.5963 89.3406 57.8593 89.2786 59.1167 89.1525V80.3189C56.4369 80.6413 53.7253 80.5905 51.0596 80.168Z" fill="white"/>
<path id="Vector_84" d="M51.0596 72.0657V78.7867C52.572 79.0371 54.1022 79.1652 55.6354 79.1697C56.8035 79.1692 57.9704 79.0916 59.1283 78.9376V72.321C58.0168 72.5118 56.8912 72.6089 55.7634 72.6112C54.1797 72.6087 52.6016 72.4256 51.0596 72.0657Z" fill="white"/>
<path id="Vector_85" d="M59.1167 24.067V14.4092C57.8593 14.2831 56.5963 14.2211 55.3326 14.2235C53.9051 14.2249 52.4788 14.3024 51.0596 14.4556V24.2179C52.573 23.977 54.1028 23.8529 55.6354 23.8464C56.7992 23.8494 57.9618 23.9231 59.1167 24.067Z" fill="white"/>
<path id="Vector_86" d="M59.1167 10.6366V0.630615H51.0596V10.6715C52.4684 10.5322 53.9005 10.4625 55.3326 10.4625C56.7647 10.4625 57.8709 10.5206 59.1167 10.6366Z" fill="white"/>
<path id="Vector_87" d="M71.9135 30.7067C69.7617 29.0773 67.375 27.7818 64.8344 26.8645L61.4346 32.5872C64.0439 33.3334 66.4754 34.5967 68.5835 36.3017L71.9135 30.7067Z" fill="white"/>
<path id="Vector_88" d="M41.2098 66.5519L37.7168 72.4488C39.7411 74.2345 42.021 75.7094 44.4815 76.8249L47.9745 71.021C45.4442 69.9941 43.1445 68.4749 41.2098 66.5519Z" fill="white"/>
<path id="Vector_89" d="M32.291 81.5377C34.4176 83.1818 36.7171 84.5908 39.1489 85.7398L43.8062 78.0089C41.351 76.8822 39.0693 75.4125 37.0298 73.6443L32.291 81.5377Z" fill="white"/>
<path id="Vector_90" d="M79.3883 18.1585L84.3483 9.81244L77.4322 5.71484L72.4023 14.1538L73.1009 14.4672C75.3039 15.5065 77.4082 16.7419 79.3883 18.1585Z" fill="white"/>
<path id="Vector_91" d="M25.0137 93.7493L31.9414 97.8469L37.2623 88.9784C34.8422 87.8126 32.5448 86.4089 30.4045 84.788L25.0137 93.7493Z" fill="white"/>
<path id="Vector_92" d="M77.4549 21.3972C75.2801 19.8117 72.9375 18.4687 70.469 17.3925L65.5439 25.6689C68.0761 26.6099 70.46 27.9077 72.623 29.5227L77.4549 21.3972Z" fill="white"/>
<path id="Vector_93" d="M73.066 41.2582L78.0144 37.1026C77.4051 36.25 76.7482 35.4323 76.0467 34.6533C75.6624 34.2355 75.2666 33.8292 74.8823 33.4926L69.9922 37.5437C71.1583 38.6584 72.1899 39.905 73.066 41.2582Z" fill="white"/>
<path id="Vector_94" d="M75.9531 32.5524C76.349 32.9315 76.7371 33.3185 77.1174 33.7131C77.8277 34.5141 78.503 35.3499 79.1201 36.1972L85.3608 30.9737L82.2172 27.3288L75.9531 32.5524Z" fill="white"/>
<path id="Vector_95" d="M83.1369 44.7407L91.555 41.061C90.9569 39.2495 90.2532 37.4743 89.4476 35.7446L81.0645 39.4011C81.8942 41.1242 82.5872 42.9095 83.1369 44.7407Z" fill="white"/>
<path id="Vector_96" d="M30.2773 61.514C31.0231 63.284 31.8946 64.9986 32.8854 66.6447L38.9865 63.9865C37.868 62.4104 36.9819 60.6826 36.3551 58.8558L30.2773 61.514Z" fill="white"/>
<path id="Vector_97" d="M81.8567 45.2747C81.328 43.4397 80.6424 41.6532 79.8075 39.9351L73.7646 42.5701C74.6727 44.2619 75.3427 46.0704 75.7556 47.9445L81.8567 45.2747Z" fill="white"/>
<path id="Vector_98" d="M3.78809 73.0871L6.02358 78.4036L19.553 72.4835C18.7147 70.8932 17.9579 69.4423 17.0148 67.3064L3.78809 73.0871Z" fill="white"/>
<path id="Vector_99" d="M95.0011 39.552L111.651 32.3202L109.217 27.0851L92.917 34.2123C93.0502 34.4518 93.1669 34.7 93.2663 34.9552C93.7553 36.1393 94.3142 37.567 95.0011 39.552Z" fill="white"/>
<path id="Vector_100" d="M29.0313 62.0597L20.4619 65.8091C21.3934 67.9217 22.1618 69.3727 23.0234 70.963L31.6161 67.202C30.6453 65.5447 29.7819 63.827 29.0313 62.0597Z" fill="white"/>
</g>
</g>
</svg>
