<svg width="62" height="62" viewBox="0 0 62 62" fill="none" xmlns="http://www.w3.org/2000/svg">
<g id="Group 1000005534">
<g id="Group">
<g id="Group_2">
<path id="Vector" d="M23.7674 42.3608H19.6346V38.228C19.6346 37.6574 19.172 37.1948 18.6014 37.1948H14.4687C13.8981 37.1948 13.4355 37.6574 13.4355 38.228V42.3608H9.30272C8.73214 42.3608 8.26953 42.8234 8.26953 43.394V47.5267C8.26953 48.0973 8.73214 48.5599 9.30272 48.5599H13.4355V52.6927C13.4355 53.2633 13.8981 53.7259 14.4687 53.7259H18.6014C19.172 53.7259 19.6346 53.2633 19.6346 52.6927V48.5599H23.7674C24.338 48.5599 24.8006 48.0973 24.8006 47.5267V43.394C24.8006 42.8234 24.338 42.3608 23.7674 42.3608ZM22.7342 46.4935H18.6014C18.0309 46.4935 17.5683 46.9561 17.5683 47.5267V51.6595H15.5019V47.5267C15.5019 46.9561 15.0393 46.4935 14.4687 46.4935H10.3359V44.4272H14.4687C15.0393 44.4272 15.5019 43.9645 15.5019 43.394V39.2612H17.5683V43.394C17.5683 43.9645 18.0309 44.4272 18.6014 44.4272H22.7342V46.4935Z" fill="white"/>
</g>
</g>
<g id="Group_3">
<path id="Vector_2" d="M61.8925 43.5728C61.1001 36.4531 54.4133 29.7921 47.2873 29.0327C46.6822 28.9659 46.0737 28.9314 45.4648 28.9294H34.0997V24.7966H32.0333V22.7302C32.0333 20.4478 30.183 18.5975 27.9005 18.5975H22.7346C21.5933 18.5975 20.6682 17.6724 20.6682 16.5311C20.6682 15.3898 21.5933 14.4647 22.7346 14.4647H39.2656C41.5481 14.4647 43.3984 12.6144 43.3984 10.3319C43.3984 8.04947 41.5481 6.19915 39.2656 6.19915H34.0997C32.9584 6.19915 32.0333 5.27406 32.0333 4.13277V0H29.9669V4.13277C29.9669 6.41522 31.8172 8.26553 34.0997 8.26553H39.2656C40.4069 8.26553 41.332 9.19063 41.332 10.3319C41.332 11.4732 40.4069 12.3983 39.2656 12.3983H22.7346C20.4521 12.3983 18.6018 14.2486 18.6018 16.5311C18.6018 18.8135 20.4521 20.6638 22.7346 20.6638H27.9005C29.0418 20.6638 29.9669 21.5889 29.9669 22.7302V24.7966H27.9005V28.9294H16.5354C15.9258 28.9308 15.3166 28.9653 14.7108 29.0327C7.58178 29.7973 0.8991 36.4582 0.108709 43.578C-0.929262 52.6486 5.58243 60.8434 14.6532 61.8813C18.3469 62.304 22.0751 61.4692 25.2359 59.512C26.5968 58.6211 28.1522 58.0714 29.7706 57.9095C30.57 57.8463 31.373 57.8435 32.1728 57.9012C33.8167 58.0602 35.3972 58.6162 36.7788 59.5213C44.5451 64.321 54.732 61.9161 59.5317 54.1496C61.4847 50.9894 62.3164 47.2635 61.8925 43.5728ZM29.9669 26.863H32.0333V28.9294H29.9669V26.863ZM56.2462 55.1043C51.575 60.3291 43.8287 61.4504 37.8677 57.7647C36.2031 56.6808 34.2988 56.02 32.3205 55.8399C31.8845 55.8082 31.4444 55.7924 31.0001 55.7924C30.53 55.7924 30.0702 55.812 29.6074 55.8481C27.6592 56.0348 25.7849 56.689 24.1438 57.7554C17.3504 61.9586 8.43585 59.8589 4.23256 53.0654C2.52147 50.2998 1.79229 47.0382 2.16269 43.8073C2.84253 37.6888 8.80818 31.7459 14.9329 31.0877C15.465 31.0282 16 30.9976 16.5354 30.9958H45.4648C46.0001 30.9961 46.535 31.0247 47.0673 31.0815C53.191 31.7397 59.1556 37.6826 59.8375 43.8011C60.3247 47.9103 59.0158 52.0299 56.2462 55.1043Z" fill="white"/>
</g>
<g id="Group_4">
<g id="Group_5">
<path id="Vector_3" d="M45.4638 35.1285C43.1814 35.1285 41.3311 36.9788 41.3311 39.2613C41.3311 41.5437 43.1814 43.394 45.4638 43.394C47.7463 43.394 49.5966 41.5437 49.5966 39.2613C49.5966 36.9788 47.7463 35.1285 45.4638 35.1285ZM45.4638 41.3277C44.3225 41.3277 43.3974 40.4026 43.3974 39.2613C43.3974 38.12 44.3225 37.1949 45.4638 37.1949C46.6051 37.1949 47.5302 38.12 47.5302 39.2613C47.5302 40.4026 46.605 41.3277 45.4638 41.3277Z" fill="white"/>
</g>
</g>
<g id="Group_6">
<g id="Group_7">
<path id="Vector_4" d="M45.4638 47.5268C43.1814 47.5268 41.3311 49.3771 41.3311 51.6596C41.3311 53.942 43.1814 55.7924 45.4638 55.7924C47.7463 55.7924 49.5966 53.942 49.5966 51.6596C49.5966 49.3771 47.7463 47.5268 45.4638 47.5268ZM45.4638 53.726C44.3225 53.726 43.3974 52.8009 43.3974 51.6596C43.3974 50.5183 44.3225 49.5932 45.4638 49.5932C46.6051 49.5932 47.5302 50.5183 47.5302 51.6596C47.5302 52.8009 46.605 53.726 45.4638 53.726Z" fill="white"/>
</g>
</g>
<g id="Group_8">
<g id="Group_9">
<path id="Vector_5" d="M38.2334 41.3276C35.9509 41.3276 34.1006 43.178 34.1006 45.4604C34.1006 47.7429 35.9509 49.5932 38.2334 49.5932C40.5158 49.5932 42.3661 47.7429 42.3661 45.4604C42.3661 43.178 40.5158 41.3276 38.2334 41.3276ZM38.2334 47.5268C37.0921 47.5268 36.167 46.6017 36.167 45.4604C36.167 44.3191 37.0921 43.394 38.2334 43.394C39.3746 43.394 40.2997 44.3191 40.2997 45.4604C40.2997 46.6017 39.3745 47.5268 38.2334 47.5268Z" fill="white"/>
</g>
</g>
<g id="Group_10">
<g id="Group_11">
<path id="Vector_6" d="M52.6962 41.3276C50.4138 41.3276 48.5635 43.178 48.5635 45.4604C48.5635 47.7429 50.4138 49.5932 52.6962 49.5932C54.9787 49.5932 56.829 47.7429 56.829 45.4604C56.829 43.178 54.9787 41.3276 52.6962 41.3276ZM52.6962 47.5268C51.555 47.5268 50.6299 46.6017 50.6299 45.4604C50.6299 44.3191 51.555 43.394 52.6962 43.394C53.8375 43.394 54.7626 44.3191 54.7626 45.4604C54.7626 46.6017 53.8374 47.5268 52.6962 47.5268Z" fill="white"/>
</g>
</g>
</g>
</svg>
