<svg width="58" height="58" viewBox="0 0 58 58" fill="none" xmlns="http://www.w3.org/2000/svg">
<g id="animation (1) 1">
<g id="Outline">
<path id="Vector" d="M55.2812 30.8125C55.0409 30.8125 54.8104 30.908 54.6404 31.0779C54.4705 31.2479 54.375 31.4784 54.375 31.7188V40.7812C54.375 41.5023 54.0886 42.1938 53.5787 42.7037C53.0688 43.2136 52.3773 43.5 51.6562 43.5H7.25C6.28859 43.5 5.36656 43.1181 4.68674 42.4383C4.00692 41.7584 3.625 40.8364 3.625 39.875V11.7812C3.625 11.0602 3.91144 10.3687 4.4213 9.8588C4.93117 9.34894 5.62269 9.0625 6.34375 9.0625H21.75C21.9904 9.0625 22.2209 8.96702 22.3908 8.79707C22.5608 8.62711 22.6562 8.3966 22.6562 8.15625C22.6562 7.9159 22.5608 7.68539 22.3908 7.51543C22.2209 7.34548 21.9904 7.25 21.75 7.25H6.34375C5.14243 7.25144 3.99072 7.7293 3.14126 8.57876C2.2918 9.42822 1.81394 10.5799 1.8125 11.7812V39.875C1.81394 41.3167 2.38728 42.6989 3.4067 43.7183C4.42611 44.7377 5.80833 45.3111 7.25 45.3125H18.6189C17.673 47.3836 15.9645 49.01 13.8493 49.8528L11.6072 50.75H9.96875C9.24769 50.75 8.55617 51.0364 8.0463 51.5463C7.53644 52.0562 7.25 52.7477 7.25 53.4688V55.2812C7.25 55.5216 7.34548 55.7521 7.51543 55.9221C7.68539 56.092 7.9159 56.1875 8.15625 56.1875H22.6562C22.8966 56.1875 23.1271 56.092 23.2971 55.9221C23.467 55.7521 23.5625 55.5216 23.5625 55.2812C23.5625 55.0409 23.467 54.8104 23.2971 54.6404C23.1271 54.4705 22.8966 54.375 22.6562 54.375H9.0625V53.4688C9.0625 53.2284 9.15798 52.9979 9.32793 52.8279C9.49789 52.658 9.7284 52.5625 9.96875 52.5625H48.0312C48.2716 52.5625 48.5021 52.658 48.6721 52.8279C48.842 52.9979 48.9375 53.2284 48.9375 53.4688V54.375H26.2812C26.0409 54.375 25.8104 54.4705 25.6404 54.6404C25.4705 54.8104 25.375 55.0409 25.375 55.2812C25.375 55.5216 25.4705 55.7521 25.6404 55.9221C25.8104 56.092 26.0409 56.1875 26.2812 56.1875H49.8438C50.0841 56.1875 50.3146 56.092 50.4846 55.9221C50.6545 55.7521 50.75 55.5216 50.75 55.2812V53.4688C50.75 52.7477 50.4636 52.0562 49.9537 51.5463C49.4438 51.0364 48.7523 50.75 48.0312 50.75H46.3927L44.1507 49.8528C42.0355 49.01 40.327 47.3836 39.3811 45.3125H51.6562C52.8576 45.3111 54.0093 44.8332 54.8587 43.9837C55.7082 43.1343 56.1861 41.9826 56.1875 40.7812V31.7188C56.1875 31.4784 56.092 31.2479 55.9221 31.0779C55.7521 30.908 55.5216 30.8125 55.2812 30.8125ZM41.8977 50.75H16.1023C18.1725 49.5001 19.7554 47.5823 20.59 45.3125H37.41C38.2446 47.5823 39.8275 49.5001 41.8977 50.75Z" fill="white"/>
<path id="Vector_2" d="M51.6562 7.25H34.4375C34.1971 7.25 33.9666 7.34548 33.7967 7.51543C33.6267 7.68539 33.5312 7.9159 33.5312 8.15625C33.5312 8.3966 33.6267 8.62711 33.7967 8.79707C33.9666 8.96702 34.1971 9.0625 34.4375 9.0625H51.6562C52.3773 9.0625 53.0688 9.34894 53.5787 9.8588C54.0886 10.3687 54.375 11.0602 54.375 11.7812V28.0938C54.375 28.3341 54.4705 28.5646 54.6404 28.7346C54.8104 28.9045 55.0409 29 55.2812 29C55.5216 29 55.7521 28.9045 55.9221 28.7346C56.092 28.5646 56.1875 28.3341 56.1875 28.0938V11.7812C56.1861 10.5799 55.7082 9.42822 54.8587 8.57876C54.0093 7.7293 52.8576 7.25144 51.6562 7.25Z" fill="white"/>
<path id="Vector_3" d="M18.1821 12.3694L16.0307 18.106C15.9146 18.4162 15.8623 18.7466 15.8768 19.0775C15.8913 19.4084 15.9723 19.733 16.115 20.032C16.2577 20.3309 16.4591 20.598 16.7073 20.8173C16.9555 21.0367 17.2453 21.2038 17.5595 21.3087C18.0913 21.4831 18.6666 21.4724 19.1915 21.2782C19.7165 21.0841 20.1602 20.7179 20.4504 20.2393L22.2629 17.2188H23.5625C23.5625 17.4591 23.658 17.6896 23.8279 17.8596C23.9979 18.0295 24.2284 18.125 24.4688 18.125C24.7091 18.125 24.9396 18.0295 25.1096 17.8596C25.2795 17.6896 25.375 17.4591 25.375 17.2188V16.3125C25.375 16.0721 25.2795 15.8416 25.1096 15.6717C24.9396 15.5017 24.7091 15.4062 24.4688 15.4062H21.75C21.5936 15.4063 21.4399 15.4468 21.3038 15.5238C21.1677 15.6008 21.0539 15.7117 20.9733 15.8458L18.8971 19.3031C18.8206 19.4298 18.7033 19.5266 18.5645 19.5778C18.4257 19.6291 18.2736 19.6316 18.1332 19.585C18.05 19.5574 17.9733 19.5133 17.9076 19.4554C17.8419 19.3974 17.7885 19.3269 17.7507 19.2479C17.7129 19.1688 17.6914 19.083 17.6875 18.9955C17.6836 18.908 17.6974 18.8206 17.7281 18.7385L19.6955 13.4922L24.544 12.6875H31.4007L35.6836 16.114C35.7803 16.1914 35.892 16.2482 36.0115 16.2808C36.1311 16.3134 36.256 16.3211 36.3787 16.3034L40.6897 15.6872C40.8137 15.6693 40.9401 15.6784 41.0602 15.7139C41.1804 15.7494 41.2914 15.8105 41.3857 15.8929C41.4812 15.9743 41.5576 16.0757 41.6098 16.1898C41.6619 16.3039 41.6884 16.4281 41.6875 16.5536C41.6872 16.7665 41.6093 16.9721 41.4683 17.1317C41.3273 17.2914 41.133 17.3942 40.9217 17.4208L35.5422 18.0933L32.1891 16.0796C32.0515 15.9961 31.8942 15.9507 31.7333 15.9481C31.5723 15.9455 31.4136 15.9858 31.2734 16.0649C31.1333 16.144 31.0167 16.259 30.9357 16.3981C30.8547 16.5372 30.8121 16.6953 30.8125 16.8563V19.9375H24.4688C24.2544 19.9376 24.0469 20.0136 23.8833 20.1522C23.7197 20.2907 23.6106 20.4828 23.5752 20.6942L22.7723 25.5109L18.7848 26.2812H15.4062C15.1659 26.2812 14.9354 26.3767 14.7654 26.5467C14.5955 26.7166 14.5 26.9471 14.5 27.1875V33.5312C14.5 33.7716 14.5955 34.0021 14.7654 34.1721C14.9354 34.342 15.1659 34.4375 15.4062 34.4375C16.313 34.4357 17.1984 34.162 17.9479 33.6516C18.6974 33.1412 19.2765 32.4177 19.6103 31.5747L27.2781 30.808C27.4304 30.7927 27.5763 30.7392 27.7023 30.6524C27.8283 30.5655 27.9302 30.4482 27.9986 30.3113L30.3113 25.6849L32.7156 26.8857L33.5457 31.8701C33.5815 32.0809 33.6905 32.2723 33.8537 32.4104C34.0169 32.5486 34.2237 32.6246 34.4375 32.625H37.1562C37.7184 32.6257 38.2665 32.8002 38.7255 33.1247C39.1845 33.4492 39.5319 33.9078 39.72 34.4375H34.4375C34.1971 34.4375 33.9666 34.533 33.7967 34.7029C33.6267 34.8729 33.5312 35.1034 33.5312 35.3438C33.5312 35.5841 33.6267 35.8146 33.7967 35.9846C33.9666 36.1545 34.1971 36.25 34.4375 36.25H40.7812C41.0216 36.25 41.2521 36.1545 41.4221 35.9846C41.592 35.8146 41.6875 35.5841 41.6875 35.3438C41.6854 34.4344 41.4098 33.5468 40.8965 32.7962C40.3832 32.0456 39.6559 31.4668 38.8093 31.1351L38.0571 24.3691C38.0425 24.2376 37.9994 24.1109 37.9306 23.9978C37.8619 23.8848 37.7693 23.7882 37.6592 23.7147L32.625 20.3589V18.4558L34.877 19.807C35.0507 19.912 35.2548 19.9551 35.4561 19.9293L41.1465 19.2188C41.4998 19.1764 41.8413 19.0641 42.1509 18.8886C42.4605 18.7131 42.7322 18.4778 42.9501 18.1964C43.1681 17.915 43.3279 17.5931 43.4205 17.2495C43.513 16.9058 43.5363 16.5471 43.4891 16.1944C43.4418 15.8416 43.325 15.5017 43.1453 15.1945C42.9656 14.8873 42.7267 14.6188 42.4424 14.4047C42.1581 14.1905 41.8341 14.035 41.4892 13.9472C41.1443 13.8593 40.7853 13.8408 40.4333 13.8928L36.5101 14.4529L32.2852 11.0726C32.1243 10.9443 31.9245 10.8746 31.7188 10.875H31.2149C31.5411 10.3264 31.715 9.70073 31.7188 9.0625V2.71875C31.7188 2.4784 31.6233 2.24789 31.4533 2.07793C31.2834 1.90798 31.0529 1.8125 30.8125 1.8125H29C27.7987 1.81394 26.647 2.2918 25.7975 3.14126C24.948 3.99072 24.4702 5.14243 24.4688 6.34375V9.0625C24.4725 9.70073 24.6464 10.3264 24.9726 10.875H24.4688C24.4189 10.8747 24.3692 10.8789 24.3201 10.8877L18.8826 11.7939C18.7256 11.8199 18.5782 11.8868 18.4552 11.9878C18.3323 12.0888 18.238 12.2204 18.1821 12.3694ZM18.125 29.9062C18.1243 30.4684 17.9498 31.0165 17.6253 31.4755C17.3008 31.9345 16.8422 32.2819 16.3125 32.47V28.0938H18.125V29.9062ZM36.9496 30.8125H35.2051L34.4248 26.1317C34.4013 25.9907 34.3448 25.8573 34.2599 25.7423C34.175 25.6274 34.0642 25.5341 33.9363 25.4702L30.3113 23.6577C30.2048 23.6044 30.0889 23.5727 29.9701 23.5643C29.8513 23.5558 29.7321 23.5709 29.6191 23.6086C29.5062 23.6463 29.4018 23.7059 29.3119 23.784C29.222 23.8621 29.1483 23.9571 29.0952 24.0637L26.6012 29.0544L19.9375 29.725V27.9125L23.7338 27.1784C23.9158 27.1439 24.0829 27.0545 24.2125 26.9221C24.3422 26.7897 24.4281 26.6208 24.4588 26.438L25.2363 21.75H31.4469L36.3053 24.9889L36.9496 30.8125ZM29 3.625H29.9062V5.4375H26.4362C26.6243 4.90779 26.9717 4.44924 27.4307 4.12475C27.8897 3.80025 28.4379 3.62569 29 3.625ZM26.2812 9.0625V7.25H29.9062V9.0625C29.9062 9.5432 29.7153 10.0042 29.3754 10.3441C29.0355 10.684 28.5745 10.875 28.0938 10.875C27.613 10.875 27.152 10.684 26.8121 10.3441C26.4722 10.0042 26.2812 9.5432 26.2812 9.0625Z" fill="white"/>
<path id="Vector_4" d="M19.9375 36.25C19.3772 36.2523 18.8313 36.4277 18.3745 36.7521C17.9177 37.0766 17.5723 37.5342 17.3855 38.0625H11.7812C11.5409 38.0625 11.3104 38.158 11.1404 38.3279C10.9705 38.4979 10.875 38.7284 10.875 38.9688C10.875 39.2091 10.9705 39.4396 11.1404 39.6096C11.3104 39.7795 11.5409 39.875 11.7812 39.875H17.3855C17.5701 40.4047 17.9149 40.8639 18.3722 41.1889C18.8295 41.5138 19.3765 41.6884 19.9375 41.6884C20.4985 41.6884 21.0455 41.5138 21.5028 41.1889C21.9601 40.8639 22.3049 40.4047 22.4895 39.875H48.0312C48.2716 39.875 48.5021 39.7795 48.6721 39.6096C48.842 39.4396 48.9375 39.2091 48.9375 38.9688C48.9375 38.7284 48.842 38.4979 48.6721 38.3279C48.5021 38.158 48.2716 38.0625 48.0312 38.0625H22.4895C22.3027 37.5342 21.9573 37.0766 21.5005 36.7521C21.0437 36.4277 20.4978 36.2523 19.9375 36.25ZM19.9375 39.875C19.7583 39.875 19.583 39.8219 19.434 39.7223C19.285 39.6227 19.1688 39.4812 19.1002 39.3156C19.0316 39.15 19.0137 38.9677 19.0487 38.7919C19.0836 38.6162 19.1699 38.4547 19.2967 38.3279C19.4234 38.2012 19.5849 38.1149 19.7607 38.0799C19.9365 38.0449 20.1187 38.0629 20.2843 38.1315C20.4499 38.2001 20.5914 38.3162 20.691 38.4653C20.7906 38.6143 20.8438 38.7895 20.8438 38.9688C20.8438 39.2091 20.7483 39.4396 20.5783 39.6096C20.4084 39.7795 20.1779 39.875 19.9375 39.875Z" fill="white"/>
<path id="Vector_5" d="M51.6562 35.3438C51.8966 35.3438 52.1271 35.2483 52.2971 35.0783C52.467 34.9084 52.5625 34.6779 52.5625 34.4375V19.9375C52.5625 19.6971 52.467 19.4666 52.2971 19.2967C52.1271 19.1267 51.8966 19.0312 51.6562 19.0312H48.0312C47.7909 19.0312 47.5604 19.1267 47.3904 19.2967C47.2205 19.4666 47.125 19.6971 47.125 19.9375V34.4375C47.125 34.6779 47.2205 34.9084 47.3904 35.0783C47.5604 35.2483 47.7909 35.3438 48.0312 35.3438H51.6562ZM48.9375 28.0938H50.75V29.9062H48.9375V28.0938ZM50.75 26.2812H48.9375V24.4688H50.75V26.2812ZM50.75 33.5312H48.9375V31.7188H50.75V33.5312ZM48.9375 20.8438H50.75V22.6562H48.9375V20.8438Z" fill="white"/>
<path id="Vector_6" d="M6.34375 19.0312H9.96875C10.2091 19.0312 10.4396 18.9358 10.6096 18.7658C10.7795 18.5959 10.875 18.3654 10.875 18.125C10.875 17.8846 10.7795 17.6541 10.6096 17.4842C10.4396 17.3142 10.2091 17.2188 9.96875 17.2188H6.34375C6.1034 17.2188 5.87289 17.3142 5.70293 17.4842C5.53298 17.6541 5.4375 17.8846 5.4375 18.125C5.4375 18.3654 5.53298 18.5959 5.70293 18.7658C5.87289 18.9358 6.1034 19.0312 6.34375 19.0312Z" fill="white"/>
<path id="Vector_7" d="M6.34375 22.6562H9.96875C10.2091 22.6562 10.4396 22.5608 10.6096 22.3908C10.7795 22.2209 10.875 21.9904 10.875 21.75C10.875 21.5096 10.7795 21.2791 10.6096 21.1092C10.4396 20.9392 10.2091 20.8438 9.96875 20.8438H6.34375C6.1034 20.8438 5.87289 20.9392 5.70293 21.1092C5.53298 21.2791 5.4375 21.5096 5.4375 21.75C5.4375 21.9904 5.53298 22.2209 5.70293 22.3908C5.87289 22.5608 6.1034 22.6562 6.34375 22.6562Z" fill="white"/>
<path id="Vector_8" d="M10.875 25.375C10.875 25.1346 10.7795 24.9041 10.6096 24.7342C10.4396 24.5642 10.2091 24.4688 9.96875 24.4688H6.34375C6.1034 24.4688 5.87289 24.5642 5.70293 24.7342C5.53298 24.9041 5.4375 25.1346 5.4375 25.375C5.4375 25.6154 5.53298 25.8459 5.70293 26.0158C5.87289 26.1858 6.1034 26.2812 6.34375 26.2812H9.96875C10.2091 26.2812 10.4396 26.1858 10.6096 26.0158C10.7795 25.8459 10.875 25.6154 10.875 25.375Z" fill="white"/>
<path id="Vector_9" d="M9.96875 29C9.96875 28.7596 9.87327 28.5291 9.70332 28.3592C9.53336 28.1892 9.30285 28.0938 9.0625 28.0938H6.34375C6.1034 28.0938 5.87289 28.1892 5.70293 28.3592C5.53298 28.5291 5.4375 28.7596 5.4375 29C5.4375 29.2404 5.53298 29.4709 5.70293 29.6408C5.87289 29.8108 6.1034 29.9062 6.34375 29.9062H9.0625C9.30285 29.9062 9.53336 29.8108 9.70332 29.6408C9.87327 29.4709 9.96875 29.2404 9.96875 29Z" fill="white"/>
<path id="Vector_10" d="M6.34375 31.7188C6.1034 31.7188 5.87289 31.8142 5.70293 31.9842C5.53298 32.1541 5.4375 32.3846 5.4375 32.625C5.4375 32.8654 5.53298 33.0959 5.70293 33.2658C5.87289 33.4358 6.1034 33.5312 6.34375 33.5312H8.15625C8.3966 33.5312 8.62711 33.4358 8.79707 33.2658C8.96702 33.0959 9.0625 32.8654 9.0625 32.625C9.0625 32.3846 8.96702 32.1541 8.79707 31.9842C8.62711 31.8142 8.3966 31.7188 8.15625 31.7188H6.34375Z" fill="white"/>
</g>
</g>
</svg>
