<svg width="51" height="57" viewBox="0 0 51 57" fill="none" xmlns="http://www.w3.org/2000/svg">
<g id="Group">
<path id="Vector" d="M46.508 7.32502H45.8397C47.1136 5.25096 46.6432 2.46644 44.5986 0.949482C42.3956 -0.68486 39.265 -0.158782 37.7276 2.13871L34.2572 7.32513H4.44416C1.99364 7.32513 0 9.31877 0 11.7693V40.1826C0 42.6331 1.99364 44.6268 4.44416 44.6268H21.7066L20.4023 50.105H17.5872C15.7525 50.105 14.2599 51.5976 14.2599 53.4323V54.127H10.7896C10.182 54.127 9.68944 54.6196 9.68944 55.2271C9.68944 55.8346 10.182 56.3272 10.7896 56.3272H40.1627C40.7703 56.3272 41.2628 55.8346 41.2628 55.2271C41.2628 54.6196 40.7703 54.127 40.1627 54.127H36.6924V53.4323C36.6924 51.5976 35.1997 50.105 33.3651 50.105H30.55L29.2457 44.6268H46.5081C48.9586 44.6268 50.9523 42.6331 50.9523 40.1826V33.9306V11.7692C50.9523 9.31866 48.9586 7.32502 46.508 7.32502ZM30.7452 26.6651C29.0252 27.8691 25.8028 26.2325 22.7256 27.8745C21.9747 23.9741 22.4481 20.3057 26.3563 19.496C26.8614 19.3907 27.4051 19.3431 27.8681 19.3523C29.1909 20.3337 30.5288 21.3264 31.8479 22.3052C32.4253 23.9848 32.2086 25.6407 30.7452 26.6651ZM31.8539 14.8731L34.9681 17.1835L32.5732 20.1034C31.5873 19.3719 30.7397 18.7431 29.7538 18.0115C29.9585 17.7056 31.6668 15.1526 31.8539 14.8731ZM39.5563 3.36238C40.3896 2.11693 42.0889 1.82716 43.2876 2.71661C44.4868 3.60617 44.7015 5.31642 43.7513 6.47496C42.0654 8.53032 38.0572 13.4172 36.3649 15.4804L33.0788 13.0424L39.5563 3.36238ZM34.492 53.4323V54.127H16.4601V53.4323C16.4601 52.8109 16.9658 52.3053 17.5872 52.3053H33.365C33.9864 52.3053 34.492 52.8109 34.492 53.4323ZM28.2881 50.105H22.6641L23.9684 44.6268H26.9838L28.2881 50.105ZM48.752 40.1826C48.752 41.4199 47.7454 42.4265 46.5081 42.4265C44.7618 42.4265 6.40777 42.4265 4.44427 42.4265C3.20697 42.4265 2.20035 41.4199 2.20035 40.1826V35.0307H5.34407C5.95166 35.0307 6.44419 34.5381 6.44419 33.9306C6.44419 33.3231 5.95166 32.8305 5.34407 32.8305H2.20013V11.7692C2.20013 10.5319 3.20675 9.52527 4.44405 9.52527H32.7849C31.7309 11.1003 28.6562 15.6953 27.6823 17.1507C25.5264 17.1701 23.374 17.9212 21.9649 19.5661C20.0475 21.8043 19.7107 25.3212 20.9637 30.0189C21.1779 30.8222 22.1802 31.11 22.7867 30.5307C25.6313 27.8126 29.1741 30.7774 32.3468 28.2095C34.2834 26.6418 34.7418 24.1496 34.0115 21.8191C34.9986 20.6156 43.1055 10.7317 44.095 9.52527H46.5079C47.7452 9.52527 48.7518 10.5319 48.7518 11.7692V32.8304H14.1448C13.5372 32.8304 13.0447 33.323 13.0447 33.9305C13.0447 34.538 13.5372 35.0306 14.1448 35.0306H48.752V40.1826Z" fill="white"/>
<path id="Vector_2" d="M9.53295 32.8517C9.00334 32.96 8.64844 33.4178 8.64844 33.9311C8.64844 34.6192 9.27761 35.1462 9.96311 35.0092C10.5723 34.8856 10.9433 34.2985 10.8267 33.7155C10.7043 33.1137 10.1205 32.7335 9.53295 32.8517Z" fill="white"/>
</g>
</svg>
