<svg width="52" height="52" viewBox="0 0 52 52" fill="none" xmlns="http://www.w3.org/2000/svg">
<g id="writer 1">
<g id="Blogger-Writer-Pencil-Browser-Blogging">
<path id="Vector" d="M6.5 4.875H8.125V6.5H6.5V4.875Z" fill="white"/>
<path id="Vector_2" d="M9.75 4.875H11.375V6.5H9.75V4.875Z" fill="white"/>
<path id="Vector_3" d="M13 4.875H14.625V6.5H13V4.875Z" fill="white"/>
<path id="Vector_4" d="M7.3125 22.75H20.3125C20.528 22.75 20.7347 22.6644 20.887 22.512C21.0394 22.3597 21.125 22.153 21.125 21.9375V13.8125C21.125 13.597 21.0394 13.3903 20.887 13.238C20.7347 13.0856 20.528 13 20.3125 13H7.3125C7.09701 13 6.89035 13.0856 6.73798 13.238C6.5856 13.3903 6.5 13.597 6.5 13.8125V21.9375C6.5 22.153 6.5856 22.3597 6.73798 22.512C6.89035 22.6644 7.09701 22.75 7.3125 22.75ZM8.125 14.625H19.5V21.125H8.125V14.625Z" fill="white"/>
<path id="Vector_5" d="M27.625 13.8125H40.625V15.4375H27.625V13.8125Z" fill="white"/>
<path id="Vector_6" d="M24.375 17.0625H39V18.6875H24.375V17.0625Z" fill="white"/>
<path id="Vector_7" d="M24.375 20.3125H35.75V21.9375H24.375V20.3125Z" fill="white"/>
<path id="Vector_8" d="M9.75 26H30.875V27.625H9.75V26Z" fill="white"/>
<path id="Vector_9" d="M6.5 29.25H27.625V30.875H6.5V29.25Z" fill="white"/>
<path id="Vector_10" d="M6.5 32.5H24.375V34.125H6.5V32.5Z" fill="white"/>
<path id="Vector_11" d="M6.5 35.75H24.375V37.375H6.5V35.75Z" fill="white"/>
<path id="Vector_12" d="M6.5 39H24.375V40.625H6.5V39Z" fill="white"/>
<path id="Vector_13" d="M6.5 26H8.125V27.625H6.5V26Z" fill="white"/>
<path id="Vector_14" d="M46.3125 6.5H45.5V5.6875C45.5 4.61006 45.072 3.57675 44.3101 2.81488C43.5483 2.05301 42.5149 1.625 41.4375 1.625H5.6875C4.61006 1.625 3.57675 2.05301 2.81488 2.81488C2.05301 3.57675 1.625 4.61006 1.625 5.6875V41.4375C1.625 42.5149 2.05301 43.5483 2.81488 44.3101C3.57675 45.072 4.61006 45.5 5.6875 45.5H6.5V46.3125C6.5 47.3899 6.92801 48.4233 7.68988 49.1851C8.45175 49.947 9.48506 50.375 10.5625 50.375H46.3125C47.3899 50.375 48.4233 49.947 49.1851 49.1851C49.947 48.4233 50.375 47.3899 50.375 46.3125V10.5625C50.375 9.48506 49.947 8.45175 49.1851 7.68988C48.4233 6.92801 47.3899 6.5 46.3125 6.5ZM44.8581 19.1263L48.3112 22.5794L46.0119 24.8787L42.5588 21.4256L44.8581 19.1263ZM30.1681 35.4656L30.81 33.8L33.6375 36.6275L31.9719 37.2694L30.1681 35.4656ZM30.3144 37.9031L29.0388 38.3988L29.5344 37.1231L30.3144 37.9031ZM32.7925 33.4913L31.6469 32.3456L41.4131 22.5794L42.5588 23.725L32.7925 33.4913ZM43.7125 24.8787L44.8581 26.0244L35.0919 35.7906L33.9463 34.645L43.7125 24.8787ZM3.25 5.6875C3.25193 5.04163 3.50936 4.42276 3.96606 3.96606C4.42276 3.50936 5.04163 3.25193 5.6875 3.25H41.4375C42.0834 3.25193 42.7022 3.50936 43.1589 3.96606C43.6156 4.42276 43.8731 5.04163 43.875 5.6875V8.125H3.25V5.6875ZM5.6875 43.875C5.04163 43.8731 4.42276 43.6156 3.96606 43.1589C3.50936 42.7022 3.25193 42.0834 3.25 41.4375V9.75H43.875V17.8181L29.9244 31.7687C29.843 31.8495 29.7793 31.9464 29.7375 32.0531L26.8694 39.52C26.8104 39.6664 26.7959 39.827 26.8277 39.9816C26.8595 40.1363 26.9361 40.2781 27.0481 40.3894C27.2018 40.5409 27.4092 40.6256 27.625 40.625C27.7253 40.6258 27.8248 40.6065 27.9175 40.5681L35.3844 37.7C35.4911 37.6582 35.588 37.5945 35.6688 37.5131L43.875 29.3069V41.4375C43.8731 42.0834 43.6156 42.7022 43.1589 43.1589C42.7022 43.6156 42.0834 43.8731 41.4375 43.875H5.6875ZM48.75 46.3125C48.7481 46.9584 48.4906 47.5772 48.0339 48.0339C47.5772 48.4906 46.9584 48.7481 46.3125 48.75H10.5625C9.91663 48.7481 9.29776 48.4906 8.84106 48.0339C8.38436 47.5772 8.12693 46.9584 8.125 46.3125V45.5H41.4375C42.5149 45.5 43.5483 45.072 44.3101 44.3101C45.072 43.5483 45.5 42.5149 45.5 41.4375V27.6819L48.75 24.4319V46.3125ZM48.75 20.7188L45.5 17.4688V14.625H48.75V20.7188ZM48.75 13H45.5V8.125H46.3125C46.9584 8.12693 47.5772 8.38436 48.0339 8.84106C48.4906 9.29776 48.7481 9.91663 48.75 10.5625V13Z" fill="white"/>
<path id="Vector_15" d="M24.375 13.8125H26V15.4375H24.375V13.8125Z" fill="white"/>
</g>
</g>
</svg>
