<svg width="42" height="59" viewBox="0 0 42 59" fill="none" xmlns="http://www.w3.org/2000/svg">
<g id="Group">
<path id="Vector" d="M15.0897 28.457C15.3156 28.457 15.5322 28.3673 15.692 28.2075L16.9152 26.9845C17.9799 25.9197 19.3957 25.3333 20.9016 25.3333C22.4074 25.3333 23.8232 25.9197 24.888 26.9845L26.111 28.2076C26.2708 28.3674 26.4874 28.4571 26.7134 28.4571H30.9414C32.8258 28.4571 34.3588 26.924 34.3588 25.0397V20.4837C34.3588 18.5994 32.8258 17.0664 30.9414 17.0664H16.4093C15.9388 17.0664 15.5576 17.4477 15.5576 17.9181C15.5576 18.3885 15.9388 18.7698 16.4093 18.7698H30.9412C31.8862 18.7698 32.6551 19.5388 32.6551 20.4837V25.0397C32.6551 25.9848 31.8862 26.7536 30.9412 26.7536H27.0659L26.0923 25.7801C24.7058 24.3936 22.8623 23.63 20.9014 23.63C18.9405 23.63 17.0971 24.3936 15.7106 25.7802L14.737 26.7536H10.8617C9.91672 26.7536 9.14778 25.9847 9.14778 25.0397V20.4837C9.14778 19.5386 9.91672 18.7698 10.8617 18.7698H12.7796C13.2501 18.7698 13.6314 18.3885 13.6314 17.9181C13.6314 17.4477 13.2501 17.0664 12.7796 17.0664H10.8617C8.97732 17.0664 7.44434 18.5995 7.44434 20.4837V25.0397C7.44434 26.9241 8.97732 28.4571 10.8617 28.4571H15.0897V28.457Z" fill="white"/>
<path id="Vector_2" d="M32.3521 34.4118L32.7192 31.6276C34.5088 31.1442 36.0085 29.95 36.8965 28.3673H39.5857C40.4737 28.3673 41.1963 27.6448 41.1963 26.7567V23.8454C41.1963 23.5953 41.0864 23.3579 40.8958 23.196C40.7642 23.0843 40.6887 22.922 40.6887 22.751C40.6887 22.58 40.7642 22.4176 40.8958 22.3059C41.0865 22.1441 41.1963 21.9067 41.1963 21.6566V18.2444C41.1963 17.3563 40.4738 16.6338 39.5857 16.6338H36.5725C36.3289 16.2786 36.0529 15.9473 35.7482 15.6447V14.2592C35.7482 8.07819 31.4207 2.80512 25.4062 1.58307C24.6873 0.622666 23.5408 0 22.2516 0H19.5521C18.263 0 17.1164 0.622666 16.3976 1.58296C10.383 2.80501 6.05549 8.07808 6.05549 14.2591V15.6446C5.7508 15.9472 5.47496 16.2785 5.23125 16.6337H2.21809C1.33002 16.6337 0.607422 17.3562 0.607422 18.2442V21.6565C0.607422 21.9065 0.71735 22.144 0.907909 22.3058C1.03953 22.4176 1.11505 22.5799 1.11505 22.7509C1.11505 22.9219 1.03953 23.0843 0.907909 23.1959C0.717237 23.3578 0.607422 23.5952 0.607422 23.8453V26.7566C0.607422 27.6447 1.32991 28.3671 2.21809 28.3671H4.90726C5.79521 29.9499 7.29503 31.1442 9.08456 31.6275L9.4516 34.4116C9.95673 38.243 12.291 41.5085 15.7274 43.227V46.1048L7.44289 47.8785C5.51471 48.2914 3.76992 49.3632 2.53016 50.8967C1.29028 52.43 0.607422 54.3605 0.607422 56.3325V57.2604C0.607422 57.7308 0.988653 58.1121 1.45914 58.1121C1.92964 58.1121 2.31087 57.7308 2.31087 57.2604V56.3325C2.31087 53.0802 4.61915 50.2253 7.79948 49.5444L12.6838 48.4986C13.6853 51.6326 16.6345 53.833 19.9826 53.833H21.9347C25.2902 53.833 28.2329 51.635 29.2336 48.4986L30.9348 48.8628C30.9948 48.8756 31.0549 48.8817 31.114 48.8817C31.507 48.8817 31.8603 48.608 31.9459 48.2082C32.0444 47.7483 31.7513 47.2955 31.2914 47.197L26.1898 46.1048V43.1685C29.5638 41.4353 31.8527 38.2006 32.3521 34.4118ZM24.4864 46.1709C24.4864 47.5779 23.3417 48.7226 21.9347 48.7226H19.9826C18.5756 48.7226 17.4309 47.5779 17.4309 46.1709V43.9166C18.5606 44.2729 19.7311 44.452 20.9018 44.452C22.1118 44.452 23.3217 44.2612 24.4863 43.8806V46.1709H24.4864ZM39.4929 18.3371V21.3149C39.1666 21.7186 38.9851 22.2234 38.9851 22.751C38.9851 23.2786 39.1666 23.7834 39.4929 24.1871V26.6639H37.5691C37.6968 26.1431 37.7659 25.5995 37.7659 25.0399V20.4838C37.7659 19.734 37.6426 19.0128 37.4181 18.3374H39.4929V18.3371ZM19.5521 1.70345H22.2516C23.4839 1.70345 24.4864 2.70598 24.4864 3.93825V4.88673C24.4864 5.35711 24.8677 5.73845 25.3382 5.73845C25.8086 5.73845 26.1899 5.35711 26.1899 4.88673V3.93825C26.1899 3.80232 26.183 3.66786 26.1694 3.53544C30.8086 4.97679 34.0448 9.2781 34.0448 14.2592V14.4089C33.1131 13.931 32.0588 13.6595 30.9417 13.6595H28.1906V13.1213C28.1906 11.8078 27.3564 10.6855 26.1899 10.2564V8.51632C26.1899 8.04594 25.8086 7.6646 25.3382 7.6646C24.8677 7.6646 24.4864 8.04594 24.4864 8.51632V10.0699H17.3173V3.93825C17.3173 2.70598 18.3198 1.70345 19.5521 1.70345ZM16.6643 11.7733H25.1394C25.8826 11.7733 26.4872 12.3779 26.4872 13.1212V13.6594H15.3166V13.1212C15.3166 12.378 15.9212 11.7733 16.6643 11.7733ZM7.75894 14.2592C7.75894 9.2781 10.9951 4.97679 15.6343 3.53544C15.6208 3.66797 15.6139 3.80232 15.6139 3.93825V10.2563C14.4473 10.6854 13.6131 11.8077 13.6131 13.1212V13.6594H10.8621C9.74493 13.6594 8.69061 13.9309 7.75894 14.4088V14.2592ZM2.31098 26.6637V24.1869C2.63725 23.7832 2.81872 23.2784 2.81872 22.7508C2.81872 22.2232 2.63725 21.7184 2.31098 21.3146V18.3369H4.38578C4.16138 19.0124 4.03793 19.7335 4.03793 20.4834V25.0394C4.03793 25.599 4.10709 26.1427 4.23474 26.6635H2.31098V26.6637ZM5.74138 25.0396V20.4836C5.74138 17.66 8.03864 15.3628 10.8622 15.3628H14.4649H27.339H30.9418C33.7653 15.3628 36.0626 17.6601 36.0626 20.4836V25.0396C36.0626 27.8633 33.7653 30.1604 30.9418 30.1604H26.6412C26.0055 30.1604 25.4078 29.9128 24.9582 29.4632L23.684 28.1891C22.9408 27.446 21.953 27.0367 20.902 27.0367C19.8511 27.0367 18.8632 27.446 18.1202 28.1891L16.8458 29.4632C16.3963 29.9127 15.7985 30.1604 15.1629 30.1604H10.8623C8.03853 30.1604 5.74138 27.8633 5.74138 25.0396ZM11.1405 34.1891L10.8339 31.8633C10.8433 31.8633 10.8527 31.864 10.8622 31.864H15.1628C16.2535 31.864 17.279 31.4392 18.0502 30.6679L19.3247 29.3937C19.746 28.9724 20.3062 28.7404 20.902 28.7404C21.4979 28.7404 22.0581 28.9724 22.4795 29.3937L23.7537 30.6679C24.525 31.4392 25.5505 31.864 26.6413 31.864H30.9419C30.9513 31.864 30.9608 31.8633 30.9702 31.8633L30.6636 34.1891C30.2173 37.5744 28.0965 40.4417 24.9901 41.8593C22.3921 43.045 19.4122 43.045 16.8142 41.8593C13.7076 40.4416 11.5867 37.5743 11.1405 34.1891ZM21.9347 52.1295H19.9826C17.4354 52.1295 15.1844 50.4926 14.3584 48.1401L16.0439 47.7791C16.6797 49.3303 18.2051 50.4261 19.9825 50.4261H21.9346C23.7119 50.4261 25.2374 49.3303 25.8731 47.7791L27.5584 48.1399C26.7334 50.4942 24.4876 52.1295 21.9347 52.1295Z" fill="white"/>
<path id="Vector_3" d="M20.9018 34.7569C22.365 34.7569 23.5555 33.5664 23.5555 32.1031C23.5555 31.6328 23.1743 31.2514 22.7038 31.2514C22.2333 31.2514 21.8521 31.6328 21.8521 32.1031C21.8521 32.6271 21.4258 33.0534 20.9018 33.0534C20.3778 33.0534 19.9515 32.6271 19.9515 32.1031C19.9515 31.6328 19.5703 31.2514 19.0998 31.2514C18.6293 31.2514 18.248 31.6328 18.248 32.1031C18.2479 33.5664 19.4385 34.7569 20.9018 34.7569Z" fill="white"/>
<path id="Vector_4" d="M20.1725 41.2757H21.6302C23.0419 41.2757 24.1903 40.1272 24.1903 38.7155C24.1903 37.3038 23.0419 36.1552 21.6302 36.1552H20.1725C18.7608 36.1552 17.6123 37.3038 17.6123 38.7155C17.6123 40.1272 18.7608 41.2757 20.1725 41.2757ZM20.1725 37.8586H21.6302C22.1026 37.8586 22.4869 38.243 22.4869 38.7155C22.4869 39.1879 22.1026 39.5723 21.6302 39.5723H20.1725C19.7 39.5723 19.3158 39.1879 19.3158 38.7155C19.3158 38.243 19.7 37.8586 20.1725 37.8586Z" fill="white"/>
<path id="Vector_5" d="M34.8816 47.9769C34.4272 47.8566 33.9608 48.1273 33.8401 48.582C33.7197 49.0367 33.9906 49.503 34.4453 49.6235C37.484 50.4286 39.6062 53.1875 39.6062 56.3325V57.2604C39.6062 57.7308 39.9874 58.1121 40.4579 58.1121C40.9284 58.1121 41.3096 57.7308 41.3096 57.2604V56.3325C41.3098 52.4156 38.6663 48.9796 34.8816 47.9769Z" fill="white"/>
</g>
</svg>
