<svg width="57" height="65" viewBox="0 0 57 65" fill="none" xmlns="http://www.w3.org/2000/svg">
<g id="test 1">
<g id="outline">
<path id="Vector" d="M23.3203 12.1875H25.3482V14.2188H23.3203V12.1875Z" fill="white"/>
<path id="Vector_2" d="M27.376 12.1875H29.4039V14.2188H27.376V12.1875Z" fill="white"/>
<path id="Vector_3" d="M31.4316 12.1875H33.4595V14.2188H31.4316V12.1875Z" fill="white"/>
<path id="Vector_4" d="M37.5156 6.09375H39.5435V8.125H37.5156V6.09375Z" fill="white"/>
<path id="Vector_5" d="M56.704 62.3421C56.7808 62.1565 56.8009 61.9522 56.7617 61.7552C56.7225 61.5581 56.6259 61.3771 56.484 61.2351L50.6032 55.3445L48.6919 47.6856L49.6774 40.7794C49.6926 40.6711 49.6906 40.561 49.6713 40.4534L47.6435 29.3099C47.5703 28.5424 47.224 27.8267 46.6678 27.2937C46.1116 26.7606 45.3826 26.4456 44.6138 26.4062C44.2694 26.4098 43.9281 26.4726 43.6049 26.5921V7.10938C43.6033 5.76307 43.0687 4.47236 42.1183 3.52038C41.1679 2.5684 39.8793 2.03286 38.5352 2.03125H18.2513C16.9072 2.03286 15.6187 2.5684 14.6682 3.52038C13.7178 4.47236 13.1832 5.76307 13.1816 7.10938V19.5691C12.4439 19.3385 11.6513 19.3546 10.9235 19.6148C10.2877 19.8356 9.71904 20.2163 9.27203 20.7202C8.82502 21.2242 8.51458 21.8346 8.37042 22.493C8.22579 23.1323 8.24496 23.7979 8.42614 24.4277C8.60732 25.0576 8.94463 25.6313 9.40667 26.0955L12.4039 29.0977C11.581 29.5138 10.9378 30.2161 10.5946 31.073C10.2513 31.93 10.2317 32.8829 10.5392 33.7533C9.73596 33.8785 8.99278 34.2549 8.41605 34.8288C8.05509 35.1896 7.76871 35.6181 7.57332 36.0899C7.37792 36.5616 7.27734 37.0674 7.27734 37.5781C7.27734 38.0889 7.37792 38.5946 7.57332 39.0664C7.76871 39.5381 8.05509 39.9667 8.41605 40.3274L10.0749 41.989C9.44851 42.1643 8.87697 42.4963 8.41402 42.9538C7.687 43.6835 7.27868 44.6722 7.27868 45.7031C7.27868 46.734 7.687 47.7228 8.41402 48.4524L12.4698 52.5149C12.6843 52.7253 12.9225 52.91 13.1796 53.0654V53.8281C13.1812 55.1744 13.7158 56.4651 14.6662 57.4171C15.6166 58.3691 16.9052 58.9046 18.2493 58.9062H27.9689L31.7276 62.6712C31.822 62.7657 31.9341 62.8407 32.0574 62.8918C32.1808 62.9428 32.313 62.969 32.4465 62.9688H55.7672C55.9677 62.9688 56.1637 62.9093 56.3305 62.7978C56.4972 62.6862 56.6272 62.5276 56.704 62.3421ZM23.321 4.0625H33.4604V6.09375H23.321V4.0625ZM15.2095 21.3281V7.10938C15.2095 6.30129 15.5299 5.52631 16.1004 4.95491C16.6708 4.38351 17.4446 4.0625 18.2513 4.0625H21.2931V7.10938C21.2931 7.37874 21.3999 7.63706 21.5901 7.82753C21.7802 8.018 22.0381 8.125 22.3071 8.125H34.4744C34.7433 8.125 35.0012 8.018 35.1913 7.82753C35.3815 7.63706 35.4883 7.37874 35.4883 7.10938V4.0625H38.5301C39.3369 4.0625 40.1106 4.38351 40.681 4.95491C41.2515 5.52631 41.572 6.30129 41.572 7.10938V48.75H18.9458C18.7758 48.0956 18.4365 47.4976 17.9623 47.0163L16.2974 45.3487C17.1081 45.1274 17.8229 44.6437 18.3303 43.973C18.8378 43.3023 19.1095 42.4822 19.103 41.6406C19.097 41.2221 19.023 40.8074 18.884 40.4127C19.4392 40.3285 19.9686 40.1215 20.4341 39.8069C20.8995 39.4923 21.2892 39.0779 21.575 38.5938H26.3628C26.6317 38.5938 26.8896 38.4867 27.0798 38.2963C27.27 38.1058 27.3768 37.8475 27.3768 37.5781V31.4844C27.3768 31.215 27.27 30.9567 27.0798 30.7662C26.8896 30.5758 26.6317 30.4688 26.3628 30.4688H20.2792C20.0103 30.4688 19.7524 30.5758 19.5622 30.7662C19.3721 30.9567 19.2652 31.215 19.2652 31.4844V32.0938L16.9433 29.769C16.4598 29.2968 15.8625 28.958 15.2095 28.7859V21.3281ZM21.2931 34.1859V32.5H25.3489V36.5625H22.1428C22.1321 35.6985 21.833 34.8629 21.2931 34.189V34.1859ZM10.8404 24.6594C10.6204 24.436 10.4602 24.1607 10.3746 23.859C10.289 23.5572 10.2808 23.2386 10.3507 22.9328C10.4222 22.6075 10.5772 22.3065 10.8004 22.0594C11.0235 21.8124 11.3071 21.6279 11.6232 21.5241C11.7812 21.4671 11.948 21.4382 12.1159 21.4388C12.4991 21.4441 12.8713 21.5679 13.1816 21.7933V27.0045L10.8404 24.6594ZM12.8946 31.2071C13.2504 30.8679 13.7216 30.6766 14.2128 30.6719C14.7019 30.6702 15.1718 30.8627 15.5197 31.2071L19.5694 35.2625C19.9199 35.6125 20.1181 36.0871 20.121 36.5828C20.1196 36.8079 20.0774 37.031 19.9963 37.2409C19.9069 37.4876 19.7634 37.7111 19.5765 37.895C19.2561 38.2165 18.8295 38.4097 18.377 38.4383C17.9244 38.4669 17.4769 38.329 17.1187 38.0504L12.8987 33.8325C12.7258 33.6607 12.5886 33.4563 12.4951 33.2311C12.4017 33.0058 12.3538 32.7642 12.3542 32.5203C12.3553 32.0285 12.5494 31.5568 12.8946 31.2071ZM9.85281 38.8913C9.59329 38.631 9.41675 38.2993 9.34555 37.9384C9.27435 37.5775 9.31169 37.2035 9.45284 36.8639C9.59399 36.5242 9.83261 36.2342 10.1385 36.0304C10.4443 35.8267 10.8036 35.7185 11.1709 35.7195C11.5891 35.7205 11.9945 35.8638 12.3207 36.1258L16.5276 40.3274C16.8631 40.6782 17.048 41.1466 17.0428 41.6324C17.0376 42.1181 16.8426 42.5824 16.4997 42.9259C16.1568 43.2694 15.6932 43.4647 15.2083 43.4699C14.7234 43.4751 14.2557 43.2898 13.9055 42.9538L9.85281 38.8913ZM13.9086 51.0788L9.85281 47.0163C9.52786 46.6639 9.35162 46.1993 9.36098 45.7197C9.37034 45.24 9.56459 44.7826 9.90304 44.4432C10.2415 44.1038 10.6979 43.9087 11.1767 43.8988C11.6555 43.8889 12.1196 44.0648 12.4718 44.3899L16.5276 48.4524C16.8631 48.8032 17.048 49.2716 17.0428 49.7574C17.0376 50.2431 16.8426 50.7074 16.4997 51.0509C16.1568 51.3944 15.6932 51.5897 15.2083 51.5949C14.7234 51.6001 14.2557 51.4148 13.9055 51.0788H13.9086ZM18.2513 56.875C17.4446 56.875 16.6708 56.554 16.1004 55.9826C15.5299 55.4112 15.2095 54.6362 15.2095 53.8281V53.6504H15.2176C16.0692 53.6562 16.8985 53.3772 17.5738 52.8574C18.2492 52.3377 18.732 51.607 18.9458 50.7812H41.572V53.8281C41.572 54.6362 41.2515 55.4112 40.681 55.9826C40.1106 56.554 39.3369 56.875 38.5301 56.875H18.2513ZM32.8663 60.9375L30.8384 58.9062H38.5301C39.8742 58.9046 41.1628 58.3691 42.1132 57.4171C43.0636 56.4651 43.5982 55.1744 43.5999 53.8281V29.447C43.6015 29.1787 43.709 28.922 43.899 28.7328C44.0889 28.5437 44.3459 28.4375 44.6138 28.4375C45.1431 28.4375 45.5517 29.0327 45.644 29.6349L47.6424 40.6453L46.6518 47.5902C46.6337 47.7203 46.6405 47.8526 46.6721 47.9802L48.7 56.1052C48.7445 56.2839 48.8366 56.4471 48.9666 56.5774L53.3195 60.9375H32.8663Z" fill="white"/>
<path id="Vector_6" d="M26.3623 52.8125H30.4181V54.8438H26.3623V52.8125Z" fill="white"/>
<path id="Vector_7" d="M20.2786 28.4375H26.3622C26.6312 28.4375 26.8891 28.3305 27.0792 28.14C27.2694 27.9496 27.3762 27.6912 27.3762 27.4219V21.3281C27.3762 21.0588 27.2694 20.8004 27.0792 20.61C26.8891 20.4195 26.6312 20.3125 26.3622 20.3125H20.2786C20.0097 20.3125 19.7518 20.4195 19.5616 20.61C19.3715 20.8004 19.2646 21.0588 19.2646 21.3281V27.4219C19.2646 27.6912 19.3715 27.9496 19.5616 28.14C19.7518 28.3305 20.0097 28.4375 20.2786 28.4375ZM21.2925 22.3438H25.3483V26.4062H21.2925V22.3438Z" fill="white"/>
<path id="Vector_8" d="M29.4043 27.4219C29.4043 27.6912 29.5111 27.9496 29.7013 28.14C29.8914 28.3305 30.1493 28.4375 30.4182 28.4375H36.5019C36.7708 28.4375 37.0287 28.3305 37.2189 28.14C37.409 27.9496 37.5158 27.6912 37.5158 27.4219V21.3281C37.5158 21.0588 37.409 20.8004 37.2189 20.61C37.0287 20.4195 36.7708 20.3125 36.5019 20.3125H30.4182C30.1493 20.3125 29.8914 20.4195 29.7013 20.61C29.5111 20.8004 29.4043 21.0588 29.4043 21.3281V27.4219ZM31.4322 22.3438H35.488V26.4062H31.4322V22.3438Z" fill="white"/>
<path id="Vector_9" d="M36.5019 30.4688H30.4182C30.1493 30.4688 29.8914 30.5758 29.7013 30.7662C29.5111 30.9567 29.4043 31.215 29.4043 31.4844V37.5781C29.4043 37.8475 29.5111 38.1058 29.7013 38.2963C29.8914 38.4867 30.1493 38.5938 30.4182 38.5938H36.5019C36.7708 38.5938 37.0287 38.4867 37.2189 38.2963C37.409 38.1058 37.5158 37.8475 37.5158 37.5781V31.4844C37.5158 31.215 37.409 30.9567 37.2189 30.7662C37.0287 30.5758 36.7708 30.4688 36.5019 30.4688ZM35.488 36.5625H31.4322V32.5H35.488V36.5625Z" fill="white"/>
<path id="Vector_10" d="M23.3203 44.6875H25.3482V46.7188H23.3203V44.6875Z" fill="white"/>
<path id="Vector_11" d="M27.376 44.6875H29.4039V46.7188H27.376V44.6875Z" fill="white"/>
<path id="Vector_12" d="M31.4316 44.6875H33.4595V46.7188H31.4316V44.6875Z" fill="white"/>
</g>
</g>
</svg>
