<svg width="57" height="52" viewBox="0 0 57 52" fill="none" xmlns="http://www.w3.org/2000/svg">
<g id="NrAYmK.tif">
<g id="Group">
<path id="Vector" d="M50.0187 51.8835H8.47795C3.40247 49.8365 2.33525 48.2101 2.33525 42.526C2.33525 38.6695 2.25937 34.8113 2.35669 30.9581C2.46226 26.7618 2.25112 22.643 0.919987 18.6051C0.111737 16.154 0.903492 13.9403 2.91917 12.3997C4.10185 11.4958 5.53361 10.7733 6.96702 10.3675C13.8272 8.4228 20.7221 6.60506 27.6104 4.76093C33.3803 3.21701 39.142 1.63185 44.9416 0.201744C47.7721 -0.49599 50.7395 0.650405 51.8793 3.10979C53.0257 5.58403 53.6278 8.31063 54.4806 10.9614C53.989 11.1214 53.8191 11.1873 53.6443 11.2319C51.1799 11.8752 48.7255 12.5614 46.243 13.1238C45.6492 13.2591 44.8706 13.1486 44.3329 12.8599C42.0846 11.6558 39.7622 10.5242 37.7201 9.02156C34.9358 6.97455 32.163 6.48135 28.991 7.90486C27.9073 8.39146 26.6933 8.58775 25.2681 8.99517C29.217 11.2847 32.8623 13.3993 36.7997 15.6822C34.0714 16.403 31.7588 17.0579 29.4182 17.5989C28.864 17.7276 28.1267 17.6385 27.6318 17.363C24.3493 15.537 21.113 13.6269 17.8503 11.7647C17.4644 11.5453 16.9613 11.2302 16.6 11.3193C13.9064 11.9807 11.2359 12.7313 8.25856 13.5346C12.2206 15.829 15.8726 17.9437 19.7736 20.2035C17.2169 20.8814 15.0083 21.4109 12.8392 22.0707C11.861 22.3676 11.0907 22.2736 10.2281 21.7375C8.41197 20.6092 6.53155 19.5849 4.39051 18.3511C4.73526 19.6987 5.06021 20.6653 5.21691 21.66C5.4099 22.8822 5.95753 23.2682 7.24248 23.2633C23.1749 23.2121 39.109 23.2303 55.0414 23.227C55.5032 23.227 55.9667 23.1841 56.4286 23.161V46.0246C55.6566 48.319 54.4228 50.2209 52.0476 51.1396C51.3762 51.3986 50.6933 51.6345 50.017 51.8802L50.0187 51.8835ZM5.70516 26.7981C5.70516 27.3606 5.70516 27.7713 5.70516 28.1804C5.70516 33.2888 5.69856 38.3957 5.70681 43.5041C5.7134 47.0373 7.04289 48.385 10.5909 48.3883C23.1271 48.3998 35.6632 48.4015 48.1993 48.3883C51.7292 48.385 53.0438 47.0291 53.0504 43.4645C53.0603 38.3561 53.0537 33.2493 53.0537 28.1408C53.0537 27.702 53.0537 27.2649 53.0537 26.7998H5.70516V26.7981ZM42.0879 4.56794C44.5226 5.9865 46.7972 7.31269 49.0752 8.63393C49.4265 8.83682 49.796 9.01002 50.1919 9.21455C49.4793 3.50732 47.5527 2.35598 42.0879 4.56794Z" fill="white"/>
<path id="Vector_2" d="M25.0059 44.324V30.5243C29.0257 32.8419 32.9003 35.0753 36.9663 37.4208C32.9086 39.7631 29.0768 41.9751 25.0059 44.324Z" fill="white" fill-opacity="0.5"/>
</g>
</g>
</svg>
