<svg width="58" height="48" viewBox="0 0 58 48" fill="none" xmlns="http://www.w3.org/2000/svg">
<g id="Group">
<path id="Vector" d="M41.5001 41.907H30.7421L29.6165 40.7814L32.4411 37.9568C32.7514 37.6464 32.8809 37.205 32.7874 36.7761C32.6939 36.3473 32.3925 36 31.9814 35.847L17.2376 30.3598C16.7201 30.1671 16.1556 30.29 15.765 30.6808C15.3743 31.0715 15.2514 31.6358 15.4441 32.1534L19.074 41.907H4.29196C2.84814 41.907 1.67367 40.7326 1.67367 39.2889V21.2364C1.67367 20.7742 1.2991 20.3996 0.836835 20.3996C0.374567 20.3996 0 20.7742 0 21.2364V39.2889C0 41.6554 1.92539 43.5808 4.29196 43.5808H19.697L20.9311 46.897C21.0841 47.3085 21.4316 47.6099 21.8605 47.7034C22.2893 47.797 22.7309 47.6674 23.041 47.3571L25.8656 44.5326L28.7409 47.4079C29.0128 47.6797 29.3699 47.8154 29.7269 47.8154C30.0841 47.8154 30.4413 47.6795 30.7132 47.4078L32.4918 45.6293C33.0355 45.0854 33.0353 44.2006 32.4917 43.6569C32.4917 43.6569 32.4917 43.6569 32.4916 43.6569L32.4158 43.581H41.5C41.9623 43.581 42.3368 43.2065 42.3368 42.7442C42.3368 42.2819 41.9623 41.907 41.5001 41.907ZM29.7271 46.0267L26.4574 42.757C26.2939 42.5937 26.0798 42.512 25.8656 42.512C25.6514 42.512 25.4372 42.5937 25.2738 42.757L22.2875 45.7433L17.2252 32.1411L30.8273 37.2035L27.8411 40.1897C27.5142 40.5167 27.5142 41.0464 27.8412 41.3732L31.1108 44.6428L29.7271 46.0267Z" fill="white"/>
<path id="Vector_2" d="M52.836 0H49.9102C49.4479 0 49.0733 0.374567 49.0733 0.836835C49.0733 1.2991 49.4479 1.67367 49.9102 1.67367H52.836C54.2797 1.67367 55.4543 2.84814 55.4543 4.29196V9.53512H1.67367V4.29196C1.67367 2.84825 2.84814 1.67367 4.29196 1.67367H46.0399C46.5021 1.67367 46.8767 1.2991 46.8767 0.836835C46.8767 0.374567 46.5021 0 46.0399 0H4.29196C1.92539 0 0 1.92539 0 4.29196V17.4707C0 17.9329 0.374567 18.3075 0.836835 18.3075C1.2991 18.3075 1.67367 17.9329 1.67367 17.4707V11.2089H55.4543V39.2888C55.4543 40.7325 54.2798 41.9071 52.836 41.9071H45.5099C45.0476 41.9071 44.673 42.2817 44.673 42.744C44.673 43.2062 45.0476 43.5808 45.5099 43.5808H52.836C55.2025 43.5808 57.1279 41.6554 57.1279 39.2888V4.29196C57.1279 1.92539 55.2025 0 52.836 0Z" fill="white"/>
<path id="Vector_3" d="M5.5459 5.60445C5.5459 6.46059 6.23991 7.15461 7.09594 7.15461C7.95197 7.15461 8.64598 6.46059 8.64598 5.60445C8.64598 4.74832 7.95197 4.05441 7.09594 4.05441C6.23991 4.05441 5.5459 4.74832 5.5459 5.60445Z" fill="white"/>
<path id="Vector_4" d="M10.3135 5.60445C10.3135 6.46059 11.0075 7.15461 11.8635 7.15461C12.7195 7.15461 13.4136 6.46059 13.4136 5.60445C13.4136 4.74832 12.7195 4.05441 11.8635 4.05441C11.0075 4.05441 10.3135 4.74832 10.3135 5.60445Z" fill="white"/>
<path id="Vector_5" d="M15.0811 5.60445C15.0811 6.46059 15.7751 7.15461 16.6311 7.15461C17.4871 7.15461 18.1811 6.46059 18.1811 5.60445C18.1811 4.74832 17.4871 4.05441 16.6311 4.05441C15.7751 4.05441 15.0811 4.74832 15.0811 5.60445Z" fill="white"/>
<path id="Vector_6" d="M10.243 29.6327H10.2478C10.6015 29.6327 10.9173 29.4102 11.036 29.0768L13.1089 23.26L15.0896 29.0662C15.2048 29.4037 15.5214 29.6312 15.8781 29.6328H15.8816C16.237 29.6328 16.5536 29.4083 16.6714 29.0726L19.4813 21.0562C19.6342 20.6202 19.4046 20.1426 18.9683 19.9896C18.5325 19.8368 18.0547 20.0664 17.9017 20.5027L15.8922 26.2354L13.9182 20.4484C13.6943 19.713 12.5712 19.7062 12.3379 20.4377L10.2621 26.2627L8.28761 20.5167C8.13742 20.0796 7.66143 19.8467 7.22427 19.9973C6.78722 20.1475 6.55458 20.6236 6.70487 21.0607L9.45639 29.0677C9.57187 29.404 9.88741 29.6305 10.243 29.6327Z" fill="white"/>
<path id="Vector_7" d="M25.7274 29.6327H25.7322C26.0859 29.6327 26.4017 29.4102 26.5204 29.0768L28.5933 23.26L30.574 29.0662C30.6891 29.4037 31.0058 29.6312 31.3625 29.6328H31.366C31.7214 29.6328 32.038 29.4083 32.1557 29.0726L34.9657 21.0562C35.1186 20.6202 34.8889 20.1426 34.4527 19.9896C34.0168 19.8368 33.5391 20.0664 33.3861 20.5027L31.3766 26.2354L29.4025 20.4485C29.1786 19.7129 28.0556 19.7062 27.8223 20.4377L25.7465 26.2627L23.772 20.5169C23.6218 20.0797 23.1456 19.8468 22.7086 19.9975C22.2716 20.1476 22.039 20.6237 22.1892 21.0608L24.9408 29.0679C25.0564 29.404 25.3719 29.6305 25.7274 29.6327Z" fill="white"/>
<path id="Vector_8" d="M40.9591 29.6327H40.9637C41.3174 29.6327 41.6332 29.4102 41.7519 29.0768L43.8248 23.26L45.8056 29.0662C45.9207 29.4037 46.2374 29.6312 46.5941 29.6328H46.5975C46.9529 29.6328 47.2696 29.4083 47.3873 29.0726L50.1972 21.0562C50.35 20.6202 50.1204 20.1426 49.6841 19.9896C49.2482 19.8368 48.7705 20.0664 48.6175 20.5027L46.6081 26.2354L44.6341 20.4484C44.4104 19.713 43.287 19.7062 43.0538 20.4377L40.978 26.2627L39.0034 20.5168C38.8532 20.0798 38.3778 19.847 37.9401 19.9974C37.503 20.1476 37.2704 20.6237 37.4207 21.0608L40.1723 29.0678C40.2879 29.404 40.6033 29.6305 40.9591 29.6327Z" fill="white"/>
</g>
</svg>
