<svg width="121" height="129" viewBox="0 0 121 129" fill="none" xmlns="http://www.w3.org/2000/svg">
<g id="Group">
<g id="Group_2">
<path id="Vector" d="M67.1859 70.5847H67.202H67.1859ZM39.8112 14.4031C39.6989 14.4674 39.5866 14.5478 39.4903 14.6442C39.2336 14.596 38.8484 14.6764 38.4312 14.7407C38.0301 14.805 37.5968 14.8693 37.1957 14.8371C36.5057 15.0139 35.9762 14.821 34.4839 15.8338C33.6976 16.2839 33.1039 17.811 33.1842 18.5343C33.1842 19.4184 33.3607 19.7882 33.5211 20.2222C33.0397 20.6562 32.4942 21.1545 32.2374 21.3957L31.4833 21.1385L31.0019 20.9777L30.7451 20.8973L30.6328 20.8652C26.6213 22.6334 27.0706 22.4405 27.5038 22.2476C27.7606 22.1351 28.0013 22.0386 27.5038 22.2476V22.2637L27.4878 22.3119L27.4396 22.4084C27.0545 23.405 26.8941 24.0319 26.7015 25.0286C26.6534 25.334 26.4769 26.3628 26.8138 27.279C27.1508 28.2435 27.4878 28.5972 27.6964 28.9026C27.7445 28.9669 27.7927 29.0312 27.8247 29.0955C27.6964 29.1116 27.6643 29.1116 27.8408 29.1116C27.921 29.2241 27.9692 29.3205 27.9852 29.2884L28.0013 29.3366L28.0654 29.642C28.1296 29.851 28.1617 29.9475 28.2099 30.0921C28.258 30.2368 28.3061 30.3333 28.3543 30.4619C28.3543 30.4779 28.3703 30.5101 28.3864 30.5422C28.4185 30.6387 28.4505 30.7351 28.4666 30.7351V30.7512L28.4826 30.8316L28.5147 30.9763L28.6912 31.571C28.8036 31.8282 28.9801 32.1176 29.1726 32.3587C29.1405 32.3748 29.1405 32.3748 29.1726 32.3587C29.1887 32.3748 29.2047 32.3908 29.2208 32.4069V32.4712C29.2529 32.8731 29.5738 33.1946 29.7503 33.5322C29.9589 33.934 29.8626 34.1108 29.8626 34.5288V34.5449L29.9107 34.6574L30.007 34.8664C30.007 34.8824 30.1835 35.22 30.2156 35.2843C30.2798 35.3808 30.3761 35.638 30.4563 35.8791C30.6328 36.2167 30.4563 36.0881 30.8414 36.8596C30.9537 37.1008 31.2907 37.8884 31.0019 38.0492C31.0821 38.3225 31.0982 38.6279 31.0982 38.9172C31.0982 39.078 31.2265 39.6406 31.4833 40.0425C31.9326 40.798 32.6546 41.0552 33.2804 41.1034C33.2804 41.1195 33.2804 41.1356 33.2965 41.1516C33.5211 41.4571 33.7618 41.7464 34.0667 42.0518C34.1951 42.4537 34.3234 42.9842 34.4518 43.5468C34.4999 43.7075 34.4999 43.8201 34.5641 44.0451C34.5802 44.0612 34.5802 44.1094 34.5962 44.1576C34.532 44.2701 34.4678 44.4148 34.3876 44.6077C34.1309 45.5561 34.3074 45.6526 34.3395 45.9902C34.4037 46.3117 34.4839 46.4563 34.5481 46.6653L34.532 47.244C34.5481 48.4657 34.6604 48.0799 34.7246 48.5782L34.8369 49.0122L34.853 49.0604V49.0765C34.7727 48.964 34.7246 48.8836 34.7246 48.8836C34.7246 48.8836 34.7567 48.9479 34.853 49.0926V49.0765C34.9171 49.189 34.9974 49.3176 35.0776 49.4623C35.2702 49.7838 35.4627 50.1053 35.4146 50.0249V50.041L35.4948 50.1053L35.5429 50.1375C35.559 50.1857 35.6071 50.2661 35.7997 50.6197L36.3292 51.327L36.4576 51.5038C36.8427 51.9378 36.8427 51.9218 36.8427 51.9057C36.8427 51.8896 36.8427 51.8735 36.9069 51.9539L37.2599 52.2111C37.5327 52.3397 38.4794 53.2238 38.3029 52.8863L39.1854 54.4134C39.6989 54.9921 39.747 56.4227 40.2284 57.5962C40.7419 58.5928 41.1591 58.9143 41.5923 59.3483C41.9132 59.6216 42.0577 59.7502 42.2181 59.8306C42.17 60.1682 42.3305 60.5379 42.4107 60.6504C44.0795 62.0328 43.4537 64.2351 43.5981 65.9551C43.6302 65.939 43.6623 65.923 43.6944 65.923C43.7906 64.7656 43.7425 64.8781 44.256 63.9297C44.3041 63.2545 44.3844 62.6276 44.2399 61.8721C44.0955 61.3095 43.8709 61.1648 43.8388 60.9558C43.8227 60.8111 43.5179 60.1039 43.4697 60.0556C43.5179 60.0717 43.6141 59.3001 43.3093 59.0108C43.0846 58.7214 42.7477 58.4321 42.6995 58.3356C42.2823 57.8695 41.9614 57.2265 41.9132 57.1461C41.5763 56.0209 41.8812 54.8635 41.1591 53.3524L40.4851 51.7128C39.5063 50.4268 39.5224 50.6679 38.9287 50.041L38.688 49.832L38.6238 49.7195L38.2387 49.0444C38.351 49.2373 38.1585 48.8193 38.1745 48.8033L38.1103 48.5943L38.0943 48.5461V48.53C38.1424 48.5943 37.9499 48.3371 37.7894 48.112L37.7733 47.9995C37.7733 47.9191 37.5968 46.9546 37.7413 47.5816L37.8536 46.6974L37.8696 46.5849V46.5206L37.8857 46.4885C37.8696 46.4242 37.8054 46.0866 37.7573 45.7973C37.8536 45.6365 37.9659 45.4758 38.0782 45.2186C38.1585 44.9935 38.2387 44.7363 38.2708 44.4952C38.335 44.1094 38.1585 43.4343 37.9178 43.0324C38.0301 43.1931 38.0782 43.3057 38.1103 43.3378C38.1103 43.3217 38.0943 43.2896 38.0943 43.2414C38.0782 43.1771 38.0622 42.9842 38.0301 42.8556C37.9499 42.2769 37.8857 41.666 37.7092 40.8944C37.6289 40.6372 37.5968 40.4926 37.4685 40.155C37.2278 39.6406 36.8106 39.1905 36.8908 39.2709C36.7785 39.1583 36.6662 38.9655 36.5538 38.7886C36.4576 38.66 36.4255 38.4832 36.1366 38.0331C36.0564 37.8884 35.8639 37.6152 35.6392 37.358C35.7515 37.358 35.5269 37.1651 35.1739 36.9561C35.1578 36.9079 35.1418 36.8596 35.1418 36.8114C35.1097 36.6667 35.206 36.3774 35.1899 36.2167C35.1097 35.6058 34.885 35.0914 34.7246 34.5127C34.6604 34.3037 34.5962 34.0948 34.516 33.8537C34.5481 33.6608 34.5481 33.4679 34.4999 33.291C34.3555 32.4551 34.2592 32.4712 34.0667 32.0533C33.5853 31.3781 33.7779 31.5871 33.826 31.6514C33.842 31.6996 33.842 31.6996 33.826 31.6514C33.826 31.6032 33.7939 31.5067 33.7779 31.4424L33.7618 31.3299V31.3138C33.7458 31.2495 33.7137 31.0888 33.6334 30.7351L33.6014 30.6065C33.473 30.3172 33.4088 30.1082 33.1039 29.642C33.0397 29.3045 32.9916 29.1598 32.9274 28.9508L32.8793 28.7901C32.7349 28.4204 32.7509 28.4525 32.767 28.5007C32.767 28.5168 32.783 28.5329 32.767 28.4847C32.767 28.4847 32.7349 28.4364 32.7349 28.4204C32.6546 28.0346 32.5263 27.6488 32.3818 27.279C32.3177 27.1022 32.2374 26.9415 32.1733 26.8129C33.0397 26.7968 34.179 26.7486 33.1842 26.7807C33.3125 26.7325 33.3607 26.7004 33.4248 26.6682L33.81 26.4753C34.2913 26.202 34.7406 25.9127 35.206 25.4626C35.2862 25.3983 35.3664 25.3018 35.4467 25.2215H35.4788L36.0404 25.1572H36.1046C35.4306 25.5912 35.6392 25.4626 36.1046 25.1572C36.3292 25.0125 36.618 24.8196 36.9069 24.6428C37.5968 24.1927 38.2868 23.7426 38.1103 23.8712V23.8551L38.1264 23.823L38.1905 23.7104C38.3029 23.6301 38.4794 23.4854 38.7843 23.2603C39.747 22.5852 39.6668 21.042 39.5063 20.2704C39.9075 20.2383 40.3889 20.1418 41.0628 19.8846C41.0628 19.8846 41.0789 19.9007 41.0949 19.9007C41.3195 20.0293 41.5281 20.19 41.6726 20.3026C41.7047 20.3186 41.7207 20.3347 41.7207 20.3347C42.0737 20.7205 42.3305 20.9134 42.523 21.0581C43.903 22.0869 45.1385 22.8263 46.5345 23.6944L46.711 23.8069C46.7271 23.8551 46.7431 23.9033 46.7592 23.9516C46.8234 24.4017 47.2085 24.8517 47.5936 25.1893L47.5615 25.334C47.2406 24.7714 48.2836 27.2147 49.0377 28.1149L49.0859 28.131L49.1501 28.1632L49.7277 28.4686L50.8991 29.0794L51.204 29.2402L51.3644 29.3205C51.5249 29.3366 51.6854 29.3527 51.3644 29.3205C51.0916 29.3045 50.7868 29.2884 53.3862 29.4974L53.4183 29.4813L53.5146 29.4491L54.0762 29.2723C54.5897 29.5938 54.9588 29.8671 56.4671 30.4297L56.9966 30.5744C57.0768 30.703 57.0448 30.703 57.6064 31.2978C58.7777 32.1819 59.1147 32.1336 59.4035 32.1979C59.564 32.632 59.9491 33.4679 60.3503 33.9501C60.8156 34.577 61.1365 34.9146 61.5698 35.3968C61.5698 35.429 61.8746 35.7183 62.0672 35.8952V35.9112C62.0512 35.8952 62.0191 35.8791 62.003 35.8469C61.9067 35.7344 61.987 35.8469 62.0832 35.9755C62.0993 36.1363 62.0993 36.281 62.0993 36.3613L62.1153 36.3774C62.1153 36.3453 62.1153 36.2649 62.1474 36.1363C62.1474 36.1202 62.1474 36.1202 62.1635 36.1041C62.1795 36.1202 62.1795 36.1363 62.1956 36.1524C62.0832 36.6828 61.9709 37.3901 62.1635 37.7759C62.4202 38.6118 62.6128 38.8851 62.7893 39.2226C62.9497 39.4638 63.2546 40.1228 63.4793 40.5729C63.5274 40.6694 63.8162 41.2642 63.9446 41.4731L64.1532 41.8268C64.2174 41.9232 64.2013 41.9071 64.1853 41.8911C64.1532 41.8589 64.1211 41.8268 64.6185 42.4858L64.779 42.6627C65.2283 43.1128 65.6615 43.5468 66.175 43.9808C66.7206 44.3827 67.202 44.9453 68.5177 45.3793C69.7372 45.7169 70.7963 45.5079 71.2937 45.4275C71.6949 45.3472 71.6949 45.3793 71.5986 45.3632C71.6628 45.3472 72.096 45.3954 72.3207 45.4115L73.1551 45.4758L73.3637 45.4918C73.476 45.4918 73.4279 45.4918 73.3958 45.4918C73.3476 45.4918 73.2834 45.5079 74.0376 45.4758L74.1339 45.4597L74.5511 45.3954H74.6153C75.8829 44.9292 75.8187 44.9453 75.6904 44.9935L75.7706 44.9453L75.9471 44.8328L76.3001 44.6077L77.0061 44.1416L77.1826 44.029L77.2789 43.9647L77.3271 43.9326C77.3752 43.8843 77.5998 43.6593 77.8245 43.4343C78.1936 43.0645 78.5626 42.6948 78.1615 43.0967L78.354 42.7913C78.5626 43.1288 78.7873 43.4503 79.0761 43.8361C79.2205 44.0612 79.6698 44.6238 80.2154 45.0417C80.4079 45.1864 80.6326 45.3632 80.9214 45.5722C81.1621 45.9259 83.1197 46.81 83.232 46.7457C83.7937 46.9064 83.906 47.0029 84.6281 47.1958C84.6922 47.2922 84.7243 47.3565 84.7564 47.3726C84.965 47.6941 85.1415 47.9674 85.3501 48.2246L85.4304 48.3371C85.5587 48.4818 85.6711 48.5943 85.7673 48.6747C85.7513 48.7068 85.7352 48.7229 85.7192 48.755C85.0453 49.8481 85.0132 49.816 83.9381 50.7322C83.1037 51.3752 81.2423 53.0149 81.114 55.5065C80.9535 55.5868 80.8091 55.6672 80.6968 55.7637C79.6056 56.6478 79.4933 56.4388 78.5947 57.9981C78.3701 57.982 78.1133 57.982 77.7764 58.0141C77.4394 58.0945 77.3271 58.0624 76.8296 58.2874C76.3964 58.4642 75.8027 59.0268 75.8508 58.9947C75.7064 59.1554 75.5299 59.3483 75.4176 59.493L75.0646 59.9592L74.9843 60.0717L74.9362 60.136C74.856 60.4736 74.8881 60.3128 74.9201 60.1521C74.9522 59.9592 75.0004 59.7502 74.8239 60.5861H74.7597L74.3264 60.554L74.2783 60.5379C74.0216 60.6022 74.1339 60.57 74.2623 60.5379C74.4869 60.4897 74.7115 60.4254 72.6095 60.9558L72.5614 60.988L72.449 61.0523C72.2886 61.1648 72.1281 61.213 71.9997 61.2934C72.1121 61.2934 71.39 61.4381 70.9728 61.4863L70.8926 61.5024C70.7 61.5667 70.7963 61.5345 70.8765 61.5024C71.037 61.4381 71.1814 61.3738 69.7372 61.9203L69.6891 61.9525L69.5126 62.065L69.1596 62.29C68.8547 62.499 68.8226 62.499 68.2931 62.8687C67.6833 63.3992 67.1699 64.0261 66.8329 64.7656C66.6885 64.8299 66.5441 64.8942 66.3836 64.9906C66.2552 65.071 66.1269 65.1835 65.9985 65.28C65.9022 65.296 65.806 65.3282 65.7257 65.3443C64.4902 65.6497 64.0409 65.6979 62.5486 65.9712C62.34 66.0194 62.0191 66.0194 62.4042 66.0515C60.5589 66.1962 60.4144 66.7106 60.0614 66.8392C59.917 66.9839 59.4517 67.1607 58.6333 67.7073C58.4889 67.8198 58.3766 67.9002 58.3124 67.9484C57.9915 67.9484 57.6866 67.9323 57.0127 67.9645L56.6115 67.9805L56.419 67.9966H56.3708C56.5473 67.9002 55.8734 68.2377 55.2155 68.5914C54.3651 69.0254 53.5307 69.4594 54.4613 68.9772L54.3971 69.0575L54.2367 69.2504L54.0281 69.2987L53.9799 69.3147C53.9318 69.3469 53.8195 69.4112 53.659 69.5076C53.643 69.5076 53.643 69.5076 53.643 69.5076C53.0172 69.4433 53.0011 69.3308 52.3914 69.2987L52.1507 74.7963C52.3593 74.8284 52.5518 74.8606 52.6 74.8766C52.6802 74.8927 52.7604 74.9088 52.7925 74.9088L52.9049 74.9409C53.2418 75.0374 53.643 75.0856 54.012 75.0695C54.7341 75.0535 55.1192 74.8284 55.5846 74.5712L55.7932 74.523L55.9857 74.4908L56.082 74.4748L56.1301 74.4587C55.376 74.9249 56.082 74.5069 56.772 74.089C57.3015 73.7675 57.831 73.446 57.7027 73.5263L57.7989 73.4138C58.1038 73.4138 58.521 73.4299 58.8419 73.4138C58.7777 73.5746 60.7996 73.012 60.8798 72.7869C61.2809 72.5297 61.6339 72.2404 61.65 72.2243C61.7142 72.1439 62.2437 71.9349 62.9337 71.4688C63.2386 71.4366 63.399 71.3884 63.5916 71.3562C64.2174 71.2437 65.9343 70.9544 66.865 70.6972C66.9773 70.6811 67.0896 70.649 67.1538 70.6329C67.1538 70.6329 67.1538 70.6329 67.1699 70.6329C67.2341 70.6168 67.555 70.5364 67.9882 70.3918C68.3894 70.2471 68.7584 70.0381 69.0152 69.8291L69.0473 69.8131L69.1435 69.7648L69.5287 69.6041L69.9138 69.4433L70.4593 68.3502C70.8926 67.1286 70.684 67.9484 70.9888 66.6945C71.0209 66.7106 71.053 66.7267 71.0851 66.7428C71.1974 66.8714 71.1974 66.8553 71.1814 66.8231C71.2135 66.8874 71.2937 67.016 71.4542 67.2893C71.5023 67.2572 71.8553 67.016 72.0158 66.9196L72.1281 66.8553C72.6095 66.791 73.0748 66.7267 73.9734 66.3891C74.1981 66.2927 74.4227 66.1801 74.6313 66.0676C74.9522 66.0837 75.3534 66.0998 75.8348 66.0194L76.1396 65.9712C76.1717 65.9551 76.268 65.939 76.3964 65.8908C76.605 65.8747 76.2199 65.8426 75.7064 65.8104C76.8778 65.6175 78.2417 65.4086 77.9208 65.4407L77.9689 65.4086C78.1936 65.1996 78.001 65.3925 78.5305 64.9424C79.0601 64.4119 79.3489 63.9136 79.5254 63.4635C80.071 63.4474 80.5523 63.4153 80.4079 63.4153L80.4721 63.3992L80.8733 63.2224C80.8893 63.2224 81.2905 63.0295 81.3867 62.9813C81.1942 63.1099 82.173 62.5955 82.526 62.0168C82.6383 61.856 82.7828 61.6149 82.8309 61.5184C83.0074 61.1809 83.1197 60.9398 83.216 60.6826C83.2641 60.6504 83.3444 60.57 83.3765 60.4897C83.4246 60.4897 83.4888 60.4897 83.5851 60.4736C83.553 60.5218 85.3822 60.2003 85.8155 59.2037C86.6017 57.8695 86.3129 57.8052 86.4252 57.3551C86.4734 56.8728 86.4413 56.7442 86.4252 56.5352C86.3931 56.2137 86.3931 55.9887 86.3931 55.8923C86.3931 55.9083 86.3931 55.9083 86.3931 55.8762V55.8601C86.3931 55.8762 86.3931 55.8762 86.3931 55.8923C86.3931 55.8601 86.3931 55.844 86.3931 55.8601C86.4413 55.7797 86.6338 55.5065 87.2596 54.9921C88.0619 54.4616 89.7147 52.7094 90.2121 51.6646C90.5812 51.0377 90.9342 50.4911 91.2872 49.4623C91.3193 48.9318 91.9772 48.4175 91.1428 46.3599C90.9342 45.8937 90.3405 45.3311 90.18 45.2346C90.1479 45.2186 90.0837 45.1703 90.0837 45.1543L89.7147 44.881L89.4419 44.672C89.3456 44.5434 89.2654 44.4309 89.2012 44.3184C89.4419 44.1898 89.2975 44.2058 89.1531 44.2541C88.9926 44.3023 88.8001 44.3344 89.1049 44.1898L88.9926 43.9808L88.7198 43.5789C88.4952 43.2574 88.415 43.2253 88.3026 43.0967C88.078 42.8716 87.8373 42.6787 87.5645 42.5019C87.4201 42.4055 87.388 42.3412 86.9547 42.1643L86.4092 41.9875C86.4092 41.9875 86.1845 41.9393 86.2006 41.9232H86.1845L86.1203 41.9071C86.1364 41.5856 86.0401 41.7785 86.0241 41.875L85.6711 41.7785L84.8527 41.5053C84.7083 41.457 84.5639 41.4088 84.3713 41.3606C84.3553 41.2642 84.1146 41.2642 84.0504 41.1195C83.8899 40.9909 83.6813 40.8301 83.4406 40.6533C83.4086 40.6051 83.3765 40.5729 83.3123 40.4765C83.1358 40.2514 82.9593 39.9782 82.7507 39.6888C82.7828 39.5441 82.7988 39.3834 82.8148 39.1905C82.7186 38.7886 83.2481 38.1296 82.0125 36.2649C81.5953 35.7505 80.777 35.3325 80.3758 35.3004C80.0389 35.2522 79.6858 35.2522 79.3328 35.2843C78.4503 35.4129 78.5947 35.5094 78.2096 35.638C77.1506 36.1202 76.5248 36.7793 76.0273 37.2776C75.8027 37.5026 75.6101 37.7116 75.4176 37.9206L75.209 38.1296C75.1769 38.1939 75.1127 38.1135 74.519 38.9333L74.1018 39.5763L73.5402 39.9299L73.4279 40.0103L72.7379 39.946C72.417 39.9299 72.2886 39.8978 71.8072 39.8817C71.1653 39.8978 70.6198 39.9782 70.4754 40.0103C70.2507 40.1389 70.1384 40.1228 70.0421 40.0746C69.994 39.9621 69.6891 40.0907 69.5447 39.7531C69.2398 39.4798 68.9028 39.1744 68.598 38.8529L68.4696 38.6279C68.3091 38.3546 68.3894 38.435 68.1808 38.0492C67.908 37.5348 67.7796 37.1972 67.4106 36.5703C67.4106 36.4417 67.4106 36.3613 67.4106 36.2488C67.3945 35.8148 67.3624 35.5094 67.3303 35.1879L67.2661 34.7056C67.2982 34.786 67.1859 34.4323 67.0736 34.0787C66.9131 33.6125 66.7687 33.1624 66.9131 33.6447L66.8971 33.5965L66.8329 33.5L66.7206 33.3071C66.512 32.9856 66.4959 32.8892 66.0466 32.2944C65.4208 31.6514 65.4529 31.6675 65.485 31.6996C65.469 31.6835 65.4369 31.6514 65.4048 31.6032C65.116 31.3138 64.7629 30.8798 64.5864 30.6548C64.5062 30.6387 64.6185 30.4619 64.3618 30.5744C64.5864 30.3815 64.4099 30.4619 64.442 30.4136C64.426 30.3976 64.2816 30.0118 64.2013 29.8349C63.8162 29.192 63.5916 28.0667 61.8907 27.2469C61.4093 27.0379 61.1847 26.9897 60.9921 26.9415L60.8477 26.7325L60.7354 26.5878L60.6872 26.5235L60.6551 26.4914C60.4144 26.3306 60.5268 26.3949 60.6391 26.4753C60.8477 26.6039 61.0402 26.7325 59.1949 25.4787L57.7989 25.1089C58.0396 25.2536 56.435 24.3695 55.8573 24.048L55.5525 23.8873C55.729 23.8873 55.055 23.839 54.349 23.7747C53.4023 23.6944 52.4235 23.5979 53.4665 23.7104L53.4344 23.7265L53.3541 23.7587L53.1937 23.8069L53.0011 23.8712C52.953 23.5015 52.8246 23.0674 52.6 22.5691C52.5037 22.3762 52.3914 22.2155 52.2951 22.0708C52.0705 21.7493 51.8458 21.5403 51.6212 21.3635C51.5249 21.2349 51.1879 20.7848 50.3054 19.6113L50.2412 19.5631L49.2303 18.9523C47.9306 18.1646 46.5987 17.3287 45.7001 16.6536L45.6039 16.5732C45.6039 16.5411 45.6199 16.5411 45.6039 16.5732C45.3953 16.3642 45.1225 16.091 44.9781 15.9945C44.5769 15.673 44.2399 15.448 43.8869 15.2068C43.5339 14.9979 43.213 14.805 42.8118 14.596C42.6032 14.4995 42.4428 14.4031 41.9293 14.2263C41.8009 14.2906 41.8651 14.2424 41.8491 14.1781C41.8491 14.1459 41.7849 14.0977 41.6084 14.0977C41.3837 14.0334 40.8703 14.1138 39.8112 14.4031Z" fill="white"/>
</g>
<g id="Group_3">
<path id="Vector_2" d="M40.9019 0.0161133C33.3281 0.0161133 25.979 3.16678 21.0368 8.19821C14.2333 14.821 11.6659 24.0801 12.1473 31.4585C12.5965 39.0297 15.6132 44.447 17.5067 47.9031C19.5285 51.3913 20.8924 53.1595 20.8764 53.1756C20.8924 53.1274 25.8346 60.779 35.8795 69.9095C37.1471 71.0347 38.4469 72.2403 39.8429 73.3977L41.977 75.1981L42.0412 75.2624L42.0733 75.2946C41.4475 75.0213 42.0091 75.2785 42.5868 75.5357C43.02 75.7286 43.4693 75.9376 43.357 75.8733L43.5174 75.9054L43.8223 75.9536C44.0149 75.9858 44.2716 76.034 44.4963 76.0822C44.9616 76.1626 45.5072 76.2591 46.0367 76.3234C47.1278 76.4359 48.3634 76.5645 50.0001 76.0662C50.6098 75.9697 51.6528 75.2142 52.1503 74.7319H52.391L52.6477 69.2344C52.1824 69.2183 51.8614 69.2183 51.38 69.2504L50.9949 69.2826L50.8184 69.2987H50.7222C50.4494 69.4433 50.5777 69.363 50.7061 69.2987C50.9308 69.1701 51.1714 69.0575 49.0213 70.1667L48.9892 70.1988L48.4757 70.7615C48.4597 70.7775 48.4436 70.7775 48.4436 70.7936C48.4276 70.7936 48.4115 70.8097 48.3634 70.8258C48.1387 70.9061 47.4167 70.9544 46.6143 70.8418C46.2132 70.7936 45.8281 70.7293 45.3788 70.6489C45.1862 70.6168 45.0418 70.6007 44.8493 70.5525L43.1644 69.1379C41.8005 68.0287 40.565 66.8553 39.3294 65.7783C29.7017 57.0014 25.1286 49.8963 25.0965 49.9285C25.0965 49.8963 23.8288 48.2406 21.9996 45.09C20.2345 41.9232 17.7153 37.2133 17.3783 31.1209C16.9932 25.0768 19.0631 17.5698 24.6311 12.1687C30.0226 6.71932 38.7838 3.97052 46.9192 6.36567C48.941 6.92829 50.8826 7.73204 52.6316 8.8412C53.466 9.43597 54.2202 9.98251 55.2151 10.8345C55.7446 11.2203 56.2099 11.7347 57.3011 12.2008C58.2959 12.7474 59.9968 12.6992 60.9917 12.233C62.9814 11.2685 63.6393 10.304 64.4095 9.80569C65.2279 9.21092 66.0944 8.66438 67.0411 8.19821C68.9987 7.23372 70.9242 6.4139 72.9461 6.06025C81.1777 4.2438 89.3612 7.87671 94.6244 13.4386C97.5448 16.4446 99.5666 19.9328 100.802 23.405L105.76 21.4439C104.252 17.2483 101.813 13.101 98.3952 9.56457C92.2816 2.98996 82.0763 -1.57529 71.9191 0.675183C69.3838 1.14135 66.9608 2.15407 64.7144 3.26323C63.5751 3.82585 62.4198 4.54922 61.3286 5.33688C60.3819 6.07633 59.5636 6.78362 59.1945 7.02474C58.6489 6.5425 56.8678 5.25651 55.4237 4.1795C53.1772 2.73276 50.7542 1.73612 48.2831 1.06098C45.8923 0.353685 43.373 0.0161133 40.9019 0.0161133Z" fill="white"/>
</g>
<g id="Group_4">
<path id="Vector_3" d="M100.835 23.3728C101.765 25.9769 102.231 28.565 102.295 30.9601C102.295 31.2655 102.311 31.5549 102.295 31.8442C102.231 36.7792 100.658 40.8301 99.3906 43.8039C99.1659 44.3344 98.9413 44.8166 98.7487 45.2828C97.9625 46.9063 97.1601 48.4495 96.3418 49.9284L101.268 51.9217C102.038 50.5714 102.776 49.1568 103.498 47.6619C103.787 46.9707 104.14 46.1991 104.509 45.331C105.873 42.1161 107.462 37.6794 107.59 31.9246V31.7317C107.622 28.4685 107.029 24.932 105.793 21.4277L100.835 23.3728Z" fill="white"/>
</g>
<g id="Group_5">
<path id="Vector_4" d="M80.7286 70.5847C74.3102 77.1593 67.9559 83.6536 59.291 89.328C68.8545 85.1325 76.1074 79.6188 83.3602 73.5104C89.554 67.9485 95.8762 61.4864 101.3 51.8575L96.3736 49.8643C91.5598 58.4804 86.056 64.7978 80.7286 70.5847Z" fill="white"/>
</g>
<path id="Vector_5" d="M3.45037 109.614C2.93689 109.518 2.4876 109.357 2.0704 109.116C1.6532 108.875 1.33228 108.554 1.07554 108.136C0.818799 107.718 0.69043 107.203 0.69043 106.544C0.69043 105.949 0.802752 105.355 1.0274 104.792C1.25204 104.229 1.58901 103.715 2.05435 103.265C2.51969 102.815 3.09735 102.445 3.78733 102.156C4.47732 101.866 5.31172 101.69 6.25844 101.641L6.09798 99.1497C6.45099 98.9729 6.78796 98.8122 7.10888 98.6514C7.4298 98.4907 7.70259 98.3621 7.94328 98.2335C8.23211 98.0888 8.5049 97.9602 8.76163 97.8477L8.23211 107.268H8.36048V109.727H4.97475C4.47732 109.759 3.96384 109.711 3.45037 109.614ZM6.09798 107.3L6.29053 104.053H5.92147C5.61659 104.053 5.29567 104.085 4.9587 104.165C4.60569 104.245 4.28476 104.358 3.99593 104.535C3.69106 104.696 3.45036 104.921 3.24177 105.178C3.04921 105.435 2.93689 105.756 2.93689 106.126C2.93689 106.303 2.96898 106.48 3.03316 106.625C3.09735 106.785 3.20967 106.914 3.33804 107.026C3.48246 107.139 3.65896 107.235 3.86756 107.3C4.07616 107.364 4.3329 107.396 4.63778 107.396L6.09798 107.3ZM4.55755 94.8417C4.55755 94.6809 4.58964 94.5363 4.65383 94.3916C4.71801 94.2469 4.79824 94.1344 4.89452 94.0219C4.99079 93.9093 5.10312 93.829 5.24753 93.7647C5.3759 93.7004 5.52032 93.6682 5.68078 93.6682C5.84124 93.6682 5.98565 93.7004 6.11402 93.7647C6.24239 93.829 6.37076 93.9093 6.46704 94.0219C6.56331 94.1344 6.64354 94.2469 6.70773 94.3916C6.77191 94.5363 6.80401 94.6809 6.80401 94.8417C6.80401 95.1632 6.69168 95.4364 6.48308 95.6615C6.27448 95.8865 6.0017 95.9991 5.69682 95.9991C5.3759 95.9991 5.11916 95.8865 4.91056 95.6615C4.66987 95.4364 4.55755 95.1632 4.55755 94.8417ZM7.28539 94.8417C7.28539 94.6809 7.31748 94.5363 7.38167 94.3916C7.44585 94.2469 7.52608 94.1344 7.62236 94.0219C7.71864 93.9093 7.84701 93.829 7.97537 93.7647C8.10374 93.7004 8.24816 93.6682 8.40862 93.6682C8.56908 93.6682 8.69745 93.7004 8.84186 93.7647C8.97023 93.829 9.0986 93.9093 9.19488 94.0219C9.29116 94.1344 9.37139 94.2469 9.43557 94.3916C9.49976 94.5363 9.53185 94.6809 9.53185 94.8417C9.53185 95.0024 9.49976 95.1471 9.43557 95.2918C9.37139 95.4365 9.29116 95.549 9.19488 95.6615C9.0986 95.7579 8.97023 95.8383 8.84186 95.9026C8.7135 95.9669 8.56908 95.9991 8.40862 95.9991C8.24816 95.9991 8.11979 95.9669 7.97537 95.9026C7.84701 95.8383 7.71864 95.7579 7.62236 95.6615C7.52608 95.565 7.44585 95.4365 7.38167 95.2918C7.31748 95.1471 7.28539 95.0024 7.28539 94.8417Z" fill="white"/>
<path id="Vector_6" d="M8.13574 109.759V107.3H11.9708L11.6498 100.42L13.5914 99.2461L14.0086 109.759H8.13574ZM8.69736 112.926C8.69736 112.765 8.72945 112.62 8.79363 112.476C8.85782 112.331 8.93805 112.218 9.03432 112.106C9.1306 111.993 9.24293 111.913 9.38734 111.865C9.51571 111.801 9.66012 111.768 9.82059 111.768C9.98105 111.768 10.1255 111.801 10.2538 111.865C10.3822 111.929 10.5106 112.01 10.6068 112.106C10.7031 112.218 10.7834 112.331 10.8475 112.476C10.9117 112.604 10.9438 112.765 10.9438 112.926C10.9438 113.247 10.8315 113.521 10.6229 113.746C10.4143 113.971 10.1415 114.083 9.83663 114.083C9.51571 114.083 9.25897 113.971 9.05037 113.746C8.80968 113.521 8.69736 113.247 8.69736 112.926ZM11.4092 112.926C11.4092 112.765 11.4412 112.62 11.5054 112.476C11.5696 112.331 11.6498 112.218 11.7461 112.106C11.8424 111.993 11.9708 111.913 12.0991 111.865C12.2275 111.801 12.3719 111.768 12.5324 111.768C12.6928 111.768 12.8212 111.801 12.9656 111.865C13.094 111.929 13.2224 112.01 13.3186 112.106C13.4149 112.218 13.4952 112.331 13.5593 112.476C13.6235 112.604 13.6556 112.765 13.6556 112.926C13.6556 113.087 13.6235 113.231 13.5593 113.376C13.4952 113.521 13.4149 113.633 13.3186 113.746C13.2224 113.842 13.094 113.922 12.9656 113.987C12.8373 114.051 12.6928 114.083 12.5324 114.083C12.3719 114.083 12.2275 114.051 12.0991 113.987C11.9708 113.922 11.8424 113.842 11.7461 113.746C11.6498 113.649 11.5696 113.521 11.5054 113.376C11.4412 113.231 11.4092 113.087 11.4092 112.926Z" fill="white"/>
<path id="Vector_7" d="M16.3034 107.3H30.0389C30.0389 107.123 30.0229 106.946 29.9747 106.801C29.9266 106.657 29.8624 106.512 29.7501 106.399C29.6378 106.287 29.5094 106.207 29.3489 106.142C29.1885 106.078 28.9799 106.046 28.7552 106.046H16.7206L17.6032 103.57H29.5896C29.9266 103.57 30.2636 103.651 30.5684 103.795C30.8733 103.94 31.1461 104.133 31.3868 104.39C31.6275 104.631 31.82 104.921 31.9645 105.242C32.1089 105.564 32.1731 105.901 32.1731 106.239V109.759H15.4209L16.3034 107.3Z" fill="white"/>
<path id="Vector_8" d="M34.2754 105.628C34.2754 105.113 34.3877 104.631 34.6124 104.197C34.821 103.763 35.1098 103.377 35.4628 103.056C35.8158 102.734 36.217 102.477 36.6663 102.284C37.1156 102.091 37.5809 101.995 38.0623 101.995L38.3672 102.011C39.0892 102.075 39.6829 102.268 40.1322 102.59C40.5815 102.927 40.9345 103.329 41.2073 103.827C41.4641 104.326 41.6406 104.872 41.7368 105.467C41.8331 106.062 41.8813 106.673 41.8813 107.3H41.9936V109.759H41.7529C41.7047 110.193 41.6245 110.611 41.5122 111.045C41.3999 111.479 41.2715 111.881 41.095 112.283C40.9185 112.685 40.7099 113.038 40.4692 113.376C40.2285 113.713 39.9397 114.019 39.6027 114.26C39.2657 114.517 38.8806 114.71 38.4634 114.855C38.0462 114.999 37.5488 115.064 37.0032 115.064C37.2279 114.935 37.5007 114.742 37.7734 114.469C38.0623 114.196 38.3351 113.842 38.5918 113.408C38.8485 112.974 39.0571 112.444 39.2336 111.849C39.4102 111.238 39.4904 110.547 39.4904 109.759H37.7895C37.2921 109.711 36.8267 109.582 36.4095 109.373C35.9763 109.164 35.6072 108.875 35.3023 108.537C34.9975 108.2 34.7407 107.798 34.5642 107.348C34.3877 106.898 34.2914 106.432 34.2914 105.917L34.2754 105.628ZM36.4256 105.869C36.4256 106.078 36.4577 106.287 36.5379 106.464C36.6181 106.657 36.7144 106.833 36.8428 106.978C36.9711 107.123 37.1316 107.251 37.2921 107.332C37.4686 107.428 37.6611 107.46 37.8537 107.46H39.5385V105.869C39.5385 105.66 39.5064 105.451 39.4262 105.258C39.346 105.065 39.2497 104.888 39.1213 104.744C38.993 104.599 38.8325 104.47 38.672 104.374C38.4955 104.278 38.303 104.245 38.0944 104.245H37.9981C37.7895 104.245 37.5969 104.278 37.4044 104.358C37.2118 104.438 37.0514 104.535 36.907 104.679C36.7625 104.808 36.6502 104.969 36.5539 105.162C36.4737 105.338 36.4256 105.531 36.4256 105.74V105.869Z" fill="white"/>
<path id="Vector_9" d="M41.7363 109.759V107.3H47.5611C47.0636 106.496 46.6625 105.74 46.3897 105.049C46.1169 104.358 45.9083 103.763 45.78 103.265C45.6195 102.67 45.5393 102.14 45.4911 101.657L47.9622 100.275V100.339C47.9622 100.355 47.9622 100.387 47.9622 100.42C47.9622 100.452 47.9622 100.484 47.9622 100.532C47.9622 100.725 47.9783 101.03 47.9943 101.448C48.0104 101.866 48.0906 102.365 48.2029 102.943C48.3152 103.522 48.4917 104.181 48.7324 104.921C48.9731 105.66 49.3101 106.448 49.7433 107.284H49.7594C50.1445 106.496 50.4654 105.789 50.7061 105.146C50.9468 104.503 51.1394 103.924 51.2677 103.41C51.3961 102.895 51.4924 102.445 51.5405 102.059C51.5887 101.673 51.6207 101.352 51.6207 101.079C51.6207 100.918 51.6207 100.773 51.6047 100.645C51.5887 100.532 51.5887 100.42 51.5726 100.339C51.5566 100.243 51.5245 100.162 51.5084 100.098L53.8993 101.352C53.9153 101.4 53.9314 101.448 53.9474 101.513C53.9635 101.577 53.9795 101.641 53.9795 101.722C53.9956 101.802 53.9956 101.915 53.9956 102.027C53.9956 102.236 53.9635 102.477 53.8993 102.799C53.8351 103.104 53.7388 103.474 53.5784 103.892C53.434 104.326 53.2254 104.808 52.9686 105.371C52.7119 105.933 52.3749 106.56 51.9898 107.251H54.6214V109.711H41.7363V109.759Z" fill="white"/>
<path id="Vector_10" d="M54.3809 107.3H57.9912L57.7185 102.702L59.66 101.561L60.0772 109.759H54.3809V107.3Z" fill="white"/>
<path id="Vector_11" d="M59.0342 109.759V107.3H61.7139L60.9918 101.529L63.1259 100.371L63.8641 107.3H65.3082L65.0033 100.387L67.0412 99.2139L67.4584 107.3H67.5707V109.759H59.0342Z" fill="white"/>
<path id="Vector_12" d="M67.3623 109.759V107.3H70.9566L70.5394 91.9803L72.6896 90.8069L73.1068 109.759H67.3623Z" fill="white"/>
<path id="Vector_13" d="M75.7225 91.9964L77.8726 90.8069L77.3431 107.364C77.3431 107.476 77.3271 107.573 77.3271 107.669V107.943C77.3271 108.377 77.3592 108.698 77.4394 108.891C77.5196 109.1 77.664 109.229 77.9047 109.277C77.5678 109.47 77.2468 109.614 76.958 109.711C76.6531 109.823 76.4124 109.872 76.2199 109.872C76.0113 109.872 75.8508 109.823 75.7225 109.727C75.5941 109.631 75.4978 109.47 75.4176 109.245C75.3374 109.036 75.2892 108.746 75.2571 108.409C75.225 108.071 75.209 107.653 75.209 107.187L75.7225 91.9964Z" fill="white"/>
<path id="Vector_14" d="M82.75 104.245C82.7339 104.454 82.7179 104.663 82.7019 104.856C82.7019 105.065 82.6858 105.258 82.6858 105.435C82.6858 106.062 82.75 106.64 82.8623 107.155C82.9907 107.669 83.1511 108.135 83.3597 108.537C83.5683 108.939 83.809 109.293 84.0979 109.598C84.3707 109.904 84.6755 110.145 84.9804 110.354C85.2853 110.547 85.6062 110.707 85.9111 110.804C86.232 110.9 86.5369 110.948 86.8257 110.948C86.9541 110.948 87.1306 110.916 87.3713 110.852C87.612 110.788 87.8687 110.691 88.1415 110.547C88.4143 110.402 88.6871 110.225 88.9598 110C89.2326 109.775 89.4573 109.486 89.6498 109.164C89.8424 108.827 89.9708 108.441 90.0349 108.007C90.0991 107.573 90.067 107.058 89.9387 106.496L89.1363 102.686L91.2865 101.561L92.2333 106.753C92.2333 108.794 91.8161 110.354 90.9656 111.431C90.1152 112.508 88.8636 113.054 87.2108 113.054C86.2801 113.054 85.4939 112.91 84.8199 112.62C84.1621 112.331 83.6004 111.929 83.1832 111.431C82.75 110.932 82.4451 110.37 82.2365 109.727C82.0279 109.084 81.9316 108.425 81.9316 107.734C81.9316 107.139 81.9958 106.544 82.1402 105.949C82.2847 105.354 82.4933 104.792 82.75 104.245Z" fill="white"/>
<path id="Vector_15" d="M91.1904 109.759V107.3H93.8862L94.3034 101.545L96.4536 100.371L96.0364 107.3H97.4966L98.0261 100.387L100.176 99.214L99.6467 107.3H99.7591V109.759H91.1904ZM92.8913 96.8671C92.8913 96.7064 92.9234 96.5617 92.9876 96.417C93.0518 96.2723 93.132 96.1598 93.2283 96.0473C93.3246 95.9348 93.4369 95.8544 93.5813 95.7901C93.7097 95.7258 93.8541 95.6936 94.0145 95.6936C94.175 95.6936 94.3194 95.7258 94.4478 95.7901C94.5762 95.8544 94.7045 95.9348 94.8008 96.0473C94.8971 96.1598 94.9773 96.2723 95.0415 96.417C95.1057 96.5617 95.1378 96.7064 95.1378 96.8671C95.1378 97.1886 95.0255 97.4619 94.8169 97.6869C94.6083 97.912 94.3355 98.0245 94.0306 98.0245C93.7097 98.0245 93.4529 97.912 93.2443 97.6869C93.0036 97.4619 92.8913 97.1886 92.8913 96.8671ZM94.3676 94.3755C94.3676 94.2469 94.3997 94.1022 94.4478 93.9897C94.4959 93.8611 94.5762 93.7647 94.6564 93.6682C94.7366 93.5718 94.8489 93.5075 94.9773 93.4432C95.1057 93.3949 95.218 93.3628 95.3624 93.3628C95.5068 93.3628 95.6352 93.3949 95.7475 93.4432C95.8598 93.4914 95.9722 93.5718 96.0524 93.6682C96.1326 93.7647 96.2129 93.8772 96.261 93.9897C96.3091 94.1183 96.3412 94.2469 96.3412 94.3755C96.3412 94.5202 96.3091 94.6488 96.261 94.7774C96.2129 94.906 96.1326 95.0185 96.0524 95.0989C95.9722 95.1953 95.8598 95.2596 95.7475 95.3078C95.6352 95.3561 95.5068 95.3882 95.3624 95.3882C95.2341 95.3882 95.1057 95.3561 94.9773 95.3078C94.8489 95.2596 94.7527 95.1792 94.6564 95.0989C94.5762 95.0024 94.4959 94.906 94.4478 94.7774C94.3997 94.6488 94.3676 94.5202 94.3676 94.3755ZM95.6192 96.8671C95.6192 96.7064 95.6512 96.5617 95.7154 96.417C95.7796 96.2723 95.8598 96.1598 95.9561 96.0473C96.0524 95.9348 96.1808 95.8544 96.3091 95.7901C96.4375 95.7258 96.5819 95.6936 96.7424 95.6936C96.9028 95.6936 97.0312 95.7258 97.1756 95.7901C97.304 95.8544 97.4324 95.9348 97.5287 96.0473C97.6249 96.1598 97.7052 96.2723 97.7693 96.417C97.8335 96.5617 97.8656 96.7064 97.8656 96.8671C97.8656 97.0279 97.8335 97.1725 97.7693 97.3172C97.7052 97.4619 97.6249 97.5744 97.5287 97.6869C97.4324 97.7834 97.304 97.8637 97.1756 97.928C97.0473 97.9923 96.9028 98.0245 96.7424 98.0245C96.5819 98.0245 96.4536 97.9923 96.3091 97.928C96.1808 97.8637 96.0524 97.7834 95.9561 97.6869C95.8598 97.5905 95.7796 97.4619 95.7154 97.3172C95.6512 97.1725 95.6192 97.0279 95.6192 96.8671Z" fill="white"/>
<path id="Vector_16" d="M99.5186 109.759V107.3H103.626L102.632 102.043L104.653 100.87L105.696 107.3H105.809V109.759H99.5186ZM100.321 112.878C100.321 112.717 100.353 112.572 100.417 112.427C100.481 112.283 100.562 112.17 100.658 112.058C100.754 111.945 100.866 111.865 101.011 111.801C101.139 111.736 101.284 111.704 101.444 111.704C101.605 111.704 101.749 111.736 101.877 111.801C102.006 111.865 102.134 111.945 102.23 112.058C102.327 112.154 102.407 112.283 102.471 112.427C102.535 112.556 102.567 112.717 102.567 112.878C102.567 113.199 102.455 113.472 102.246 113.697C102.038 113.922 101.765 114.035 101.46 114.035C101.139 114.035 100.882 113.922 100.674 113.697C100.417 113.472 100.321 113.199 100.321 112.878ZM103.033 112.878C103.033 112.717 103.065 112.572 103.129 112.427C103.193 112.283 103.273 112.17 103.37 112.058C103.466 111.945 103.594 111.865 103.723 111.801C103.851 111.736 103.995 111.704 104.156 111.704C104.316 111.704 104.445 111.736 104.589 111.801C104.718 111.865 104.846 111.945 104.942 112.058C105.038 112.154 105.119 112.283 105.183 112.427C105.247 112.556 105.279 112.717 105.279 112.878C105.279 113.038 105.247 113.183 105.183 113.328C105.119 113.472 105.038 113.585 104.942 113.697C104.846 113.794 104.718 113.874 104.589 113.938C104.461 114.003 104.316 114.035 104.156 114.035C103.995 114.035 103.867 114.003 103.723 113.938C103.594 113.874 103.466 113.794 103.37 113.697C103.273 113.601 103.193 113.472 103.129 113.328C103.065 113.183 103.033 113.038 103.033 112.878Z" fill="white"/>
<path id="Vector_17" d="M105.6 107.3H113.88C113.414 107.123 112.981 106.914 112.548 106.673C112.115 106.416 111.746 106.142 111.425 105.837C111.104 105.531 110.847 105.194 110.655 104.824C110.462 104.454 110.366 104.069 110.366 103.667C110.366 103.281 110.478 102.895 110.703 102.509C110.927 102.124 111.232 101.754 111.633 101.432C112.035 101.111 112.5 100.838 113.045 100.613C113.591 100.387 114.185 100.259 114.827 100.195L119.175 101.545C118.469 101.545 117.763 101.625 117.057 101.77C116.351 101.915 115.725 102.124 115.164 102.381C114.602 102.638 114.153 102.927 113.8 103.265C113.447 103.586 113.27 103.94 113.27 104.294C113.27 104.663 113.398 105.017 113.655 105.355C113.912 105.692 114.249 106.014 114.682 106.287C115.115 106.56 115.597 106.785 116.158 106.962C116.72 107.139 117.282 107.251 117.875 107.316H118.983L120.715 109.775H105.584V107.3H105.6Z" fill="white"/>
<path id="Vector_18" d="M28.7552 118.295H26.7334V128.084H28.7552V118.295Z" fill="white"/>
<path id="Vector_19" d="M32.4779 119.468C32.4779 120.047 32.0607 120.513 31.3867 120.513C30.7449 120.513 30.3438 120.047 30.3438 119.468C30.3438 118.873 30.777 118.423 31.4188 118.423C32.0607 118.423 32.4618 118.873 32.4779 119.468ZM30.3919 121.333H32.4137V128.068H30.3919V121.333Z" fill="white"/>
<path id="Vector_20" d="M35.5269 121.333L36.4094 124.468C36.5699 125.046 36.6822 125.577 36.7785 126.107H36.8106C36.9229 125.561 37.0192 125.046 37.1636 124.468L37.998 121.333H40.1161L37.6931 128.068H35.6713L33.3125 121.333H35.5269Z" fill="white"/>
<path id="Vector_21" d="M42.4265 125.384C42.4747 126.252 43.309 126.67 44.2558 126.67C44.9458 126.67 45.5074 126.573 46.0529 126.38L46.3257 127.795C45.6678 128.084 44.8495 128.229 43.9669 128.229C41.7686 128.229 40.501 126.911 40.501 124.805C40.501 123.101 41.5279 121.204 43.7904 121.204C45.8925 121.204 46.6948 122.892 46.6948 124.564C46.6948 124.918 46.6627 125.239 46.6306 125.384H42.4265ZM44.8013 123.937C44.8013 123.423 44.5927 122.571 43.6621 122.571C42.8116 122.571 42.4586 123.391 42.4105 123.937H44.8013Z" fill="white"/>
<path id="Vector_22" d="M47.8666 126.252C48.2356 126.493 49.0058 126.75 49.5995 126.75C50.2093 126.75 50.466 126.541 50.466 126.204C50.466 125.85 50.2735 125.673 49.5193 125.416C48.1554 124.95 47.6419 124.194 47.658 123.39C47.658 122.121 48.701 121.172 50.3056 121.172C51.0597 121.172 51.7337 121.365 52.1188 121.574L51.7818 123.021C51.493 122.86 50.9153 122.635 50.3697 122.635C49.8723 122.635 49.5995 122.844 49.5995 123.165C49.5995 123.503 49.8563 123.664 50.6425 123.953C51.8781 124.387 52.3755 125.062 52.3916 126.027C52.3916 127.297 51.4448 128.213 49.5835 128.213C48.733 128.213 47.9789 128.004 47.4814 127.731L47.8666 126.252Z" fill="white"/>
<path id="Vector_23" d="M59.0664 126.445C59.0664 127.072 59.0985 127.698 59.1787 128.068H57.3494L57.2371 127.393H57.189C56.7557 127.924 56.0978 128.213 55.3276 128.213C54.0118 128.213 53.2256 127.216 53.2256 126.139C53.2256 124.387 54.7339 123.567 57.0446 123.567V123.487C57.0446 123.117 56.852 122.603 55.8572 122.603C55.1993 122.603 54.4932 122.844 54.06 123.117L53.6909 121.767C54.1402 121.51 55.0388 121.156 56.2102 121.156C58.3764 121.156 59.0503 122.474 59.0503 124.082V126.445H59.0664ZM57.1088 124.901C56.0497 124.901 55.2153 125.159 55.2153 125.962C55.2153 126.493 55.5683 126.766 56.0176 126.766C56.515 126.766 56.9322 126.429 57.0606 125.995C57.0927 125.882 57.1088 125.753 57.1088 125.641V124.901Z" fill="white"/>
<path id="Vector_24" d="M66.7848 125.914C66.7848 126.798 66.8169 127.506 66.8329 128.084H65.0839L64.9876 127.136H64.9395C64.6827 127.554 64.073 128.245 62.9016 128.245C61.5698 128.245 60.623 127.393 60.623 125.303V121.349H62.6449V124.966C62.6449 125.946 62.9497 126.541 63.6718 126.541C64.2334 126.541 64.5544 126.139 64.6827 125.818C64.7309 125.689 64.763 125.544 64.763 125.368V121.365H66.7848V125.914Z" fill="white"/>
<path id="Vector_25" d="M74.7115 118.295V126.059C74.7115 126.814 74.7436 127.618 74.7596 128.068H72.9624L72.8822 127.088H72.8501C72.449 127.827 71.6467 128.213 70.8123 128.213C69.2718 128.213 68.0363 126.846 68.0363 124.757C68.0202 122.49 69.3842 121.156 70.9406 121.156C71.7429 121.156 72.3687 121.461 72.6576 121.912H72.6897V118.295H74.7115ZM72.6897 124.194C72.6897 124.082 72.6897 123.937 72.6576 123.808C72.5452 123.262 72.0959 122.796 71.4701 122.796C70.5395 122.796 70.0741 123.648 70.0741 124.709C70.0741 125.85 70.6197 126.573 71.4541 126.573C72.0318 126.573 72.5131 126.155 72.6415 125.561C72.6736 125.416 72.6736 125.239 72.6736 125.078V124.194H72.6897Z" fill="white"/>
<path id="Vector_26" d="M78.4183 119.468C78.4183 120.047 78.0011 120.513 77.3272 120.513C76.6853 120.513 76.2842 120.047 76.2842 119.468C76.2842 118.873 76.7174 118.423 77.3593 118.423C78.0011 118.423 78.4023 118.873 78.4183 119.468ZM76.3323 121.333H78.3541V128.068H76.3323V121.333Z" fill="white"/>
<path id="Vector_27" d="M79.8135 126.959C79.8135 126.203 80.3108 125.673 81.0006 125.673C81.6905 125.673 82.1718 126.187 82.1878 126.959C82.1878 127.682 81.7065 128.228 80.9846 128.228C80.3108 128.228 79.8135 127.698 79.8135 126.959Z" fill="white"/>
<path id="Vector_28" d="M83.4085 126.252C83.7776 126.493 84.5478 126.75 85.1415 126.75C85.7513 126.75 86.008 126.541 86.008 126.204C86.008 125.85 85.8155 125.673 85.0613 125.416C83.6974 124.95 83.1839 124.194 83.1999 123.39C83.1999 122.121 84.2429 121.172 85.8476 121.172C86.6017 121.172 87.2757 121.365 87.6608 121.574L87.3238 123.021C87.035 122.86 86.4573 122.635 85.9117 122.635C85.4143 122.635 85.1415 122.844 85.1415 123.165C85.1415 123.503 85.3983 123.664 86.1845 123.953C87.4201 124.387 87.9175 125.062 87.9335 126.027C87.9335 127.297 86.9868 128.213 85.1255 128.213C84.275 128.213 83.5209 128.004 83.0234 127.731L83.4085 126.252Z" fill="white"/>
<path id="Vector_29" d="M94.5923 126.445C94.5923 127.072 94.6244 127.698 94.7046 128.068H92.8914L92.7791 127.393H92.731C92.3138 127.924 91.6398 128.213 90.8696 128.213C89.5538 128.213 88.7676 127.216 88.7676 126.139C88.7676 124.387 90.2759 123.567 92.5866 123.567V123.487C92.5866 123.117 92.394 122.603 91.3991 122.603C90.7413 122.603 90.0352 122.844 89.602 123.117L89.2329 121.767C89.6822 121.51 90.5808 121.156 91.7522 121.156C93.9184 121.156 94.5923 122.474 94.5923 124.082V126.445ZM92.6347 124.901C91.5757 124.901 90.7413 125.159 90.7413 125.962C90.7413 126.493 91.0943 126.766 91.5436 126.766C92.041 126.766 92.4582 126.429 92.5866 125.995C92.6186 125.882 92.6347 125.753 92.6347 125.641V124.901Z" fill="white"/>
</g>
</svg>
