<svg width="74" height="118" viewBox="0 0 74 118" fill="none" xmlns="http://www.w3.org/2000/svg">
<g id="Group 1000005358">
<g id="Group 1000005361">
<g id="Group 1000005360">
<path id="Vector" d="M56.9485 35.1158C56.3882 34.2614 55.5276 33.6751 54.5244 33.4652C53.5194 33.255 52.4958 33.4465 51.6368 34.0031C41.3903 40.6519 31.4185 40.6509 21.1527 34.0021C20.2936 33.4456 19.2673 33.254 18.265 33.4661C17.2618 33.677 16.4021 34.2642 15.8428 35.1186C15.2834 35.9733 15.0918 36.9936 15.304 37.9917C15.516 38.9899 16.1061 39.8452 16.9649 40.4018C23.3802 44.5572 29.9204 46.6635 36.4035 46.6635C42.8879 46.6635 49.423 44.5562 55.8292 40.3999C56.6879 39.8425 57.2768 38.9862 57.4881 37.988C57.7004 36.9908 57.5088 35.9706 56.9485 35.1158Z" fill="white"/>
<path id="Vector_2" d="M72.8915 44.1876L69.3284 14.6336C68.3702 6.67658 61.5722 0.674072 53.5164 0.674072H19.4849C11.429 0.674072 4.63107 6.67658 3.67252 14.6336L0.113081 44.1876C-0.428412 48.6829 0.991545 53.2039 4.01319 56.59C7.03113 59.9786 11.3739 61.9192 15.9254 61.9192H57.0795C61.6271 61.9192 65.9701 59.9786 68.9917 56.59C72.0094 53.2048 73.4333 48.6838 72.8915 44.1876ZM63.1311 51.454C61.5137 53.267 59.2821 54.2643 56.8497 54.2643H16.1561C13.72 54.2643 11.4875 53.267 9.87474 51.454C8.25735 49.6412 7.52981 47.3191 7.81811 44.9127L11.3375 15.69C11.843 11.4967 15.4274 8.32927 19.6755 8.32927H53.3266C57.5736 8.32927 61.1592 11.4958 61.6643 15.69L65.1874 44.9127C65.476 47.3191 64.7436 49.6412 63.1311 51.454Z" fill="white"/>
</g>
<g id="Group 1000005357">
<g id="Group 1000005356">
<g id="Group 1000005359">
<path id="Vector_3" d="M23.632 75.2679C24.8734 75.2679 25.8951 74.3717 25.8951 73.1125C25.8951 71.7811 24.8241 70.957 23.632 70.957C22.3906 70.957 21.3438 71.8042 21.3438 73.1125C21.3438 74.4448 22.4632 75.2679 23.632 75.2679Z" fill="white"/>
<path id="Vector_4" d="M18.5168 75.2679C19.7581 75.2679 20.7799 74.3717 20.7799 73.1125C20.7799 71.7811 19.7088 70.957 18.5168 70.957C17.2754 70.957 16.2285 71.8042 16.2285 73.1125C16.2285 74.4448 17.348 75.2679 18.5168 75.2679Z" fill="white"/>
<path id="Vector_5" d="M61.4556 82.0564L57.8152 83.3045C58.2125 84.5831 58.7019 86.4089 58.7019 87.4737C58.7019 88.6301 57.9676 89.3301 56.5606 89.3301C55.1231 89.3301 54.2668 88.9949 54.2668 87.108V83.8516H50.4126V87.108C50.4126 88.9949 49.5563 89.3301 48.0264 89.3301C46.5273 89.3301 45.6713 88.9949 45.6713 87.108V83.8516H41.7863V87.0774C41.7863 88.9949 40.7458 89.3292 38.5133 89.3292C36.2195 89.3292 35.4239 88.8727 35.4239 86.3765V72.4087H31.3555V86.5913C31.3555 88.9042 30.5598 89.3301 28.2669 89.3301H28.266C26.4607 89.3301 25.3915 88.9662 25.3915 86.683V76.2122H21.5669V78.3751C14.3168 79.8639 11.7178 82.8776 11.7178 86.6525C11.7178 90.2421 14.1028 92.5568 17.5896 92.5568C20.1915 92.5568 21.5045 91.2476 22.0871 89.4819C22.6072 92.617 24.4395 94.4411 28.0157 94.4429L28.0212 94.4438C30.7441 94.4438 32.2729 93.2262 32.9151 91.3698C33.7107 93.4392 35.5151 94.4438 38.2678 94.4438C40.8062 94.4438 42.4581 93.5308 43.1 91.6439C43.7422 93.5614 45.2721 94.4438 47.4439 94.4438C49.6161 94.4438 51.1152 93.5308 51.7263 91.6133C52.3685 93.5308 53.9292 94.4438 56.4371 94.4438C60.23 94.4438 62.5546 91.9781 62.5546 87.5042C62.5565 85.8608 62.0975 83.6082 61.4556 82.0564ZM21.5678 86.5599C20.9573 87.0469 19.7932 87.4135 18.08 87.4135C16.5195 87.4135 14.9608 86.9886 14.9608 85.9525C14.9608 84.8248 16.5809 83.6998 21.5669 82.8776V86.5599H21.5678Z" fill="white"/>
</g>
<g id="Group 1000005355">
<path id="Vector_6" d="M5.4082 116.234L6.01028 112.98C7.18744 113.813 9.28119 114.568 11.0335 114.568C12.5512 114.568 13.4408 114.073 13.4408 113.24C13.4408 110.975 5.53941 113.083 5.53941 107.591C5.53941 104.728 7.92072 102.854 11.7667 102.854C13.8335 102.854 15.744 103.427 17.1044 104.129L16.4503 107.305C15.1679 106.628 13.546 106.003 11.9761 106.003C10.5375 106.003 9.64786 106.55 9.64786 107.331C9.64786 109.7 17.5493 107.67 17.5493 112.797C17.5493 115.609 14.8544 117.587 10.8771 117.587C8.49581 117.588 6.58536 116.885 5.4082 116.234Z" fill="white"/>
<path id="Vector_7" d="M30.7864 103.322H34.92V117.197H30.7864V114.907C29.6614 116.572 28.0655 117.536 25.9987 117.536C22.4923 117.536 19.1172 115.063 19.1172 110.247C19.1172 105.43 22.3351 102.906 25.9987 102.906C28.0394 102.906 29.6353 103.66 30.7864 105.17V103.322ZM30.7864 110.195C30.028 107.617 28.5103 106.316 26.7832 106.316C24.9258 106.316 23.4862 107.696 23.4862 110.195C23.4862 112.668 24.9509 114.126 26.8092 114.126C28.6154 114.125 30.1062 112.537 30.7864 110.195Z" fill="white"/>
<path id="Vector_8" d="M37.9551 117.197V98.8962H42.0887V117.197H37.9551Z" fill="white"/>
<path id="Vector_9" d="M45.125 117.197V98.8962H49.2586V117.197H45.125Z" fill="white"/>
<path id="Vector_10" d="M63.2825 103.322H67.4161V117.197H63.2825V114.907C62.1576 116.572 60.5615 117.536 58.4947 117.536C54.9885 117.536 51.6133 115.063 51.6133 110.247C51.6133 105.43 54.8311 102.906 58.4947 102.906C60.5356 102.906 62.1314 103.66 63.2825 105.17V103.322ZM63.2825 110.195C62.5242 107.617 61.0066 106.316 59.2792 106.316C57.4219 106.316 55.9822 107.696 55.9822 110.195C55.9822 112.668 57.4471 114.126 59.3054 114.126C61.1107 114.125 62.6024 112.537 63.2825 110.195Z" fill="white"/>
</g>
</g>
</g>
</g>
</g>
</svg>
