<svg width="96" height="147" viewBox="0 0 96 147" fill="none" xmlns="http://www.w3.org/2000/svg">
<g id="Group">
<path id="Vector" d="M77.1101 134.427L72.6143 146.108H74.6794L75.2094 144.753C75.2094 144.753 75.6663 143.472 77.0187 143.472H80.7287L81.5328 146.09H83.4883L79.1935 134.427H77.1101ZM77.2746 141.842C76.2694 141.842 75.9587 142.227 75.9587 142.227L78.0787 136.789L79.9977 141.824H77.2746V141.842Z" fill="white"/>
<path id="Vector_2" d="M47.9243 134.427C47.2846 138.748 45.6764 143.838 45.6764 143.838L45.6581 143.893L45.6215 143.838C45.6215 143.838 44.2509 140.725 43.6112 136.405H41.5643C40.6871 140.469 39.5357 143.838 39.5357 143.838L39.5174 143.893L39.4992 143.838C39.4992 143.838 37.8909 138.748 37.2513 134.427H35.2227C35.7527 139.169 38.5488 146.126 38.5488 146.126H40.5043C40.5043 146.126 41.674 142.886 42.5878 139.499C43.5016 142.904 44.6895 146.126 44.6895 146.126H46.645C46.645 146.126 49.4412 139.151 49.9712 134.427H47.9243Z" fill="white"/>
<path id="Vector_3" d="M54.3207 134.427L49.8066 146.108H51.8718L52.4018 144.753C52.4018 144.753 52.8587 143.472 54.1928 143.472H57.9028L58.7069 146.09H60.699L56.4042 134.427H54.3207ZM54.4852 141.842C53.4801 141.842 53.1876 142.227 53.1876 142.227L55.3076 136.789L57.2266 141.824H54.4852V141.842Z" fill="white"/>
<path id="Vector_4" d="M16.5808 134.427L12.085 146.108H14.1501L14.6618 144.753C14.6618 144.753 15.1187 143.472 16.4711 143.472H20.1811L20.9852 146.09H22.9773L18.6642 134.427H16.5808ZM16.727 141.842C15.7218 141.842 15.4294 142.227 15.4294 142.227L17.5494 136.789L19.4684 141.824H16.727V141.842Z" fill="white"/>
<path id="Vector_5" d="M25.9566 134.482L24.0742 135.141V146.181H31.4759V144.57H25.9566V134.482Z" fill="white"/>
<path id="Vector_6" d="M54.4848 119.213C56.1113 119.213 56.952 119.854 56.952 119.854V115.24C56.952 112.365 54.5944 110.516 51.1769 110.516C48.5635 110.516 45.5114 111.706 45.5114 111.706L46.4618 108.301C46.4618 108.301 48.8193 107.367 51.9079 107.367C55.2889 107.367 60.2416 108.704 60.2416 114.855V121.483L58.1765 122.783C58.1765 122.783 57.5186 122.27 55.3437 122.27C55.1244 122.27 12.67 122.27 12.67 122.27C10.4586 122.27 9.45343 120.842 9.45343 118.645V110.974C7.95482 111.377 3.14831 112.86 3.14831 115.807C3.14831 118.609 5.96277 119.542 8.99653 119.542L7.05931 122.289C3.78795 122.289 0.00488281 120.439 0.00488281 115.991C0.00488281 108.923 9.14274 108.374 10.5317 106.598L12.3775 107.935V119.231H54.4848V119.213ZM92.5714 102.644V122.289H95.5686V101.875L92.5714 102.644ZM82.4649 122.27L82.4284 122.527C81.807 126.207 79.7601 128.074 76.3243 128.074H75.8491L74.9719 124.87C75.2095 124.888 75.5201 124.925 75.8674 124.925C78.4077 124.925 79.1936 123.698 79.4129 122.655L79.5042 122.215L79.0656 122.289C79.0656 122.289 78.5539 122.362 77.7681 122.362C74.8988 122.362 70.0923 121.465 70.0923 115.368C70.0923 109.528 74.8257 107.99 77.3294 107.99C80.2718 107.99 82.0811 108.447 82.6477 108.631V119.231L86.2114 119.213V102.662L89.3731 101.838V118.59C89.3731 121.739 88.5873 122.289 85.2063 122.289H84.9504L82.4649 122.27ZM79.486 111.468L79.2301 111.413C78.9194 111.359 77.896 111.249 77.0919 111.285C75.1729 111.413 73.126 112.549 73.126 115.313C73.126 117.492 74.6429 119.195 76.8177 119.195H79.486V111.468ZM64.3354 122.27H67.3326V101.875L64.3354 102.644V122.27ZM11.7013 105.72C12.6151 105.72 13.3462 104.969 13.3462 104.072C13.3462 103.156 12.6151 102.424 11.7013 102.424C10.7876 102.424 10.0383 103.175 10.0383 104.072C10.0383 104.987 10.7876 105.72 11.7013 105.72ZM7.35172 105.72C8.26551 105.72 8.99653 104.969 8.99653 104.072C8.99653 103.156 8.24723 102.424 7.35172 102.424C6.43793 102.424 5.70691 103.175 5.70691 104.072C5.70691 104.987 6.43793 105.72 7.35172 105.72Z" fill="white"/>
<path id="Vector_7" d="M63.4948 15.807C63.4948 7.12882 56.4586 0.0800781 47.7959 0.0800781V31.5339C47.7777 22.8557 54.8138 15.807 63.4948 15.807Z" fill="white"/>
<path id="Vector_8" d="M47.7779 31.5339V0.0800781C39.1153 0.0800781 32.0791 7.12882 32.0791 15.807C40.7601 15.807 47.7779 22.8557 47.7779 31.5339Z" fill="white"/>
<path id="Vector_9" d="M16.3799 62.9877C16.3799 71.6658 23.416 78.7146 32.0787 78.7146V47.2607C32.0787 55.9572 25.0608 62.9877 16.3799 62.9877Z" fill="white"/>
<path id="Vector_10" d="M47.7779 62.9877C39.1153 62.9877 32.0791 55.9389 32.0791 47.2607V78.7329C32.0791 70.0364 39.1153 62.9877 47.7779 62.9877Z" fill="white"/>
<path id="Vector_11" d="M47.7773 62.9877C56.44 62.9877 63.4762 70.0364 63.4762 78.7146V47.2607C63.4945 55.9572 56.4583 62.9877 47.7773 62.9877Z" fill="white"/>
<path id="Vector_12" d="M63.4951 47.2607V78.7146C72.1578 78.7146 79.194 71.6658 79.194 62.9877C70.513 63.006 63.4951 55.9572 63.4951 47.2607Z" fill="white"/>
<path id="Vector_13" d="M47.7779 31.5338C39.1153 31.5338 32.0791 24.4851 32.0791 15.8069V47.2607C32.0791 38.5825 39.1153 31.5338 47.7779 31.5338Z" fill="white"/>
<path id="Vector_14" d="M32.0787 47.2607V15.8069C23.416 15.8069 16.3799 22.8556 16.3799 31.5338C25.0608 31.5338 32.0787 38.5825 32.0787 47.2607Z" fill="white"/>
<path id="Vector_15" d="M47.7773 31.5338C56.44 31.5338 63.4762 38.5825 63.4762 47.2607V15.8069C63.4945 24.4851 56.4583 31.5338 47.7773 31.5338Z" fill="white"/>
<path id="Vector_16" d="M79.194 31.5338C79.194 22.8556 72.1578 15.8069 63.4952 15.8069V47.2607C63.4769 38.5825 70.513 31.5338 79.194 31.5338Z" fill="white"/>
<path id="Vector_17" d="M32.0791 47.2609C40.7418 47.2609 47.7779 54.3096 47.7779 62.9878V31.5339C47.7779 40.2304 40.7601 47.2609 32.0791 47.2609Z" fill="white"/>
<path id="Vector_18" d="M47.7773 31.5339V62.9878C47.7773 54.3096 54.8135 47.2609 63.4762 47.2609C54.8135 47.2609 47.7773 40.2304 47.7773 31.5339Z" fill="white"/>
<path id="Vector_19" d="M32.0791 78.733C32.0791 87.4112 39.1153 94.46 47.7779 94.46V62.9878C47.7779 71.6843 40.7601 78.733 32.0791 78.733Z" fill="white"/>
<path id="Vector_20" d="M47.7773 62.9878V94.4416C56.44 94.4416 63.4762 87.4112 63.4762 78.7147C54.8135 78.733 47.7773 71.6843 47.7773 62.9878Z" fill="white"/>
<path id="Vector_21" d="M0.680664 47.2609C0.680664 55.939 7.69854 62.9878 16.3795 62.9878V31.5339C7.69854 31.5339 0.680664 38.5827 0.680664 47.2609Z" fill="white"/>
<path id="Vector_22" d="M32.0787 47.2609C23.416 47.2609 16.3799 40.2121 16.3799 31.5339V63.0061C16.3799 54.3096 23.416 47.2609 32.0787 47.2609Z" fill="white"/>
<path id="Vector_23" d="M63.4951 47.2609C72.1578 47.2609 79.194 54.3096 79.194 62.9878V31.5339C79.194 40.2304 72.1578 47.2609 63.4951 47.2609Z" fill="white"/>
<path id="Vector_24" d="M79.1934 31.5339V62.9878C87.856 62.9878 94.8922 55.939 94.8922 47.2609C94.8922 38.5827 87.856 31.5339 79.1934 31.5339Z" fill="white"/>
</g>
</svg>
