<svg width="118" height="118" viewBox="0 0 118 118" fill="none" xmlns="http://www.w3.org/2000/svg">
<g id="Group 1000005362">
<g id="Group">
<path id="Vector" d="M59.0967 24.9731C58.4762 24.9879 58.0921 25.372 57.9443 25.5493C51.1631 33.5421 47.6173 42.2587 46.5831 45.0215C45.3569 45.0806 42.9635 45.2283 39.92 45.6715C34.3798 46.4693 29.1793 47.8876 24.4516 49.7787C24.2448 49.8673 23.7425 50.1481 23.5504 50.739C23.4913 50.872 23.4766 51.0345 23.4766 51.1675C23.4766 51.5664 23.6391 51.8766 23.7129 52.0096C29.2384 60.9035 36.4481 66.9609 38.7972 68.8076C38.4426 69.9748 37.8517 72.2795 37.3346 75.3525C36.6698 79.2824 36.3299 83.1532 36.3299 86.8762C36.3299 88.3684 36.3743 89.831 36.4925 91.2789C36.5072 91.4857 36.5959 92.0619 37.0982 92.4313C37.6005 92.8006 38.1619 92.712 38.3835 92.6529C43.259 91.4709 48.2083 89.5799 53.1132 87.0387C55.9646 85.5761 58.033 84.2612 59.0819 83.5669C60.1013 84.2465 62.1106 85.5023 64.8586 86.9501C69.7931 89.5356 74.8162 91.4709 79.7803 92.6824C79.9724 92.7415 80.5486 92.8302 81.0509 92.4608C81.0656 92.446 81.0656 92.446 81.0656 92.4313C81.5532 92.0767 81.6418 91.53 81.6714 91.2937C81.7896 89.8163 81.8339 88.3684 81.8339 86.9353C81.8339 78.396 80.061 71.334 79.3814 68.8815C80.3417 68.128 82.1737 66.5915 84.3898 64.4345C88.4083 60.5342 91.7916 56.3531 94.4657 52.0244C94.5543 51.8766 94.7168 51.5664 94.7168 51.1675C94.7168 51.0345 94.7021 50.9015 94.6577 50.7242H94.643C94.4509 50.1333 93.9486 49.8821 93.7417 49.8083C84.05 45.8636 74.639 45.1692 71.6546 45.051C71.2409 43.8986 70.3693 41.6825 68.9805 38.905C66.4985 33.9262 63.5584 29.4053 60.2786 25.5346C60.1309 25.3868 59.732 24.9731 59.0967 24.9731Z" fill="white"/>
</g>
<g id="Group_2">
<g id="Clip path group">
<mask id="mask0_124_1410" style="mask-type:luminance" maskUnits="userSpaceOnUse" x="24" y="25" width="70" height="67">
<g id="SVGID_2_">
<path id="Vector_2" d="M49.8491 66.37C47.9432 66.9757 43.7769 68.0985 39.7436 69.1475C38.9754 71.8955 36.7002 81.0258 37.4684 91.4415C37.4684 91.4858 37.5128 91.6335 37.5719 91.6779C37.6457 91.7369 37.7935 91.737 37.8526 91.737C48.0614 89.2106 56.0985 84.2022 58.418 82.6657C58.1668 78.4994 57.96 74.2297 57.96 72.2648C57.96 72.2648 57.9157 69.3986 56.9258 68.7929C55.7587 68.7338 54.0597 70.9795 54.0597 70.9795C51.7549 74.1411 43.8213 84.0101 41.5165 86.4774C41.5165 86.4774 41.4427 86.5513 41.3688 86.5217C41.2949 86.4774 41.354 86.374 41.354 86.374C42.9939 83.434 49.9377 72.8262 52.2425 69.6794C52.2425 69.6794 53.8824 67.3451 53.4687 66.237C53.2028 66.0302 52.7743 65.9563 52.3015 65.9563C51.1935 65.9563 49.8491 66.37 49.8491 66.37ZM64.6822 66.237C64.2685 67.3451 65.9084 69.6794 65.9084 69.6794C68.2132 72.8262 75.1569 83.434 76.8116 86.374C76.8116 86.374 76.8707 86.4774 76.7968 86.5217C76.7378 86.5513 76.6639 86.4774 76.6639 86.4774C74.3591 84.0101 66.4107 74.1411 64.106 70.9795C64.106 70.9795 62.3922 68.7338 61.2546 68.7929C60.2795 69.3986 60.2056 72.2648 60.2056 72.2648C60.2056 74.2593 59.9988 78.5438 59.7476 82.71C62.1263 84.2908 70.1485 89.2697 80.3131 91.737C80.3722 91.7517 80.5051 91.7665 80.5642 91.7074C80.6381 91.6483 80.6676 91.5301 80.6676 91.471C81.4507 81.011 79.1311 71.8364 78.3777 69.1327C74.3591 68.0985 70.2076 66.9757 68.3166 66.37C68.3166 66.37 66.9721 65.9563 65.8493 65.9563C65.3765 65.9563 64.9481 66.0302 64.6822 66.237ZM65.8936 54.7428C65.8936 54.7428 64.2685 57.0476 64.6674 58.1556C65.5686 58.8648 68.287 58.0374 68.287 58.0374C72.0101 56.8555 84.2577 53.5166 87.5671 52.8665C87.5671 52.8665 87.6853 52.837 87.7001 52.9256C87.7444 52.9995 87.641 53.0438 87.641 53.0438C84.5828 54.4621 72.7045 58.9534 68.9962 60.1649C68.9962 60.1649 66.2778 61.0809 65.9971 62.2037C66.2778 63.3265 68.9962 64.2278 68.9962 64.2278C70.8872 64.8483 74.9353 66.3848 78.8209 67.8917C81.0518 66.1188 88.2763 60.0763 93.787 51.1823C93.8165 51.1528 93.8756 51.0346 93.8461 50.9311C93.8165 50.8425 93.6983 50.7834 93.6245 50.7539C83.9032 46.7944 74.4478 46.1444 71.6407 46.0409C69.4099 49.5424 67.0756 53.1325 65.8936 54.7428ZM24.5264 50.7539C24.4525 50.7539 24.3491 50.8425 24.3196 50.9311C24.29 51.0198 24.3491 51.138 24.3787 51.1823C29.9189 60.1058 37.1877 66.1631 39.3891 67.8917C43.2599 66.3995 47.2784 64.863 49.1547 64.2573C49.1547 64.2573 51.8583 63.3413 52.1686 62.2333C51.8583 61.0957 49.1547 60.1944 49.1547 60.1944C45.4464 58.983 33.5681 54.4769 30.5099 53.0734C30.5099 53.0734 30.4065 53.0291 30.436 52.9552C30.4656 52.8665 30.5838 52.8961 30.5838 52.8961C33.8931 53.5461 46.1408 56.8851 49.8491 58.067C49.8491 58.067 52.5675 58.8943 53.4835 58.1852C53.8971 57.0771 52.2572 54.7724 52.2572 54.7724C51.0901 53.162 48.741 49.5572 46.4806 46.0409C43.6144 46.1148 34.2182 46.8092 24.5264 50.7539ZM58.8612 25.8744C52.0652 33.8672 48.5489 42.6577 47.5739 45.2727C50.2184 48.4787 52.9073 51.8028 54.0744 53.4132C54.0744 53.4132 55.7734 55.7031 56.9406 55.6441C57.9157 55.0088 57.9748 52.1426 57.9748 52.1426C57.9748 48.2423 58.5805 35.6105 58.9794 32.2568C58.9794 32.2568 58.9942 32.1534 59.0976 32.1534C59.1715 32.1534 59.1862 32.2568 59.1862 32.2568C59.5999 35.6105 60.1909 48.2423 60.1909 52.1426C60.1909 52.1426 60.2647 55.0088 61.2398 55.6441C62.3774 55.6884 64.0912 53.4132 64.0912 53.4132C65.2731 51.788 68.0063 48.4639 70.6361 45.2284C69.661 42.5838 66.0857 33.8524 59.334 25.8744C59.2897 25.8301 59.201 25.7119 59.1124 25.7119C58.9942 25.7267 58.8908 25.8301 58.8612 25.8744Z" fill="white"/>
</g>
</mask>
<g mask="url(#mask0_124_1410)">
<path id="Vector_3" d="M93.8894 25.7266H24.2891V91.7664H93.8894V25.7266Z" fill="white"/>
</g>
</g>
</g>
<g id="Group_3">
<path id="Vector_4" d="M20.2258 33.3057L18.8371 35.3298C18.0245 36.7776 16.7244 37.3686 14.9072 37.1322C15.3652 37.9891 15.2618 39.0528 14.5674 40.3234C13.3559 42.4952 10.6818 42.835 8.18502 41.461C5.48137 39.9541 4.49151 37.6198 5.82117 35.2264C5.79163 35.2116 6.69284 33.6012 8.49527 30.3657L14.2128 33.5421C15.4095 34.207 16.3107 33.9115 17.2267 32.7591L18.1722 31.4295L20.2258 33.3057ZM11.3023 35.3593L8.90894 34.0297L7.97818 35.6991C7.40199 36.7333 8.12592 38.1368 9.54423 38.9199C10.8148 39.6438 12.2774 39.4961 12.8388 38.4767C13.4298 37.3981 12.7797 36.1867 11.3023 35.3593Z" fill="white"/>
<path id="Vector_5" d="M26.49 26.3768L20.0929 33.4683L18.1427 31.4591L19.4281 30.0555C20.0781 29.3316 19.9156 28.5338 18.9257 27.6474L15.4834 24.5448L17.4483 22.373L20.8168 25.4165C21.393 25.9188 21.8214 26.4654 22.1612 27.0564L25.1161 24.1607L26.49 26.3768Z" fill="white"/>
<path id="Vector_6" d="M28.4396 19.8023C29.1339 20.6444 29.459 21.5456 29.459 22.4911C29.459 23.5844 28.8532 23.8208 27.8043 24.9584L25.9132 27.012L25.1154 24.131L25.8098 23.5105C26.578 22.89 26.5337 22.0479 25.662 21.0137L20.2695 14.3654L22.5152 12.5334L28.4396 19.8023Z" fill="white"/>
<path id="Vector_7" d="M60.145 9.75588C60.1893 10.8492 59.9086 11.7799 59.3472 12.5334C58.6971 13.4051 57.7516 13.8631 56.5253 13.9074L53.7774 14.0256L53.6592 11.2481L55.8014 11.1594C56.7765 11.1299 57.2493 10.4207 57.1902 9.0615L56.8504 0.507353L59.7608 0.38916L60.145 9.75588Z" fill="white"/>
<path id="Vector_8" d="M65.596 13.9666L62.6855 13.7598L63.7197 0.374512L66.6154 0.596122L65.596 13.9666Z" fill="white"/>
<path id="Vector_9" d="M106.565 36.5561C105.989 35.4185 106.462 34.2513 107.496 33.7342C108.515 33.2172 109.727 33.5422 110.303 34.665C110.864 35.8026 110.406 36.955 109.387 37.4721C108.353 38.0039 107.141 37.6641 106.565 36.5561ZM108.885 40.7814C109.195 40.6485 109.328 40.6042 109.653 40.4416C112.977 38.7722 113.923 36.0833 112.549 33.3649C111.308 30.8976 108.663 30.1146 106.151 31.3852C103.935 32.508 103.005 35.1969 104.127 37.4277C104.393 37.9596 104.94 38.5949 105.309 38.846C104.187 38.9199 102.901 38.3733 102.148 36.8516C101.704 35.9503 101.542 34.8127 101.512 34.015L99.0156 35.2855C99.0156 35.2855 99.3406 36.7629 99.8873 37.8562C101.867 41.8304 105.383 42.2293 108.885 40.7814Z" fill="white"/>
<path id="Vector_10" d="M35.7384 16.0055C34.7338 16.7738 33.5075 16.5226 32.8131 15.6066C32.1188 14.7054 32.2222 13.4496 33.2268 12.6814C34.2314 11.9131 35.4725 12.1643 36.1521 13.0803C36.8317 13.9963 36.743 15.2668 35.7384 16.0055ZM39.4762 12.9621C39.2989 12.6962 39.2103 12.5632 39.0034 12.2973C36.7578 9.32768 33.936 8.88446 31.5278 10.7164C29.3265 12.3859 29.0458 15.1191 30.7448 17.3943C32.237 19.374 35.0588 19.7877 37.0533 18.2807C37.526 17.9114 38.0579 17.2909 38.2352 16.8624C38.5159 17.9705 38.2057 19.3149 36.8464 20.3491C36.0486 20.9548 34.9554 21.3094 34.1723 21.4867L35.8566 23.7028C35.8566 23.7028 37.2601 23.1266 38.2352 22.3879C41.7957 19.6695 41.5446 16.1533 39.4762 12.9621Z" fill="white"/>
<path id="Vector_11" d="M109.489 20.29C109.238 19.9502 109.12 19.4331 109.031 18.9751C108.854 18.2364 108.662 17.3795 108.145 16.6703C107.081 15.1486 104.983 14.927 104.51 14.8975L104.318 17.5863C104.584 17.5863 105.559 17.6602 105.944 18.2216C106.165 18.5171 106.269 18.9751 106.401 19.566C106.549 20.2752 106.756 21.0878 107.214 21.7231C108.233 23.1857 109.918 23.9244 111.824 23.7619L111.587 21.073C110.39 21.1912 109.844 20.7923 109.489 20.29Z" fill="white"/>
<path id="Vector_12" d="M24.7754 31.7398C24.4799 32.0501 23.9924 32.2421 23.5491 32.4194C22.84 32.7149 22.0422 33.0399 21.4217 33.6604C20.1068 34.9753 20.225 37.0585 20.2841 37.5312L22.9582 37.2948C22.9139 37.0437 22.8252 36.0686 23.3275 35.5811C23.5935 35.3151 24.0071 35.1526 24.5833 34.9162C25.2482 34.6651 26.0164 34.3253 26.5778 33.7639C27.8336 32.5228 28.2916 30.7352 27.8188 28.8884L25.2038 29.568C25.4993 30.7056 25.2038 31.3114 24.7754 31.7398Z" fill="white"/>
<path id="Vector_13" d="M3.69295 29.8338C3.47134 30.2032 3.05767 30.5134 2.67354 30.8089C2.06781 31.2669 1.37343 31.7988 0.930212 32.5375C-0.015324 34.1479 0.619958 36.1423 0.797246 36.5856L3.33838 35.6843C3.23496 35.448 2.90993 34.532 3.24973 33.9262C3.42702 33.616 3.79637 33.3353 4.29869 32.9659C4.88965 32.5375 5.5397 32.0204 5.9386 31.3408C6.83981 29.8043 6.83982 27.9723 5.90905 26.3176L3.55999 27.6177C4.13617 28.6667 4.00321 29.3167 3.69295 29.8338Z" fill="white"/>
<path id="Vector_14" d="M90.2251 19.3149C89.5011 18.2068 89.8262 16.9215 90.8603 16.2419C91.8797 15.577 93.1946 15.7839 93.9186 16.8919C94.6425 18 94.3027 19.2853 93.2833 19.9501C92.2639 20.6298 90.949 20.4229 90.2251 19.3149ZM82.1289 18.8864C82.2914 19.4035 82.8381 20.6741 83.3551 21.4866C85.2314 24.338 87.6987 25.1506 90.3728 24.5744L92.4412 27.7508C95.0857 31.7841 98.1882 33.3058 102.428 31.0897C102.753 30.9125 102.872 30.8386 103.197 30.6318C106.476 28.4895 107.156 25.5495 105.398 22.8606C103.802 20.4229 100.936 19.9354 98.4246 21.5605C96.2381 22.9788 95.7653 25.8154 97.2132 28.0315C97.6564 28.6964 98.4099 29.3464 98.8531 29.4942C97.5234 29.5828 96.1051 28.2531 94.7164 26.1257L93.0321 23.5402C93.5049 23.3038 93.6822 23.1709 94.0072 22.964C96.2381 21.5014 98.3803 18.6648 96.1347 15.252C94.4357 12.6518 91.4661 12.4302 89.1761 13.9224C86.6645 15.577 86.5463 18.65 87.7283 20.482C88.1715 21.1468 88.7477 21.6492 89.1761 21.8708C87.5953 22.1515 86.3543 21.2946 85.6156 20.1718C85.0098 19.2558 84.7439 18.1477 84.6109 17.2761L82.1289 18.8864ZM99.5031 26.9235C98.7792 25.8154 99.119 24.5301 100.138 23.8653C101.158 23.2004 102.473 23.4073 103.197 24.5153C103.935 25.6381 103.581 26.9087 102.576 27.5735C101.542 28.2384 100.227 28.0315 99.5031 26.9235Z" fill="white"/>
<path id="Vector_15" d="M74.165 15.3996L75.0515 12.829L78.612 14.0552C80.3258 14.6462 81.2566 14.0848 81.685 12.8585C82.1282 11.5732 81.6407 10.539 80.0008 9.97758L76.4698 8.75133L77.3562 6.21021L80.8281 7.4069C84.2409 8.57405 85.3046 10.997 84.3443 13.7597C83.4431 16.36 81.1384 17.8078 77.6517 16.5963L74.165 15.3996Z" fill="white"/>
<path id="Vector_16" d="M44.6175 15.7985L44.1595 13.1096L47.8677 12.4743C49.6554 12.1788 50.202 11.2185 49.9804 9.94797C49.7588 8.58876 48.828 7.9387 47.129 8.21941L43.4355 8.85469L42.9775 6.19537L46.5972 5.58963C50.1577 4.9839 52.2556 6.59427 52.7432 9.46042C53.2012 12.1788 51.8863 14.5575 48.2371 15.1927L44.6175 15.7985Z" fill="white"/>
<path id="Vector_17" d="M51.1772 11.3221C51.1772 11.3221 53.6297 11.1448 54.59 11.2187V13.9667C54.59 13.9667 51.1329 14.0553 49.8623 14.1439L51.1772 11.3221Z" fill="white"/>
<path id="Vector_18" d="M36.9938 113.366L34.7334 112.376L38.486 103.335L40.7612 104.339L36.9938 113.366Z" fill="white"/>
<path id="Vector_19" d="M42.2236 105.137L44.6022 105.787L47.5422 112.79L49.0049 106.984L51.3983 107.619L48.9901 117.133L46.6115 116.483L43.6714 109.481L42.2088 115.301L39.8154 114.651L42.2236 105.137Z" fill="white"/>
<path id="Vector_20" d="M55.654 117.739L53.1867 117.532L53.7777 109.894L51.7832 109.732L51.9457 107.589L58.4611 108.121L58.2985 110.278L56.245 110.116L55.654 117.739Z" fill="white"/>
<path id="Vector_21" d="M61.9175 110.101L61.9913 111.741L64.7689 111.578L64.9018 113.735L62.1095 113.898L62.1982 115.597L65.1382 115.42L65.2564 117.591L59.8491 117.887L59.332 108.077L64.7393 107.767L64.8427 109.938L61.9175 110.101Z" fill="white"/>
<path id="Vector_22" d="M75.6126 115.567L72.5988 116.247L69.5405 113.056L70.294 116.735L67.8858 117.281L65.9209 107.663L69.6735 106.836C70.7372 106.6 71.4759 106.718 72.1408 107.176C72.7613 107.619 73.2045 108.328 73.3818 109.126C73.6773 110.559 73.1602 111.667 71.8896 112.273L75.6126 115.567ZM69.6587 111.357C70.6043 111.135 71.0623 110.574 70.8997 109.835C70.752 109.082 70.1019 108.757 69.1564 108.963L68.7132 109.067L69.2007 111.446L69.6587 111.357Z" fill="white"/>
<path id="Vector_23" d="M73.9287 105.905L76.2039 104.915L82.6749 108.594L80.3997 103.069L82.6749 102.064L86.3832 111.12L84.108 112.11L77.6518 108.417L79.927 113.957L77.6518 114.947L73.9287 105.905Z" fill="white"/>
<path id="Vector_24" d="M90.1066 106.703L90.5055 108.491L88.3485 110.012L85.9551 99.774L88.1712 98.208L96.5185 104.206L94.3467 105.743L92.9136 104.694L90.1066 106.703ZM88.7326 101.503L89.6043 104.709L91.2885 103.497L88.7326 101.503Z" fill="white"/>
<path id="Vector_25" d="M100.374 100.365L98.5866 102.108L93.4896 96.5534L92.027 97.9569L90.5791 96.4056L95.3363 91.7666L96.7694 93.3327L95.2772 94.8101L100.374 100.365Z" fill="white"/>
<path id="Vector_26" d="M104.865 95.2679L103.27 97.218L96.001 90.88L97.5818 88.9446L104.865 95.2679Z" fill="white"/>
<path id="Vector_27" d="M104.171 78.2335L104.969 75.8254L111.942 73.299L106.431 71.3636L107.214 68.9407L116.226 72.1171L115.429 74.5253L108.455 77.0516L113.966 78.987L113.183 81.3952L104.171 78.2335Z" fill="white"/>
<path id="Vector_28" d="M115.518 66.311L117.069 67.2122L116.744 69.8863L107.776 64.9075L108.116 62.13L118 59.707L117.675 62.4254L115.946 62.8391L115.518 66.311ZM110.864 63.9028L113.745 65.3802L114.011 63.2676L110.864 63.9028Z" fill="white"/>
<path id="Vector_29" d="M115.71 54.9645L115.607 51.921L117.705 51.8472L117.897 57.4465L108.383 57.8011L108.294 55.26L115.71 54.9645Z" fill="white"/>
<path id="Vector_30" d="M9.69157 86.4332C9.18925 85.0445 9.98705 83.8478 11.2428 83.375C12.4986 82.9022 13.8431 83.2863 14.3306 84.6899C14.8329 86.0934 14.0351 87.2753 12.7793 87.7481C11.5235 88.2209 10.1791 87.8515 9.69157 86.4332ZM3.35352 84.6012C4.13654 85.207 4.78659 85.8127 5.02298 86.4775C5.48097 87.7629 4.81614 89.7574 5.45142 91.5893C5.71736 92.328 6.13103 92.9633 6.63334 93.3474C7.29818 92.919 8.73126 92.003 8.73126 92.003C8.33236 91.7075 7.91868 91.22 7.71185 90.6438C7.53456 90.1267 7.54933 89.6835 7.6823 88.6345C8.98241 90.7029 11.361 91.412 13.7544 90.5108C16.5763 89.4471 17.9798 86.6696 16.9161 83.7C15.8671 80.7304 13.0748 79.5485 10.253 80.6122C8.33236 81.3214 7.06179 82.9022 6.81063 84.6456C6.23445 83.8182 5.79123 83.3602 5.11162 82.8283L3.35352 84.6012Z" fill="white"/>
<path id="Vector_31" d="M4.87542 61.0662L0.177288 59.4854L0 57.2988L9.29285 53.2507L9.52923 56.3828L4.50607 58.2296C5.68799 58.6285 6.53011 58.9092 7.57907 59.3376C8.59847 59.7513 9.85426 60.3718 10.0759 60.5786C10.0759 60.5786 10.1054 60.5934 10.1054 60.6377C10.1054 60.6821 10.0759 60.6968 10.0759 60.6968C9.88381 60.9184 8.74621 61.7606 7.80068 62.322C6.82559 62.9277 6.04257 63.3562 4.93452 63.9323L10.1793 64.9222L10.4305 68.0395L0.66483 65.6018L0.502316 63.4005L4.87542 61.0662Z" fill="white"/>
<path id="Vector_32" d="M5.11192 74.9685C4.97896 73.5354 5.98359 72.6194 7.2837 72.5012C8.56904 72.3683 9.73619 73.0479 9.86915 74.4957C10.0169 75.9436 8.99749 76.8595 7.69738 76.9777C6.41204 77.1107 5.24489 76.4163 5.11192 74.9685ZM12.5285 74.2298C12.2478 71.1863 9.8987 69.3691 7.01777 69.6646C4.12206 69.9453 2.17189 72.2205 2.4526 75.2492C2.73331 78.2926 5.08237 80.1246 7.97808 79.8291C10.8738 79.5189 12.8092 77.2732 12.5285 74.2298Z" fill="white"/>
<path id="Vector_33" d="M17.966 97.1738C16.858 96.2874 16.9171 94.8986 17.7149 93.8349C18.5127 92.7712 19.798 92.387 20.9061 93.2735C22.0141 94.1599 21.955 95.5487 21.1572 96.6124C20.3594 97.6909 19.0741 98.075 17.966 97.1738ZM22.5312 91.1165C20.1969 89.2402 17.3012 89.7277 15.5135 92.1063C13.7259 94.4702 13.9623 97.4841 16.3113 99.3604C18.6456 101.251 21.5266 100.749 23.329 98.3705C25.1167 96.0067 24.8803 92.9928 22.5312 91.1165Z" fill="white"/>
<path id="Vector_34" d="M27.4498 100.099C27.9077 100.454 28.6464 101 28.6464 101C29.8284 101.901 29.9318 103.01 29.1192 104.162C28.3214 105.299 27.1838 105.654 25.9871 104.768C25.9871 104.768 25.2484 104.221 24.7904 103.881L27.4498 100.099ZM30.1238 98.9023L26.7258 96.3464L21.0674 104.324L24.4654 106.88C26.9474 108.742 29.6215 108.24 31.291 105.89C32.9605 103.556 32.6059 100.779 30.1238 98.9023Z" fill="white"/>
<path id="Vector_35" d="M107.201 87.4525C106.373 88.6049 105.029 88.6049 103.995 87.8071C102.946 87.024 102.517 85.7092 103.345 84.5272C104.172 83.3453 105.531 83.3601 106.565 84.1579C107.614 84.9557 108.028 86.2706 107.201 87.4525ZM101.188 82.9169C99.4443 85.3841 100.021 88.3389 102.37 90.1118C104.719 91.8847 107.629 91.5301 109.372 89.0629C111.116 86.5956 110.54 83.626 108.191 81.8531C105.841 80.095 102.931 80.4496 101.188 82.9169Z" fill="white"/>
</g>
</g>
</svg>
