<svg width="96" height="96" viewBox="0 0 96 96" fill="none" xmlns="http://www.w3.org/2000/svg">
<g id="mail 1" clip-path="url(#clip0_387_1650)">
<path id="Vector" d="M78.5577 0.5H5.19619C2.60256 0.5 0.5 2.60256 0.5 5.19619V52.5093C0.5 55.103 2.60256 57.2055 5.19619 57.2055H78.5577C81.1514 57.2055 83.2539 55.103 83.2539 52.5093V5.19619C83.2539 2.60256 81.1514 0.5 78.5577 0.5Z" fill="#E57E25"/>
<path id="Vector_2" d="M81.3495 56.2034C81.942 55.7505 82.422 55.167 82.7522 54.4984C83.0824 53.8297 83.2539 53.0939 83.2534 52.3481V5.35743C83.2534 4.06916 82.7416 2.83365 81.8307 1.92271C80.9197 1.01176 79.6842 0.5 78.396 0.5L31.3945 0.5L81.2495 56.1667L81.3495 56.2034Z" fill="#F29C1F"/>
<path id="Vector_3" d="M52.3589 0.5H5.35743C4.06916 0.5 2.83366 1.01176 1.92271 1.92271C1.01176 2.83365 0.500001 4.06916 0.500001 5.35743V52.3481C0.499486 53.0714 0.66086 53.7857 0.97229 54.4385C1.28372 55.0914 1.73731 55.6663 2.29981 56.121L2.50391 56.1667L52.3589 0.5Z" fill="#F29C1F"/>
<path id="Vector_4" d="M78.3965 0.5H5.35743C4.06916 0.5 2.83365 1.01176 1.92271 1.92271C1.01176 2.83365 0.5 4.06916 0.5 5.35743L0.5 7.22459L35.5528 31.3785C37.4127 32.6602 39.6182 33.3465 41.877 33.3465C44.1357 33.3465 46.3412 32.6602 48.2011 31.3785L83.2539 7.22459V5.35743C83.2539 4.06916 82.7421 2.83365 81.8312 1.92271C80.9202 1.01176 79.6847 0.5 78.3965 0.5Z" fill="#F0C419"/>
<path id="Vector_5" d="M22.0466 95.5C21.7421 95.5001 21.445 95.4066 21.1955 95.2322C20.9459 95.0578 20.7561 94.8109 20.6516 94.5249C20.5472 94.2389 20.5332 93.9277 20.6115 93.6335C20.6899 93.3394 20.8568 93.0764 21.0897 92.8803L41.609 75.8255C41.7574 75.6956 41.9303 75.5966 42.1175 75.5342C42.3047 75.4719 42.5024 75.4475 42.6991 75.4625C42.8958 75.4774 43.0876 75.5315 43.2632 75.6214C43.4388 75.7113 43.5947 75.8354 43.7218 75.9863C43.8489 76.1372 43.9446 76.3119 44.0034 76.5002C44.0622 76.6885 44.0829 76.8867 44.0642 77.0831C44.0455 77.2795 43.9879 77.4702 43.8947 77.6441C43.8014 77.8179 43.6745 77.9715 43.5212 78.0957L23.0021 95.151C22.7349 95.3767 22.3963 95.5003 22.0466 95.5Z" fill="black"/>
<path id="Vector_6" d="M39.4519 92.2693C39.1499 92.2694 38.855 92.1775 38.6067 92.0057C38.3583 91.8338 38.1683 91.5903 38.0619 91.3077C37.9555 91.025 37.9379 90.7167 38.0114 90.4238C38.0849 90.1308 38.246 89.8673 38.4731 89.6683L43.5241 85.0537C43.6706 84.9244 43.8412 84.8253 44.0261 84.762C44.211 84.6987 44.4065 84.6726 44.6016 84.6851C44.7966 84.6976 44.9872 84.7485 45.1625 84.8349C45.3378 84.9212 45.4944 85.0413 45.6231 85.1883C45.7519 85.3353 45.8504 85.5063 45.9129 85.6914C45.9754 85.8766 46.0008 86.0722 45.9875 86.2672C45.9743 86.4622 45.9226 86.6526 45.8356 86.8276C45.7486 87.0026 45.6278 87.1586 45.4803 87.2868L40.4303 91.9014C40.1599 92.1391 39.812 92.2699 39.4519 92.2693Z" fill="#7F7F7F"/>
<path id="Vector_7" d="M44.957 62.9083L54.3218 85.34L71.4305 59.6748L95.4829 36.757L44.957 62.9083Z" fill="black"/>
<path id="Vector_8" d="M95.4827 36.5919L46.1217 65.3845L31.5977 61.6166L95.4827 36.5919Z" fill="#63C6CD"/>
<path id="Vector_9" d="M78.0989 55.633L54.3213 85.34L57.1273 68.3251L78.0989 55.633Z" fill="#63C6CD"/>
<path id="Vector_10" d="M95.4821 36.757C95.4956 36.7149 95.5135 36.6828 95.4821 36.7139L57.127 68.3252L80.887 74.793L95.4821 36.757Z" fill="#63C6CD"/>
</g>
<defs>
<clipPath id="clip0_387_1650">
<rect width="95" height="95" fill="white" transform="translate(0.5 0.5)"/>
</clipPath>
</defs>
</svg>
