<svg width="115" height="66" viewBox="0 0 115 66" fill="none" xmlns="http://www.w3.org/2000/svg">
<g id="Group 29">
<g id="Group 15">
<path id="Path 39" d="M37.7624 65.0534C37.9301 65.1142 38.1008 65.1661 38.274 65.209C38.4879 65.2573 38.7069 65.2797 38.9263 65.2755C39.2484 65.3 39.5691 65.2124 39.8341 65.0275C39.9325 64.9465 40.0109 64.8437 40.063 64.7273C40.1151 64.611 40.1395 64.4841 40.1344 64.3567C40.1373 64.2351 40.116 64.1141 40.0714 64.0009C40.0292 63.9021 39.9644 63.8146 39.8823 63.7454C39.7865 63.6663 39.6806 63.6002 39.5675 63.5488C39.4414 63.4897 39.2943 63.4254 39.1263 63.356L38.7038 63.1855C38.5681 63.13 38.4368 63.0644 38.311 62.9893C38.1945 62.9193 38.0906 62.8303 38.0034 62.726C37.915 62.619 37.846 62.4973 37.7996 62.3664C37.7469 62.2103 37.7218 62.0461 37.7254 61.8813C37.7156 61.6818 37.7519 61.4827 37.8316 61.2995C37.9113 61.1163 38.0322 60.954 38.1849 60.8252C38.4915 60.5705 38.9214 60.4432 39.4746 60.4433C39.7007 60.4423 39.9264 60.4623 40.1489 60.5027C40.3404 60.5366 40.5289 60.5861 40.7123 60.6507C40.6862 60.8623 40.6313 61.0693 40.5491 61.266C40.3978 61.2114 40.243 61.1669 40.0858 61.1327C39.8898 61.091 39.6897 61.0711 39.4893 61.0733C39.2355 61.0572 38.9833 61.1235 38.7703 61.2624C38.6852 61.3292 38.6177 61.4157 38.5738 61.5146C38.5298 61.6134 38.5108 61.7215 38.5182 61.8294C38.5166 61.9257 38.5382 62.021 38.5812 62.1071C38.623 62.1885 38.6795 62.2615 38.748 62.3222C38.8224 62.3876 38.9045 62.4437 38.9926 62.489C39.0886 62.5394 39.1876 62.5839 39.289 62.6223L39.7039 62.7853C39.8845 62.8565 40.0603 62.9395 40.2301 63.0336C40.3758 63.1144 40.5083 63.2169 40.6231 63.3377C40.7332 63.4563 40.8177 63.5963 40.8714 63.749C40.9314 63.928 40.9603 64.116 40.9566 64.3048C40.967 64.5325 40.9249 64.7595 40.8337 64.9683C40.7424 65.1771 40.6044 65.3622 40.4303 65.5093C40.0794 65.8034 39.5877 65.9504 38.9553 65.9503C38.8021 65.9503 38.6638 65.9454 38.5404 65.9354C38.4248 65.9266 38.3097 65.9118 38.1956 65.8908C38.0918 65.8718 37.9891 65.8472 37.8879 65.817C37.789 65.7871 37.6881 65.7551 37.584 65.7206C37.5949 65.6074 37.6173 65.4956 37.6509 65.3869C37.6857 65.2734 37.7229 65.1622 37.7624 65.0534Z" fill="white"/>
<path id="Path 40" d="M45.8415 61.1919H44.4553C44.4449 61.138 44.4376 61.0835 44.4334 61.0287C44.4282 60.9696 44.4258 60.9129 44.4258 60.8582C44.4258 60.8036 44.4282 60.7485 44.4334 60.6916C44.4377 60.6381 44.4451 60.585 44.4553 60.5323H47.9837C47.9938 60.5838 48.0011 60.6357 48.0057 60.6879C48.0105 60.7422 48.0133 60.7969 48.0133 60.8511C48.0133 60.9054 48.0105 60.9632 48.0057 61.0251C48.0016 61.0811 47.9943 61.1367 47.9837 61.1919H46.5976V65.8613C46.4746 65.8768 46.3508 65.8842 46.2269 65.8836C46.0981 65.8842 45.9694 65.8768 45.8415 65.8613V61.1919Z" fill="white"/>
<path id="Path 41" d="M51.7563 60.5323C51.8843 60.5169 52.013 60.5095 52.1419 60.51C52.2657 60.5095 52.3894 60.5169 52.5122 60.5323V63.5563C52.5088 63.8194 52.5287 64.0824 52.5715 64.342C52.6 64.5297 52.6656 64.7098 52.7643 64.8719C52.8493 65.0046 52.9718 65.1089 53.1163 65.1719C53.2868 65.2411 53.4698 65.274 53.6537 65.2685C53.8365 65.2742 54.0183 65.2413 54.1874 65.1719C54.3305 65.1082 54.4516 65.0039 54.5358 64.8719C54.6345 64.7098 54.7 64.5297 54.7286 64.342C54.7713 64.0824 54.7911 63.8194 54.7877 63.5563V60.5323C54.9132 60.5174 55.0394 60.5099 55.1658 60.51C55.2946 60.5095 55.4234 60.5169 55.5513 60.5323V63.6896C55.5549 64.0111 55.5214 64.3321 55.4512 64.6459C55.3954 64.904 55.284 65.1467 55.1248 65.3574C54.9702 65.5531 54.7671 65.7051 54.5358 65.7984C53.9654 66.0009 53.3428 66.0009 52.7724 65.7984C52.5409 65.7052 52.3377 65.5532 52.183 65.3574C52.024 65.1467 51.9127 64.9039 51.8568 64.6459C51.7866 64.3321 51.7531 64.0111 51.7569 63.6896L51.7563 60.5323Z" fill="white"/>
<path id="Path 42" d="M59.7978 60.5324C59.9659 60.5127 60.1685 60.4942 60.4057 60.4769C60.6429 60.4596 60.8752 60.4509 61.1026 60.4509C62.0362 60.4509 62.734 60.6881 63.1962 61.1623C63.6584 61.6366 63.8894 62.3185 63.8893 63.2079C63.8893 64.1369 63.6534 64.8261 63.1815 65.2756C62.7097 65.7251 62.0066 65.9499 61.0723 65.9499C60.8401 65.9499 60.6104 65.9412 60.3832 65.9239C60.156 65.9066 59.9608 65.8856 59.7975 65.8608L59.7978 60.5324ZM60.554 65.239C60.6232 65.2488 60.7084 65.2573 60.8097 65.2649C60.911 65.2725 61.0184 65.2756 61.1321 65.2756C61.401 65.2786 61.6691 65.245 61.929 65.1759C62.1591 65.1143 62.3712 64.9987 62.5477 64.8387C62.7326 64.6618 62.8702 64.4413 62.9479 64.1975C63.0504 63.8703 63.098 63.5284 63.0888 63.1856C63.0963 62.8636 63.0487 62.5427 62.9479 62.2368C62.8669 61.9955 62.7311 61.7762 62.5513 61.5959C62.3791 61.4292 62.1695 61.306 61.94 61.2365C61.6853 61.1598 61.4204 61.1223 61.1545 61.1252C61.0604 61.1252 60.9579 61.1264 60.8469 61.1288C60.7488 61.1303 60.6509 61.139 60.554 61.1547V65.239Z" fill="white"/>
<path id="Path 43" d="M67.9579 60.5323C68.017 60.5222 68.0789 60.515 68.143 60.5099C68.2072 60.5049 68.2715 60.5027 68.3358 60.5027C68.4001 60.5027 68.4643 60.5051 68.5284 60.5099C68.5925 60.5148 68.6546 60.5222 68.7136 60.5323V65.8612C68.6546 65.8713 68.5939 65.8785 68.532 65.8835C68.4701 65.8886 68.4048 65.8908 68.3358 65.8908C68.2715 65.8908 68.2061 65.8884 68.1394 65.8835C68.0785 65.8793 68.018 65.8719 67.9579 65.8612V60.5323Z" fill="white"/>
<path id="Path 44" d="M75.059 65.9504C74.7143 65.9589 74.3722 65.8892 74.0583 65.7465C73.7824 65.6154 73.5421 65.4197 73.3579 65.176C73.165 64.915 73.0241 64.6193 72.943 64.305C72.7602 63.5801 72.7602 62.8212 72.943 62.0963C73.0241 61.782 73.1649 61.4863 73.3579 61.2254C73.5428 60.9813 73.7828 60.7845 74.0583 60.6509C74.3742 60.5141 74.7147 60.4435 75.059 60.4435C75.4032 60.4435 75.7437 60.5141 76.0596 60.6509C76.3351 60.7844 76.5751 60.9813 76.7598 61.2254C76.9528 61.4859 77.0926 61.7818 77.1713 62.0963C77.3494 62.8217 77.3494 63.5796 77.1713 64.305C77.0925 64.6195 76.9527 64.9155 76.7598 65.176C76.5757 65.4197 76.3355 65.6155 76.0596 65.7465C75.7457 65.8892 75.4036 65.9589 75.059 65.9504ZM75.059 65.2981C75.2813 65.3036 75.5016 65.254 75.7 65.1535C75.8831 65.055 76.0376 64.9106 76.1485 64.7346C76.2752 64.532 76.3656 64.3088 76.4154 64.0751C76.5341 63.4994 76.5341 62.9055 76.4154 62.3298C76.3664 62.0957 76.2761 61.8722 76.1485 61.6699C76.0366 61.4959 75.8822 61.3531 75.7 61.255C75.4996 61.1599 75.2806 61.1106 75.0589 61.1106C74.8371 61.1106 74.6181 61.1599 74.4177 61.255C74.2356 61.3531 74.0814 61.4959 73.9696 61.6699C73.8418 61.8721 73.7514 62.0956 73.7027 62.3298C73.584 62.9055 73.584 63.4994 73.7027 64.0751C73.7523 64.3089 73.8426 64.5322 73.9696 64.7346C74.0803 64.9106 74.2347 65.0549 74.4177 65.1535C74.6162 65.254 74.8365 65.3037 75.059 65.2981Z" fill="white"/>
</g>
<g id="Group 16">
<path id="Path 45" d="M0.5 28.9711H11.8846C15.9382 28.9711 18.4053 31.4736 18.4053 35.2805C18.4053 39.0165 16.2553 40.426 13.9995 40.5676V40.7789C16.1495 40.8143 19.3219 42.33 19.3219 46.524C19.3219 50.4715 16.6076 53.5735 12.977 53.5735H0.5V28.9711ZM5.15266 39.2278H10.8978C12.5894 39.2278 13.5775 38.2409 13.5775 36.6202V35.5272C13.5775 33.871 12.5901 32.9185 10.8978 32.9185H5.15266V39.2278ZM5.15266 49.6261H11.6379C13.4003 49.6261 14.458 48.6752 14.458 46.9464V45.7481C14.458 44.0212 13.4003 43.0338 11.6379 43.0338H5.15266V49.6261Z" fill="white"/>
</g>
<g id="Group 18">
<path id="Path 46" d="M28.5239 53.5735H23.8712V28.9711H34.9738C39.4505 28.9711 42.235 31.9317 42.235 36.5847C42.235 39.968 40.6844 42.5413 37.6535 43.5635L42.6938 53.5735H37.5125L32.931 44.0922H28.5239V53.5735ZM34.5159 40.1793C36.3139 40.1793 37.4061 39.1925 37.4061 37.3959V35.7741C37.4061 33.9761 36.3135 33.0252 34.5159 33.0252H28.5239V40.1791L34.5159 40.1793Z" fill="white"/>
<g id="Clip path group">
<mask id="mask0_17_634" style="mask-type:luminance" maskUnits="userSpaceOnUse" x="23" y="28" width="20" height="26">
<g id="clip-path-7">
<path id="Path 48" d="M28.5239 53.5735H23.8712V28.9711H34.9738C39.4505 28.9711 42.235 31.9317 42.235 36.5847C42.235 39.968 40.6844 42.5413 37.6535 43.5635L42.6938 53.5735H37.5125L32.931 44.0922H28.5239V53.5735ZM34.5159 40.1793C36.3139 40.1793 37.4061 39.1925 37.4061 37.3959V35.7741C37.4061 33.9761 36.3135 33.0252 34.5159 33.0252H28.5239V40.1791L34.5159 40.1793Z" fill="white"/>
</g>
</mask>
<g mask="url(#mask0_17_634)">
<g id="Group 17">
<path id="Path 47" d="M29.9831 53.5722H25.3304V28.9697H36.4331C40.9097 28.9697 43.6942 31.9304 43.6942 36.5834C43.6942 39.9667 42.1436 42.5399 39.1128 43.5622L44.1532 53.5722H38.9708L34.3894 44.0911H29.9831V53.5722ZM35.9749 40.178C37.7729 40.178 38.8652 39.1912 38.8652 37.3946V35.7727C38.8652 33.9747 37.7727 33.0239 35.9749 33.0239H29.9831V40.1785L35.9749 40.178Z" fill="white"/>
</g>
</g>
</g>
</g>
<g id="Group 20">
<path id="Path 49" d="M63.002 30.5166L64.5598 36.0287L56.6276 28.5995L48.8023 36.0287L50.3958 30.3611C47.5442 32.3741 45.8662 36.0527 45.8662 41.2771C45.8662 49.5929 50.1321 53.9905 56.5785 53.9905C63.073 53.9905 67.3028 49.593 67.3028 41.2771C67.3038 36.1845 65.7221 32.5537 63.002 30.5166ZM62.3673 43.1704C62.3673 47.3761 60.1025 49.8686 56.5795 49.8686C53.0565 49.8686 50.804 47.3761 50.804 43.1704V39.3718C50.804 35.178 53.0568 32.6737 56.5795 32.6737C60.1022 32.6737 62.3673 35.178 62.3673 39.3718V43.1704ZM56.5795 28.5516L56.6276 28.5995L56.6754 28.5516H56.5795Z" fill="white"/>
<g id="Clip path group_2">
<mask id="mask1_17_634" style="mask-type:luminance" maskUnits="userSpaceOnUse" x="45" y="28" width="23" height="26">
<g id="clip-path-8">
<path id="Path 53" d="M63.002 30.5166L64.5598 36.0287L56.6276 28.5995L48.8023 36.0287L50.3958 30.3611C47.5442 32.3741 45.8662 36.0527 45.8662 41.2771C45.8662 49.5929 50.1321 53.9905 56.5785 53.9905C63.073 53.9905 67.3028 49.593 67.3028 41.2771C67.3038 36.1845 65.7221 32.5537 63.002 30.5166ZM62.3673 43.1704C62.3673 47.3761 60.1025 49.8686 56.5795 49.8686C53.0565 49.8686 50.804 47.3761 50.804 43.1704V39.3718C50.804 35.178 53.0568 32.6737 56.5795 32.6737C60.1022 32.6737 62.3673 35.178 62.3673 39.3718V43.1704ZM56.5795 28.5516L56.6276 28.5995L56.6754 28.5516H56.5795Z" fill="white"/>
</g>
</mask>
<g mask="url(#mask1_17_634)">
<g id="Group 19">
<path id="Path 50" d="M57.0773 31.8262L66.0586 39.2962L65.0123 29.995C65.0123 29.995 61.4663 27.6507 59.8386 28.1106C58.2109 28.5704 57.0773 31.8262 57.0773 31.8262Z" fill="white"/>
<path id="Path 51" d="M56.1038 31.8262L47.1224 39.2962L48.1687 29.995C48.1687 29.995 51.7149 27.6507 53.3426 28.1106C54.9703 28.5704 56.1038 31.8262 56.1038 31.8262Z" fill="white"/>
<path id="Path 52" d="M56.0428 31.8262L47.0613 39.2962L48.1077 29.995C48.1077 29.995 51.6538 27.6507 53.2815 28.1106C54.9092 28.5704 56.0428 31.8262 56.0428 31.8262Z" fill="white"/>
</g>
</g>
</g>
</g>
<g id="Group 22">
<path id="Path 54" d="M70.967 41.4483C70.967 33.1652 75.0908 28.5483 81.5766 28.5483C85.9825 28.5483 88.8377 30.4155 90.5645 34.2227L86.5816 36.338C85.8764 34.152 84.3258 32.6718 81.5766 32.6718C78.1222 32.6718 75.9017 35.1743 75.9017 39.3693V43.2459C75.9017 47.4755 78.1222 49.8728 81.5766 49.8728C84.36 49.8728 86.0889 48.1812 86.8987 45.9599L90.6701 48.1812C88.9077 51.8464 85.9825 53.9962 81.5764 53.9962C75.0908 53.9962 70.967 49.7313 70.967 41.4483Z" fill="white"/>
<g id="Clip path group_3">
<mask id="mask2_17_634" style="mask-type:luminance" maskUnits="userSpaceOnUse" x="70" y="28" width="21" height="26">
<g id="clip-path-9">
<path id="Path 56" d="M70.967 41.4483C70.967 33.1652 75.0908 28.5483 81.5766 28.5483C85.9825 28.5483 88.8377 30.4155 90.5645 34.2227L86.5816 36.338C85.8764 34.152 84.3258 32.6718 81.5766 32.6718C78.1222 32.6718 75.9017 35.1743 75.9017 39.3693V43.2459C75.9017 47.4755 78.1222 49.8728 81.5766 49.8728C84.36 49.8728 86.0889 48.1812 86.8987 45.9599L90.6701 48.1812C88.9077 51.8464 85.9825 53.9962 81.5764 53.9962C75.0908 53.9962 70.967 49.7313 70.967 41.4483Z" fill="white"/>
</g>
</mask>
<g mask="url(#mask2_17_634)">
<g id="Group 21">
<path id="Path 55" d="M69.2102 41.4471C69.2102 33.1641 73.334 28.5474 79.8198 28.5474C84.2257 28.5474 87.0809 30.4145 88.8075 34.2216L84.8248 36.3368C84.1196 34.1509 82.569 32.6706 79.8198 32.6706C76.3654 32.6706 74.1449 35.1732 74.1449 39.3682V43.2449C74.1449 47.4744 76.3654 49.8716 79.8198 49.8716C82.6032 49.8716 84.3321 48.1801 85.1418 45.9587L88.9133 48.1801C87.1509 51.8452 84.2257 53.9951 79.8196 53.9951C73.3345 53.9951 69.2102 49.7302 69.2102 41.4471Z" fill="white"/>
</g>
</g>
</g>
</g>
<path id="Path 57" d="M109.671 53.5735L107.697 47.2996H98.9559L97.0172 53.5735H92.2942L100.542 28.9711H106.323L114.5 53.5735H109.671ZM103.397 33.2007H103.221L100.084 43.3168H106.569L103.397 33.2007Z" fill="white"/>
<g id="Group 24">
<path id="Path 58" d="M60.4568 15.8564C60.4568 17.433 59.8263 18.7479 59.0573 19.7636C58.9572 16.9031 56.2581 9.32849 56.2581 9.32849C56.2581 9.32849 53.5513 16.9031 53.4514 19.7636C52.6824 18.7486 52.0519 17.4336 52.0519 15.8564C52.0519 11.7655 56.2581 0 56.2581 0C56.2581 0 60.4568 11.7655 60.4568 15.8564Z" fill="white"/>
<g id="Clip path group_4">
<mask id="mask3_17_634" style="mask-type:luminance" maskUnits="userSpaceOnUse" x="52" y="0" width="9" height="20">
<g id="clip-path-10">
<path id="Path 60" d="M60.4568 15.8564C60.4568 17.433 59.8263 18.7479 59.0573 19.7636C58.9572 16.9031 56.2581 9.32849 56.2581 9.32849C56.2581 9.32849 53.5513 16.9031 53.4514 19.7636C52.6824 18.7486 52.0519 17.4336 52.0519 15.8564C52.0519 11.7655 56.2581 0 56.2581 0C56.2581 0 60.4568 11.7655 60.4568 15.8564Z" fill="white"/>
</g>
</mask>
<g mask="url(#mask3_17_634)">
<g id="Group 23">
<path id="Path 59" d="M51.7562 15.3469L56.205 4.54529L59.6271 13.2569C59.6271 13.2569 57.588 16.9869 55.934 17.341C54.28 17.695 51.7562 15.3469 51.7562 15.3469Z" fill="white"/>
</g>
</g>
</g>
</g>
<path id="Path 61" d="M59.065 19.9244C59.065 22.662 56.2581 24.2 56.2581 24.2C56.2581 24.2 53.4437 22.6613 53.4437 19.9244C53.4424 19.8705 53.445 19.8165 53.4513 19.7629C54.2217 20.7607 55.174 21.6035 56.2581 22.2468C57.3406 21.6043 58.2906 20.7613 59.0572 19.7629C59.0637 19.8165 59.0663 19.8705 59.065 19.9244Z" fill="white"/>
<g id="Group 26">
<path id="Path 62" d="M68.8008 28.3798C67.2699 28.7553 65.8426 28.456 64.6735 27.9508C67.4281 27.1729 77.645 21.9813 77.645 21.9813C77.645 21.9813 66.1406 21.922 63.3385 22.5062C64.1412 21.5176 65.2682 20.592 66.7993 20.2167C70.7725 19.2423 91.9313 18.9237 91.9313 18.9237C91.9313 18.9237 72.7742 27.4056 68.8008 28.3798Z" fill="white"/>
<g id="Clip path group_5">
<mask id="mask4_17_634" style="mask-type:luminance" maskUnits="userSpaceOnUse" x="63" y="18" width="29" height="11">
<g id="clip-path-11">
<path id="Path 64" d="M68.8008 28.3798C67.2699 28.7553 65.8426 28.456 64.6735 27.9508C67.4281 27.1729 77.645 21.9813 77.645 21.9813C77.645 21.9813 66.1406 21.922 63.3385 22.5062C64.1412 21.5176 65.2682 20.592 66.7993 20.2167C70.7725 19.2423 91.9313 18.9237 91.9313 18.9237C91.9313 18.9237 72.7742 27.4056 68.8008 28.3798Z" fill="white"/>
</g>
</mask>
<g mask="url(#mask4_17_634)">
<g id="Group 25">
<path id="Path 63" d="M73.8586 27.5382L83.2586 20.6024L73.977 19.3955C73.977 19.3955 70.853 22.2783 70.9107 23.969C70.9684 25.6596 73.8586 27.5382 73.8586 27.5382Z" fill="white"/>
</g>
</g>
</g>
</g>
<path id="Path 65" d="M64.5187 27.9969C61.8597 28.6488 59.6976 26.2889 59.6976 26.2889C59.6976 26.2889 60.5211 23.1893 63.1799 22.5374C63.232 22.5233 63.285 22.5128 63.3386 22.5062C62.553 23.4921 61.9613 24.6178 61.5947 25.8239C62.4764 26.722 63.5214 27.4437 64.6736 27.9503C64.6231 27.9696 64.5714 27.9851 64.5187 27.9969Z" fill="white"/>
<path id="Path 66" d="M56.6755 28.5516L56.6274 28.5995L56.5793 28.5516H56.6755Z" fill="white"/>
<path id="Path 67" d="M56.6755 28.5516L56.6274 28.5995L56.5793 28.5516H56.6755Z" fill="white"/>
<g id="Group 28">
<path id="Path 68" d="M44.3581 28.4403C45.8892 28.8158 47.3165 28.5166 48.4854 28.0116C45.731 27.2336 35.5139 22.0421 35.5139 22.0421C35.5139 22.0421 47.0185 21.9826 49.8204 22.5669C49.0177 21.5782 47.8909 20.6526 46.3598 20.2773C42.3866 19.3031 21.2278 18.9843 21.2278 18.9843C21.2278 18.9843 40.3849 27.467 44.3581 28.4403Z" fill="white"/>
<g id="Clip path group_6">
<mask id="mask5_17_634" style="mask-type:luminance" maskUnits="userSpaceOnUse" x="21" y="18" width="29" height="11">
<g id="clip-path-12">
<path id="Path 70" d="M44.3581 28.4403C45.8892 28.8158 47.3165 28.5166 48.4854 28.0116C45.731 27.2336 35.5139 22.0421 35.5139 22.0421C35.5139 22.0421 47.0185 21.9826 49.8204 22.5669C49.0177 21.5782 47.8909 20.6526 46.3598 20.2773C42.3866 19.3031 21.2278 18.9843 21.2278 18.9843C21.2278 18.9843 40.3849 27.467 44.3581 28.4403Z" fill="white"/>
</g>
</mask>
<g mask="url(#mask5_17_634)">
<g id="Group 27">
<path id="Path 69" d="M38.7497 27.5431L29.3496 20.6073L38.6312 19.4004C38.6312 19.4004 41.7553 22.2832 41.6975 23.9737C41.6398 25.6642 38.7497 27.5431 38.7497 27.5431Z" fill="white"/>
</g>
</g>
</g>
</g>
<path id="Path 71" d="M48.6404 28.0582C51.2992 28.7101 53.4615 26.3503 53.4615 26.3503C53.4615 26.3503 52.638 23.2506 49.9791 22.5987C49.927 22.5846 49.8739 22.5743 49.8204 22.5677C50.606 23.5535 51.1978 24.6792 51.5644 25.8852C50.6826 26.7833 49.6375 27.505 48.4854 28.0117C48.5359 28.0308 48.5877 28.0464 48.6404 28.0582Z" fill="white"/>
</g>
</svg>
