<svg width="77" height="77" viewBox="0 0 77 77" fill="none" xmlns="http://www.w3.org/2000/svg">
<g id="play 1" clip-path="url(#clip0_282_1176)">
<path id="Vector" d="M38.5 75.8721C59.14 75.8721 75.8721 59.14 75.8721 38.5C75.8721 17.86 59.14 1.12793 38.5 1.12793C17.86 1.12793 1.12793 17.86 1.12793 38.5C1.12793 59.14 17.86 75.8721 38.5 75.8721Z" fill="#EC1C24"/>
<path id="Vector_2" d="M54.5363 36.6773L30.4971 23.565C29.1135 22.8104 27.4268 23.8118 27.4268 25.3878V51.6124C27.4268 53.1884 29.1137 54.1898 30.4971 53.4352L54.5363 40.3228C55.979 39.5358 55.979 37.4641 54.5363 36.6773Z" fill="white"/>
<path id="Vector_3" d="M45.0417 66.0537C27.0163 64.5759 12.424 49.9837 10.9463 31.9583C10.6545 28.4004 10.8628 24.937 11.5076 21.6298C12.1141 18.5185 7.83577 16.9047 6.2329 19.6394C2.53239 25.9529 0.632355 33.4491 1.23948 41.4254C2.62458 59.6222 17.3779 74.3755 35.5747 75.7606C43.551 76.3678 51.0472 74.4677 57.3608 70.7672C60.0955 69.1643 58.4816 64.8859 55.3703 65.4926C52.0629 66.1373 48.5996 66.3454 45.0417 66.0537Z" fill="#EC1C24"/>
<path id="Vector_4" d="M32.9056 41.5361V24.8787L30.4971 23.565C29.1135 22.8104 27.4268 23.8118 27.4268 25.3878V51.6124C27.4268 53.1884 29.1137 54.1898 30.4971 53.4352L54.5363 40.3228C55.2603 39.9278 55.62 39.2094 55.6173 38.4922L36.4631 44.1896C34.6884 44.7175 32.9056 43.3879 32.9056 41.5361Z" fill="#E4EAF8"/>
<path id="Vector_5" d="M65.7237 11.2764C58.4519 4.00475 48.7837 0 38.5 0C28.2163 0 18.5481 4.00475 11.2763 11.2764C4.00475 18.5481 0 28.2163 0 38.5C0 48.7837 4.00475 58.4519 11.2763 65.7236C18.5481 72.9952 28.2163 77 38.5 77C48.7837 77 58.4519 72.9952 65.7237 65.7236C72.9952 58.4519 77 48.7837 77 38.5C77 28.2163 72.9952 18.5481 65.7237 11.2764ZM64.1285 64.1285C57.2829 70.9741 48.1812 74.7441 38.5 74.7441C28.8188 74.7441 19.7171 70.9741 12.8715 64.1285C6.02585 57.2829 2.25586 48.1812 2.25586 38.5C2.25586 28.8188 6.02585 19.7171 12.8715 12.8715C19.7171 6.02585 28.8188 2.25586 38.5 2.25586C48.1812 2.25586 57.2829 6.02585 64.1285 12.8715C70.9741 19.7171 74.7441 28.8188 74.7441 38.5C74.7441 48.1812 70.9741 57.2829 64.1285 64.1285Z" fill="white"/>
<path id="Vector_6" d="M56.1903 36.2947L53.5407 34.8494C52.9938 34.551 52.3087 34.7527 52.0105 35.2995C51.7121 35.8463 51.9137 36.5315 52.4606 36.8299L55.1102 38.2752C55.2206 38.3353 55.2438 38.4307 55.2438 38.5001C55.2438 38.5696 55.2206 38.6648 55.1102 38.7251L28.9337 53.0032C28.8278 53.0608 28.7374 53.0325 28.6801 52.9985C28.623 52.9646 28.5547 52.8988 28.5547 52.7782V24.2219C28.5547 24.1013 28.623 24.0356 28.6801 24.0016C28.7374 23.9676 28.8279 23.9393 28.9337 23.9969L47.6459 34.2036C48.193 34.502 48.8779 34.3003 49.1761 33.7535C49.4745 33.2067 49.273 32.5215 48.726 32.2231L30.0138 22.0164C29.2275 21.5875 28.2984 21.6045 27.5286 22.0617C26.7584 22.5189 26.2988 23.3263 26.2988 24.2219V52.7781C26.2988 53.6736 26.7586 54.4811 27.5286 54.9383C27.9271 55.1748 28.3682 55.2935 28.8101 55.2935C29.222 55.2935 29.6346 55.1903 30.0138 54.9834L56.1903 40.7053C56.9979 40.2648 57.4996 39.4198 57.4996 38.5C57.4996 37.5802 56.9979 36.7352 56.1903 36.2947Z" fill="white"/>
<path id="Vector_7" d="M45.1773 8.52024C46.0744 8.71906 46.9732 8.96164 47.8484 9.24106C47.9626 9.27746 48.0781 9.29475 48.1918 9.29475C48.6694 9.29475 49.1129 8.98886 49.266 8.50956C49.4555 7.91612 49.1281 7.28147 48.5345 7.09198C47.5946 6.79195 46.6292 6.53148 45.6657 6.31777C45.0575 6.18287 44.4552 6.56667 44.3204 7.17485C44.1857 7.78303 44.5692 8.38549 45.1773 8.52024Z" fill="white"/>
<path id="Vector_8" d="M26.4843 66.7679C19.6387 63.8542 14.0829 58.5577 10.8404 51.8541C10.5691 51.2933 9.89455 51.0586 9.33375 51.3298C8.77294 51.6011 8.53833 52.2756 8.80963 52.8364C12.29 60.0314 18.2531 65.7162 25.6007 68.8435C25.7448 68.9049 25.8946 68.9339 26.042 68.9339C26.4807 68.9339 26.8977 68.6765 27.0803 68.2474C27.3244 67.6743 27.0574 67.0118 26.4843 66.7679Z" fill="white"/>
<path id="Vector_9" d="M68.1918 24.1661C65.2163 18.0137 60.2708 12.821 54.2661 9.54471C53.7192 9.24618 53.0341 9.44771 52.7357 9.99453C52.4373 10.5413 52.6387 11.2265 53.1856 11.5249C58.7806 14.5775 63.3888 19.4157 66.1609 25.1482C66.3557 25.5508 66.7581 25.7852 67.1771 25.7852C67.3418 25.7852 67.5092 25.749 67.6674 25.6725C68.2282 25.4014 68.4629 24.7269 68.1918 24.1661Z" fill="white"/>
</g>
<defs>
<clipPath id="clip0_282_1176">
<rect width="77" height="77" fill="white"/>
</clipPath>
</defs>
</svg>
